<?xml version="1.0" encoding="UTF-8" standalone="no"?>
<!-- Created with Inkscape (http://www.inkscape.org/) -->

<svg
   xmlns:dc="http://purl.org/dc/elements/1.1/"
   xmlns:cc="http://creativecommons.org/ns#"
   xmlns:rdf="http://www.w3.org/1999/02/22-rdf-syntax-ns#"
   xmlns:svg="http://www.w3.org/2000/svg"
   xmlns="http://www.w3.org/2000/svg"
   xmlns:sodipodi="http://sodipodi.sourceforge.net/DTD/sodipodi-0.dtd"
   xmlns:inkscape="http://www.inkscape.org/namespaces/inkscape"
   sodipodi:docname="sign.svg"
   inkscape:version="0.92.1 r15371"
   version="1.1"
   id="svg4240"
   viewBox="0 0 4535.4331 3118.1103"
   height="880mm"
   width="1280mm">
  <sodipodi:namedview
     inkscape:snap-center="true"
     inkscape:measure-end="4849.38,495.959"
     inkscape:measure-start="5437.18,2360.4"
     inkscape:snap-midpoints="true"
     inkscape:snap-intersection-paths="true"
     inkscape:snap-bbox="true"
     inkscape:window-maximized="1"
     inkscape:window-y="0"
     inkscape:window-x="1280"
     inkscape:window-height="995"
     inkscape:window-width="1920"
     showgrid="false"
     inkscape:current-layer="text4534"
     inkscape:document-units="mm"
     inkscape:cy="1805.7045"
     inkscape:cx="2998.0861"
     inkscape:zoom="0.2177599"
     inkscape:pageshadow="2"
     inkscape:pageopacity="0.0"
     borderopacity="1.0"
     bordercolor="#666666"
     pagecolor="#ffffff"
     id="base"
     inkscape:snap-perpendicular="false"
     showguides="true"
     inkscape:guide-bbox="true"
     inkscape:object-paths="true"
     inkscape:snap-global="false" />
  <title
     id="title4788">Découpage Laser</title>
  <defs
     id="defs4242" />
  <metadata
     id="metadata4245">
    <rdf:RDF>
      <cc:Work
         rdf:about="">
        <dc:format>image/svg+xml</dc:format>
        <dc:type
           rdf:resource="http://purl.org/dc/dcmitype/StillImage" />
        <dc:title>Découpage Laser</dc:title>
        <dc:creator>
          <cc:Agent>
            <dc:title />
          </cc:Agent>
        </dc:creator>
        <dc:publisher>
          <cc:Agent>
            <dc:title>Fablab Lannion</dc:title>
          </cc:Agent>
        </dc:publisher>
        <dc:source>http://fablab-lannion.org:8080/wiki/index.php?title=Chaine_logiciel_pour_d%C3%A9coupeuse_laser#Inkscape</dc:source>
        <dc:contributor>
          <cc:Agent>
            <dc:title>JJL</dc:title>
          </cc:Agent>
        </dc:contributor>
        <cc:license
           rdf:resource="http://creativecommons.org/licenses/by-sa/4.0/" />
      </cc:Work>
      <cc:License
         rdf:about="http://creativecommons.org/licenses/by-sa/4.0/">
        <cc:permits
           rdf:resource="http://creativecommons.org/ns#Reproduction" />
        <cc:permits
           rdf:resource="http://creativecommons.org/ns#Distribution" />
        <cc:requires
           rdf:resource="http://creativecommons.org/ns#Notice" />
        <cc:requires
           rdf:resource="http://creativecommons.org/ns#Attribution" />
        <cc:permits
           rdf:resource="http://creativecommons.org/ns#DerivativeWorks" />
        <cc:requires
           rdf:resource="http://creativecommons.org/ns#ShareAlike" />
      </cc:License>
    </rdf:RDF>
  </metadata>
  <g
     inkscape:label="cut"
     inkscape:groupmode="layer"
     id="layer1"
     transform="translate(0,2065.7481)">
    <path
       id="path9330"
       style="opacity:1;fill:none;fill-opacity:1;fill-rule:nonzero;stroke:#000000;stroke-width:1.40625012;stroke-linecap:round;stroke-linejoin:round;stroke-miterlimit:4;stroke-dasharray:none;stroke-dashoffset:0;stroke-opacity:1"
       d="m 3168.4209,320.89432 h 190.0188 v 11.3386 h 190.0187 v -11.3386 h 190.0188 v 11.3386 h 190.0188 v -11.3386 h 190.0187 v 11.3386 h 190.0188 v -11.3386 h 190.0187 m 0,248.0315 v -248.0315 m -1330.1313,248.0315 v -248.0315 m 0,248.0315 h 190.0188 v -11.3386 h 190.0187 v 11.3386 h 190.0188 v -11.3386 h 190.0188 v 11.3386 h 190.0187 v -11.3386 h 190.0188 v 11.3386 h 190.0187"
       inkscape:connector-curvature="0" />
    <path
       id="path9340"
       style="opacity:1;fill:none;fill-opacity:1;fill-rule:nonzero;stroke:#000000;stroke-width:1.40625012;stroke-linecap:round;stroke-linejoin:round;stroke-miterlimit:4;stroke-dasharray:none;stroke-dashoffset:0;stroke-opacity:1"
       d="m 1444.2526,328.56842 h 156.9909 v 11.3386 h 156.9908 v -11.3386 h 156.9909 v 11.3386 h 156.9908 v -11.3386 h 156.9909 m 0,248.0315 v -248.0315 m -784.9545,248.0316 v -248.0315 m 2e-4,248.0314 h 156.9909 v -11.3386 h 156.9908 v 11.3386 h 156.9909 v -11.3386 h 156.9908 v 11.3386 h 156.9909"
       inkscape:connector-curvature="0" />
    <path
       id="path9442"
       style="opacity:1;fill:none;fill-opacity:1;fill-rule:nonzero;stroke:#000000;stroke-width:1.40625012;stroke-linecap:round;stroke-linejoin:round;stroke-miterlimit:4;stroke-dasharray:none;stroke-dashoffset:0;stroke-opacity:1"
       d="m 1622.9683,-1359.6806 -54.1683,109.5378 -10.1637,-5.0262 -54.1683,109.5378 10.1637,5.0261 -54.1683,109.5377 -10.1637,-5.0261 -54.1683,109.53782 10.1637,5.0261 -54.1683,109.5378 h 156.9909 v 11.3386 h 156.9908 v -11.3386 h 156.9909 v 11.3386 h 156.9908 v -11.3386 h 156.9909 l 26.5635,-53.716 10.1637,5.0263 26.5635,-53.7158 -10.1638,-5.0262 26.5635,-53.7159 h 190.0188 v 11.3386 h 190.0187 v -11.3386 h 190.0188 v 11.3386 h 190.0187 v -11.3386 h 190.0188 v 11.3386 h 190.0187 v -11.3386 h 190.0188 v 53.7159 h -11.3386 v 53.7157 h 11.3386 v 53.716 l 102.9679,-78.2414 6.86,9.0281 102.9679,-78.2413 -6.86,-9.028 102.9679,-78.24122 6.86,9.0279 102.9679,-78.2412 -6.86,-9.028 102.9679,-78.2412 6.86,9.028 102.9679,-78.2413 -6.86,-9.0279 102.9679,-78.2413 m -2644.7098,0 -54.1683,-109.5377 -10.1637,5.0261 -54.1683,-109.5377 10.1637,-5.0262 -54.1683,-109.5377 -10.1637,5.0261 -54.1683,-109.5377 10.1637,-5.0262 -54.1683,-109.5377 h 156.9909 v -11.3386 h 156.9908 v 11.3386 h 156.9909 v -11.3386 h 156.9908 v 11.3386 h 156.9909 l 26.5635,53.7158 10.1637,-5.0261 26.5635,53.7158 -10.1638,5.0262 26.5635,53.7158 h 190.0188 v -11.3386 h 190.0187 v 11.3386 h 190.0188 v -11.3386 h 190.0187 v 11.3386 h 190.0188 v -11.3386 h 190.0187 v 11.3386 h 190.0188 v -53.7158 h -11.3386 v -53.7159 h 11.3386 v -53.7158 l 102.9679,78.2412 6.86,-9.0279 102.9679,78.2412 -6.86,9.028 102.9679,78.2412 6.86,-9.0279 102.9679,78.2412 -6.86,9.028 102.9679,78.2412 6.86,-9.0279 102.9679,78.2412 -6.86,9.028 102.9679,78.2412"
       inkscape:connector-curvature="0" />
    <path
       d="m 2203.1713,-2040.3732 h 190.0188 v 11.3386 h 190.0187 v -11.3386 h 190.0188 v 11.3386 h 190.0188 v -11.3386 h 190.0187 v 11.3386 h 190.0188 v -11.3386 h 190.0187 m 0,248.0315 v -248.0315 m -1330.1313,248.0315 v -248.0315 m 0,248.0315 h 190.0188 v -11.3386 h 190.0187 v 11.3386 h 190.0188 v -11.3386 h 190.0188 v 11.3386 h 190.0187 v -11.3386 h 190.0188 v 11.3386 h 190.0187"
       style="opacity:1;fill:none;fill-opacity:1;fill-rule:nonzero;stroke:#000000;stroke-width:1.40625012;stroke-linecap:round;stroke-linejoin:round;stroke-miterlimit:4;stroke-dasharray:none;stroke-dashoffset:0;stroke-opacity:1"
       id="path9445"
       inkscape:connector-curvature="0" />
    <path
       d="m 3862.8798,-2038.3812 124.8301,95.2028 -6.876,9.0158 124.8301,95.2027 6.8761,-9.0158 124.83,95.2028 -6.8759,9.0158 124.83,95.2028 6.876,-9.0158 124.8305,95.2031 m -150.4118,197.2204 150.4118,-197.2204 m -774.563,-278.7939 150.4118,-197.2203 m -150.4116,197.2204 124.8302,95.2028 6.8759,-9.0158 124.8301,95.2028 -6.8761,9.0158 124.8302,95.2027 6.876,-9.0157 124.8302,95.2026 -6.8761,9.0159 124.8306,95.2031"
       style="opacity:1;fill:none;fill-opacity:1;fill-rule:nonzero;stroke:#000000;stroke-width:1.40625012;stroke-linecap:round;stroke-linejoin:round;stroke-miterlimit:4;stroke-dasharray:none;stroke-dashoffset:0;stroke-opacity:1"
       id="path9447"
       inkscape:connector-curvature="0" />
    <path
       inkscape:connector-curvature="0"
       d="m 1402.5921,-11.384185 h 53.7158 v 11.33850009 h 53.7158 V -11.384185 h 53.7159 m -161.1475,0 V 236.64722 M 1563.7396,-11.384185 V 236.64722 m -161.1475,0 h 53.7158 v -11.3386 h 53.7158 v 11.3386 h 53.7159"
       style="opacity:1;fill:none;fill-opacity:1;fill-rule:nonzero;stroke:#000000;stroke-width:1.40625012;stroke-linecap:round;stroke-linejoin:round;stroke-miterlimit:4;stroke-dasharray:none;stroke-dashoffset:0;stroke-opacity:1"
       id="path9449" />
    <path
       d="m 4406.0191,-1341.7226 -106.2523,60.3589 5.6005,9.8588 -106.2525,60.3586 -5.6004,-9.8588 -106.2524,60.3586 5.6007,9.8591 -106.2525,60.3586 -5.6006,-9.8588 -106.2523,60.3587 m 531.2617,-301.7935 122.4345,215.7068 m -653.8037,85.8973 122.4346,215.70672 m 531.3691,-301.60402 -106.2738,60.3207 -5.5971,-9.8607 -106.2739,60.3207 5.5971,9.861 -106.2738,60.32072 -5.5969,-9.8609 -106.2737,60.3209 5.5969,9.8606 -106.2739,60.321"
       style="opacity:1;fill:none;fill-opacity:1;fill-rule:nonzero;stroke:#000000;stroke-width:1.40625012;stroke-linecap:round;stroke-linejoin:round;stroke-miterlimit:4;stroke-dasharray:none;stroke-dashoffset:0;stroke-opacity:1"
       id="path9451"
       inkscape:connector-curvature="0" />
    <path
       d="m 1582.7379,-486.49708 -59.9247,0.1893 -0.035,-11.3385 -59.9246,0.1893 0.035,11.3386 -59.9247,0.1892 m 178.9908,-248.5981 0.7833,248.0302 m -180.5574,-247.4625 0.7833,248.0303 m 178.9908,-248.5979 -59.9246,0.1892 0.035,11.3385 -59.9246,0.1893 -0.035,-11.3386 -59.9246,0.1893"
       style="opacity:1;fill:none;fill-opacity:1;fill-rule:nonzero;stroke:#000000;stroke-width:1.40625012;stroke-linecap:round;stroke-linejoin:round;stroke-miterlimit:4;stroke-dasharray:none;stroke-dashoffset:0;stroke-opacity:1"
       id="path9453"
       inkscape:connector-curvature="0" />
    <path
       id="path9457"
       style="opacity:1;fill:none;fill-opacity:1;fill-rule:nonzero;stroke:#000000;stroke-width:1.40625012;stroke-linecap:round;stroke-linejoin:round;stroke-miterlimit:4;stroke-dasharray:none;stroke-dashoffset:0;stroke-opacity:1"
       d="m 1374.3561,-1237.2778 h 53.7157 v -11.3386 h 53.7158 v 11.3386 h 53.716 m -161.1475,0 v -248.0314 m 161.1475,248.0314 v -248.0314 m -161.1475,0 h 53.7157 v 11.3386 h 53.7158 v -11.3386 h 53.716"
       inkscape:connector-curvature="0" />
    <path
       inkscape:connector-curvature="0"
       id="path9459"
       style="opacity:1;fill:none;fill-opacity:1;fill-rule:nonzero;stroke:#000000;stroke-width:1.40625012;stroke-linecap:round;stroke-linejoin:round;stroke-miterlimit:4;stroke-dasharray:none;stroke-dashoffset:0;stroke-opacity:1"
       d="m 2788.8543,-934.93008 122.1991,0.3767 -0.035,11.3386 122.199,0.3767 0.035,-11.3386 122.1991,0.3768 -0.035,11.3386 122.199,0.3767 0.035,-11.3385 122.199,0.3768 m -610.9949,-1.8837 -0.6762,248.0306 m 611.6716,-246.3648 -0.6763,248.0307 m -610.9953,-1.6659 122.199,0.3331 0.031,-11.3386 122.1991,0.3333 -0.031,11.3386 122.1992,0.3331 0.031,-11.3386 122.199,0.3333 -0.031,11.3383 122.199,0.3334" />
    <path
       inkscape:connector-curvature="0"
       id="path9461"
       style="opacity:1;fill:none;fill-opacity:1;fill-rule:nonzero;stroke:#000000;stroke-width:1.40625012;stroke-linecap:round;stroke-linejoin:round;stroke-miterlimit:4;stroke-dasharray:none;stroke-dashoffset:0;stroke-opacity:1"
       d="m 2496.5459,-909.40528 -0.3289,59.9241 11.3384,0.062 -0.3289,59.9241 -11.3385,-0.062 -0.3287,59.9242 m 249.0142,-178.4114 -248.0277,-1.3609 m 247.0413,181.1332 -248.0277,-1.3609 m 249.0141,-178.4114 -0.3288,59.924 -11.3383,-0.062 -0.3289,59.9241 11.3385,0.062 -0.3289,59.924" />
    <path
       d="m 3996.8446,-255.82468 54.1683,109.5378 10.1637,-5.0262 54.1683,109.537795 -10.1637,5.0261 54.1683,109.537701 10.1637,-5.0261 54.1683,109.537804 -10.1637,5.0261 54.1683,109.5378 h -156.9909 v 11.3386 h -156.9908 v -11.3386 h -156.9909 v 11.3386 h -156.9908 v -11.3386 h -156.9909 l -26.5635,-53.716 -10.1637,5.0263 -26.5635,-53.7158 10.1638,-5.0262 -26.5635,-53.7159 h -190.0188 v 11.3386 h -190.0187 v -11.3386 h -190.0188 v 11.3386 h -190.0187 v -11.3386 h -190.0188 v 11.3386 h -190.0187 v -11.3386 h -190.0188 v 53.7159 h 11.3386 v 53.7157 h -11.3386 v 53.716 l -102.9679,-78.2414 -6.86,9.0281 -102.9679,-78.2413 6.86,-9.028 -102.9679,-78.241205 -6.86,9.027901 -102.9679,-78.241201 6.86,-9.028 -102.9679,-78.2412 -6.86,9.028 -102.9679,-78.241295 6.86,-9.0279 -102.9679,-78.2413 m 2644.7098,0 54.1683,-109.5377 10.1637,5.0261 54.1683,-109.5377 -10.1637,-5.0262 54.1683,-109.5377 10.1637,5.0261 54.1683,-109.5377 -10.1637,-5.0262 54.1683,-109.5377 h -156.9909 v -11.3386 h -156.9908 v 11.3386 h -156.9909 v -11.3386 h -156.9908 v 11.3386 h -156.9909 l -26.5635,53.7158 -10.1637,-5.0261 -26.5635,53.7158 10.1638,5.0262 -26.5635,53.7158 h -190.0188 v -11.3386 h -190.0187 v 11.3386 h -190.0188 v -11.3386 h -190.0187 v 11.3386 h -190.0188 v -11.3386 h -190.0187 v 11.3386 h -190.0188 v -53.7158 h 11.3386 v -53.7159 h -11.3386 v -53.7158 l -102.9679,78.2413 -6.86,-9.028 -102.9679,78.2412 6.86,9.028 -102.9679,78.2412 -6.86,-9.0279 -102.9679,78.2412 6.86,9.028 -102.9679,78.2412 -6.86,-9.0279 -102.9679,78.2412 6.86,9.028 -102.9679,78.2412"
       style="opacity:1;fill:none;fill-opacity:1;fill-rule:nonzero;stroke:#000000;stroke-width:1.40625012;stroke-linecap:round;stroke-linejoin:round;stroke-miterlimit:4;stroke-dasharray:none;stroke-dashoffset:0;stroke-opacity:1"
       id="path9463"
       inkscape:connector-curvature="0" />
    <path
       id="path9475"
       style="opacity:1;fill:none;fill-opacity:1;fill-rule:nonzero;stroke:#000000;stroke-width:1.40625012;stroke-linecap:round;stroke-linejoin:round;stroke-miterlimit:4;stroke-dasharray:none;stroke-dashoffset:0;stroke-opacity:1"
       d="m 2244.2038,422.08092 129.3221,-0.043 v -11.3382 l 129.322,-0.043 v 11.339 l 129.3219,-0.043 v -11.3389 l 129.3213,-0.042 v 11.3389 l 129.321,-0.042 v -11.3391 l 129.322,-0.043 v 11.3385 l 129.3219,-0.043 m -905.4713,-247.7349 0.2205,248.0312 m 905.0302,-248.8371 0.2206,248.0312 m -905.4713,-247.2253 129.3216,-0.1152 0.01,11.3387 129.3217,-0.1151 -0.01,-11.3386 129.3217,-0.115 0.01,11.3386 129.3208,-0.1157 -0.01,-11.3385 129.3218,-0.115 0.01,11.3386 129.3217,-0.115 -0.01,-11.3386 129.3217,-0.1152"
       inkscape:connector-curvature="0" />
    <path
       inkscape:connector-curvature="0"
       d="M 4484.6334,194.56402 V 65.242016 l -11.3383,7e-4 V -64.079185 l 11.3391,3e-4 V -193.40088 l -11.339,-2e-4 v -129.3212 l 11.3389,2e-4 v -129.3211 l -11.339,-3e-4 v -129.322 h 11.3387 v -129.3219 m -248.0074,905.3969 248.0313,-0.1461 m -248.5647,-905.105 248.0312,-0.1459 m -247.4978,905.397 -0.076,-129.321804 11.3388,-0.01 -0.076,-129.321801 -11.3386,0.01 -0.076,-129.321695 11.3386,-0.01 -0.077,-129.3208 -11.3385,0.01 -0.076,-129.3216 11.3385,-0.01 -0.076,-129.3217 -11.3385,0.01 -0.076,-129.3218"
       style="opacity:1;fill:none;fill-opacity:1;fill-rule:nonzero;stroke:#000000;stroke-width:1.40625012;stroke-linecap:round;stroke-linejoin:round;stroke-miterlimit:4;stroke-dasharray:none;stroke-dashoffset:0;stroke-opacity:1"
       id="path4528" />
  </g>
  <g
     inkscape:groupmode="layer"
     id="layer3"
     inkscape:label="text"
     style="display:inline">
    <g
       aria-label="PHOTOS"
       transform="translate(0,2065.7481)"
       style="font-style:normal;font-variant:normal;font-weight:normal;font-stretch:normal;font-size:7211.78857422px;line-height:7512.27978516px;font-family:'DejaVu Sans';-inkscape-font-specification:'DejaVu Sans';letter-spacing:0px;word-spacing:0px;fill:none;fill-opacity:1;stroke:#000000;stroke-width:0.93749994px;stroke-linecap:butt;stroke-linejoin:miter;stroke-opacity:1"
       id="text4534">
      <path
         d="m 2004.9074,-1602.2776 q 1.0921,3.5495 0,7.099 l 2.1843,33.038 q -3.2765,16.9286 -2.1843,30.5806 20.4781,1.0922 30.5806,18.8399 v 25.6658 q 3.0034,25.3929 2.1843,42.3214 -5.7338,28.3963 -32.7649,37.6797 v 23.4816 q -1.0922,31.3997 2.1843,51.8778 120.6842,-2.4574 113.0391,-126.9642 7.6451,-134.6093 -105.94,-152.903 z m -126.9642,-6.8261 q -9.0103,36.8606 -4.9147,63.3456 v 155.3604 q -0.5461,27.5772 2.4573,46.9631 l -2.4573,25.9389 2.4573,13.9251 v 9.5565 91.7418 q -1.0921,55.7004 2.4574,89.2845 49.9666,3.0034 82.1854,-4.6417 l 2.4574,-16.6555 v -18.8399 -18.5668 -18.8398 -7.0991 -46.9631 -9.5564 -42.3214 l -2.4574,-16.3825 v -14.1981 -16.3825 l -2.1843,-4.6417 v -7.0991 -9.5564 -42.3214 -9.2834 -11.7408 -40.137 l -2.4574,-6.826 2.4574,-4.9148 q 0,-32.2188 -4.9148,-54.0621 8.1913,-38.7719 0,-70.4447 l -7.099,-4.6417 h -9.2834 -7.0991 -9.2834 z"
         style="font-style:normal;font-variant:normal;font-weight:normal;font-stretch:normal;font-size:559.18835449px;font-family:'Boston Traffic';-inkscape-font-specification:'Boston Traffic, Normal';font-variant-ligatures:normal;font-variant-caps:normal;font-variant-numeric:normal;font-feature-settings:normal;text-align:start;writing-mode:lr-tb;text-anchor:start;fill:none;stroke:#000000;stroke-width:0.93749994px"
         id="path4547" />
      <path
         d="m 2230.4394,-1614.2914 q -29.2154,1.0921 -49.1474,11.7407 v 229.0816 7.0991 25.6658 q -1.6383,31.3998 2.4574,53.7891 -4.6417,25.1198 0,42.0484 l -2.4574,7.0991 2.4574,27.8502 q -7.6452,55.7004 2.1843,93.6531 l 21.0242,4.6417 q 3.5495,-2.4574 7.099,-2.4574 7.6452,-1.0922 14.1982,0 22.1163,-2.7304 39.5909,2.4574 l 7.0991,-4.6417 v -7.0991 l 2.1843,-7.0991 q -2.7304,-35.4953 0,-58.4308 -4.0956,-18.5668 -2.1843,-32.4919 v -7.099 -11.7408 -7.0991 -9.2834 -7.0991 -46.69 q 17.4746,1.0922 21.0242,-13.9251 v -18.8398 -6.8261 -30.5806 q -5.1878,-6.826 -7.0991,-13.9251 -7.0991,0.5461 -13.9251,-2.4574 l 2.1843,-16.3824 q 1.3652,-18.5668 -2.1843,-32.4919 0.5461,-6.0069 0,-9.5565 l 2.1843,-6.826 q -4.0956,-16.9286 0,-30.5806 -4.6417,-22.6624 -2.1843,-39.591 v -7.0991 -7.099 -9.2834 -7.0991 l -2.4574,-46.69 q -25.6658,-4.6417 -42.0483,-4.6417 z m 131.0598,4.6417 q -7.0991,13.379 -9.5565,23.4815 4.6417,28.1232 0,51.3317 v 23.4816 l 2.4574,4.6417 v 7.0991 l -2.4574,37.4066 q 3.0035,10.9216 0,18.5668 7.6452,26.212 4.6417,46.69 -16.1094,2.4574 -21.0241,11.7408 v 32.765 q 2.4573,17.4746 0,30.3075 8.1912,7.6452 18.8398,7.0991 2.1843,26.212 0,44.5057 l 2.1843,109.7626 q -1.0921,25.6658 2.4574,44.5057 h 7.0991 9.2834 39.864 6.826 28.1233 v -7.0991 -7.0991 -30.3075 -9.2834 -39.864 -6.8261 -28.1232 -7.0991 q -3.0035,-21.5702 -2.4574,-37.4066 l 2.4574,-13.9251 -2.4574,-14.1982 v -13.9251 l 2.4574,-13.9251 v -7.099 l -2.4574,-4.6417 2.4574,-9.2834 -2.4574,-4.6417 2.4574,-37.4067 -2.4574,-9.5564 2.4574,-16.3825 q -4.0957,-26.758 -2.4574,-46.69 l 2.4574,-7.0991 -2.4574,-18.5668 2.4574,-11.7408 q -5.7339,-55.4273 0,-91.1957 z"
         style="font-style:normal;font-variant:normal;font-weight:normal;font-stretch:normal;font-size:559.18835449px;font-family:'Boston Traffic';-inkscape-font-specification:'Boston Traffic, Normal';font-variant-ligatures:normal;font-variant-caps:normal;font-variant-numeric:normal;font-feature-settings:normal;text-align:start;writing-mode:lr-tb;text-anchor:start;fill:none;stroke:#000000;stroke-width:0.93749994px"
         id="path4549" />
      <path
         d="m 2597.1337,-1606.1002 q -47.5091,16.9285 -74.2672,48.8744 l -6.826,16.1094 -2.4574,6.826 q -3.0034,24.5737 -6.826,39.591 v 16.1094 l -2.4574,7.0991 -2.4573,7.0991 v 55.7004 q -3.8226,40.9561 0,69.3524 l -2.1844,7.0991 q 3.5496,8.7373 2.1844,18.5668 0,21.5703 4.9147,37.1336 v 7.0991 l 2.1843,32.2188 q 5.1878,13.3791 4.6417,23.4816 l 2.4574,13.652 q 10.9216,28.6694 13.6521,46.417 l 4.9147,-2.1843 q 31.1267,47.5092 83.5506,41.7753 l 2.1843,-6.826 q -3.0034,-23.4816 0,-39.591 -1.0921,-13.379 0,-23.2085 l -4.6417,-13.9251 q -16.9285,-6.2799 -23.2085,-18.5668 -3.0034,-22.1163 -2.1843,-37.1336 1.0922,-17.4746 -2.4574,-30.3076 l 2.4574,-16.1094 -2.4574,-11.7408 v -11.4677 -39.3179 l -2.4573,-30.3076 q 1.9112,-19.659 0,-32.4919 v -7.0991 l 2.4573,-9.2834 q -2.4573,-3.2765 -2.4573,-6.826 v -46.417 l 4.9147,-6.826 2.1843,-9.2834 q 14.4712,-7.6452 18.5668,-21.0242 6.28,-70.7177 -13.9251,-74.2672 z m 48.8744,18.5668 q 4.3687,27.8502 0,48.8744 2.1843,7.9182 2.1843,16.1094 20.7512,15.5633 27.8502,37.1336 v 157.8178 l -4.6417,11.7408 4.6417,6.826 -2.1843,11.7408 q 3.8226,45.0518 2.1843,71.8098 -9.8295,16.9286 -23.2085,25.3928 v 9.2834 q -5.7338,47.2362 11.7408,81.3663 52.1509,-16.3825 78.6359,-57.8847 l 4.9147,-23.4816 4.3687,-13.652 q 0,-24.5737 7.099,-42.0484 v -6.826 -13.9251 -7.0991 -9.2834 -6.826 q 5.1878,-41.7753 2.1844,-67.4412 l 2.4573,-9.2834 -2.4573,-9.2834 v -9.2834 -9.2834 q -4.3687,-18.5668 -2.1844,-32.2188 v -9.2834 l -2.1843,-9.2834 q -6.0069,-22.1164 -4.9147,-39.591 l -2.1844,-6.826 -2.1843,-4.9148 -4.9147,-37.1336 q -9.2834,-9.8295 -11.4678,-20.7511 -36.0414,-38.2258 -78.9089,-46.417 z"
         style="font-style:normal;font-variant:normal;font-weight:normal;font-stretch:normal;font-size:559.18835449px;font-family:'Boston Traffic';-inkscape-font-specification:'Boston Traffic, Normal';font-variant-ligatures:normal;font-variant-caps:normal;font-variant-numeric:normal;font-feature-settings:normal;text-align:start;writing-mode:lr-tb;text-anchor:start;fill:none;stroke:#000000;stroke-width:0.93749994px"
         id="path4551" />
      <path
         d="m 3053.9316,-1606.6463 h -18.5668 -11.4677 -7.0991 -16.1094 -7.0991 q -25.3928,4.0956 -43.9596,2.4574 h -6.826 -41.7753 -25.3929 -7.099 q -27.3041,-1.0922 -46.417,2.1843 l -2.1844,4.6417 2.1844,11.7408 v 25.3928 q -1.0922,23.2085 4.6417,39.591 l 7.099,2.1843 h 6.8261 7.099 q 17.2016,-1.0922 30.0346,2.4574 13.9251,-4.6417 25.3928,-4.6417 l 4.6417,4.6417 2.4574,30.0345 -2.4574,16.1094 v 116.0425 q 2.4574,21.2973 0,37.1337 v 9.0103 q 3.5495,17.4746 0,30.3076 6.0069,35.7684 2.4574,60.3421 3.0034,2.1843 2.1843,4.6417 v 39.3179 q 3.0035,18.5668 -2.1843,34.6762 l 9.2834,27.8502 q 15.0172,0 25.3928,-4.6417 34.1302,6.8261 57.8847,-4.6417 v -16.1094 -16.3825 -6.826 -9.2834 q -3.2765,-22.1163 -2.1843,-37.1336 v -20.7511 -16.3825 -13.9251 -13.9251 q 0.5461,-21.2972 -2.4574,-37.1336 l 2.4574,-9.0103 v -13.9252 l -2.4574,-9.2834 2.4574,-13.9251 -2.4574,-9.2834 v -9.2834 -25.6658 -11.4678 -30.0345 -9.2834 -39.591 -6.826 -27.8502 l 7.0991,2.4574 9.2834,-2.4574 4.6417,2.4574 h 6.826 7.0991 46.144 q 8.7373,-46.9631 -4.6417,-86.008 l -11.4678,-2.1843 z"
         style="font-style:normal;font-variant:normal;font-weight:normal;font-stretch:normal;font-size:559.18835449px;font-family:'Boston Traffic';-inkscape-font-specification:'Boston Traffic, Normal';font-variant-ligatures:normal;font-variant-caps:normal;font-variant-numeric:normal;font-feature-settings:normal;text-align:start;writing-mode:lr-tb;text-anchor:start;fill:none;stroke:#000000;stroke-width:0.93749994px"
         id="path4553" />
      <path
         d="m 3233.8658,-1606.1002 q -47.5092,16.9285 -74.2672,48.8744 l -6.8261,16.1094 -2.4573,6.826 q -3.0035,24.5737 -6.8261,39.591 v 16.1094 l -2.4573,7.0991 -2.4574,7.0991 v 55.7004 q -3.8226,40.9561 0,69.3524 l -2.1843,7.0991 q 3.5495,8.7373 2.1843,18.5668 0,21.5703 4.9147,37.1336 v 7.0991 l 2.1844,32.2188 q 5.1878,13.3791 4.6417,23.4816 l 2.4573,13.652 q 10.9217,28.6694 13.6521,46.417 l 4.9148,-2.1843 q 31.1266,47.5092 83.5506,41.7753 l 2.1843,-6.826 q -3.0035,-23.4816 0,-39.591 -1.0922,-13.379 0,-23.2085 l -4.6417,-13.9251 q -16.9286,-6.2799 -23.2085,-18.5668 -3.0035,-22.1163 -2.1843,-37.1336 1.0921,-17.4746 -2.4574,-30.3076 l 2.4574,-16.1094 -2.4574,-11.7408 v -11.4677 -39.3179 l -2.4574,-30.3076 q 1.9113,-19.659 0,-32.4919 v -7.0991 l 2.4574,-9.2834 q -2.4574,-3.2765 -2.4574,-6.826 v -46.417 l 4.9148,-6.826 2.1843,-9.2834 q 14.4712,-7.6452 18.5668,-21.0242 6.2799,-70.7177 -13.9251,-74.2672 z m 48.8744,18.5668 q 4.3686,27.8502 0,48.8744 2.1843,7.9182 2.1843,16.1094 20.7511,15.5633 27.8502,37.1336 v 157.8178 l -4.6417,11.7408 4.6417,6.826 -2.1843,11.7408 q 3.8225,45.0518 2.1843,71.8098 -9.8295,16.9286 -23.2085,25.3928 v 9.2834 q -5.7339,47.2362 11.7408,81.3663 52.1508,-16.3825 78.6358,-57.8847 l 4.9148,-23.4816 4.3686,-13.652 q 0,-24.5737 7.0991,-42.0484 v -6.826 -13.9251 -7.0991 -9.2834 -6.826 q 5.1878,-41.7753 2.1843,-67.4412 l 2.4574,-9.2834 -2.4574,-9.2834 v -9.2834 -9.2834 q -4.3686,-18.5668 -2.1843,-32.2188 v -9.2834 l -2.1843,-9.2834 q -6.0069,-22.1164 -4.9148,-39.591 l -2.1843,-6.826 -2.1843,-4.9148 -4.9148,-37.1336 q -9.2834,-9.8295 -11.4677,-20.7511 -36.0414,-38.2258 -78.9089,-46.417 z"
         style="font-style:normal;font-variant:normal;font-weight:normal;font-stretch:normal;font-size:559.18835449px;font-family:'Boston Traffic';-inkscape-font-specification:'Boston Traffic, Normal';font-variant-ligatures:normal;font-variant-caps:normal;font-variant-numeric:normal;font-feature-settings:normal;text-align:start;writing-mode:lr-tb;text-anchor:start;fill:none;stroke:#000000;stroke-width:0.93749994px"
         id="path4555" />
      <path
         d="m 3551.4127,-1611.561 q -3.8226,2.7304 -7.3721,2.4573 -15.2903,17.7477 -33.311,23.7546 -5.4609,7.9182 -12.0139,12.0138 -6.826,15.5634 -14.1981,26.212 -7.0991,13.379 -14.4712,21.5702 -12.5599,134.6093 98.0218,181.5724 l 2.4574,4.9148 7.099,2.1843 2.4574,4.9147 7.0991,2.4574 q 14.7442,9.8295 23.7546,19.1129 l 16.6555,4.6417 q 22.6624,21.0242 31.1267,42.8675 -3.0035,41.5022 -35.7684,57.6117 l 2.4574,35.7684 q -2.7305,36.0414 2.1843,59.796 32.2188,-2.1844 55.1543,-16.9286 72.902,-59.2499 64.4377,-145.5309 -6.553,-10.6486 -7.099,-21.5703 l -4.9148,-9.5564 -21.5702,-43.1405 -4.6417,-2.1844 q -15.2903,-18.0207 -28.6694,-26.485 l -9.5564,-9.5564 q -21.0242,-9.8295 -33.5841,-23.7546 -48.0552,-18.8398 -78.6358,-52.6969 -0.2731,-17.7477 2.4573,-28.6694 7.0991,-11.4677 14.1982,-19.1128 1.6382,-10.9217 4.9147,-19.1129 l -2.4574,-7.0991 2.4574,-4.6417 q -0.8191,-14.4712 2.1843,-26.485 -3.5495,-22.3894 -2.1843,-38.2258 -15.5633,-6.826 -28.6693,-7.099 z m 57.0656,9.5564 q 3.5495,9.0104 2.4574,19.1129 v 54.8813 l 9.5564,14.4712 q 13.379,7.9181 19.1129,19.1128 -0.273,14.4712 2.4574,26.212 l 7.099,4.9147 h 7.0991 l 9.5565,-2.4573 h 9.5564 q 3.8226,-2.7305 7.3721,-2.4574 h 7.0991 q 24.5737,-4.6417 40.6831,-4.9148 6.553,-21.5702 0,-40.41 -32.7649,-88.4654 -119.592,-95.5645 z m -85.7349,332.0181 q -66.076,-0.8191 -62.2534,36.0414 24.0276,92.561 102.6635,124.2338 h 7.3721 l 16.6555,4.6417 q 6.553,-52.4239 0,-86.008 -39.3179,-23.7546 -45.3248,-78.9089 z"
         style="font-style:normal;font-variant:normal;font-weight:normal;font-stretch:normal;font-size:559.18835449px;font-family:'Boston Traffic';-inkscape-font-specification:'Boston Traffic, Normal';font-variant-ligatures:normal;font-variant-caps:normal;font-variant-numeric:normal;font-feature-settings:normal;text-align:start;writing-mode:lr-tb;text-anchor:start;fill:none;stroke:#000000;stroke-width:0.93749994px"
         id="path4557" />
    </g>
    <g
       aria-label="PHOTOS"
       transform="translate(0,2065.7481)"
       style="font-style:normal;font-variant:normal;font-weight:normal;font-stretch:normal;font-size:7211.78857422px;line-height:7512.27978516px;font-family:'DejaVu Sans';-inkscape-font-specification:'DejaVu Sans';letter-spacing:0px;word-spacing:0px;fill:none;fill-opacity:1;stroke:#000000;stroke-width:0.93749994px;stroke-linecap:butt;stroke-linejoin:miter;stroke-opacity:1"
       id="text4538">
      <path
         d="m 2004.9074,-498.4217 q 1.0921,3.54954 0,7.09907 l 2.1843,33.03799 q -3.2765,16.92855 -2.1843,30.58061 20.4781,1.09217 30.5806,18.83984 v 25.66588 q 3.0034,25.39283 2.1843,42.32138 -5.7338,28.39628 -32.7649,37.67968 v 23.48155 q -1.0922,31.39973 2.1843,51.87782 120.6842,-2.45737 113.0391,-126.96415 7.6451,-134.60931 -105.94,-152.90307 z m -126.9642,-6.82603 q -9.0103,36.86056 -4.9147,63.34556 v 155.36044 q -0.5461,27.57716 2.4573,46.96308 l -2.4573,25.93891 2.4573,13.9251 v 9.55645 91.741835 q -1.0921,55.700403 2.4574,89.2844689 49.9666,3.0034531 82.1854,-4.6416999 l 2.4574,-16.655513 v -18.839842 -18.566801 -18.839842 -7.099071 -46.963085 -9.55644 -42.32138 l -2.4574,-16.38248 v -14.19814 -16.38247 l -2.1843,-4.6417 v -7.09907 -9.55644 -42.32139 -9.2834 -11.74077 -40.13705 l -2.4574,-6.82603 2.4574,-4.91474 q 0,-32.21886 -4.9148,-54.06216 8.1913,-38.77185 0,-70.44463 l -7.099,-4.6417 h -9.2834 -7.0991 -9.2834 z"
         style="font-style:normal;font-variant:normal;font-weight:normal;font-stretch:normal;font-size:559.18835449px;font-family:'Boston Traffic';-inkscape-font-specification:'Boston Traffic, Normal';font-variant-ligatures:normal;font-variant-caps:normal;font-variant-numeric:normal;font-feature-settings:normal;text-align:start;writing-mode:lr-tb;text-anchor:start;fill:none;stroke:#000000;stroke-width:0.93749994px"
         id="path4560" />
      <path
         d="m 2230.4394,-510.43551 q -29.2154,1.09217 -49.1474,11.74077 v 229.08156 7.09907 25.66587 q -1.6383,31.39974 2.4574,53.78912 -4.6417,25.11979 0,42.04834 l -2.4574,7.09907 2.4574,27.8502 q -7.6452,55.700404 2.1843,93.65313 l 21.0242,4.6416999 q 3.5495,-2.4573709 7.099,-2.4573709 7.6452,-1.092165 14.1982,0 22.1163,-2.730412 39.5909,2.4573709 l 7.0991,-4.6416999 v -7.099071 l 2.1843,-7.099071 q -2.7304,-35.495355 0,-58.430815 -4.0956,-18.566803 -2.1843,-32.491903 v -7.09907 -11.74077 -7.09907 -9.2834 -7.09907 -46.69005 q 17.4746,1.09217 21.0242,-13.9251 v -18.83984 -6.82603 -30.58061 q -5.1878,-6.82603 -7.0991,-13.9251 -7.0991,0.54608 -13.9251,-2.45737 l 2.1843,-16.38247 q 1.3652,-18.5668 -2.1843,-32.49191 0.5461,-6.0069 0,-9.55644 l 2.1843,-6.82603 q -4.0956,-16.92855 0,-30.58061 -4.6417,-22.66242 -2.1843,-39.59097 v -7.09907 -7.09907 -9.2834 -7.09908 l -2.4574,-46.69004 q -25.6658,-4.6417 -42.0483,-4.6417 z m 131.0598,4.6417 q -7.0991,13.37902 -9.5565,23.48154 4.6417,28.12325 0,51.33175 v 23.48154 l 2.4574,4.6417 v 7.09907 l -2.4574,37.40664 q 3.0035,10.92165 0,18.5668 7.6452,26.21196 4.6417,46.69005 -16.1094,2.45737 -21.0241,11.74077 v 32.76494 q 2.4573,17.47464 0,30.30757 8.1912,7.64516 18.8398,7.09907 2.1843,26.21196 0,44.50572 l 2.1843,109.762556 q -1.0921,25.665872 2.4574,44.505714 h 7.0991 9.2834 39.864 6.826 28.1233 v -7.099071 -7.099071 -30.307572 -9.283401 -39.864015 -6.82603 -28.12324 -7.09907 q -3.0035,-21.57026 -2.4574,-37.40664 l 2.4574,-13.9251 -2.4574,-14.19815 v -13.9251 l 2.4574,-13.9251 v -7.09907 l -2.4574,-4.6417 2.4574,-9.2834 -2.4574,-4.6417 2.4574,-37.40664 -2.4574,-9.55644 2.4574,-16.38248 q -4.0957,-26.75803 -2.4574,-46.69004 l 2.4574,-7.09907 -2.4574,-18.5668 2.4574,-11.74077 q -5.7339,-55.42736 0,-91.19576 z"
         style="font-style:normal;font-variant:normal;font-weight:normal;font-stretch:normal;font-size:559.18835449px;font-family:'Boston Traffic';-inkscape-font-specification:'Boston Traffic, Normal';font-variant-ligatures:normal;font-variant-caps:normal;font-variant-numeric:normal;font-feature-settings:normal;text-align:start;writing-mode:lr-tb;text-anchor:start;fill:none;stroke:#000000;stroke-width:0.93749994px"
         id="path4562" />
      <path
         d="m 2597.1337,-502.24427 q -47.5091,16.92855 -74.2672,48.87437 l -6.826,16.10943 -2.4574,6.82603 q -3.0034,24.57371 -6.826,39.59097 v 16.10943 l -2.4574,7.09907 -2.4573,7.09907 v 55.70041 q -3.8226,40.95617 0,69.35246 l -2.1844,7.09907 q 3.5496,8.73732 2.1844,18.5668 0,21.57025 4.9147,37.1336 v 7.09907 l 2.1843,32.21886 q 5.1878,13.37902 4.6417,23.48155 l 2.4574,13.652055 q 10.9216,28.669325 13.6521,46.417002 l 4.9147,-2.18433 q 31.1267,47.5091671 83.5506,41.775302 l 2.1843,-6.82603 q -3.0034,-23.481542 0,-39.590972 -1.0921,-13.379018 0,-23.208501 l -4.6417,-13.925101 q -16.9285,-6.279945 -23.2085,-18.566805 -3.0034,-22.11633 -2.1843,-37.1336 1.0922,-17.47463 -2.4574,-30.30757 l 2.4574,-16.10943 -2.4574,-11.74077 v -11.46773 -39.31793 l -2.4573,-30.30757 q 1.9112,-19.65897 0,-32.4919 v -7.09908 l 2.4573,-9.2834 q -2.4573,-3.27649 -2.4573,-6.82603 v -46.417 l 4.9147,-6.82603 2.1843,-9.2834 q 14.4712,-7.64515 18.5668,-21.02417 6.28,-70.71767 -13.9251,-74.2672 z m 48.8744,18.5668 q 4.3687,27.8502 0,48.87437 2.1843,7.9182 2.1843,16.10943 20.7512,15.56335 27.8502,37.1336 v 157.81781 l -4.6417,11.74077 4.6417,6.82603 -2.1843,11.74077 q 3.8226,45.0518 2.1843,71.80983 -9.8295,16.92856 -23.2085,25.392835 v 9.2834 q -5.7338,47.236126 11.7408,81.3662744 52.1509,-16.3824714 78.6359,-57.8847324 l 4.9147,-23.481542 4.3687,-13.652055 q 0,-24.57371 7.099,-42.04835 v -6.82603 -13.9251 -7.09907 -9.2834 -6.82603 q 5.1878,-41.7753 2.1844,-67.44117 l 2.4573,-9.2834 -2.4573,-9.2834 v -9.2834 -9.2834 q -4.3687,-18.5668 -2.1844,-32.21886 v -9.2834 l -2.1843,-9.28341 q -6.0069,-22.11633 -4.9147,-39.59097 l -2.1844,-6.82603 -2.1843,-4.91474 -4.9147,-37.1336 q -9.2834,-9.82948 -11.4678,-20.75113 -36.0414,-38.22577 -78.9089,-46.417 z"
         style="font-style:normal;font-variant:normal;font-weight:normal;font-stretch:normal;font-size:559.18835449px;font-family:'Boston Traffic';-inkscape-font-specification:'Boston Traffic, Normal';font-variant-ligatures:normal;font-variant-caps:normal;font-variant-numeric:normal;font-feature-settings:normal;text-align:start;writing-mode:lr-tb;text-anchor:start;fill:none;stroke:#000000;stroke-width:0.93749994px"
         id="path4564" />
      <path
         d="m 3053.9316,-502.79036 h -18.5668 -11.4677 -7.0991 -16.1094 -7.0991 q -25.3928,4.09562 -43.9596,2.45738 h -6.826 -41.7753 -25.3929 -7.099 q -27.3041,-1.09217 -46.417,2.18432 l -2.1844,4.64171 2.1844,11.74077 v 25.39283 q -1.0922,23.2085 4.6417,39.59097 l 7.099,2.18433 h 6.8261 7.099 q 17.2016,-1.09217 30.0346,2.45737 13.9251,-4.6417 25.3928,-4.6417 l 4.6417,4.6417 2.4574,30.03453 -2.4574,16.10943 v 116.04251 q 2.4574,21.29721 0,37.1336 v 9.01036 q 3.5495,17.47463 0,30.30757 6.0069,35.76839 2.4574,60.3421 3.0034,2.18433 2.1843,4.6417 v 39.317932 q 3.0035,18.566801 -2.1843,34.676231 l 9.2834,27.8502016 q 15.0172,0 25.3928,-4.6417006 34.1302,6.8260301 57.8847,-4.6417 v -16.10943 -16.382471 -6.82603 -9.2834 q -3.2765,-22.116337 -2.1843,-37.133603 v -20.75113 -16.38247 -13.9251 -13.9251 q 0.5461,-21.29721 -2.4574,-37.1336 l 2.4574,-9.01036 v -13.9251 l -2.4574,-9.2834 2.4574,-13.9251 -2.4574,-9.2834 v -9.28341 -25.66587 -11.46773 -30.03453 -9.2834 -39.59097 -6.82603 -27.8502 l 7.0991,2.45737 9.2834,-2.45737 4.6417,2.45737 h 6.826 7.0991 46.144 q 8.7373,-46.96309 -4.6417,-86.00798 l -11.4678,-2.18432 z"
         style="font-style:normal;font-variant:normal;font-weight:normal;font-stretch:normal;font-size:559.18835449px;font-family:'Boston Traffic';-inkscape-font-specification:'Boston Traffic, Normal';font-variant-ligatures:normal;font-variant-caps:normal;font-variant-numeric:normal;font-feature-settings:normal;text-align:start;writing-mode:lr-tb;text-anchor:start;fill:none;stroke:#000000;stroke-width:0.93749994px"
         id="path4566" />
      <path
         d="m 3233.8658,-502.24427 q -47.5092,16.92855 -74.2672,48.87437 l -6.8261,16.10943 -2.4573,6.82603 q -3.0035,24.57371 -6.8261,39.59097 v 16.10943 l -2.4573,7.09907 -2.4574,7.09907 v 55.70041 q -3.8226,40.95617 0,69.35246 l -2.1843,7.09907 q 3.5495,8.73732 2.1843,18.5668 0,21.57025 4.9147,37.1336 v 7.09907 l 2.1844,32.21886 q 5.1878,13.37902 4.6417,23.48155 l 2.4573,13.652055 q 10.9217,28.669325 13.6521,46.417002 l 4.9148,-2.18433 q 31.1266,47.5091671 83.5506,41.775302 l 2.1843,-6.82603 q -3.0035,-23.481542 0,-39.590972 -1.0922,-13.379018 0,-23.208501 l -4.6417,-13.925101 q -16.9286,-6.279945 -23.2085,-18.566805 -3.0035,-22.11633 -2.1843,-37.1336 1.0921,-17.47463 -2.4574,-30.30757 l 2.4574,-16.10943 -2.4574,-11.74077 v -11.46773 -39.31793 l -2.4574,-30.30757 q 1.9113,-19.65897 0,-32.4919 v -7.09908 l 2.4574,-9.2834 q -2.4574,-3.27649 -2.4574,-6.82603 v -46.417 l 4.9148,-6.82603 2.1843,-9.2834 q 14.4712,-7.64515 18.5668,-21.02417 6.2799,-70.71767 -13.9251,-74.2672 z m 48.8744,18.5668 q 4.3686,27.8502 0,48.87437 2.1843,7.9182 2.1843,16.10943 20.7511,15.56335 27.8502,37.1336 v 157.81781 l -4.6417,11.74077 4.6417,6.82603 -2.1843,11.74077 q 3.8225,45.0518 2.1843,71.80983 -9.8295,16.92856 -23.2085,25.392835 v 9.2834 q -5.7339,47.236126 11.7408,81.3662744 52.1508,-16.3824714 78.6358,-57.8847324 l 4.9148,-23.481542 4.3686,-13.652055 q 0,-24.57371 7.0991,-42.04835 v -6.82603 -13.9251 -7.09907 -9.2834 -6.82603 q 5.1878,-41.7753 2.1843,-67.44117 l 2.4574,-9.2834 -2.4574,-9.2834 v -9.2834 -9.2834 q -4.3686,-18.5668 -2.1843,-32.21886 v -9.2834 l -2.1843,-9.28341 q -6.0069,-22.11633 -4.9148,-39.59097 l -2.1843,-6.82603 -2.1843,-4.91474 -4.9148,-37.1336 q -9.2834,-9.82948 -11.4677,-20.75113 -36.0414,-38.22577 -78.9089,-46.417 z"
         style="font-style:normal;font-variant:normal;font-weight:normal;font-stretch:normal;font-size:559.18835449px;font-family:'Boston Traffic';-inkscape-font-specification:'Boston Traffic, Normal';font-variant-ligatures:normal;font-variant-caps:normal;font-variant-numeric:normal;font-feature-settings:normal;text-align:start;writing-mode:lr-tb;text-anchor:start;fill:none;stroke:#000000;stroke-width:0.93749994px"
         id="path4568" />
      <path
         d="m 3551.4127,-507.7051 q -3.8226,2.73042 -7.3721,2.45737 -15.2903,17.74768 -33.311,23.75459 -5.4609,7.91819 -12.0139,12.01381 -6.826,15.56335 -14.1981,26.21195 -7.0991,13.37902 -14.4712,21.57026 -12.5599,134.6093 98.0218,181.57239 l 2.4574,4.91474 7.099,2.18433 2.4574,4.91474 7.0991,2.45737 q 14.7442,9.82948 23.7546,19.11288 l 16.6555,4.6417 q 22.6624,21.02418 31.1267,42.86747 -3.0035,41.50226 -35.7684,57.61169 l 2.4574,35.768398 q -2.7305,36.041437 2.1843,59.7960202 32.2188,-2.1843295 55.1543,-16.9285542 72.902,-59.249937 64.4377,-145.530954 -6.553,-10.64861 -7.099,-21.57025 l -4.9148,-9.55644 -21.5702,-43.14051 -4.6417,-2.18433 q -15.2903,-18.02072 -28.6694,-26.485 l -9.5564,-9.55644 q -21.0242,-9.82948 -33.5841,-23.75458 -48.0552,-18.83984 -78.6358,-52.69695 -0.2731,-17.74768 2.4573,-28.66933 7.0991,-11.46773 14.1982,-19.11288 1.6382,-10.92165 4.9147,-19.11288 l -2.4574,-7.09907 2.4574,-4.6417 q -0.8191,-14.47119 2.1843,-26.485 -3.5495,-22.38938 -2.1843,-38.22577 -15.5633,-6.82603 -28.6693,-7.09907 z m 57.0656,9.55644 q 3.5495,9.01036 2.4574,19.11289 v 54.88128 l 9.5564,14.47118 q 13.379,7.91819 19.1129,19.11288 -0.273,14.47119 2.4574,26.21196 l 7.099,4.91474 h 7.0991 l 9.5565,-2.45737 h 9.5564 q 3.8226,-2.73041 7.3721,-2.45737 h 7.0991 q 24.5737,-4.6417 40.6831,-4.91474 6.553,-21.57026 0,-40.4101 -32.7649,-88.46535 -119.592,-95.56442 z m -85.7349,332.01809 q -66.076,-0.81912 -62.2534,36.04144 24.0276,92.56096 102.6635,124.2337382 h 7.3721 l 16.6555,4.6417002 q 6.553,-52.4239084 0,-86.0079744 -39.3179,-23.754584 -45.3248,-78.908904 z"
         style="font-style:normal;font-variant:normal;font-weight:normal;font-stretch:normal;font-size:559.18835449px;font-family:'Boston Traffic';-inkscape-font-specification:'Boston Traffic, Normal';font-variant-ligatures:normal;font-variant-caps:normal;font-variant-numeric:normal;font-feature-settings:normal;text-align:start;writing-mode:lr-tb;text-anchor:start;fill:none;stroke:#000000;stroke-width:0.93749994px"
         id="path4570" />
    </g>
  </g>
  <g
     inkscape:groupmode="layer"
     id="layer2"
     inkscape:label="work"
     style="display:none">
    <path
       transform="translate(0,2065.7481)"
       style="opacity:1;fill:none;fill-opacity:1;fill-rule:nonzero;stroke:#000000;stroke-width:1.40625012;stroke-linecap:round;stroke-linejoin:round;stroke-miterlimit:4;stroke-dasharray:none;stroke-dashoffset:0;stroke-opacity:1"
       d="m 1582.3206,-1483.4912 720.7753,547.69036 v -161.11266 h 1330.1493 l 79.6724,161.11266 h 784.9543 l -270.8415,-547.69036 270.8415,-547.6887 h -784.9543 l -79.6904,161.1475 H 2303.0959 v -161.1475 z"
       id="rect5050"
       inkscape:connector-curvature="0"
       sodipodi:nodetypes="ccccccccccccc" />
  </g>
</svg>
