solid OpenSCAD_Model
  facet normal 0 0 -1
    outer loop
      vertex 78.2217 0.131836 0
      vertex 27.1973 6.31738 0
      vertex 78.2217 6.31738 0
    endloop
  endfacet
  facet normal -0 0 -1
    outer loop
      vertex 20.7715 13.2578 0
      vertex 9.3457 5.03223 0
      vertex 20.582 15.5664 0
    endloop
  endfacet
  facet normal -0 0 -1
    outer loop
      vertex 21.3594 11.0908 0
      vertex 9.3457 5.03223 0
      vertex 20.7715 13.2578 0
    endloop
  endfacet
  facet normal -0 0 -1
    outer loop
      vertex 22.3486 9.18848 0
      vertex 9.3457 5.03223 0
      vertex 21.3594 11.0908 0
    endloop
  endfacet
  facet normal -0 0 -1
    outer loop
      vertex 23.7422 7.67676 0
      vertex 9.3457 5.03223 0
      vertex 22.3486 9.18848 0
    endloop
  endfacet
  facet normal -0 0 -1
    outer loop
      vertex 25.542 6.67773 0
      vertex 9.3457 5.03223 0
      vertex 23.7422 7.67676 0
    endloop
  endfacet
  facet normal -0 0 -1
    outer loop
      vertex 27.1973 6.31738 0
      vertex 9.3457 5.03223 0
      vertex 25.542 6.67773 0
    endloop
  endfacet
  facet normal 0 0 -1
    outer loop
      vertex 0.131836 0.131836 0
      vertex 27.1973 6.31738 0
      vertex 78.2217 0.131836 0
    endloop
  endfacet
  facet normal 0 0 -1
    outer loop
      vertex 27.1973 6.31738 0
      vertex 0.131836 0.131836 0
      vertex 9.3457 5.03223 0
    endloop
  endfacet
  facet normal 0 0 -1
    outer loop
      vertex 0.131836 8.44043 0
      vertex 5.03223 8.44043 0
      vertex 5.03223 5.03223 0
    endloop
  endfacet
  facet normal 0 -0 -1
    outer loop
      vertex 3.43945 10.0322 0
      vertex 5.03223 8.44043 0
      vertex 0.131836 8.44043 0
    endloop
  endfacet
  facet normal 0 0 -1
    outer loop
      vertex 5.03223 8.44043 0
      vertex 3.43945 10.0322 0
      vertex 4.89355 8.95703 0
    endloop
  endfacet
  facet normal 0 0 -1
    outer loop
      vertex 4.51562 9.5166 0
      vertex 3.43945 10.0322 0
      vertex 3.95605 9.89453 0
    endloop
  endfacet
  facet normal 0 0 -1
    outer loop
      vertex 4.89355 8.95703 0
      vertex 3.43945 10.0322 0
      vertex 4.51562 9.5166 0
    endloop
  endfacet
  facet normal -0 0 -1
    outer loop
      vertex 3.43945 10.0322 0
      vertex 0.131836 8.44043 0
      vertex 1.72363 10.0322 0
    endloop
  endfacet
  facet normal 0 0 -1
    outer loop
      vertex 1.72363 10.0322 0
      vertex 0.131836 8.44043 0
      vertex 1.20703 9.89453 0
    endloop
  endfacet
  facet normal 0 0 -1
    outer loop
      vertex 1.20703 9.89453 0
      vertex 0.131836 8.44043 0
      vertex 0.647461 9.5166 0
    endloop
  endfacet
  facet normal -0 0 -1
    outer loop
      vertex 9.3457 5.03223 0
      vertex 0.131836 0.131836 0
      vertex 5.03223 5.03223 0
    endloop
  endfacet
  facet normal 0 0 -1
    outer loop
      vertex 0.131836 8.44043 0
      vertex 5.03223 5.03223 0
      vertex 0.131836 0.131836 0
    endloop
  endfacet
  facet normal 0 0 -1
    outer loop
      vertex 0.647461 9.5166 0
      vertex 0.131836 8.44043 0
      vertex 0.270508 8.95703 0
    endloop
  endfacet
  facet normal 0 0 -1
    outer loop
      vertex 52.3975 87.1455 0
      vertex 53.9004 88.6494 0
      vertex 53.7695 88.1631 0
    endloop
  endfacet
  facet normal 0 0 -1
    outer loop
      vertex 53.9004 88.6494 0
      vertex 51.1807 91.9453 0
      vertex 53.9004 95.5439 0
    endloop
  endfacet
  facet normal 0 0 -1
    outer loop
      vertex 52.3975 87.1455 0
      vertex 53.7695 88.1631 0
      vertex 53.4131 87.6338 0
    endloop
  endfacet
  facet normal 0 0 -1
    outer loop
      vertex 51.1807 92.2471 0
      vertex 53.9004 95.5439 0
      vertex 51.1807 91.9453 0
    endloop
  endfacet
  facet normal 0 0 -1
    outer loop
      vertex 52.3975 87.1455 0
      vertex 53.4131 87.6338 0
      vertex 52.8838 87.2764 0
    endloop
  endfacet
  facet normal 0 0 -1
    outer loop
      vertex 51.0576 92.6992 0
      vertex 53.9004 95.5439 0
      vertex 51.1807 92.2471 0
    endloop
  endfacet
  facet normal -0 0 -1
    outer loop
      vertex 53.9004 88.6494 0
      vertex 52.3975 87.1455 0
      vertex 50.7256 91 0
    endloop
  endfacet
  facet normal 0 0 -1
    outer loop
      vertex 50.7256 93.1924 0
      vertex 53.9004 95.5439 0
      vertex 51.0576 92.6992 0
    endloop
  endfacet
  facet normal 0 -0 -1
    outer loop
      vertex 52.3975 97.0459 0
      vertex 53.9004 95.5439 0
      vertex 50.7256 93.1924 0
    endloop
  endfacet
  facet normal 0 0 -1
    outer loop
      vertex 53.9004 88.6494 0
      vertex 51.0576 91.4932 0
      vertex 51.1807 91.9453 0
    endloop
  endfacet
  facet normal 0 0 -1
    outer loop
      vertex 53.9004 88.6494 0
      vertex 50.7256 91 0
      vertex 51.0576 91.4932 0
    endloop
  endfacet
  facet normal 0 0 -1
    outer loop
      vertex 52.3975 87.1455 0
      vertex 50.2334 90.668 0
      vertex 50.7256 91 0
    endloop
  endfacet
  facet normal 0 0 -1
    outer loop
      vertex 52.3975 87.1455 0
      vertex 49.7812 90.5449 0
      vertex 50.2334 90.668 0
    endloop
  endfacet
  facet normal 0 0 -1
    outer loop
      vertex 52.3975 87.1455 0
      vertex 49.4795 90.5449 0
      vertex 49.7812 90.5449 0
    endloop
  endfacet
  facet normal 0 0 -1
    outer loop
      vertex 52.3975 87.1455 0
      vertex 49.0264 90.668 0
      vertex 49.4795 90.5449 0
    endloop
  endfacet
  facet normal 0 0 -1
    outer loop
      vertex 39.3584 87.1455 0
      vertex 49.0264 90.668 0
      vertex 52.3975 87.1455 0
    endloop
  endfacet
  facet normal -0 0 -1
    outer loop
      vertex 48.0811 91.9453 0
      vertex 39.3584 87.1455 0
      vertex 48.0811 92.2471 0
    endloop
  endfacet
  facet normal -0 0 -1
    outer loop
      vertex 48.2021 91.4932 0
      vertex 39.3584 87.1455 0
      vertex 48.0811 91.9453 0
    endloop
  endfacet
  facet normal -0 0 -1
    outer loop
      vertex 48.5342 91 0
      vertex 39.3584 87.1455 0
      vertex 48.2021 91.4932 0
    endloop
  endfacet
  facet normal -0 0 -1
    outer loop
      vertex 49.0264 90.668 0
      vertex 39.3584 87.1455 0
      vertex 48.5342 91 0
    endloop
  endfacet
  facet normal 0 0 -1
    outer loop
      vertex 53.9004 95.5439 0
      vertex 52.3975 97.0459 0
      vertex 53.7695 96.0303 0
    endloop
  endfacet
  facet normal 0 0 -1
    outer loop
      vertex 53.7695 96.0303 0
      vertex 52.3975 97.0459 0
      vertex 53.4131 96.5596 0
    endloop
  endfacet
  facet normal 0 0 -1
    outer loop
      vertex 53.4131 96.5596 0
      vertex 52.3975 97.0459 0
      vertex 52.8838 96.916 0
    endloop
  endfacet
  facet normal 0 0 -1
    outer loop
      vertex 50.2334 93.5244 0
      vertex 52.3975 97.0459 0
      vertex 50.7256 93.1924 0
    endloop
  endfacet
  facet normal 0 0 -1
    outer loop
      vertex 49.7812 93.6455 0
      vertex 52.3975 97.0459 0
      vertex 50.2334 93.5244 0
    endloop
  endfacet
  facet normal 0 0 -1
    outer loop
      vertex 49.4795 93.6455 0
      vertex 52.3975 97.0459 0
      vertex 49.7812 93.6455 0
    endloop
  endfacet
  facet normal 0 0 -1
    outer loop
      vertex 49.0264 93.5244 0
      vertex 52.3975 97.0459 0
      vertex 49.4795 93.6455 0
    endloop
  endfacet
  facet normal 0 0 -1
    outer loop
      vertex 34 97.0459 0
      vertex 49.0264 93.5244 0
      vertex 48.5342 93.1924 0
    endloop
  endfacet
  facet normal 0 0 -1
    outer loop
      vertex 39.3584 87.1455 0
      vertex 48.2021 92.6992 0
      vertex 48.0811 92.2471 0
    endloop
  endfacet
  facet normal 0 0 -1
    outer loop
      vertex 34 97.0459 0
      vertex 48.2021 92.6992 0
      vertex 39.3584 87.1455 0
    endloop
  endfacet
  facet normal 0 0 -1
    outer loop
      vertex 48.2021 92.6992 0
      vertex 34 97.0459 0
      vertex 48.5342 93.1924 0
    endloop
  endfacet
  facet normal 0 0 -1
    outer loop
      vertex 49.0264 93.5244 0
      vertex 34 97.0459 0
      vertex 52.3975 97.0459 0
    endloop
  endfacet
  facet normal 0 0 -1
    outer loop
      vertex 21.3955 20.1074 0
      vertex 34 97.0459 0
      vertex 39.3584 87.1455 0
    endloop
  endfacet
  facet normal 0 0 -1
    outer loop
      vertex 9.3457 5.03223 0
      vertex 21.3955 20.1074 0
      vertex 21.1924 19.5723 0
    endloop
  endfacet
  facet normal 0 0 -1
    outer loop
      vertex 9.3457 5.03223 0
      vertex 21.1924 19.5723 0
      vertex 20.792 17.8906 0
    endloop
  endfacet
  facet normal -0 0 -1
    outer loop
      vertex 21.3955 20.1074 0
      vertex 9.3457 5.03223 0
      vertex 34 97.0459 0
    endloop
  endfacet
  facet normal 0 0 -1
    outer loop
      vertex 9.3457 5.03223 0
      vertex 20.792 17.8906 0
      vertex 20.582 15.5664 0
    endloop
  endfacet
  facet normal 0 0 1
    outer loop
      vertex 3.43945 10.0322 7
      vertex 5.03223 8.44043 7
      vertex 4.89355 8.95703 7
    endloop
  endfacet
  facet normal 0 0 1
    outer loop
      vertex 52.3975 97.0459 7
      vertex 53.9004 95.5439 7
      vertex 53.7695 96.0303 7
    endloop
  endfacet
  facet normal 0 0 1
    outer loop
      vertex 53.9004 95.5439 7
      vertex 51.1807 92.2471 7
      vertex 53.9004 88.6494 7
    endloop
  endfacet
  facet normal 0 0 1
    outer loop
      vertex 52.3975 97.0459 7
      vertex 53.7695 96.0303 7
      vertex 53.4131 96.5596 7
    endloop
  endfacet
  facet normal -0 0 1
    outer loop
      vertex 51.1807 91.9453 7
      vertex 53.9004 88.6494 7
      vertex 51.1807 92.2471 7
    endloop
  endfacet
  facet normal 0 0 1
    outer loop
      vertex 52.3975 97.0459 7
      vertex 53.4131 96.5596 7
      vertex 52.8838 96.916 7
    endloop
  endfacet
  facet normal -0 0 1
    outer loop
      vertex 51.0576 91.4932 7
      vertex 53.9004 88.6494 7
      vertex 51.1807 91.9453 7
    endloop
  endfacet
  facet normal 0 0 1
    outer loop
      vertex 53.9004 95.5439 7
      vertex 52.3975 97.0459 7
      vertex 50.7256 93.1924 7
    endloop
  endfacet
  facet normal -0 0 1
    outer loop
      vertex 50.7256 91 7
      vertex 53.9004 88.6494 7
      vertex 51.0576 91.4932 7
    endloop
  endfacet
  facet normal 0 -0 1
    outer loop
      vertex 52.3975 87.1455 7
      vertex 53.9004 88.6494 7
      vertex 50.7256 91 7
    endloop
  endfacet
  facet normal 0 0 1
    outer loop
      vertex 53.9004 95.5439 7
      vertex 51.0576 92.6992 7
      vertex 51.1807 92.2471 7
    endloop
  endfacet
  facet normal 0 0 1
    outer loop
      vertex 53.9004 95.5439 7
      vertex 50.7256 93.1924 7
      vertex 51.0576 92.6992 7
    endloop
  endfacet
  facet normal 0 0 1
    outer loop
      vertex 52.3975 97.0459 7
      vertex 50.2334 93.5244 7
      vertex 50.7256 93.1924 7
    endloop
  endfacet
  facet normal 0 0 1
    outer loop
      vertex 52.3975 97.0459 7
      vertex 49.7812 93.6455 7
      vertex 50.2334 93.5244 7
    endloop
  endfacet
  facet normal 0 0 1
    outer loop
      vertex 52.3975 97.0459 7
      vertex 49.4795 93.6455 7
      vertex 49.7812 93.6455 7
    endloop
  endfacet
  facet normal 0 0 1
    outer loop
      vertex 52.3975 97.0459 7
      vertex 49.0264 93.5244 7
      vertex 49.4795 93.6455 7
    endloop
  endfacet
  facet normal -0 0 1
    outer loop
      vertex 34 97.0459 7
      vertex 49.0264 93.5244 7
      vertex 52.3975 97.0459 7
    endloop
  endfacet
  facet normal 0 0 1
    outer loop
      vertex 48.0811 92.2471 7
      vertex 39.3584 87.1455 7
      vertex 48.0811 91.9453 7
    endloop
  endfacet
  facet normal 0 0 1
    outer loop
      vertex 48.2021 92.6992 7
      vertex 39.3584 87.1455 7
      vertex 48.0811 92.2471 7
    endloop
  endfacet
  facet normal 0 0 1
    outer loop
      vertex 34 97.0459 7
      vertex 48.2021 92.6992 7
      vertex 48.5342 93.1924 7
    endloop
  endfacet
  facet normal 0 0 1
    outer loop
      vertex 49.0264 93.5244 7
      vertex 34 97.0459 7
      vertex 48.5342 93.1924 7
    endloop
  endfacet
  facet normal 0 0 1
    outer loop
      vertex 48.2021 92.6992 7
      vertex 34 97.0459 7
      vertex 39.3584 87.1455 7
    endloop
  endfacet
  facet normal 0 0 1
    outer loop
      vertex 34 97.0459 7
      vertex 21.3955 20.1074 7
      vertex 39.3584 87.1455 7
    endloop
  endfacet
  facet normal 0 0 1
    outer loop
      vertex 9.3457 5.03223 7
      vertex 21.3955 20.1074 7
      vertex 34 97.0459 7
    endloop
  endfacet
  facet normal 0 0 1
    outer loop
      vertex 21.3955 20.1074 7
      vertex 9.3457 5.03223 7
      vertex 21.1924 19.5723 7
    endloop
  endfacet
  facet normal 0 0 1
    outer loop
      vertex 20.792 17.8906 7
      vertex 9.3457 5.03223 7
      vertex 20.582 15.5664 7
    endloop
  endfacet
  facet normal 0 0 1
    outer loop
      vertex 21.1924 19.5723 7
      vertex 9.3457 5.03223 7
      vertex 20.792 17.8906 7
    endloop
  endfacet
  facet normal 0 0 1
    outer loop
      vertex 53.9004 88.6494 7
      vertex 52.3975 87.1455 7
      vertex 53.7695 88.1631 7
    endloop
  endfacet
  facet normal 0 0 1
    outer loop
      vertex 53.7695 88.1631 7
      vertex 52.3975 87.1455 7
      vertex 53.4131 87.6338 7
    endloop
  endfacet
  facet normal 0 0 1
    outer loop
      vertex 53.4131 87.6338 7
      vertex 52.3975 87.1455 7
      vertex 52.8838 87.2764 7
    endloop
  endfacet
  facet normal -0 0 1
    outer loop
      vertex 50.2334 90.668 7
      vertex 52.3975 87.1455 7
      vertex 50.7256 91 7
    endloop
  endfacet
  facet normal -0 0 1
    outer loop
      vertex 49.7812 90.5449 7
      vertex 52.3975 87.1455 7
      vertex 50.2334 90.668 7
    endloop
  endfacet
  facet normal -0 0 1
    outer loop
      vertex 49.4795 90.5449 7
      vertex 52.3975 87.1455 7
      vertex 49.7812 90.5449 7
    endloop
  endfacet
  facet normal 0 0 1
    outer loop
      vertex 49.0264 90.668 7
      vertex 52.3975 87.1455 7
      vertex 49.4795 90.5449 7
    endloop
  endfacet
  facet normal 0 0 1
    outer loop
      vertex 39.3584 87.1455 7
      vertex 49.0264 90.668 7
      vertex 48.5342 91 7
    endloop
  endfacet
  facet normal 0 0 1
    outer loop
      vertex 49.0264 90.668 7
      vertex 39.3584 87.1455 7
      vertex 52.3975 87.1455 7
    endloop
  endfacet
  facet normal 0 0 1
    outer loop
      vertex 48.2021 91.4932 7
      vertex 39.3584 87.1455 7
      vertex 48.5342 91 7
    endloop
  endfacet
  facet normal 0 0 1
    outer loop
      vertex 39.3584 87.1455 7
      vertex 48.2021 91.4932 7
      vertex 48.0811 91.9453 7
    endloop
  endfacet
  facet normal -0 0 1
    outer loop
      vertex 27.1973 6.31738 7
      vertex 78.2217 0.131836 7
      vertex 78.2217 6.31738 7
    endloop
  endfacet
  facet normal 0 0 1
    outer loop
      vertex 9.3457 5.03223 7
      vertex 20.7715 13.2578 7
      vertex 20.582 15.5664 7
    endloop
  endfacet
  facet normal 0 0 1
    outer loop
      vertex 9.3457 5.03223 7
      vertex 21.3594 11.0908 7
      vertex 20.7715 13.2578 7
    endloop
  endfacet
  facet normal 0 0 1
    outer loop
      vertex 9.3457 5.03223 7
      vertex 22.3486 9.18848 7
      vertex 21.3594 11.0908 7
    endloop
  endfacet
  facet normal 0 0 1
    outer loop
      vertex 9.3457 5.03223 7
      vertex 23.7422 7.67676 7
      vertex 22.3486 9.18848 7
    endloop
  endfacet
  facet normal 0 0 1
    outer loop
      vertex 9.3457 5.03223 7
      vertex 25.542 6.67773 7
      vertex 23.7422 7.67676 7
    endloop
  endfacet
  facet normal 0 0 1
    outer loop
      vertex 9.3457 5.03223 7
      vertex 27.1973 6.31738 7
      vertex 25.542 6.67773 7
    endloop
  endfacet
  facet normal 0 0 1
    outer loop
      vertex 0.131836 0.131836 7
      vertex 27.1973 6.31738 7
      vertex 9.3457 5.03223 7
    endloop
  endfacet
  facet normal 0 0 1
    outer loop
      vertex 0.131836 0.131836 7
      vertex 9.3457 5.03223 7
      vertex 5.03223 5.03223 7
    endloop
  endfacet
  facet normal 0 0 1
    outer loop
      vertex 3.43945 10.0322 7
      vertex 4.89355 8.95703 7
      vertex 4.51562 9.5166 7
    endloop
  endfacet
  facet normal 0 0 1
    outer loop
      vertex 3.43945 10.0322 7
      vertex 4.51562 9.5166 7
      vertex 3.95605 9.89453 7
    endloop
  endfacet
  facet normal 0 0 1
    outer loop
      vertex 5.03223 8.44043 7
      vertex 3.43945 10.0322 7
      vertex 0.131836 8.44043 7
    endloop
  endfacet
  facet normal 0 0 1
    outer loop
      vertex 0.131836 8.44043 7
      vertex 3.43945 10.0322 7
      vertex 1.72363 10.0322 7
    endloop
  endfacet
  facet normal 0 0 1
    outer loop
      vertex 0.131836 8.44043 7
      vertex 1.72363 10.0322 7
      vertex 1.20703 9.89453 7
    endloop
  endfacet
  facet normal 0 0 1
    outer loop
      vertex 0.131836 8.44043 7
      vertex 1.20703 9.89453 7
      vertex 0.647461 9.5166 7
    endloop
  endfacet
  facet normal 0 0 1
    outer loop
      vertex 0.131836 8.44043 7
      vertex 0.647461 9.5166 7
      vertex 0.270508 8.95703 7
    endloop
  endfacet
  facet normal 0 0 1
    outer loop
      vertex 5.03223 8.44043 7
      vertex 0.131836 8.44043 7
      vertex 5.03223 5.03223 7
    endloop
  endfacet
  facet normal 0 0 1
    outer loop
      vertex 27.1973 6.31738 7
      vertex 0.131836 0.131836 7
      vertex 78.2217 0.131836 7
    endloop
  endfacet
  facet normal 0 0 1
    outer loop
      vertex 0.131836 0.131836 7
      vertex 5.03223 5.03223 7
      vertex 0.131836 8.44043 7
    endloop
  endfacet
  facet normal 0 1 -0
    outer loop
      vertex 78.2217 6.31738 0
      vertex 27.1973 6.31738 7
      vertex 78.2217 6.31738 7
    endloop
  endfacet
  facet normal 0 1 0
    outer loop
      vertex 27.1973 6.31738 7
      vertex 78.2217 6.31738 0
      vertex 27.1973 6.31738 0
    endloop
  endfacet
  facet normal 0.212717 0.977114 -0
    outer loop
      vertex 27.1973 6.31738 0
      vertex 25.542 6.67773 7
      vertex 27.1973 6.31738 7
    endloop
  endfacet
  facet normal 0.212717 0.977114 0
    outer loop
      vertex 25.542 6.67773 7
      vertex 27.1973 6.31738 0
      vertex 25.542 6.67773 0
    endloop
  endfacet
  facet normal 0.485321 0.874336 -0
    outer loop
      vertex 25.542 6.67773 0
      vertex 23.7422 7.67676 7
      vertex 25.542 6.67773 7
    endloop
  endfacet
  facet normal 0.485321 0.874336 0
    outer loop
      vertex 23.7422 7.67676 7
      vertex 25.542 6.67773 0
      vertex 23.7422 7.67676 0
    endloop
  endfacet
  facet normal 0.735259 0.677787 0
    outer loop
      vertex 23.7422 7.67676 7
      vertex 22.3486 9.18848 0
      vertex 22.3486 9.18848 7
    endloop
  endfacet
  facet normal 0.735259 0.677787 0
    outer loop
      vertex 22.3486 9.18848 0
      vertex 23.7422 7.67676 7
      vertex 23.7422 7.67676 0
    endloop
  endfacet
  facet normal 0.887209 0.461367 0
    outer loop
      vertex 22.3486 9.18848 7
      vertex 21.3594 11.0908 0
      vertex 21.3594 11.0908 7
    endloop
  endfacet
  facet normal 0.887209 0.461367 0
    outer loop
      vertex 21.3594 11.0908 0
      vertex 22.3486 9.18848 7
      vertex 22.3486 9.18848 0
    endloop
  endfacet
  facet normal 0.965114 0.261829 0
    outer loop
      vertex 21.3594 11.0908 7
      vertex 20.7715 13.2578 0
      vertex 20.7715 13.2578 7
    endloop
  endfacet
  facet normal 0.965114 0.261829 0
    outer loop
      vertex 20.7715 13.2578 0
      vertex 21.3594 11.0908 7
      vertex 21.3594 11.0908 0
    endloop
  endfacet
  facet normal 0.99665 0.0817894 0
    outer loop
      vertex 20.7715 13.2578 7
      vertex 20.582 15.5664 0
      vertex 20.582 15.5664 7
    endloop
  endfacet
  facet normal 0.99665 0.0817894 0
    outer loop
      vertex 20.582 15.5664 0
      vertex 20.7715 13.2578 7
      vertex 20.7715 13.2578 0
    endloop
  endfacet
  facet normal 0.995944 -0.0899698 0
    outer loop
      vertex 20.582 15.5664 7
      vertex 20.792 17.8906 0
      vertex 20.792 17.8906 7
    endloop
  endfacet
  facet normal 0.995944 -0.0899698 0
    outer loop
      vertex 20.792 17.8906 0
      vertex 20.582 15.5664 7
      vertex 20.582 15.5664 0
    endloop
  endfacet
  facet normal 0.972806 -0.231621 0
    outer loop
      vertex 20.792 17.8906 7
      vertex 21.1924 19.5723 0
      vertex 21.1924 19.5723 7
    endloop
  endfacet
  facet normal 0.972806 -0.231621 0
    outer loop
      vertex 21.1924 19.5723 0
      vertex 20.792 17.8906 7
      vertex 20.792 17.8906 0
    endloop
  endfacet
  facet normal 0.934919 -0.35486 0
    outer loop
      vertex 21.1924 19.5723 7
      vertex 21.3955 20.1074 0
      vertex 21.3955 20.1074 7
    endloop
  endfacet
  facet normal 0.934919 -0.35486 0
    outer loop
      vertex 21.3955 20.1074 0
      vertex 21.1924 19.5723 7
      vertex 21.1924 19.5723 0
    endloop
  endfacet
  facet normal 0.965925 -0.25882 0
    outer loop
      vertex 39.3584 87.1455 7
      vertex 32.6883 62.2525 4.325
      vertex 39.3584 87.1455 0
    endloop
  endfacet
  facet normal 0.965926 -0.25882 -6.77404e-06
    outer loop
      vertex 39.3584 87.1455 7
      vertex 32.6351 62.0538 4.44373
      vertex 32.6883 62.2525 4.325
    endloop
  endfacet
  facet normal 0.965925 -0.25882 2.57849e-07
    outer loop
      vertex 39.3584 87.1455 7
      vertex 32.3185 60.8722 5.15
      vertex 32.6351 62.0538 4.44373
    endloop
  endfacet
  facet normal 0.965925 -0.25882 0
    outer loop
      vertex 31.9486 59.492 4.325
      vertex 22.3591 23.7036 4.325
      vertex 31.9486 59.492 2.675
    endloop
  endfacet
  facet normal 0.965926 -0.25882 8.30764e-07
    outer loop
      vertex 21.3955 20.1074 7
      vertex 31.9486 59.492 4.325
      vertex 32.3185 60.8722 5.15
    endloop
  endfacet
  facet normal 0.965926 -0.25882 -1.26212e-08
    outer loop
      vertex 21.3955 20.1074 7
      vertex 32.3185 60.8722 5.15
      vertex 39.3584 87.1455 7
    endloop
  endfacet
  facet normal 0.965925 -0.25882 -2.73854e-07
    outer loop
      vertex 31.9486 59.492 4.325
      vertex 21.3955 20.1074 7
      vertex 22.3591 23.7036 4.325
    endloop
  endfacet
  facet normal 0.965926 -0.25882 0
    outer loop
      vertex 21.6194 20.9431 4.325
      vertex 21.3955 20.1074 7
      vertex 21.6194 20.9431 2.675
    endloop
  endfacet
  facet normal 0.965926 -0.25882 1.15831e-08
    outer loop
      vertex 21.9893 22.3234 5.15
      vertex 21.3955 20.1074 7
      vertex 21.6194 20.9431 4.325
    endloop
  endfacet
  facet normal 0.965926 -0.25882 6.99752e-08
    outer loop
      vertex 22.3591 23.7036 4.325
      vertex 21.3955 20.1074 7
      vertex 21.9893 22.3234 5.15
    endloop
  endfacet
  facet normal 0.965925 -0.25882 0
    outer loop
      vertex 32.6883 62.2525 2.675
      vertex 39.3584 87.1455 0
      vertex 32.6883 62.2525 4.325
    endloop
  endfacet
  facet normal 0.965926 -0.25882 6.77404e-06
    outer loop
      vertex 32.6351 62.0538 2.55627
      vertex 39.3584 87.1455 0
      vertex 32.6883 62.2525 2.675
    endloop
  endfacet
  facet normal 0.965925 -0.25882 -2.57849e-07
    outer loop
      vertex 32.3185 60.8722 1.85
      vertex 39.3584 87.1455 0
      vertex 32.6351 62.0538 2.55627
    endloop
  endfacet
  facet normal 0.965925 -0.25882 0
    outer loop
      vertex 22.3591 23.7036 2.675
      vertex 31.9486 59.492 2.675
      vertex 22.3591 23.7036 4.325
    endloop
  endfacet
  facet normal 0.965925 -0.25882 2.73854e-07
    outer loop
      vertex 21.3955 20.1074 0
      vertex 31.9486 59.492 2.675
      vertex 22.3591 23.7036 2.675
    endloop
  endfacet
  facet normal 0.965926 -0.25882 -8.30765e-07
    outer loop
      vertex 31.9486 59.492 2.675
      vertex 21.3955 20.1074 0
      vertex 32.3185 60.8722 1.85
    endloop
  endfacet
  facet normal 0.965926 -0.25882 -6.99754e-08
    outer loop
      vertex 21.3955 20.1074 0
      vertex 22.3591 23.7036 2.675
      vertex 21.9893 22.3234 1.85
    endloop
  endfacet
  facet normal 0.965926 -0.25882 1.26212e-08
    outer loop
      vertex 32.3185 60.8722 1.85
      vertex 21.3955 20.1074 0
      vertex 39.3584 87.1455 0
    endloop
  endfacet
  facet normal 0.965926 -0.25882 -1.15831e-08
    outer loop
      vertex 21.6194 20.9431 2.675
      vertex 21.3955 20.1074 0
      vertex 21.9893 22.3234 1.85
    endloop
  endfacet
  facet normal 0.965926 -0.25882 0
    outer loop
      vertex 21.3955 20.1074 0
      vertex 21.6194 20.9431 2.675
      vertex 21.3955 20.1074 7
    endloop
  endfacet
  facet normal 0 -1 0
    outer loop
      vertex 39.3584 87.1455 0
      vertex 52.3975 87.1455 7
      vertex 39.3584 87.1455 7
    endloop
  endfacet
  facet normal 0 -1 -0
    outer loop
      vertex 52.3975 87.1455 7
      vertex 39.3584 87.1455 0
      vertex 52.3975 87.1455 0
    endloop
  endfacet
  facet normal 0.259834 -0.965653 0
    outer loop
      vertex 52.3975 87.1455 0
      vertex 52.8838 87.2764 7
      vertex 52.3975 87.1455 7
    endloop
  endfacet
  facet normal 0.259834 -0.965653 0
    outer loop
      vertex 52.8838 87.2764 7
      vertex 52.3975 87.1455 0
      vertex 52.8838 87.2764 0
    endloop
  endfacet
  facet normal 0.55963 -0.828742 0
    outer loop
      vertex 52.8838 87.2764 0
      vertex 53.4131 87.6338 7
      vertex 52.8838 87.2764 7
    endloop
  endfacet
  facet normal 0.55963 -0.828742 0
    outer loop
      vertex 53.4131 87.6338 7
      vertex 52.8838 87.2764 0
      vertex 53.4131 87.6338 0
    endloop
  endfacet
  facet normal 0.829451 -0.558579 0
    outer loop
      vertex 53.4131 87.6338 7
      vertex 53.7695 88.1631 0
      vertex 53.7695 88.1631 7
    endloop
  endfacet
  facet normal 0.829451 -0.558579 0
    outer loop
      vertex 53.7695 88.1631 0
      vertex 53.4131 87.6338 7
      vertex 53.4131 87.6338 0
    endloop
  endfacet
  facet normal 0.965653 -0.259834 0
    outer loop
      vertex 53.7695 88.1631 7
      vertex 53.9004 88.6494 0
      vertex 53.9004 88.6494 7
    endloop
  endfacet
  facet normal 0.965653 -0.259834 0
    outer loop
      vertex 53.9004 88.6494 0
      vertex 53.7695 88.1631 7
      vertex 53.7695 88.1631 0
    endloop
  endfacet
  facet normal 1 -0 0
    outer loop
      vertex 53.9004 88.6494 7
      vertex 53.9004 95.5439 0
      vertex 53.9004 95.5439 7
    endloop
  endfacet
  facet normal 1 0 0
    outer loop
      vertex 53.9004 95.5439 0
      vertex 53.9004 88.6494 7
      vertex 53.9004 88.6494 0
    endloop
  endfacet
  facet normal 0.965653 0.259834 0
    outer loop
      vertex 53.9004 95.5439 7
      vertex 53.7695 96.0303 0
      vertex 53.7695 96.0303 7
    endloop
  endfacet
  facet normal 0.965653 0.259834 0
    outer loop
      vertex 53.7695 96.0303 0
      vertex 53.9004 95.5439 7
      vertex 53.9004 95.5439 0
    endloop
  endfacet
  facet normal 0.829451 0.558579 0
    outer loop
      vertex 53.7695 96.0303 7
      vertex 53.4131 96.5596 0
      vertex 53.4131 96.5596 7
    endloop
  endfacet
  facet normal 0.829451 0.558579 0
    outer loop
      vertex 53.4131 96.5596 0
      vertex 53.7695 96.0303 7
      vertex 53.7695 96.0303 0
    endloop
  endfacet
  facet normal 0.558579 0.829451 -0
    outer loop
      vertex 53.4131 96.5596 0
      vertex 52.8838 96.916 7
      vertex 53.4131 96.5596 7
    endloop
  endfacet
  facet normal 0.558579 0.829451 0
    outer loop
      vertex 52.8838 96.916 7
      vertex 53.4131 96.5596 0
      vertex 52.8838 96.916 0
    endloop
  endfacet
  facet normal 0.258025 0.966138 -0
    outer loop
      vertex 52.8838 96.916 0
      vertex 52.3975 97.0459 7
      vertex 52.8838 96.916 7
    endloop
  endfacet
  facet normal 0.258025 0.966138 0
    outer loop
      vertex 52.3975 97.0459 7
      vertex 52.8838 96.916 0
      vertex 52.3975 97.0459 0
    endloop
  endfacet
  facet normal 0 1 -0
    outer loop
      vertex 52.3975 97.0459 0
      vertex 34 97.0459 7
      vertex 52.3975 97.0459 7
    endloop
  endfacet
  facet normal 0 1 0
    outer loop
      vertex 34 97.0459 7
      vertex 52.3975 97.0459 0
      vertex 34 97.0459 0
    endloop
  endfacet
  facet normal -0.965928 0.258812 0
    outer loop
      vertex 34 97.0459 0
      vertex 25.57 65.5838 2.57295
      vertex 34 97.0459 7
    endloop
  endfacet
  facet normal -0.965928 0.258812 -1.75467e-07
    outer loop
      vertex 34 97.0459 0
      vertex 25.2879 64.5312 1.07295
      vertex 25.57 65.5838 2.57295
    endloop
  endfacet
  facet normal -0.965928 0.258812 1.13578e-06
    outer loop
      vertex 34 97.0459 0
      vertex 24.9676 63.3356 0.670782
      vertex 25.2879 64.5312 1.07295
    endloop
  endfacet
  facet normal -0.965928 0.258812 2.16785e-06
    outer loop
      vertex 34 97.0459 0
      vertex 24.8316 62.8279 0.5
      vertex 24.9676 63.3356 0.670782
    endloop
  endfacet
  facet normal -0.965928 0.258812 2.53577e-09
    outer loop
      vertex 15.1322 26.6285 1.27391
      vertex 24.1772 60.3857 2.12582
      vertex 24.3752 61.1246 1.07295
    endloop
  endfacet
  facet normal -0.965928 0.258812 0
    outer loop
      vertex 24.0931 60.0719 2.57295
      vertex 15.3765 27.5402 2.57295
      vertex 24.0931 60.0719 4.42705
    endloop
  endfacet
  facet normal -0.965928 0.258812 -1.27995e-06
    outer loop
      vertex 24.1772 60.3857 2.12582
      vertex 15.3765 27.5402 2.57295
      vertex 24.0931 60.0719 2.57295
    endloop
  endfacet
  facet normal -0.965928 0.258812 3.53188e-06
    outer loop
      vertex 15.0945 26.4875 1.07295
      vertex 24.3752 61.1246 1.07295
      vertex 24.5112 61.6323 0.902164
    endloop
  endfacet
  facet normal -0.965928 0.258812 9.19982e-07
    outer loop
      vertex 15.0333 26.2593 0.996188
      vertex 24.5112 61.6323 0.902164
      vertex 24.8316 62.8279 0.5
    endloop
  endfacet
  facet normal -0.965928 0.258812 3.12163e-07
    outer loop
      vertex 24.1772 60.3857 2.12582
      vertex 15.1322 26.6285 1.27391
      vertex 15.3765 27.5402 2.57295
    endloop
  endfacet
  facet normal -0.965928 0.258812 1.13042e-06
    outer loop
      vertex 24.3752 61.1246 1.07295
      vertex 15.0945 26.4875 1.07295
      vertex 15.1322 26.6285 1.27391
    endloop
  endfacet
  facet normal -0.965928 0.258812 -9.93311e-07
    outer loop
      vertex 24.5112 61.6323 0.902164
      vertex 15.0333 26.2593 0.996188
      vertex 15.0945 26.4875 1.07295
    endloop
  endfacet
  facet normal -0.965928 0.258812 -1.22076e-06
    outer loop
      vertex 9.3457 5.03223 0
      vertex 24.8316 62.8279 0.5
      vertex 34 97.0459 0
    endloop
  endfacet
  facet normal -0.965928 0.258812 1.01529e-07
    outer loop
      vertex 24.8316 62.8279 0.5
      vertex 14.6381 24.7842 0.5
      vertex 15.0333 26.2593 0.996188
    endloop
  endfacet
  facet normal -0.965928 0.258812 0
    outer loop
      vertex 13.8996 22.0282 2.57295
      vertex 9.3457 5.03223 0
      vertex 13.8996 22.0282 4.42705
    endloop
  endfacet
  facet normal -0.965928 0.258812 -1.28231e-07
    outer loop
      vertex 13.9374 22.1693 2.37197
      vertex 9.3457 5.03223 0
      vertex 13.8996 22.0282 2.57295
    endloop
  endfacet
  facet normal -0.965928 0.258812 2.34421e-07
    outer loop
      vertex 14.1817 23.0809 1.07295
      vertex 9.3457 5.03223 0
      vertex 13.9374 22.1693 2.37197
    endloop
  endfacet
  facet normal -0.965928 0.258812 8.02626e-07
    outer loop
      vertex 14.6381 24.7842 0.5
      vertex 9.3457 5.03223 0
      vertex 14.1817 23.0809 1.07295
    endloop
  endfacet
  facet normal -0.965928 0.258812 -5.49001e-07
    outer loop
      vertex 24.8316 62.8279 0.5
      vertex 9.3457 5.03223 0
      vertex 14.6381 24.7842 0.5
    endloop
  endfacet
  facet normal -0.965928 0.258812 0
    outer loop
      vertex 25.57 65.5838 4.42705
      vertex 34 97.0459 7
      vertex 25.57 65.5838 2.57295
    endloop
  endfacet
  facet normal -0.965928 0.258812 1.75467e-07
    outer loop
      vertex 25.2879 64.5312 5.92705
      vertex 34 97.0459 7
      vertex 25.57 65.5838 4.42705
    endloop
  endfacet
  facet normal -0.965928 0.258812 -2.13126e-06
    outer loop
      vertex 25.1519 64.0235 6.09783
      vertex 34 97.0459 7
      vertex 25.2879 64.5312 5.92705
    endloop
  endfacet
  facet normal -0.965928 0.258812 -1.12023e-06
    outer loop
      vertex 24.8316 62.8279 6.5
      vertex 34 97.0459 7
      vertex 25.1519 64.0235 6.09783
    endloop
  endfacet
  facet normal -0.965928 0.258812 1.27995e-06
    outer loop
      vertex 15.3765 27.5402 4.42705
      vertex 24.1772 60.3857 4.87418
      vertex 24.0931 60.0719 4.42705
    endloop
  endfacet
  facet normal -0.965928 0.258812 0
    outer loop
      vertex 15.3765 27.5402 4.42705
      vertex 24.0931 60.0719 4.42705
      vertex 15.3765 27.5402 2.57295
    endloop
  endfacet
  facet normal -0.965928 0.258812 -3.12163e-07
    outer loop
      vertex 15.1322 26.6285 5.72609
      vertex 24.1772 60.3857 4.87418
      vertex 15.3765 27.5402 4.42705
    endloop
  endfacet
  facet normal -0.965928 0.258812 -2.53577e-09
    outer loop
      vertex 24.1772 60.3857 4.87418
      vertex 15.1322 26.6285 5.72609
      vertex 24.3752 61.1246 5.92705
    endloop
  endfacet
  facet normal -0.965928 0.258812 -1.13042e-06
    outer loop
      vertex 15.0945 26.4875 5.92705
      vertex 24.3752 61.1246 5.92705
      vertex 15.1322 26.6285 5.72609
    endloop
  endfacet
  facet normal -0.965928 0.258812 -3.53187e-06
    outer loop
      vertex 24.3752 61.1246 5.92705
      vertex 15.0945 26.4875 5.92705
      vertex 24.5112 61.6323 6.09784
    endloop
  endfacet
  facet normal -0.965928 0.258812 9.93308e-07
    outer loop
      vertex 15.0333 26.2593 6.00381
      vertex 24.5112 61.6323 6.09784
      vertex 15.0945 26.4875 5.92705
    endloop
  endfacet
  facet normal -0.965928 0.258812 -9.19981e-07
    outer loop
      vertex 24.5112 61.6323 6.09784
      vertex 15.0333 26.2593 6.00381
      vertex 24.8316 62.8279 6.5
    endloop
  endfacet
  facet normal -0.965928 0.258812 -1.01529e-07
    outer loop
      vertex 14.6381 24.7842 6.5
      vertex 24.8316 62.8279 6.5
      vertex 15.0333 26.2593 6.00381
    endloop
  endfacet
  facet normal -0.965928 0.258812 5.49e-07
    outer loop
      vertex 9.3457 5.03223 7
      vertex 24.8316 62.8279 6.5
      vertex 14.6381 24.7842 6.5
    endloop
  endfacet
  facet normal -0.965928 0.258812 0
    outer loop
      vertex 9.3457 5.03223 7
      vertex 13.8996 22.0282 4.42705
      vertex 9.3457 5.03223 0
    endloop
  endfacet
  facet normal -0.965928 0.258812 1.28231e-07
    outer loop
      vertex 13.8996 22.0282 4.42705
      vertex 9.3457 5.03223 7
      vertex 13.9374 22.1693 4.62803
    endloop
  endfacet
  facet normal -0.965928 0.258812 -2.34421e-07
    outer loop
      vertex 13.9374 22.1693 4.62803
      vertex 9.3457 5.03223 7
      vertex 14.1817 23.0809 5.92705
    endloop
  endfacet
  facet normal -0.965928 0.258812 1.6744e-06
    outer loop
      vertex 14.1817 23.0809 5.92705
      vertex 9.3457 5.03223 7
      vertex 14.2428 23.3091 6.00382
    endloop
  endfacet
  facet normal -0.965928 0.258812 1.22076e-06
    outer loop
      vertex 24.8316 62.8279 6.5
      vertex 9.3457 5.03223 7
      vertex 34 97.0459 7
    endloop
  endfacet
  facet normal -0.965928 0.258812 -1.22201e-06
    outer loop
      vertex 14.2428 23.3091 6.00382
      vertex 9.3457 5.03223 7
      vertex 14.6381 24.7842 6.5
    endloop
  endfacet
  facet normal 0 1 -0
    outer loop
      vertex 9.3457 5.03223 0
      vertex 5.03223 5.03223 7
      vertex 9.3457 5.03223 7
    endloop
  endfacet
  facet normal 0 1 0
    outer loop
      vertex 5.03223 5.03223 7
      vertex 9.3457 5.03223 0
      vertex 5.03223 5.03223 0
    endloop
  endfacet
  facet normal 1 -0 0
    outer loop
      vertex 5.03223 5.03223 7
      vertex 5.03223 8.44043 0
      vertex 5.03223 8.44043 7
    endloop
  endfacet
  facet normal 1 0 0
    outer loop
      vertex 5.03223 8.44043 0
      vertex 5.03223 5.03223 7
      vertex 5.03223 5.03223 0
    endloop
  endfacet
  facet normal 0.965809 0.259253 0
    outer loop
      vertex 5.03223 8.44043 7
      vertex 4.89355 8.95703 0
      vertex 4.89355 8.95703 7
    endloop
  endfacet
  facet normal 0.965809 0.259253 0
    outer loop
      vertex 4.89355 8.95703 0
      vertex 5.03223 8.44043 7
      vertex 5.03223 8.44043 0
    endloop
  endfacet
  facet normal 0.828698 0.559696 0
    outer loop
      vertex 4.89355 8.95703 7
      vertex 4.51562 9.5166 0
      vertex 4.51562 9.5166 7
    endloop
  endfacet
  facet normal 0.828698 0.559696 0
    outer loop
      vertex 4.51562 9.5166 0
      vertex 4.89355 8.95703 7
      vertex 4.89355 8.95703 0
    endloop
  endfacet
  facet normal 0.559696 0.828698 -0
    outer loop
      vertex 4.51562 9.5166 0
      vertex 3.95605 9.89453 7
      vertex 4.51562 9.5166 7
    endloop
  endfacet
  facet normal 0.559696 0.828698 0
    outer loop
      vertex 3.95605 9.89453 7
      vertex 4.51562 9.5166 0
      vertex 3.95605 9.89453 0
    endloop
  endfacet
  facet normal 0.257549 0.966265 -0
    outer loop
      vertex 3.95605 9.89453 0
      vertex 3.43945 10.0322 7
      vertex 3.95605 9.89453 7
    endloop
  endfacet
  facet normal 0.257549 0.966265 0
    outer loop
      vertex 3.43945 10.0322 7
      vertex 3.95605 9.89453 0
      vertex 3.43945 10.0322 0
    endloop
  endfacet
  facet normal 0 1 -0
    outer loop
      vertex 3.43945 10.0322 0
      vertex 1.72363 10.0322 7
      vertex 3.43945 10.0322 7
    endloop
  endfacet
  facet normal 0 1 0
    outer loop
      vertex 1.72363 10.0322 7
      vertex 3.43945 10.0322 0
      vertex 1.72363 10.0322 0
    endloop
  endfacet
  facet normal -0.257549 0.966265 0
    outer loop
      vertex 1.72363 10.0322 0
      vertex 1.20703 9.89453 7
      vertex 1.72363 10.0322 7
    endloop
  endfacet
  facet normal -0.257549 0.966265 0
    outer loop
      vertex 1.20703 9.89453 7
      vertex 1.72363 10.0322 0
      vertex 1.20703 9.89453 0
    endloop
  endfacet
  facet normal -0.559696 0.828698 0
    outer loop
      vertex 1.20703 9.89453 0
      vertex 0.647461 9.5166 7
      vertex 1.20703 9.89453 7
    endloop
  endfacet
  facet normal -0.559696 0.828698 0
    outer loop
      vertex 0.647461 9.5166 7
      vertex 1.20703 9.89453 0
      vertex 0.647461 9.5166 0
    endloop
  endfacet
  facet normal -0.829368 0.558702 0
    outer loop
      vertex 0.270508 8.95703 0
      vertex 0.647461 9.5166 7
      vertex 0.647461 9.5166 0
    endloop
  endfacet
  facet normal -0.829368 0.558702 0
    outer loop
      vertex 0.647461 9.5166 7
      vertex 0.270508 8.95703 0
      vertex 0.270508 8.95703 7
    endloop
  endfacet
  facet normal -0.965809 0.259253 0
    outer loop
      vertex 0.131836 8.44043 0
      vertex 0.270508 8.95703 7
      vertex 0.270508 8.95703 0
    endloop
  endfacet
  facet normal -0.965809 0.259253 0
    outer loop
      vertex 0.270508 8.95703 7
      vertex 0.131836 8.44043 0
      vertex 0.131836 8.44043 7
    endloop
  endfacet
  facet normal -1 0 0
    outer loop
      vertex 0.131836 0.131836 0
      vertex 0.131836 8.44043 7
      vertex 0.131836 8.44043 0
    endloop
  endfacet
  facet normal -1 -0 0
    outer loop
      vertex 0.131836 8.44043 7
      vertex 0.131836 0.131836 0
      vertex 0.131836 0.131836 7
    endloop
  endfacet
  facet normal 0 -1 0
    outer loop
      vertex 0.131836 0.131836 0
      vertex 78.2217 0.131836 7
      vertex 0.131836 0.131836 7
    endloop
  endfacet
  facet normal 0 -1 -0
    outer loop
      vertex 78.2217 0.131836 7
      vertex 0.131836 0.131836 0
      vertex 78.2217 0.131836 0
    endloop
  endfacet
  facet normal 1 -0 0
    outer loop
      vertex 78.2217 0.131836 7
      vertex 78.2217 6.31738 0
      vertex 78.2217 6.31738 7
    endloop
  endfacet
  facet normal 1 0 0
    outer loop
      vertex 78.2217 6.31738 0
      vertex 78.2217 0.131836 7
      vertex 78.2217 0.131836 0
    endloop
  endfacet
  facet normal 0.262061 0.965051 -0
    outer loop
      vertex 49.4795 90.5449 0
      vertex 49.0264 90.668 7
      vertex 49.4795 90.5449 7
    endloop
  endfacet
  facet normal 0.262061 0.965051 0
    outer loop
      vertex 49.0264 90.668 7
      vertex 49.4795 90.5449 0
      vertex 49.0264 90.668 0
    endloop
  endfacet
  facet normal 0.559247 0.829001 -0
    outer loop
      vertex 49.0264 90.668 0
      vertex 48.5342 91 7
      vertex 49.0264 90.668 7
    endloop
  endfacet
  facet normal 0.559247 0.829001 0
    outer loop
      vertex 48.5342 91 7
      vertex 49.0264 90.668 0
      vertex 48.5342 91 0
    endloop
  endfacet
  facet normal 0.829515 0.558485 0
    outer loop
      vertex 48.5342 91 7
      vertex 48.2021 91.4932 0
      vertex 48.2021 91.4932 7
    endloop
  endfacet
  facet normal 0.829515 0.558485 0
    outer loop
      vertex 48.2021 91.4932 0
      vertex 48.5342 91 7
      vertex 48.5342 91 0
    endloop
  endfacet
  facet normal 0.965957 0.258701 0
    outer loop
      vertex 48.2021 91.4932 7
      vertex 48.0811 91.9453 0
      vertex 48.0811 91.9453 7
    endloop
  endfacet
  facet normal 0.965957 0.258701 0
    outer loop
      vertex 48.0811 91.9453 0
      vertex 48.2021 91.4932 7
      vertex 48.2021 91.4932 0
    endloop
  endfacet
  facet normal 1 -0 0
    outer loop
      vertex 48.0811 91.9453 7
      vertex 48.0811 92.2471 0
      vertex 48.0811 92.2471 7
    endloop
  endfacet
  facet normal 1 0 0
    outer loop
      vertex 48.0811 92.2471 0
      vertex 48.0811 91.9453 7
      vertex 48.0811 91.9453 0
    endloop
  endfacet
  facet normal 0.965957 -0.258701 0
    outer loop
      vertex 48.0811 92.2471 7
      vertex 48.2021 92.6992 0
      vertex 48.2021 92.6992 7
    endloop
  endfacet
  facet normal 0.965957 -0.258701 0
    outer loop
      vertex 48.2021 92.6992 0
      vertex 48.0811 92.2471 7
      vertex 48.0811 92.2471 0
    endloop
  endfacet
  facet normal 0.829515 -0.558485 0
    outer loop
      vertex 48.2021 92.6992 7
      vertex 48.5342 93.1924 0
      vertex 48.5342 93.1924 7
    endloop
  endfacet
  facet normal 0.829515 -0.558485 0
    outer loop
      vertex 48.5342 93.1924 0
      vertex 48.2021 92.6992 7
      vertex 48.2021 92.6992 0
    endloop
  endfacet
  facet normal 0.559247 -0.829001 0
    outer loop
      vertex 48.5342 93.1924 0
      vertex 49.0264 93.5244 7
      vertex 48.5342 93.1924 7
    endloop
  endfacet
  facet normal 0.559247 -0.829001 0
    outer loop
      vertex 49.0264 93.5244 7
      vertex 48.5342 93.1924 0
      vertex 49.0264 93.5244 0
    endloop
  endfacet
  facet normal 0.258181 -0.966097 0
    outer loop
      vertex 49.0264 93.5244 0
      vertex 49.4795 93.6455 7
      vertex 49.0264 93.5244 7
    endloop
  endfacet
  facet normal 0.258181 -0.966097 0
    outer loop
      vertex 49.4795 93.6455 7
      vertex 49.0264 93.5244 0
      vertex 49.4795 93.6455 0
    endloop
  endfacet
  facet normal 0 -1 0
    outer loop
      vertex 49.4795 93.6455 0
      vertex 49.7812 93.6455 7
      vertex 49.4795 93.6455 7
    endloop
  endfacet
  facet normal 0 -1 -0
    outer loop
      vertex 49.7812 93.6455 7
      vertex 49.4795 93.6455 0
      vertex 49.7812 93.6455 0
    endloop
  endfacet
  facet normal -0.258701 -0.965957 0
    outer loop
      vertex 49.7812 93.6455 0
      vertex 50.2334 93.5244 7
      vertex 49.7812 93.6455 7
    endloop
  endfacet
  facet normal -0.258701 -0.965957 -0
    outer loop
      vertex 50.2334 93.5244 7
      vertex 49.7812 93.6455 0
      vertex 50.2334 93.5244 0
    endloop
  endfacet
  facet normal -0.559247 -0.829001 0
    outer loop
      vertex 50.2334 93.5244 0
      vertex 50.7256 93.1924 7
      vertex 50.2334 93.5244 7
    endloop
  endfacet
  facet normal -0.559247 -0.829001 -0
    outer loop
      vertex 50.7256 93.1924 7
      vertex 50.2334 93.5244 0
      vertex 50.7256 93.1924 0
    endloop
  endfacet
  facet normal -0.829515 -0.558485 0
    outer loop
      vertex 51.0576 92.6992 0
      vertex 50.7256 93.1924 7
      vertex 50.7256 93.1924 0
    endloop
  endfacet
  facet normal -0.829515 -0.558485 0
    outer loop
      vertex 50.7256 93.1924 7
      vertex 51.0576 92.6992 0
      vertex 51.0576 92.6992 7
    endloop
  endfacet
  facet normal -0.964908 -0.262588 0
    outer loop
      vertex 51.1807 92.2471 0
      vertex 51.0576 92.6992 7
      vertex 51.0576 92.6992 0
    endloop
  endfacet
  facet normal -0.964908 -0.262588 0
    outer loop
      vertex 51.0576 92.6992 7
      vertex 51.1807 92.2471 0
      vertex 51.1807 92.2471 7
    endloop
  endfacet
  facet normal -1 0 0
    outer loop
      vertex 51.1807 91.9453 0
      vertex 51.1807 92.2471 7
      vertex 51.1807 92.2471 0
    endloop
  endfacet
  facet normal -1 -0 0
    outer loop
      vertex 51.1807 92.2471 7
      vertex 51.1807 91.9453 0
      vertex 51.1807 91.9453 7
    endloop
  endfacet
  facet normal -0.964908 0.262588 0
    outer loop
      vertex 51.0576 91.4932 0
      vertex 51.1807 91.9453 7
      vertex 51.1807 91.9453 0
    endloop
  endfacet
  facet normal -0.964908 0.262588 0
    outer loop
      vertex 51.1807 91.9453 7
      vertex 51.0576 91.4932 0
      vertex 51.0576 91.4932 7
    endloop
  endfacet
  facet normal -0.829515 0.558485 0
    outer loop
      vertex 50.7256 91 0
      vertex 51.0576 91.4932 7
      vertex 51.0576 91.4932 0
    endloop
  endfacet
  facet normal -0.829515 0.558485 0
    outer loop
      vertex 51.0576 91.4932 7
      vertex 50.7256 91 0
      vertex 50.7256 91 7
    endloop
  endfacet
  facet normal -0.559247 0.829001 0
    outer loop
      vertex 50.7256 91 0
      vertex 50.2334 90.668 7
      vertex 50.7256 91 7
    endloop
  endfacet
  facet normal -0.559247 0.829001 0
    outer loop
      vertex 50.2334 90.668 7
      vertex 50.7256 91 0
      vertex 50.2334 90.668 0
    endloop
  endfacet
  facet normal -0.262588 0.964908 0
    outer loop
      vertex 50.2334 90.668 0
      vertex 49.7812 90.5449 7
      vertex 50.2334 90.668 7
    endloop
  endfacet
  facet normal -0.262588 0.964908 0
    outer loop
      vertex 49.7812 90.5449 7
      vertex 50.2334 90.668 0
      vertex 49.7812 90.5449 0
    endloop
  endfacet
  facet normal 0 1 -0
    outer loop
      vertex 49.7812 90.5449 0
      vertex 49.4795 90.5449 7
      vertex 49.7812 90.5449 7
    endloop
  endfacet
  facet normal 0 1 0
    outer loop
      vertex 49.4795 90.5449 7
      vertex 49.7812 90.5449 0
      vertex 49.4795 90.5449 0
    endloop
  endfacet
  facet normal -0.12941 -0.482963 0.866025
    outer loop
      vertex 17.1476 24.1118 2.12386
      vertex 22.3591 23.7036 2.675
      vertex 17.3947 25.0338 2.675
    endloop
  endfacet
  facet normal -0.12941 -0.482963 0.866025
    outer loop
      vertex 22.3591 23.7036 2.675
      vertex 17.1476 24.1118 2.12386
      vertex 21.9893 22.3234 1.85
    endloop
  endfacet
  facet normal -0.12941 -0.482963 0.866025
    outer loop
      vertex 21.9893 22.3234 1.85
      vertex 17.1476 24.1118 2.12386
      vertex 17.0249 23.6536 1.85
    endloop
  endfacet
  facet normal -0.12941 -0.482963 -0.866025
    outer loop
      vertex 17.1476 24.1118 4.87614
      vertex 22.3591 23.7036 4.325
      vertex 21.9893 22.3234 5.15
    endloop
  endfacet
  facet normal -0.12941 -0.482963 -0.866025
    outer loop
      vertex 22.3591 23.7036 4.325
      vertex 17.1476 24.1118 4.87614
      vertex 17.3947 25.0338 4.325
    endloop
  endfacet
  facet normal -0.12941 -0.482963 -0.866025
    outer loop
      vertex 17.1476 24.1118 4.87614
      vertex 21.9893 22.3234 5.15
      vertex 17.0249 23.6536 5.15
    endloop
  endfacet
  facet normal -0.258819 -0.965926 0
    outer loop
      vertex 17.3947 25.0338 2.675
      vertex 22.3591 23.7036 4.325
      vertex 17.3947 25.0338 4.325
    endloop
  endfacet
  facet normal -0.258819 -0.965926 -0
    outer loop
      vertex 22.3591 23.7036 4.325
      vertex 17.3947 25.0338 2.675
      vertex 22.3591 23.7036 2.675
    endloop
  endfacet
  facet normal 0.12941 0.482963 0.866025
    outer loop
      vertex 17.0249 23.6536 1.85
      vertex 21.6194 20.9431 2.675
      vertex 21.9893 22.3234 1.85
    endloop
  endfacet
  facet normal 0.129409 0.482963 0.866026
    outer loop
      vertex 21.6194 20.9431 2.675
      vertex 17.0249 23.6536 1.85
      vertex 16.655 22.2733 2.675
    endloop
  endfacet
  facet normal 0.258819 0.965926 -0
    outer loop
      vertex 21.6194 20.9431 2.675
      vertex 16.655 22.2733 4.325
      vertex 21.6194 20.9431 4.325
    endloop
  endfacet
  facet normal 0.258819 0.965926 0
    outer loop
      vertex 16.655 22.2733 4.325
      vertex 21.6194 20.9431 2.675
      vertex 16.655 22.2733 2.675
    endloop
  endfacet
  facet normal 0.12941 0.482963 -0.866025
    outer loop
      vertex 21.6194 20.9431 4.325
      vertex 17.0249 23.6536 5.15
      vertex 21.9893 22.3234 5.15
    endloop
  endfacet
  facet normal 0.129409 0.482963 -0.866026
    outer loop
      vertex 17.0249 23.6536 5.15
      vertex 21.6194 20.9431 4.325
      vertex 16.655 22.2733 4.325
    endloop
  endfacet
  facet normal -0.0799797 -0.298487 0.951057
    outer loop
      vertex 15.0333 26.2593 0.996188
      vertex 17.604 25.815 1.07295
      vertex 15.0945 26.4875 1.07295
    endloop
  endfacet
  facet normal -0.0799797 -0.298487 0.951057
    outer loop
      vertex 17.604 25.815 1.07295
      vertex 15.0333 26.2593 0.996188
      vertex 17.1476 24.1118 0.5
    endloop
  endfacet
  facet normal -0.965926 0.258819 0
    outer loop
      vertex 17.8861 26.8677 2.57295
      vertex 17.3947 25.0338 2.675
      vertex 17.8861 26.8677 4.42705
    endloop
  endfacet
  facet normal -0.965926 0.25882 2.2965e-07
    outer loop
      vertex 17.1476 24.1118 0.5
      vertex 17.3947 25.0338 2.675
      vertex 17.8861 26.8677 2.57295
    endloop
  endfacet
  facet normal -0.965926 0.25882 0
    outer loop
      vertex 17.3947 25.0338 2.675
      vertex 17.1476 24.1118 0.5
      vertex 17.1476 24.1118 2.12386
    endloop
  endfacet
  facet normal -0.965926 0.258819 0
    outer loop
      vertex 17.3947 25.0338 4.325
      vertex 17.8861 26.8677 4.42705
      vertex 17.3947 25.0338 2.675
    endloop
  endfacet
  facet normal -0.965926 0.25882 0
    outer loop
      vertex 17.1476 24.1118 6.5
      vertex 17.3947 25.0338 4.325
      vertex 17.1476 24.1118 4.87614
    endloop
  endfacet
  facet normal -0.965926 0.25882 -2.2965e-07
    outer loop
      vertex 17.3947 25.0338 4.325
      vertex 17.1476 24.1118 6.5
      vertex 17.8861 26.8677 4.42705
    endloop
  endfacet
  facet normal -0.0799796 -0.298487 0.951057
    outer loop
      vertex 17.1476 24.1118 0.5
      vertex 15.0333 26.2593 0.996188
      vertex 14.6381 24.7842 0.5
    endloop
  endfacet
  facet normal -0.0799792 -0.298487 -0.951057
    outer loop
      vertex 15.0333 26.2593 6.00381
      vertex 17.1476 24.1118 6.5
      vertex 14.6381 24.7842 6.5
    endloop
  endfacet
  facet normal -0.965926 0.258819 8.23326e-07
    outer loop
      vertex 17.8861 26.8677 2.57295
      vertex 17.604 25.815 1.07295
      vertex 17.1476 24.1118 0.5
    endloop
  endfacet
  facet normal -0.20939 -0.781451 0.587785
    outer loop
      vertex 17.604 25.815 1.07295
      vertex 15.1322 26.6285 1.27391
      vertex 15.0945 26.4875 1.07295
    endloop
  endfacet
  facet normal -0.209389 -0.78145 0.587786
    outer loop
      vertex 15.1322 26.6285 1.27391
      vertex 17.604 25.815 1.07295
      vertex 17.8861 26.8677 2.57295
    endloop
  endfacet
  facet normal -0.965927 0.258816 0
    outer loop
      vertex 17.1476 24.1118 0.5
      vertex 17.0249 23.6536 1.85
      vertex 17.1476 24.1118 2.12386
    endloop
  endfacet
  facet normal -0.965926 0.258819 9.46258e-07
    outer loop
      vertex 16.4092 21.3558 2.57295
      vertex 17.0249 23.6536 1.85
      vertex 17.1476 24.1118 0.5
    endloop
  endfacet
  facet normal -0.965926 0.258817 0
    outer loop
      vertex 16.655 22.2733 2.675
      vertex 16.4092 21.3558 2.57295
      vertex 16.655 22.2733 4.325
    endloop
  endfacet
  facet normal -0.965926 0.258818 -3.58028e-06
    outer loop
      vertex 17.0249 23.6536 1.85
      vertex 16.4092 21.3558 2.57295
      vertex 16.655 22.2733 2.675
    endloop
  endfacet
  facet normal -0.965927 0.258816 0
    outer loop
      vertex 17.0249 23.6536 5.15
      vertex 17.1476 24.1118 6.5
      vertex 17.1476 24.1118 4.87614
    endloop
  endfacet
  facet normal -0.965926 0.258818 3.58028e-06
    outer loop
      vertex 16.4092 21.3558 4.42705
      vertex 17.0249 23.6536 5.15
      vertex 16.655 22.2733 4.325
    endloop
  endfacet
  facet normal -0.965926 0.258819 -9.46257e-07
    outer loop
      vertex 17.0249 23.6536 5.15
      vertex 16.4092 21.3558 4.42705
      vertex 17.1476 24.1118 6.5
    endloop
  endfacet
  facet normal -0.965926 0.258817 0
    outer loop
      vertex 16.4092 21.3558 4.42705
      vertex 16.655 22.2733 4.325
      vertex 16.4092 21.3558 2.57295
    endloop
  endfacet
  facet normal 0.258819 0.965926 -0
    outer loop
      vertex 16.4092 21.3558 2.57295
      vertex 13.8996 22.0282 4.42705
      vertex 16.4092 21.3558 4.42705
    endloop
  endfacet
  facet normal 0.258819 0.965926 0
    outer loop
      vertex 13.8996 22.0282 4.42705
      vertex 16.4092 21.3558 2.57295
      vertex 13.8996 22.0282 2.57295
    endloop
  endfacet
  facet normal -0.965926 0.258819 -8.23327e-07
    outer loop
      vertex 17.604 25.815 5.92705
      vertex 17.8861 26.8677 4.42705
      vertex 17.1476 24.1118 6.5
    endloop
  endfacet
  facet normal 0.209389 0.78145 -0.587786
    outer loop
      vertex 16.4092 21.3558 4.42705
      vertex 13.9374 22.1693 4.62803
      vertex 16.6912 22.4085 5.92705
    endloop
  endfacet
  facet normal 0.209389 0.781451 -0.587784
    outer loop
      vertex 13.9374 22.1693 4.62803
      vertex 16.4092 21.3558 4.42705
      vertex 13.8996 22.0282 4.42705
    endloop
  endfacet
  facet normal -0.965926 0.25882 -2.39224e-06
    outer loop
      vertex 16.6912 22.4085 5.92705
      vertex 17.1476 24.1118 6.5
      vertex 16.4092 21.3558 4.42705
    endloop
  endfacet
  facet normal -0.258819 -0.965926 0
    outer loop
      vertex 15.3765 27.5402 2.57295
      vertex 17.8861 26.8677 4.42705
      vertex 15.3765 27.5402 4.42705
    endloop
  endfacet
  facet normal -0.258819 -0.965926 -0
    outer loop
      vertex 17.8861 26.8677 4.42705
      vertex 15.3765 27.5402 2.57295
      vertex 17.8861 26.8677 2.57295
    endloop
  endfacet
  facet normal -0.209389 -0.78145 0.587785
    outer loop
      vertex 17.8861 26.8677 2.57295
      vertex 15.3765 27.5402 2.57295
      vertex 15.1322 26.6285 1.27391
    endloop
  endfacet
  facet normal 0.209389 0.78145 -0.587785
    outer loop
      vertex 14.1817 23.0809 5.92705
      vertex 16.6912 22.4085 5.92705
      vertex 13.9374 22.1693 4.62803
    endloop
  endfacet
  facet normal 0.0799795 0.298488 -0.951056
    outer loop
      vertex 16.6912 22.4085 5.92705
      vertex 14.2428 23.3091 6.00382
      vertex 17.1476 24.1118 6.5
    endloop
  endfacet
  facet normal 0.0799794 0.298488 -0.951056
    outer loop
      vertex 14.2428 23.3091 6.00382
      vertex 16.6912 22.4085 5.92705
      vertex 14.1817 23.0809 5.92705
    endloop
  endfacet
  facet normal -0.20939 -0.781451 -0.587784
    outer loop
      vertex 15.1322 26.6285 5.72609
      vertex 17.604 25.815 5.92705
      vertex 15.0945 26.4875 5.92705
    endloop
  endfacet
  facet normal -0.209389 -0.78145 -0.587786
    outer loop
      vertex 17.604 25.815 5.92705
      vertex 15.1322 26.6285 5.72609
      vertex 17.8861 26.8677 4.42705
    endloop
  endfacet
  facet normal -0.0799798 -0.298488 -0.951056
    outer loop
      vertex 15.0333 26.2593 6.00381
      vertex 17.604 25.815 5.92705
      vertex 17.1476 24.1118 6.5
    endloop
  endfacet
  facet normal -0.0799799 -0.298488 -0.951056
    outer loop
      vertex 17.604 25.815 5.92705
      vertex 15.0333 26.2593 6.00381
      vertex 15.0945 26.4875 5.92705
    endloop
  endfacet
  facet normal 0.209389 0.78145 0.587785
    outer loop
      vertex 16.6912 22.4085 1.07295
      vertex 14.1817 23.0809 1.07295
      vertex 13.9374 22.1693 2.37197
    endloop
  endfacet
  facet normal 0.0799796 0.298487 0.951057
    outer loop
      vertex 14.6381 24.7842 0.5
      vertex 16.6912 22.4085 1.07295
      vertex 17.1476 24.1118 0.5
    endloop
  endfacet
  facet normal 0.0799792 0.298487 0.951057
    outer loop
      vertex 16.6912 22.4085 1.07295
      vertex 14.6381 24.7842 0.5
      vertex 14.1817 23.0809 1.07295
    endloop
  endfacet
  facet normal 0.0799798 0.298487 -0.951057
    outer loop
      vertex 14.6381 24.7842 6.5
      vertex 17.1476 24.1118 6.5
      vertex 14.2428 23.3091 6.00382
    endloop
  endfacet
  facet normal 0.209389 0.781451 0.587784
    outer loop
      vertex 16.4092 21.3558 2.57295
      vertex 13.9374 22.1693 2.37197
      vertex 13.8996 22.0282 2.57295
    endloop
  endfacet
  facet normal 0.209389 0.78145 0.587786
    outer loop
      vertex 13.9374 22.1693 2.37197
      vertex 16.4092 21.3558 2.57295
      vertex 16.6912 22.4085 1.07295
    endloop
  endfacet
  facet normal -0.965926 0.25882 2.39224e-06
    outer loop
      vertex 17.1476 24.1118 0.5
      vertex 16.6912 22.4085 1.07295
      vertex 16.4092 21.3558 2.57295
    endloop
  endfacet
  facet normal -0.209389 -0.78145 -0.587785
    outer loop
      vertex 15.3765 27.5402 4.42705
      vertex 17.8861 26.8677 4.42705
      vertex 15.1322 26.6285 5.72609
    endloop
  endfacet
  facet normal -0.129408 -0.482957 0.866029
    outer loop
      vertex 27.248 63.7102 2.675
      vertex 32.6351 62.0538 2.55627
      vertex 32.6883 62.2525 2.675
    endloop
  endfacet
  facet normal -0.12941 -0.482962 0.866026
    outer loop
      vertex 32.6351 62.0538 2.55627
      vertex 27.248 63.7102 2.675
      vertex 27.1254 63.2524 2.40138
    endloop
  endfacet
  facet normal -0.12941 -0.482963 0.866025
    outer loop
      vertex 27.1254 63.2524 2.40138
      vertex 32.3185 60.8722 1.85
      vertex 32.6351 62.0538 2.55627
    endloop
  endfacet
  facet normal -0.129409 -0.482963 0.866026
    outer loop
      vertex 32.3185 60.8722 1.85
      vertex 27.1254 63.2524 2.40138
      vertex 26.8782 62.3299 1.85
    endloop
  endfacet
  facet normal -0.12941 -0.482963 -0.866025
    outer loop
      vertex 32.3185 60.8722 5.15
      vertex 27.1254 63.2524 4.59862
      vertex 32.6351 62.0538 4.44373
    endloop
  endfacet
  facet normal -0.129409 -0.482963 -0.866026
    outer loop
      vertex 27.1254 63.2524 4.59862
      vertex 32.3185 60.8722 5.15
      vertex 26.8782 62.3299 5.15
    endloop
  endfacet
  facet normal -0.258819 -0.965926 0
    outer loop
      vertex 27.248 63.7102 2.675
      vertex 32.6883 62.2525 4.325
      vertex 27.248 63.7102 4.325
    endloop
  endfacet
  facet normal -0.258819 -0.965926 -0
    outer loop
      vertex 32.6883 62.2525 4.325
      vertex 27.248 63.7102 2.675
      vertex 32.6883 62.2525 2.675
    endloop
  endfacet
  facet normal -0.129408 -0.482957 -0.866029
    outer loop
      vertex 32.6351 62.0538 4.44373
      vertex 27.248 63.7102 4.325
      vertex 32.6883 62.2525 4.325
    endloop
  endfacet
  facet normal -0.12941 -0.482962 -0.866026
    outer loop
      vertex 27.248 63.7102 4.325
      vertex 32.6351 62.0538 4.44373
      vertex 27.1254 63.2524 4.59862
    endloop
  endfacet
  facet normal 0.129409 0.482963 -0.866026
    outer loop
      vertex 31.9486 59.492 4.325
      vertex 26.8782 62.3299 5.15
      vertex 32.3185 60.8722 5.15
    endloop
  endfacet
  facet normal 0.129409 0.482963 -0.866026
    outer loop
      vertex 26.8782 62.3299 5.15
      vertex 31.9486 59.492 4.325
      vertex 26.5084 60.9497 4.325
    endloop
  endfacet
  facet normal 0.258819 0.965926 -0
    outer loop
      vertex 31.9486 59.492 2.675
      vertex 26.5084 60.9497 4.325
      vertex 31.9486 59.492 4.325
    endloop
  endfacet
  facet normal 0.258819 0.965926 0
    outer loop
      vertex 26.5084 60.9497 4.325
      vertex 31.9486 59.492 2.675
      vertex 26.5084 60.9497 2.675
    endloop
  endfacet
  facet normal 0.129409 0.482963 0.866026
    outer loop
      vertex 26.8782 62.3299 1.85
      vertex 31.9486 59.492 2.675
      vertex 32.3185 60.8722 1.85
    endloop
  endfacet
  facet normal 0.129409 0.482963 0.866026
    outer loop
      vertex 31.9486 59.492 2.675
      vertex 26.8782 62.3299 1.85
      vertex 26.5084 60.9497 2.675
    endloop
  endfacet
  facet normal -0.0799796 -0.298487 0.951057
    outer loop
      vertex 27.322 63.9861 1.07295
      vertex 25.2879 64.5312 1.07295
      vertex 24.9676 63.3356 0.670782
    endloop
  endfacet
  facet normal -0.0799795 -0.298488 -0.951056
    outer loop
      vertex 25.1519 64.0235 6.09783
      vertex 26.8656 62.2829 6.5
      vertex 24.8316 62.8279 6.5
    endloop
  endfacet
  facet normal -0.0799796 -0.298487 0.951057
    outer loop
      vertex 24.9676 63.3356 0.670782
      vertex 26.8656 62.2829 0.5
      vertex 27.322 63.9861 1.07295
    endloop
  endfacet
  facet normal -0.0799794 -0.298487 0.951057
    outer loop
      vertex 26.8656 62.2829 0.5
      vertex 24.9676 63.3356 0.670782
      vertex 24.8316 62.8279 0.5
    endloop
  endfacet
  facet normal 0.20939 0.781451 -0.587784
    outer loop
      vertex 26.1271 59.5269 4.42705
      vertex 24.1772 60.3857 4.87418
      vertex 26.4092 60.5796 5.92705
    endloop
  endfacet
  facet normal 0.209387 0.781448 -0.587789
    outer loop
      vertex 24.1772 60.3857 4.87418
      vertex 26.1271 59.5269 4.42705
      vertex 24.0931 60.0719 4.42705
    endloop
  endfacet
  facet normal 0.0799793 0.298487 0.951057
    outer loop
      vertex 26.8656 62.2829 0.5
      vertex 24.8316 62.8279 0.5
      vertex 24.5112 61.6323 0.902164
    endloop
  endfacet
  facet normal -0.25882 -0.965925 0
    outer loop
      vertex 25.57 65.5838 2.57295
      vertex 27.604 65.0388 4.42705
      vertex 25.57 65.5838 4.42705
    endloop
  endfacet
  facet normal -0.25882 -0.965925 -0
    outer loop
      vertex 27.604 65.0388 4.42705
      vertex 25.57 65.5838 2.57295
      vertex 27.604 65.0388 2.57295
    endloop
  endfacet
  facet normal 0.0799793 0.298487 0.951057
    outer loop
      vertex 24.5112 61.6323 0.902164
      vertex 26.4092 60.5796 1.07295
      vertex 26.8656 62.2829 0.5
    endloop
  endfacet
  facet normal 0.0799804 0.298489 0.951056
    outer loop
      vertex 26.4092 60.5796 1.07295
      vertex 24.5112 61.6323 0.902164
      vertex 24.3752 61.1246 1.07295
    endloop
  endfacet
  facet normal 0.0799796 0.298487 -0.951057
    outer loop
      vertex 24.8316 62.8279 6.5
      vertex 26.8656 62.2829 6.5
      vertex 24.5112 61.6323 6.09784
    endloop
  endfacet
  facet normal -0.20939 -0.78145 0.587785
    outer loop
      vertex 27.322 63.9861 1.07295
      vertex 25.57 65.5838 2.57295
      vertex 25.2879 64.5312 1.07295
    endloop
  endfacet
  facet normal -0.20939 -0.781451 0.587785
    outer loop
      vertex 25.57 65.5838 2.57295
      vertex 27.322 63.9861 1.07295
      vertex 27.604 65.0388 2.57295
    endloop
  endfacet
  facet normal 0.209387 0.781448 0.587789
    outer loop
      vertex 26.1271 59.5269 2.57295
      vertex 24.1772 60.3857 2.12582
      vertex 24.0931 60.0719 2.57295
    endloop
  endfacet
  facet normal 0.20939 0.781451 0.587784
    outer loop
      vertex 24.1772 60.3857 2.12582
      vertex 26.1271 59.5269 2.57295
      vertex 26.4092 60.5796 1.07295
    endloop
  endfacet
  facet normal -0.965926 0.258819 8.6161e-07
    outer loop
      vertex 27.322 63.9861 1.07295
      vertex 26.8656 62.2829 0.5
      vertex 26.4092 60.5796 1.07295
    endloop
  endfacet
  facet normal -0.965926 0.258819 -8.61609e-07
    outer loop
      vertex 26.8656 62.2829 6.5
      vertex 27.322 63.9861 5.92705
      vertex 26.4092 60.5796 5.92705
    endloop
  endfacet
  facet normal -0.20939 -0.78145 -0.587785
    outer loop
      vertex 25.57 65.5838 4.42705
      vertex 27.322 63.9861 5.92705
      vertex 25.2879 64.5312 5.92705
    endloop
  endfacet
  facet normal -0.20939 -0.781451 -0.587785
    outer loop
      vertex 27.322 63.9861 5.92705
      vertex 25.57 65.5838 4.42705
      vertex 27.604 65.0388 4.42705
    endloop
  endfacet
  facet normal -0.965926 0.258819 0
    outer loop
      vertex 27.604 65.0388 2.57295
      vertex 27.248 63.7102 2.675
      vertex 27.604 65.0388 4.42705
    endloop
  endfacet
  facet normal -0.965926 0.258819 3.16389e-07
    outer loop
      vertex 27.604 65.0388 2.57295
      vertex 27.1254 63.2524 2.40138
      vertex 27.248 63.7102 2.675
    endloop
  endfacet
  facet normal -0.965926 0.258819 1.10856e-06
    outer loop
      vertex 27.604 65.0388 2.57295
      vertex 26.8782 62.3299 1.85
      vertex 27.1254 63.2524 2.40138
    endloop
  endfacet
  facet normal -0.965926 0.258819 0
    outer loop
      vertex 26.5084 60.9497 2.675
      vertex 26.4092 60.5796 1.07295
      vertex 26.5084 60.9497 4.325
    endloop
  endfacet
  facet normal -0.965926 0.258819 7.87245e-08
    outer loop
      vertex 26.8782 62.3299 1.85
      vertex 26.4092 60.5796 1.07295
      vertex 26.5084 60.9497 2.675
    endloop
  endfacet
  facet normal -0.965925 0.258821 -5.7483e-06
    outer loop
      vertex 26.4092 60.5796 1.07295
      vertex 26.8782 62.3299 1.85
      vertex 27.604 65.0388 2.57295
    endloop
  endfacet
  facet normal -0.965926 0.258819 0
    outer loop
      vertex 27.248 63.7102 4.325
      vertex 27.604 65.0388 4.42705
      vertex 27.248 63.7102 2.675
    endloop
  endfacet
  facet normal -0.965926 0.258819 -3.16389e-07
    outer loop
      vertex 27.1254 63.2524 4.59862
      vertex 27.604 65.0388 4.42705
      vertex 27.248 63.7102 4.325
    endloop
  endfacet
  facet normal -0.965926 0.258819 -1.10856e-06
    outer loop
      vertex 26.8782 62.3299 5.15
      vertex 27.604 65.0388 4.42705
      vertex 27.1254 63.2524 4.59862
    endloop
  endfacet
  facet normal -0.965925 0.258821 5.7483e-06
    outer loop
      vertex 26.8782 62.3299 5.15
      vertex 26.4092 60.5796 5.92705
      vertex 27.604 65.0388 4.42705
    endloop
  endfacet
  facet normal -0.965926 0.258819 -7.87245e-08
    outer loop
      vertex 26.5084 60.9497 4.325
      vertex 26.4092 60.5796 5.92705
      vertex 26.8782 62.3299 5.15
    endloop
  endfacet
  facet normal -0.965926 0.258819 0
    outer loop
      vertex 26.4092 60.5796 5.92705
      vertex 26.5084 60.9497 4.325
      vertex 26.4092 60.5796 1.07295
    endloop
  endfacet
  facet normal -0.965926 0.258819 -2.62337e-07
    outer loop
      vertex 27.322 63.9861 5.92705
      vertex 27.604 65.0388 4.42705
      vertex 26.4092 60.5796 5.92705
    endloop
  endfacet
  facet normal -0.965926 0.258819 2.62337e-07
    outer loop
      vertex 27.604 65.0388 2.57295
      vertex 27.322 63.9861 1.07295
      vertex 26.4092 60.5796 1.07295
    endloop
  endfacet
  facet normal 0.258818 0.965926 -0
    outer loop
      vertex 26.1271 59.5269 2.57295
      vertex 24.0931 60.0719 4.42705
      vertex 26.1271 59.5269 4.42705
    endloop
  endfacet
  facet normal 0.258818 0.965926 0
    outer loop
      vertex 24.0931 60.0719 4.42705
      vertex 26.1271 59.5269 2.57295
      vertex 24.0931 60.0719 2.57295
    endloop
  endfacet
  facet normal -0.965926 0.258818 0
    outer loop
      vertex 26.1271 59.5269 2.57295
      vertex 26.4092 60.5796 5.92705
      vertex 26.4092 60.5796 1.07295
    endloop
  endfacet
  facet normal -0.965926 0.258818 0
    outer loop
      vertex 26.4092 60.5796 5.92705
      vertex 26.1271 59.5269 2.57295
      vertex 26.1271 59.5269 4.42705
    endloop
  endfacet
  facet normal -0.0799792 -0.298488 -0.951056
    outer loop
      vertex 25.1519 64.0235 6.09783
      vertex 27.322 63.9861 5.92705
      vertex 26.8656 62.2829 6.5
    endloop
  endfacet
  facet normal -0.0799793 -0.298486 -0.951057
    outer loop
      vertex 27.322 63.9861 5.92705
      vertex 25.1519 64.0235 6.09783
      vertex 25.2879 64.5312 5.92705
    endloop
  endfacet
  facet normal 0.20939 0.78145 -0.587786
    outer loop
      vertex 24.3752 61.1246 5.92705
      vertex 26.4092 60.5796 5.92705
      vertex 24.1772 60.3857 4.87418
    endloop
  endfacet
  facet normal 0.0799794 0.298487 -0.951057
    outer loop
      vertex 26.4092 60.5796 5.92705
      vertex 24.5112 61.6323 6.09784
      vertex 26.8656 62.2829 6.5
    endloop
  endfacet
  facet normal 0.0799806 0.298489 -0.951056
    outer loop
      vertex 24.5112 61.6323 6.09784
      vertex 26.4092 60.5796 5.92705
      vertex 24.3752 61.1246 5.92705
    endloop
  endfacet
  facet normal 0.20939 0.78145 0.587786
    outer loop
      vertex 26.4092 60.5796 1.07295
      vertex 24.3752 61.1246 1.07295
      vertex 24.1772 60.3857 2.12582
    endloop
  endfacet
endsolid OpenSCAD_Model
