  0
SECTION
  2
HEADER
  9
$ACADVER
  1
AC1009
  9
$EXTMIN
 10
0.0
 20
0.0
 30
0.0
  9
$EXTMAX
 10
1000.0
 20
1000.0
 30
0.0
  9
$FILLMODE
 70
 0
  9
$SPLFRAME
 70
 1
  0
ENDSEC
  0
SECTION
  2
TABLES
  0
TABLE
  2
LAYER
 70
1
  0
LAYER
  2
0
 70
     0
 62
     7
  6
CONTINUOUS
  0
ENDTAB
  0
ENDSEC
  0
SECTION
  2
ENTITIES
  0
LINE
  8
0
 62
     0
 10
52.2358
 20
97.0456
 30
0.0
 11
52.397
 21
97.0456
 31
0.0
  0
LINE
  8
0
 62
     0
 10
52.397
 20
97.0456
 30
0.0
 11
52.8835
 21
96.9162
 31
0.0
  0
LINE
  8
0
 62
     0
 10
52.8835
 20
96.9162
 30
0.0
 11
53.4127
 21
96.5592
 31
0.0
  0
LINE
  8
0
 62
     0
 10
53.4127
 20
96.5592
 30
0.0
 11
53.7697
 21
96.03
 31
0.0
  0
LINE
  8
0
 62
     0
 10
53.7697
 20
96.03
 30
0.0
 11
53.9006
 21
95.5435
 31
0.0
  0
LINE
  8
0
 62
     0
 10
53.9006
 20
95.5435
 30
0.0
 11
53.9006
 21
95.3809
 31
0.0
  0
LINE
  8
0
 62
     0
 10
53.9006
 20
95.3809
 30
0.0
 11
53.9006
 21
88.8104
 31
0.0
  0
LINE
  8
0
 62
     0
 10
53.9006
 20
88.8104
 30
0.0
 11
53.9006
 21
88.6492
 31
0.0
  0
LINE
  8
0
 62
     0
 10
53.9006
 20
88.6492
 30
0.0
 11
53.7697
 21
88.1627
 31
0.0
  0
LINE
  8
0
 62
     0
 10
53.7697
 20
88.1627
 30
0.0
 11
53.4127
 21
87.6335
 31
0.0
  0
LINE
  8
0
 62
     0
 10
53.4127
 20
87.6335
 30
0.0
 11
52.8835
 21
87.2765
 31
0.0
  0
LINE
  8
0
 62
     0
 10
52.8835
 20
87.2765
 30
0.0
 11
52.397
 21
87.1456
 31
0.0
  0
LINE
  8
0
 62
     0
 10
52.397
 20
87.1456
 30
0.0
 11
52.2358
 21
87.1456
 31
0.0
  0
LINE
  8
0
 62
     0
 10
52.2358
 20
87.1456
 30
0.0
 11
39.358
 21
87.1456
 31
0.0
  0
LINE
  8
0
 62
     0
 10
39.358
 20
87.1456
 30
0.0
 11
21.3954
 21
20.107
 31
0.0
  0
LINE
  8
0
 62
     0
 10
21.3954
 20
20.107
 30
0.0
 11
21.1928
 21
19.5723
 31
0.0
  0
LINE
  8
0
 62
     0
 10
21.1928
 20
19.5723
 30
0.0
 11
20.7918
 21
17.8911
 31
0.0
  0
LINE
  8
0
 62
     0
 10
20.7918
 20
17.8911
 30
0.0
 11
20.5824
 21
15.5663
 31
0.0
  0
LINE
  8
0
 62
     0
 10
20.5824
 20
15.5663
 30
0.0
 11
20.7712
 21
13.2581
 31
0.0
  0
LINE
  8
0
 62
     0
 10
20.7712
 20
13.2581
 30
0.0
 11
21.3596
 21
11.0905
 31
0.0
  0
LINE
  8
0
 62
     0
 10
21.3596
 20
11.0905
 30
0.0
 11
22.349
 21
9.18877
 31
0.0
  0
LINE
  8
0
 62
     0
 10
22.349
 20
9.18877
 30
0.0
 11
23.7422
 21
7.67704
 31
0.0
  0
LINE
  8
0
 62
     0
 10
23.7422
 20
7.67704
 30
0.0
 11
25.5419
 21
6.67798
 31
0.0
  0
LINE
  8
0
 62
     0
 10
25.5419
 20
6.67798
 30
0.0
 11
27.197
 21
6.31694
 31
0.0
  0
LINE
  8
0
 62
     0
 10
27.197
 20
6.31694
 30
0.0
 11
27.7496
 21
6.31694
 31
0.0
  0
LINE
  8
0
 62
     0
 10
27.7496
 20
6.31694
 30
0.0
 11
78.2214
 21
6.31694
 31
0.0
  0
LINE
  8
0
 62
     0
 10
78.2214
 20
6.31694
 30
0.0
 11
78.2214
 21
0.132292
 31
0.0
  0
LINE
  8
0
 62
     0
 10
78.2214
 20
0.132292
 30
0.0
 11
0.132292
 21
0.132292
 31
0.0
  0
LINE
  8
0
 62
     0
 10
0.132292
 20
0.132292
 30
0.0
 11
0.132292
 21
8.26823
 31
0.0
  0
LINE
  8
0
 62
     0
 10
0.132292
 20
8.26823
 30
0.0
 11
0.132292
 21
8.44049
 31
0.0
  0
LINE
  8
0
 62
     0
 10
0.132292
 20
8.44049
 30
0.0
 11
0.270095
 21
8.95724
 31
0.0
  0
LINE
  8
0
 62
     0
 10
0.270095
 20
8.95724
 30
0.0
 11
0.647679
 21
9.51675
 31
0.0
  0
LINE
  8
0
 62
     0
 10
0.647679
 20
9.51675
 30
0.0
 11
1.20716
 21
9.89432
 31
0.0
  0
LINE
  8
0
 62
     0
 10
1.20716
 20
9.89432
 30
0.0
 11
1.72393
 21
10.0321
 31
0.0
  0
LINE
  8
0
 62
     0
 10
1.72393
 20
10.0321
 30
0.0
 11
1.89618
 21
10.0321
 31
0.0
  0
LINE
  8
0
 62
     0
 10
1.89618
 20
10.0321
 30
0.0
 11
3.26871
 21
10.0321
 31
0.0
  0
LINE
  8
0
 62
     0
 10
3.26871
 20
10.0321
 30
0.0
 11
3.43958
 21
10.0321
 31
0.0
  0
LINE
  8
0
 62
     0
 10
3.43958
 20
10.0321
 30
0.0
 11
3.95633
 21
9.89432
 31
0.0
  0
LINE
  8
0
 62
     0
 10
3.95633
 20
9.89432
 30
0.0
 11
4.51584
 21
9.51675
 31
0.0
  0
LINE
  8
0
 62
     0
 10
4.51584
 20
9.51675
 30
0.0
 11
4.89342
 21
8.95724
 31
0.0
  0
LINE
  8
0
 62
     0
 10
4.89342
 20
8.95724
 30
0.0
 11
5.03259
 21
8.44049
 31
0.0
  0
LINE
  8
0
 62
     0
 10
5.03259
 20
8.44049
 30
0.0
 11
5.03259
 21
8.26823
 31
0.0
  0
LINE
  8
0
 62
     0
 10
5.03259
 20
8.26823
 30
0.0
 11
5.03259
 21
5.03259
 31
0.0
  0
LINE
  8
0
 62
     0
 10
5.03259
 20
5.03259
 30
0.0
 11
9.34586
 21
5.03259
 31
0.0
  0
LINE
  8
0
 62
     0
 10
9.34586
 20
5.03259
 30
0.0
 11
34.0003
 21
97.0456
 31
0.0
  0
LINE
  8
0
 62
     0
 10
34.0003
 20
97.0456
 30
0.0
 11
52.2358
 21
97.0456
 31
0.0
  0
LINE
  8
0
 62
     0
 10
49.6316
 20
93.6459
 30
0.0
 11
49.4799
 21
93.6459
 31
0.0
  0
LINE
  8
0
 62
     0
 10
49.4799
 20
93.6459
 30
0.0
 11
49.0266
 21
93.5246
 31
0.0
  0
LINE
  8
0
 62
     0
 10
49.0266
 20
93.5246
 30
0.0
 11
48.5345
 21
93.1926
 31
0.0
  0
LINE
  8
0
 62
     0
 10
48.5345
 20
93.1926
 30
0.0
 11
48.2025
 21
92.6994
 31
0.0
  0
LINE
  8
0
 62
     0
 10
48.2025
 20
92.6994
 30
0.0
 11
48.0811
 21
92.2472
 31
0.0
  0
LINE
  8
0
 62
     0
 10
48.0811
 20
92.2472
 30
0.0
 11
48.0811
 21
92.0958
 31
0.0
  0
LINE
  8
0
 62
     0
 10
48.0811
 20
92.0958
 30
0.0
 11
48.0811
 21
91.9455
 31
0.0
  0
LINE
  8
0
 62
     0
 10
48.0811
 20
91.9455
 30
0.0
 11
48.2025
 21
91.4936
 31
0.0
  0
LINE
  8
0
 62
     0
 10
48.2025
 20
91.4936
 30
0.0
 11
48.5345
 21
91.0001
 31
0.0
  0
LINE
  8
0
 62
     0
 10
48.5345
 20
91.0001
 30
0.0
 11
49.0266
 21
90.6681
 31
0.0
  0
LINE
  8
0
 62
     0
 10
49.0266
 20
90.6681
 30
0.0
 11
49.4799
 21
90.5454
 31
0.0
  0
LINE
  8
0
 62
     0
 10
49.4799
 20
90.5454
 30
0.0
 11
49.6316
 21
90.5454
 31
0.0
  0
LINE
  8
0
 62
     0
 10
49.6316
 20
90.5454
 30
0.0
 11
49.7815
 21
90.5454
 31
0.0
  0
LINE
  8
0
 62
     0
 10
49.7815
 20
90.5454
 30
0.0
 11
50.2338
 21
90.6681
 31
0.0
  0
LINE
  8
0
 62
     0
 10
50.2338
 20
90.6681
 30
0.0
 11
50.7256
 21
91.0001
 31
0.0
  0
LINE
  8
0
 62
     0
 10
50.7256
 20
91.0001
 30
0.0
 11
51.0575
 21
91.4936
 31
0.0
  0
LINE
  8
0
 62
     0
 10
51.0575
 20
91.4936
 30
0.0
 11
51.1803
 21
91.9455
 31
0.0
  0
LINE
  8
0
 62
     0
 10
51.1803
 20
91.9455
 30
0.0
 11
51.1803
 21
92.0958
 31
0.0
  0
LINE
  8
0
 62
     0
 10
51.1803
 20
92.0958
 30
0.0
 11
51.1803
 21
92.2472
 31
0.0
  0
LINE
  8
0
 62
     0
 10
51.1803
 20
92.2472
 30
0.0
 11
51.0575
 21
92.6994
 31
0.0
  0
LINE
  8
0
 62
     0
 10
51.0575
 20
92.6994
 30
0.0
 11
50.7256
 21
93.1926
 31
0.0
  0
LINE
  8
0
 62
     0
 10
50.7256
 20
93.1926
 30
0.0
 11
50.2338
 21
93.5246
 31
0.0
  0
LINE
  8
0
 62
     0
 10
50.2338
 20
93.5246
 30
0.0
 11
49.7815
 21
93.6459
 31
0.0
  0
LINE
  8
0
 62
     0
 10
49.7815
 20
93.6459
 30
0.0
 11
49.6316
 21
93.6459
 31
0.0
  0
ENDSEC
  0
EOF
