<?xml version="1.0" encoding="UTF-8" standalone="no"?>
<!-- Created with Inkscape (http://www.inkscape.org/) -->

<svg
   xmlns:dc="http://purl.org/dc/elements/1.1/"
   xmlns:cc="http://creativecommons.org/ns#"
   xmlns:rdf="http://www.w3.org/1999/02/22-rdf-syntax-ns#"
   xmlns:svg="http://www.w3.org/2000/svg"
   xmlns="http://www.w3.org/2000/svg"
   xmlns:sodipodi="http://sodipodi.sourceforge.net/DTD/sodipodi-0.dtd"
   xmlns:inkscape="http://www.inkscape.org/namespaces/inkscape"
   width="80.353752mm"
   height="97.178047mm"
   viewBox="0 0 80.353752 97.178047"
   version="1.1"
   id="svg8"
   inkscape:version="0.92.1 r15371"
   sodipodi:docname="pied.svg">
  <defs
     id="defs2" />
  <sodipodi:namedview
     id="base"
     pagecolor="#ffffff"
     bordercolor="#666666"
     borderopacity="1.0"
     inkscape:pageopacity="0.0"
     inkscape:pageshadow="2"
     inkscape:zoom="1.6686063"
     inkscape:cx="57.903707"
     inkscape:cy="185.45443"
     inkscape:document-units="mm"
     inkscape:current-layer="layer1"
     showgrid="false"
     inkscape:window-width="1920"
     inkscape:window-height="995"
     inkscape:window-x="1280"
     inkscape:window-y="0"
     inkscape:window-maximized="1"
     fit-margin-top="0"
     fit-margin-left="0"
     fit-margin-right="0"
     fit-margin-bottom="0"
     showborder="false" />
  <metadata
     id="metadata5">
    <rdf:RDF>
      <cc:Work
         rdf:about="">
        <dc:format>image/svg+xml</dc:format>
        <dc:type
           rdf:resource="http://purl.org/dc/dcmitype/StillImage" />
        <dc:title></dc:title>
      </cc:Work>
    </rdf:RDF>
  </metadata>
  <g
     inkscape:label="Calque 1"
     inkscape:groupmode="layer"
     id="layer1"
     transform="translate(-33.280138,-55.316003)">
    <path
       style="fill:none;fill-rule:evenodd;stroke:#000000;stroke-width:0.26458332px;stroke-linecap:butt;stroke-linejoin:miter;stroke-opacity:1"
       d="m 85.515585,55.448295 c 0.922375,0 1.665015,0.74264 1.665015,1.665015 v 6.570141 c 0,0.922374 -0.74264,1.665015 -1.665015,1.665015 H 72.638519 L 54.675502,132.38656 c -2.132606,5.65793 -0.07806,13.79102 6.353692,13.79102 H 111.5016 v 6.18418 H 43.414797 41.312601 36.548671 35.176663 33.41243 v -1.76424 -3.13572 -3.23598 c 0,-0.97728 0.786952,-1.76423 1.764233,-1.76423 h 1.372008 c 0.977281,0 1.764233,0.78695 1.764233,1.76423 v 3.23598 h 4.312795 L 67.280523,55.448295 h 1.665015 3.345532 z m -2.604492,3.399792 c -0.856268,-1.61e-4 -1.550453,0.694023 -1.550292,1.550292 1.22e-4,0.85607 0.694222,1.54994 1.550292,1.549778 0.855866,-1.24e-4 1.549654,-0.693912 1.549776,-1.549778 1.61e-4,-0.856068 -0.693709,-1.550167 -1.549776,-1.550292 z"
       id="path4485"
       inkscape:connector-curvature="0"
       sodipodi:nodetypes="ssssccscccccccccsssscccccsccccc" />
  </g>
</svg>
