<?xml version="1.0" encoding="UTF-8" standalone="no"?>
<!-- Created with Inkscape (http://www.inkscape.org/) -->

<svg
   xmlns:dc="http://purl.org/dc/elements/1.1/"
   xmlns:cc="http://creativecommons.org/ns#"
   xmlns:rdf="http://www.w3.org/1999/02/22-rdf-syntax-ns#"
   xmlns:svg="http://www.w3.org/2000/svg"
   xmlns="http://www.w3.org/2000/svg"
   xmlns:xlink="http://www.w3.org/1999/xlink"
   xmlns:sodipodi="http://sodipodi.sourceforge.net/DTD/sodipodi-0.dtd"
   xmlns:inkscape="http://www.inkscape.org/namespaces/inkscape"
   sodipodi:docname="profil.svg"
   inkscape:version="0.92.1 r15371"
   id="svg8"
   version="1.1"
   viewBox="0 0 91.237999 66.381943"
   height="66.381943mm"
   width="91.237999mm">
  <sodipodi:namedview
     showborder="false"
     fit-margin-bottom="0"
     fit-margin-right="0"
     fit-margin-left="0"
     fit-margin-top="0"
     inkscape:measure-end="-30.2346,43.8793"
     inkscape:measure-start="-30.2346,197.708"
     inkscape:window-maximized="1"
     inkscape:window-y="0"
     inkscape:window-x="1280"
     inkscape:window-height="995"
     inkscape:window-width="1920"
     showgrid="false"
     inkscape:current-layer="layer2"
     inkscape:document-units="mm"
     inkscape:cy="88.710178"
     inkscape:cx="158.15369"
     inkscape:zoom="2.3597656"
     inkscape:pageshadow="2"
     inkscape:pageopacity="0.0"
     borderopacity="1.0"
     bordercolor="#666666"
     pagecolor="#ffffff"
     id="base"
     inkscape:snap-global="true" />
  <defs
     id="defs2" />
  <metadata
     id="metadata5">
    <rdf:RDF>
      <cc:Work
         rdf:about="">
        <dc:format>image/svg+xml</dc:format>
        <dc:type
           rdf:resource="http://purl.org/dc/dcmitype/StillImage" />
        <dc:title />
      </cc:Work>
    </rdf:RDF>
  </metadata>
  <g
     transform="translate(-49.729401,-89.482483)"
     sodipodi:insensitive="true"
     style="display:none"
     id="layer1"
     inkscape:groupmode="layer"
     inkscape:label="Calque 1">
    <image
       sodipodi:absref="/home/jjl/sources/github/photobooth/hardware/meca_52pi/Outlinedrawing_7_1_1_1.jpg"
       xlink:href="Outlinedrawing_7_1_1_1.jpg"
       y="54.917778"
       x="27.96698"
       id="image4566"
       preserveAspectRatio="none"
       height="132.8235"
       width="132.8235"
       style="stroke-width:1.39439428" />
  </g>
  <g
     transform="translate(-49.729401,-89.482483)"
     style="opacity:1"
     inkscape:label="Calque 2"
     id="layer2"
     inkscape:groupmode="layer">
    <path
       style="fill:none;fill-opacity:1;stroke:#000000;stroke-width:0.37795276;stroke-miterlimit:4;stroke-dasharray:none;stroke-dashoffset:0;stroke-opacity:1"
       d="M 0.9453125 0.9453125 L 0.9453125 30.822266 L -54.746094 30.822266 L -54.746094 68.240234 L 0.9453125 68.240234 L 0.9453125 182.73438 L -54.746094 182.73438 L -54.746094 220.15234 L 0.9453125 220.15234 L 0.9453125 249.94727 L 343.89258 249.94727 L 343.89258 220.15234 L 398.79688 220.15234 L 398.79688 182.73438 L 343.89258 182.73438 L 343.89258 68.240234 L 398.79688 68.240234 L 398.79688 30.822266 L 343.89258 30.822266 L 343.89258 0.9453125 L 0.9453125 0.9453125 z M 13.691406 9.0976562 L 15.787109 9.5214844 L 17.5 10.673828 L 18.654297 12.386719 L 19.078125 14.482422 L 18.667969 16.544922 L 17.5 18.291016 L 15.753906 19.458984 L 13.691406 19.869141 L 11.595703 19.445312 L 9.8828125 18.291016 L 8.7304688 16.578125 L 8.3066406 14.482422 L 8.7304688 12.386719 L 9.8847656 10.675781 L 11.595703 9.5214844 L 13.691406 9.0976562 z M 336.24219 9.9179688 L 338.33789 10.341797 L 340.05078 11.494141 L 341.20508 13.207031 L 341.62891 15.302734 L 341.21875 17.365234 L 340.05078 19.111328 L 338.30469 20.279297 L 336.24219 20.689453 L 334.14648 20.265625 L 332.43359 19.111328 L 331.28125 17.398438 L 330.85742 15.302734 L 331.28125 13.207031 L 332.43555 11.496094 L 334.14648 10.341797 L 336.24219 9.9179688 z M 38.369141 18.117188 L 308.1582 18.117188 L 173.26367 114.78906 L 38.369141 18.117188 z M 24.546875 29.609375 L 158.33398 125.48828 L 24.546875 221.36523 L 24.546875 29.609375 z M 320.28906 30.822266 L 320.28906 68.240234 L 320.28906 182.73438 L 320.28906 220.15234 L 188.19336 125.48828 L 320.28906 30.822266 z M -39.298828 43.671875 A 5.8582674 5.8582674 0 0 1 -33.439453 49.53125 A 5.8582674 5.8582674 0 0 1 -39.298828 55.388672 A 5.8582674 5.8582674 0 0 1 -45.15625 49.53125 A 5.8582674 5.8582674 0 0 1 -39.298828 43.671875 z M 383.34961 43.671875 A 5.8582677 5.8582677 0 0 1 389.20898 49.53125 A 5.8582677 5.8582677 0 0 1 383.34961 55.388672 A 5.8582677 5.8582677 0 0 1 377.49219 49.53125 A 5.8582677 5.8582677 0 0 1 383.34961 43.671875 z M 173.26367 136.1875 L 308.04102 232.77539 L 38.486328 232.77539 L 173.26367 136.1875 z M -39.298828 195.58594 A 5.8582675 5.8582675 0 0 1 -33.439453 201.44336 A 5.8582675 5.8582675 0 0 1 -39.298828 207.30273 A 5.8582675 5.8582675 0 0 1 -45.15625 201.44336 A 5.8582675 5.8582675 0 0 1 -39.298828 195.58594 z M 383.34961 195.58594 A 5.8582676 5.8582676 0 0 1 389.20898 201.44336 A 5.8582676 5.8582676 0 0 1 383.34961 207.30273 A 5.8582676 5.8582676 0 0 1 377.49219 201.44336 A 5.8582676 5.8582676 0 0 1 383.34961 195.58594 z M 10.646484 234.61719 L 12.708984 235.02734 L 14.455078 236.19531 L 15.623047 237.94141 L 16.033203 240.00391 L 15.609375 242.09961 L 14.455078 243.8125 L 12.742188 244.96484 L 10.646484 245.38867 L 8.5507812 244.96484 L 6.8378906 243.8125 L 5.6835938 242.09961 L 5.2597656 240.00391 L 5.6699219 237.94141 L 6.8378906 236.19531 L 8.5839844 235.02734 L 10.646484 234.61719 z M 301.94922 237.45898 L 304.01172 237.86914 L 305.75781 239.03711 L 306.92578 240.7832 L 307.33594 242.8457 L 306.91211 244.94141 L 305.75781 246.6543 L 304.04492 247.80664 L 301.94922 248.23047 L 299.85352 247.80664 L 298.14062 246.6543 L 296.98633 244.94141 L 296.5625 242.8457 L 296.97266 240.7832 L 298.14062 239.03711 L 299.88672 237.86914 L 301.94922 237.45898 z "
       transform="matrix(0.26458333,0,0,0.26458333,49.729401,89.482483)"
       id="rect4572" />
  </g>
</svg>
