  0
SECTION
  2
HEADER
  9
$ACADVER
  1
AC1009
  9
$EXTMIN
 10
0.0
 20
0.0
 30
0.0
  9
$EXTMAX
 10
1000.0
 20
1000.0
 30
0.0
  9
$FILLMODE
 70
 0
  9
$SPLFRAME
 70
 1
  0
ENDSEC
  0
SECTION
  2
TABLES
  0
TABLE
  2
LAYER
 70
1
  0
LAYER
  2
0
 70
     0
 62
     7
  6
CONTINUOUS
  0
ENDTAB
  0
ENDSEC
  0
SECTION
  2
ENTITIES
  0
LINE
  8
0
 62
     0
 10
14.785
 20
65.9324
 30
0.0
 11
14.785
 21
58.0263
 31
0.0
  0
LINE
  8
0
 62
     0
 10
14.785
 20
58.0263
 30
0.0
 11
0.0496094
 21
58.0263
 31
0.0
  0
LINE
  8
0
 62
     0
 10
0.0496094
 20
58.0263
 30
0.0
 11
0.0496094
 21
48.1266
 31
0.0
  0
LINE
  8
0
 62
     0
 10
0.0496094
 20
48.1266
 30
0.0
 11
14.785
 21
48.1266
 31
0.0
  0
LINE
  8
0
 62
     0
 10
14.785
 20
48.1266
 30
0.0
 11
14.785
 21
17.8332
 31
0.0
  0
LINE
  8
0
 62
     0
 10
14.785
 20
17.8332
 30
0.0
 11
0.0496094
 21
17.8332
 31
0.0
  0
LINE
  8
0
 62
     0
 10
0.0496094
 20
17.8332
 30
0.0
 11
0.0496094
 21
7.93337
 31
0.0
  0
LINE
  8
0
 62
     0
 10
0.0496094
 20
7.93337
 30
0.0
 11
14.785
 21
7.93337
 31
0.0
  0
LINE
  8
0
 62
     0
 10
14.785
 20
7.93337
 30
0.0
 11
14.785
 21
0.0496094
 31
0.0
  0
LINE
  8
0
 62
     0
 10
14.785
 20
0.0496094
 30
0.0
 11
105.523
 21
0.0496094
 31
0.0
  0
LINE
  8
0
 62
     0
 10
105.523
 20
0.0496094
 30
0.0
 11
105.523
 21
7.93337
 31
0.0
  0
LINE
  8
0
 62
     0
 10
105.523
 20
7.93337
 30
0.0
 11
120.051
 21
7.93337
 31
0.0
  0
LINE
  8
0
 62
     0
 10
120.051
 20
7.93337
 30
0.0
 11
120.051
 21
17.8332
 31
0.0
  0
LINE
  8
0
 62
     0
 10
120.051
 20
17.8332
 30
0.0
 11
105.523
 21
17.8332
 31
0.0
  0
LINE
  8
0
 62
     0
 10
105.523
 20
17.8332
 30
0.0
 11
105.523
 21
48.1266
 31
0.0
  0
LINE
  8
0
 62
     0
 10
105.523
 20
48.1266
 30
0.0
 11
120.051
 21
48.1266
 31
0.0
  0
LINE
  8
0
 62
     0
 10
120.051
 20
48.1266
 30
0.0
 11
120.051
 21
58.0263
 31
0.0
  0
LINE
  8
0
 62
     0
 10
120.051
 20
58.0263
 30
0.0
 11
105.523
 21
58.0263
 31
0.0
  0
LINE
  8
0
 62
     0
 10
105.523
 20
58.0263
 30
0.0
 11
105.523
 21
65.9324
 31
0.0
  0
LINE
  8
0
 62
     0
 10
105.523
 20
65.9324
 30
0.0
 11
14.785
 21
65.9324
 31
0.0
  0
LINE
  8
0
 62
     0
 10
18.157
 20
63.7741
 30
0.0
 11
18.7124
 21
63.6626
 31
0.0
  0
LINE
  8
0
 62
     0
 10
18.7124
 20
63.6626
 30
0.0
 11
19.1657
 21
63.3582
 31
0.0
  0
LINE
  8
0
 62
     0
 10
19.1657
 20
63.3582
 30
0.0
 11
19.4703
 21
62.9049
 31
0.0
  0
LINE
  8
0
 62
     0
 10
19.4703
 20
62.9049
 30
0.0
 11
19.5833
 21
62.3507
 31
0.0
  0
LINE
  8
0
 62
     0
 10
19.5833
 20
62.3507
 30
0.0
 11
19.4744
 21
61.8049
 31
0.0
  0
LINE
  8
0
 62
     0
 10
19.4744
 20
61.8049
 30
0.0
 11
19.1657
 21
61.3421
 31
0.0
  0
LINE
  8
0
 62
     0
 10
19.1657
 20
61.3421
 30
0.0
 11
18.7027
 21
61.0334
 31
0.0
  0
LINE
  8
0
 62
     0
 10
18.7027
 20
61.0334
 30
0.0
 11
18.157
 21
60.9244
 31
0.0
  0
LINE
  8
0
 62
     0
 10
18.157
 20
60.9244
 30
0.0
 11
17.603
 21
61.0376
 31
0.0
  0
LINE
  8
0
 62
     0
 10
17.603
 20
61.0376
 30
0.0
 11
17.1497
 21
61.3421
 31
0.0
  0
LINE
  8
0
 62
     0
 10
17.1497
 20
61.3421
 30
0.0
 11
16.8451
 21
61.7954
 31
0.0
  0
LINE
  8
0
 62
     0
 10
16.8451
 20
61.7954
 30
0.0
 11
16.7321
 21
62.3507
 31
0.0
  0
LINE
  8
0
 62
     0
 10
16.7321
 20
62.3507
 30
0.0
 11
16.8451
 21
62.9049
 31
0.0
  0
LINE
  8
0
 62
     0
 10
16.8451
 20
62.9049
 30
0.0
 11
17.1497
 21
63.3568
 31
0.0
  0
LINE
  8
0
 62
     0
 10
17.1497
 20
63.3568
 30
0.0
 11
17.603
 21
63.6626
 31
0.0
  0
LINE
  8
0
 62
     0
 10
17.603
 20
63.6626
 30
0.0
 11
18.157
 21
63.7741
 31
0.0
  0
LINE
  8
0
 62
     0
 10
103.499
 20
63.5579
 30
0.0
 11
104.053
 21
63.4464
 31
0.0
  0
LINE
  8
0
 62
     0
 10
104.053
 20
63.4464
 30
0.0
 11
104.506
 21
63.1402
 31
0.0
  0
LINE
  8
0
 62
     0
 10
104.506
 20
63.1402
 30
0.0
 11
104.812
 21
62.6869
 31
0.0
  0
LINE
  8
0
 62
     0
 10
104.812
 20
62.6869
 30
0.0
 11
104.924
 21
62.133
 31
0.0
  0
LINE
  8
0
 62
     0
 10
104.924
 20
62.133
 30
0.0
 11
104.816
 21
61.5872
 31
0.0
  0
LINE
  8
0
 62
     0
 10
104.816
 20
61.5872
 30
0.0
 11
104.506
 21
61.1258
 31
0.0
  0
LINE
  8
0
 62
     0
 10
104.506
 20
61.1258
 30
0.0
 11
104.045
 21
60.8171
 31
0.0
  0
LINE
  8
0
 62
     0
 10
104.045
 20
60.8171
 30
0.0
 11
103.499
 21
60.7081
 31
0.0
  0
LINE
  8
0
 62
     0
 10
103.499
 20
60.7081
 30
0.0
 11
102.945
 21
60.8196
 31
0.0
  0
LINE
  8
0
 62
     0
 10
102.945
 20
60.8196
 30
0.0
 11
102.491
 21
61.1258
 31
0.0
  0
LINE
  8
0
 62
     0
 10
102.491
 20
61.1258
 30
0.0
 11
102.187
 21
61.5791
 31
0.0
  0
LINE
  8
0
 62
     0
 10
102.187
 20
61.5791
 30
0.0
 11
102.074
 21
62.133
 31
0.0
  0
LINE
  8
0
 62
     0
 10
102.074
 20
62.133
 30
0.0
 11
102.187
 21
62.6869
 31
0.0
  0
LINE
  8
0
 62
     0
 10
102.187
 20
62.6869
 30
0.0
 11
102.491
 21
63.1402
 31
0.0
  0
LINE
  8
0
 62
     0
 10
102.491
 20
63.1402
 30
0.0
 11
102.945
 21
63.4464
 31
0.0
  0
LINE
  8
0
 62
     0
 10
102.945
 20
63.4464
 30
0.0
 11
103.499
 21
63.5579
 31
0.0
  0
LINE
  8
0
 62
     0
 10
24.6862
 20
61.389
 30
0.0
 11
96.0684
 21
61.389
 31
0.0
  0
LINE
  8
0
 62
     0
 10
96.0684
 20
61.389
 30
0.0
 11
60.3772
 21
35.8112
 31
0.0
  0
LINE
  8
0
 62
     0
 10
60.3772
 20
35.8112
 30
0.0
 11
24.6862
 21
61.389
 31
0.0
  0
LINE
  8
0
 62
     0
 10
21.0302
 20
58.3477
 30
0.0
 11
56.4279
 21
32.9792
 31
0.0
  0
LINE
  8
0
 62
     0
 10
56.4279
 20
32.9792
 30
0.0
 11
21.0302
 21
7.61227
 31
0.0
  0
LINE
  8
0
 62
     0
 10
21.0302
 20
7.61227
 30
0.0
 11
21.0302
 21
58.3477
 31
0.0
  0
LINE
  8
0
 62
     0
 10
99.278
 20
58.0263
 30
0.0
 11
99.278
 21
7.93337
 31
0.0
  0
LINE
  8
0
 62
     0
 10
99.278
 20
7.93337
 30
0.0
 11
64.3283
 21
32.9792
 31
0.0
  0
LINE
  8
0
 62
     0
 10
64.3283
 20
32.9792
 30
0.0
 11
99.278
 21
58.0263
 31
0.0
  0
LINE
  8
0
 62
     0
 10
4.13688
 20
54.6269
 30
0.0
 11
4.28706
 21
54.6269
 31
0.0
  0
LINE
  8
0
 62
     0
 10
4.28706
 20
54.6269
 30
0.0
 11
4.74045
 21
54.5056
 31
0.0
  0
LINE
  8
0
 62
     0
 10
4.74045
 20
54.5056
 30
0.0
 11
5.2324
 21
54.1736
 31
0.0
  0
LINE
  8
0
 62
     0
 10
5.2324
 20
54.1736
 30
0.0
 11
5.56451
 21
53.6815
 31
0.0
  0
LINE
  8
0
 62
     0
 10
5.56451
 20
53.6815
 30
0.0
 11
5.68717
 21
53.2282
 31
0.0
  0
LINE
  8
0
 62
     0
 10
5.68717
 20
53.2282
 30
0.0
 11
5.68717
 21
53.0765
 31
0.0
  0
LINE
  8
0
 62
     0
 10
5.68717
 20
53.0765
 30
0.0
 11
5.68717
 21
52.9262
 31
0.0
  0
LINE
  8
0
 62
     0
 10
5.68717
 20
52.9262
 30
0.0
 11
5.56451
 21
52.4743
 31
0.0
  0
LINE
  8
0
 62
     0
 10
5.56451
 20
52.4743
 30
0.0
 11
5.2324
 21
51.9811
 31
0.0
  0
LINE
  8
0
 62
     0
 10
5.2324
 20
51.9811
 30
0.0
 11
4.73908
 21
51.6488
 31
0.0
  0
LINE
  8
0
 62
     0
 10
4.73908
 20
51.6488
 30
0.0
 11
4.28706
 21
51.5278
 31
0.0
  0
LINE
  8
0
 62
     0
 10
4.28706
 20
51.5278
 30
0.0
 11
4.13688
 21
51.5278
 31
0.0
  0
LINE
  8
0
 62
     0
 10
4.13688
 20
51.5278
 30
0.0
 11
3.9853
 21
51.5278
 31
0.0
  0
LINE
  8
0
 62
     0
 10
3.9853
 20
51.5278
 30
0.0
 11
3.53328
 21
51.6502
 31
0.0
  0
LINE
  8
0
 62
     0
 10
3.53328
 20
51.6502
 30
0.0
 11
3.04133
 21
51.9825
 31
0.0
  0
LINE
  8
0
 62
     0
 10
3.04133
 20
51.9825
 30
0.0
 11
2.70922
 21
52.4743
 31
0.0
  0
LINE
  8
0
 62
     0
 10
2.70922
 20
52.4743
 30
0.0
 11
2.58796
 21
52.9262
 31
0.0
  0
LINE
  8
0
 62
     0
 10
2.58796
 20
52.9262
 30
0.0
 11
2.58796
 21
53.0765
 31
0.0
  0
LINE
  8
0
 62
     0
 10
2.58796
 20
53.0765
 30
0.0
 11
2.58796
 21
53.2282
 31
0.0
  0
LINE
  8
0
 62
     0
 10
2.58796
 20
53.2282
 30
0.0
 11
2.70784
 21
53.6801
 31
0.0
  0
LINE
  8
0
 62
     0
 10
2.70784
 20
53.6801
 30
0.0
 11
3.03995
 21
54.1736
 31
0.0
  0
LINE
  8
0
 62
     0
 10
3.03995
 20
54.1736
 30
0.0
 11
3.53328
 21
54.5056
 31
0.0
  0
LINE
  8
0
 62
     0
 10
3.53328
 20
54.5056
 30
0.0
 11
3.9853
 21
54.6269
 31
0.0
  0
LINE
  8
0
 62
     0
 10
3.9853
 20
54.6269
 30
0.0
 11
4.13688
 21
54.6269
 31
0.0
  0
LINE
  8
0
 62
     0
 10
115.963
 20
54.6269
 30
0.0
 11
116.114
 21
54.6269
 31
0.0
  0
LINE
  8
0
 62
     0
 10
116.114
 20
54.6269
 30
0.0
 11
116.566
 21
54.5056
 31
0.0
  0
LINE
  8
0
 62
     0
 10
116.566
 20
54.5056
 30
0.0
 11
117.059
 21
54.1736
 31
0.0
  0
LINE
  8
0
 62
     0
 10
117.059
 20
54.1736
 30
0.0
 11
117.391
 21
53.6815
 31
0.0
  0
LINE
  8
0
 62
     0
 10
117.391
 20
53.6815
 30
0.0
 11
117.513
 21
53.2282
 31
0.0
  0
LINE
  8
0
 62
     0
 10
117.513
 20
53.2282
 30
0.0
 11
117.513
 21
53.0765
 31
0.0
  0
LINE
  8
0
 62
     0
 10
117.513
 20
53.0765
 30
0.0
 11
117.513
 21
52.9262
 31
0.0
  0
LINE
  8
0
 62
     0
 10
117.513
 20
52.9262
 30
0.0
 11
117.391
 21
52.4743
 31
0.0
  0
LINE
  8
0
 62
     0
 10
117.391
 20
52.4743
 30
0.0
 11
117.059
 21
51.9811
 31
0.0
  0
LINE
  8
0
 62
     0
 10
117.059
 20
51.9811
 30
0.0
 11
116.566
 21
51.6488
 31
0.0
  0
LINE
  8
0
 62
     0
 10
116.566
 20
51.6488
 30
0.0
 11
116.114
 21
51.5278
 31
0.0
  0
LINE
  8
0
 62
     0
 10
116.114
 20
51.5278
 30
0.0
 11
115.963
 21
51.5278
 31
0.0
  0
LINE
  8
0
 62
     0
 10
115.963
 20
51.5278
 30
0.0
 11
115.812
 21
51.5278
 31
0.0
  0
LINE
  8
0
 62
     0
 10
115.812
 20
51.5278
 30
0.0
 11
115.36
 21
51.6502
 31
0.0
  0
LINE
  8
0
 62
     0
 10
115.36
 20
51.6502
 30
0.0
 11
114.866
 21
51.9825
 31
0.0
  0
LINE
  8
0
 62
     0
 10
114.866
 20
51.9825
 30
0.0
 11
114.534
 21
52.4743
 31
0.0
  0
LINE
  8
0
 62
     0
 10
114.534
 20
52.4743
 30
0.0
 11
114.413
 21
52.9262
 31
0.0
  0
LINE
  8
0
 62
     0
 10
114.413
 20
52.9262
 30
0.0
 11
114.413
 21
53.0765
 31
0.0
  0
LINE
  8
0
 62
     0
 10
114.413
 20
53.0765
 30
0.0
 11
114.413
 21
53.2282
 31
0.0
  0
LINE
  8
0
 62
     0
 10
114.413
 20
53.2282
 30
0.0
 11
114.534
 21
53.6801
 31
0.0
  0
LINE
  8
0
 62
     0
 10
114.534
 20
53.6801
 30
0.0
 11
114.866
 21
54.1736
 31
0.0
  0
LINE
  8
0
 62
     0
 10
114.866
 20
54.1736
 30
0.0
 11
115.358
 21
54.5056
 31
0.0
  0
LINE
  8
0
 62
     0
 10
115.358
 20
54.5056
 30
0.0
 11
115.812
 21
54.6269
 31
0.0
  0
LINE
  8
0
 62
     0
 10
115.812
 20
54.6269
 30
0.0
 11
115.963
 21
54.6269
 31
0.0
  0
LINE
  8
0
 62
     0
 10
60.3772
 20
30.1487
 30
0.0
 11
96.0367
 21
4.59299
 31
0.0
  0
LINE
  8
0
 62
     0
 10
96.0367
 20
4.59299
 30
0.0
 11
24.7179
 21
4.59299
 31
0.0
  0
LINE
  8
0
 62
     0
 10
24.7179
 20
4.59299
 30
0.0
 11
60.3772
 21
30.1487
 31
0.0
  0
LINE
  8
0
 62
     0
 10
4.13688
 20
14.4336
 30
0.0
 11
4.28706
 21
14.4336
 31
0.0
  0
LINE
  8
0
 62
     0
 10
4.28706
 20
14.4336
 30
0.0
 11
4.73908
 21
14.3123
 31
0.0
  0
LINE
  8
0
 62
     0
 10
4.73908
 20
14.3123
 30
0.0
 11
5.2324
 21
13.9802
 31
0.0
  0
LINE
  8
0
 62
     0
 10
5.2324
 20
13.9802
 30
0.0
 11
5.56451
 21
13.4869
 31
0.0
  0
LINE
  8
0
 62
     0
 10
5.56451
 20
13.4869
 30
0.0
 11
5.68717
 21
13.0349
 31
0.0
  0
LINE
  8
0
 62
     0
 10
5.68717
 20
13.0349
 30
0.0
 11
5.68717
 21
12.8833
 31
0.0
  0
LINE
  8
0
 62
     0
 10
5.68717
 20
12.8833
 30
0.0
 11
5.68717
 21
12.7331
 31
0.0
  0
LINE
  8
0
 62
     0
 10
5.68717
 20
12.7331
 30
0.0
 11
5.56451
 21
12.2811
 31
0.0
  0
LINE
  8
0
 62
     0
 10
5.56451
 20
12.2811
 30
0.0
 11
5.2324
 21
11.7878
 31
0.0
  0
LINE
  8
0
 62
     0
 10
5.2324
 20
11.7878
 30
0.0
 11
4.74045
 21
11.4556
 31
0.0
  0
LINE
  8
0
 62
     0
 10
4.74045
 20
11.4556
 30
0.0
 11
4.28706
 21
11.333
 31
0.0
  0
LINE
  8
0
 62
     0
 10
4.28706
 20
11.333
 30
0.0
 11
4.13688
 21
11.333
 31
0.0
  0
LINE
  8
0
 62
     0
 10
4.13688
 20
11.333
 30
0.0
 11
3.9853
 21
11.333
 31
0.0
  0
LINE
  8
0
 62
     0
 10
3.9853
 20
11.333
 30
0.0
 11
3.53328
 21
11.4556
 31
0.0
  0
LINE
  8
0
 62
     0
 10
3.53328
 20
11.4556
 30
0.0
 11
3.03995
 21
11.7878
 31
0.0
  0
LINE
  8
0
 62
     0
 10
3.03995
 20
11.7878
 30
0.0
 11
2.70784
 21
12.2811
 31
0.0
  0
LINE
  8
0
 62
     0
 10
2.70784
 20
12.2811
 30
0.0
 11
2.58796
 21
12.7331
 31
0.0
  0
LINE
  8
0
 62
     0
 10
2.58796
 20
12.7331
 30
0.0
 11
2.58796
 21
12.8833
 31
0.0
  0
LINE
  8
0
 62
     0
 10
2.58796
 20
12.8833
 30
0.0
 11
2.58796
 21
13.0349
 31
0.0
  0
LINE
  8
0
 62
     0
 10
2.58796
 20
13.0349
 30
0.0
 11
2.70922
 21
13.4869
 31
0.0
  0
LINE
  8
0
 62
     0
 10
2.70922
 20
13.4869
 30
0.0
 11
3.04133
 21
13.9802
 31
0.0
  0
LINE
  8
0
 62
     0
 10
3.04133
 20
13.9802
 30
0.0
 11
3.53328
 21
14.3123
 31
0.0
  0
LINE
  8
0
 62
     0
 10
3.53328
 20
14.3123
 30
0.0
 11
3.9853
 21
14.4336
 31
0.0
  0
LINE
  8
0
 62
     0
 10
3.9853
 20
14.4336
 30
0.0
 11
4.13688
 21
14.4336
 31
0.0
  0
LINE
  8
0
 62
     0
 10
115.963
 20
14.4336
 30
0.0
 11
116.114
 21
14.4336
 31
0.0
  0
LINE
  8
0
 62
     0
 10
116.114
 20
14.4336
 30
0.0
 11
116.566
 21
14.3123
 31
0.0
  0
LINE
  8
0
 62
     0
 10
116.566
 20
14.3123
 30
0.0
 11
117.059
 21
13.9802
 31
0.0
  0
LINE
  8
0
 62
     0
 10
117.059
 20
13.9802
 30
0.0
 11
117.391
 21
13.4869
 31
0.0
  0
LINE
  8
0
 62
     0
 10
117.391
 20
13.4869
 30
0.0
 11
117.513
 21
13.0349
 31
0.0
  0
LINE
  8
0
 62
     0
 10
117.513
 20
13.0349
 30
0.0
 11
117.513
 21
12.8833
 31
0.0
  0
LINE
  8
0
 62
     0
 10
117.513
 20
12.8833
 30
0.0
 11
117.513
 21
12.7331
 31
0.0
  0
LINE
  8
0
 62
     0
 10
117.513
 20
12.7331
 30
0.0
 11
117.391
 21
12.2811
 31
0.0
  0
LINE
  8
0
 62
     0
 10
117.391
 20
12.2811
 30
0.0
 11
117.059
 21
11.7878
 31
0.0
  0
LINE
  8
0
 62
     0
 10
117.059
 20
11.7878
 30
0.0
 11
116.566
 21
11.4556
 31
0.0
  0
LINE
  8
0
 62
     0
 10
116.566
 20
11.4556
 30
0.0
 11
116.114
 21
11.333
 31
0.0
  0
LINE
  8
0
 62
     0
 10
116.114
 20
11.333
 30
0.0
 11
115.963
 21
11.333
 31
0.0
  0
LINE
  8
0
 62
     0
 10
115.963
 20
11.333
 30
0.0
 11
115.812
 21
11.333
 31
0.0
  0
LINE
  8
0
 62
     0
 10
115.812
 20
11.333
 30
0.0
 11
115.358
 21
11.4556
 31
0.0
  0
LINE
  8
0
 62
     0
 10
115.358
 20
11.4556
 30
0.0
 11
114.866
 21
11.7878
 31
0.0
  0
LINE
  8
0
 62
     0
 10
114.866
 20
11.7878
 30
0.0
 11
114.534
 21
12.2811
 31
0.0
  0
LINE
  8
0
 62
     0
 10
114.534
 20
12.2811
 30
0.0
 11
114.413
 21
12.7331
 31
0.0
  0
LINE
  8
0
 62
     0
 10
114.413
 20
12.7331
 30
0.0
 11
114.413
 21
12.8833
 31
0.0
  0
LINE
  8
0
 62
     0
 10
114.413
 20
12.8833
 30
0.0
 11
114.413
 21
13.0349
 31
0.0
  0
LINE
  8
0
 62
     0
 10
114.413
 20
13.0349
 30
0.0
 11
114.534
 21
13.4869
 31
0.0
  0
LINE
  8
0
 62
     0
 10
114.534
 20
13.4869
 30
0.0
 11
114.866
 21
13.9802
 31
0.0
  0
LINE
  8
0
 62
     0
 10
114.866
 20
13.9802
 30
0.0
 11
115.36
 21
14.3123
 31
0.0
  0
LINE
  8
0
 62
     0
 10
115.36
 20
14.3123
 30
0.0
 11
115.812
 21
14.4336
 31
0.0
  0
LINE
  8
0
 62
     0
 10
115.812
 20
14.4336
 30
0.0
 11
115.963
 21
14.4336
 31
0.0
  0
LINE
  8
0
 62
     0
 10
17.3523
 20
4.10655
 30
0.0
 11
17.898
 21
3.99768
 31
0.0
  0
LINE
  8
0
 62
     0
 10
17.898
 20
3.99768
 30
0.0
 11
18.3596
 21
3.689
 31
0.0
  0
LINE
  8
0
 62
     0
 10
18.3596
 20
3.689
 30
0.0
 11
18.6683
 21
3.22599
 31
0.0
  0
LINE
  8
0
 62
     0
 10
18.6683
 20
3.22599
 30
0.0
 11
18.7772
 21
2.68029
 31
0.0
  0
LINE
  8
0
 62
     0
 10
18.7772
 20
2.68029
 30
0.0
 11
18.6655
 21
2.12631
 31
0.0
  0
LINE
  8
0
 62
     0
 10
18.6655
 20
2.12631
 30
0.0
 11
18.3596
 21
1.67294
 31
0.0
  0
LINE
  8
0
 62
     0
 10
18.3596
 20
1.67294
 30
0.0
 11
17.9062
 21
1.36839
 31
0.0
  0
LINE
  8
0
 62
     0
 10
17.9062
 20
1.36839
 30
0.0
 11
17.3523
 21
1.25677
 31
0.0
  0
LINE
  8
0
 62
     0
 10
17.3523
 20
1.25677
 30
0.0
 11
16.7969
 21
1.36839
 31
0.0
  0
LINE
  8
0
 62
     0
 10
16.7969
 20
1.36839
 30
0.0
 11
16.3435
 21
1.67294
 31
0.0
  0
LINE
  8
0
 62
     0
 10
16.3435
 20
1.67294
 30
0.0
 11
16.039
 21
2.12631
 31
0.0
  0
LINE
  8
0
 62
     0
 10
16.039
 20
2.12631
 30
0.0
 11
15.926
 21
2.68029
 31
0.0
  0
LINE
  8
0
 62
     0
 10
15.926
 20
2.68029
 30
0.0
 11
16.0348
 21
3.22599
 31
0.0
  0
LINE
  8
0
 62
     0
 10
16.0348
 20
3.22599
 30
0.0
 11
16.3435
 21
3.689
 31
0.0
  0
LINE
  8
0
 62
     0
 10
16.3435
 20
3.689
 30
0.0
 11
16.8065
 21
3.99768
 31
0.0
  0
LINE
  8
0
 62
     0
 10
16.8065
 20
3.99768
 30
0.0
 11
17.3523
 21
4.10655
 31
0.0
  0
LINE
  8
0
 62
     0
 10
94.4259
 20
3.35414
 30
0.0
 11
94.9717
 21
3.24528
 31
0.0
  0
LINE
  8
0
 62
     0
 10
94.9717
 20
3.24528
 30
0.0
 11
95.4334
 21
2.9366
 31
0.0
  0
LINE
  8
0
 62
     0
 10
95.4334
 20
2.9366
 30
0.0
 11
95.7421
 21
2.47496
 31
0.0
  0
LINE
  8
0
 62
     0
 10
95.7421
 20
2.47496
 30
0.0
 11
95.8508
 21
1.92925
 31
0.0
  0
LINE
  8
0
 62
     0
 10
95.8508
 20
1.92925
 30
0.0
 11
95.7393
 21
1.3739
 31
0.0
  0
LINE
  8
0
 62
     0
 10
95.7393
 20
1.3739
 30
0.0
 11
95.4334
 21
0.921907
 31
0.0
  0
LINE
  8
0
 62
     0
 10
95.4334
 20
0.921907
 30
0.0
 11
94.9798
 21
0.615982
 31
0.0
  0
LINE
  8
0
 62
     0
 10
94.9798
 20
0.615982
 30
0.0
 11
94.4259
 21
0.504363
 31
0.0
  0
LINE
  8
0
 62
     0
 10
94.4259
 20
0.504363
 30
0.0
 11
93.8706
 21
0.615982
 31
0.0
  0
LINE
  8
0
 62
     0
 10
93.8706
 20
0.615982
 30
0.0
 11
93.4187
 21
0.921907
 31
0.0
  0
LINE
  8
0
 62
     0
 10
93.4187
 20
0.921907
 30
0.0
 11
93.1125
 21
1.3739
 31
0.0
  0
LINE
  8
0
 62
     0
 10
93.1125
 20
1.3739
 30
0.0
 11
93.001
 21
1.92925
 31
0.0
  0
LINE
  8
0
 62
     0
 10
93.001
 20
1.92925
 30
0.0
 11
93.1086
 21
2.47496
 31
0.0
  0
LINE
  8
0
 62
     0
 10
93.1086
 20
2.47496
 30
0.0
 11
93.4187
 21
2.9366
 31
0.0
  0
LINE
  8
0
 62
     0
 10
93.4187
 20
2.9366
 30
0.0
 11
93.8802
 21
3.24528
 31
0.0
  0
LINE
  8
0
 62
     0
 10
93.8802
 20
3.24528
 30
0.0
 11
94.4259
 21
3.35414
 31
0.0
  0
ENDSEC
  0
EOF
