  0
SECTION
  2
HEADER
  9
$ACADVER
  1
AC1009
  9
$EXTMIN
 10
0.0
 20
0.0
 30
0.0
  9
$EXTMAX
 10
1000.0
 20
1000.0
 30
0.0
  9
$FILLMODE
 70
 0
  9
$SPLFRAME
 70
 1
  0
ENDSEC
  0
SECTION
  2
TABLES
  0
TABLE
  2
LAYER
 70
1
  0
LAYER
  2
0
 70
     0
 62
     7
  6
CONTINUOUS
  0
ENDTAB
  0
ENDSEC
  0
SECTION
  2
ENTITIES
  0
LINE
  8
0
 62
     0
 10
277.363
 20
3.0496
 30
0.0
 11
271.363
 21
3.0496
 31
0.0
  0
LINE
  8
0
 62
     0
 10
271.363
 20
3.0496
 30
0.0
 11
271.363
 21
0.0496094
 31
0.0
  0
LINE
  8
0
 62
     0
 10
271.363
 20
0.0496094
 30
0.0
 11
265.363
 21
0.0496094
 31
0.0
  0
LINE
  8
0
 62
     0
 10
265.363
 20
0.0496094
 30
0.0
 11
265.363
 21
3.0496
 31
0.0
  0
LINE
  8
0
 62
     0
 10
265.363
 20
3.0496
 30
0.0
 11
259.363
 21
3.0496
 31
0.0
  0
LINE
  8
0
 62
     0
 10
259.363
 20
3.0496
 30
0.0
 11
259.363
 21
0.0496094
 31
0.0
  0
LINE
  8
0
 62
     0
 10
259.363
 20
0.0496094
 30
0.0
 11
253.363
 21
0.0496094
 31
0.0
  0
LINE
  8
0
 62
     0
 10
253.363
 20
0.0496094
 30
0.0
 11
253.363
 21
3.0496
 31
0.0
  0
LINE
  8
0
 62
     0
 10
253.363
 20
3.0496
 30
0.0
 11
247.364
 21
3.0496
 31
0.0
  0
LINE
  8
0
 62
     0
 10
247.364
 20
3.0496
 30
0.0
 11
247.364
 21
0.0496094
 31
0.0
  0
LINE
  8
0
 62
     0
 10
247.364
 20
0.0496094
 30
0.0
 11
241.363
 21
0.0496094
 31
0.0
  0
LINE
  8
0
 62
     0
 10
241.363
 20
0.0496094
 30
0.0
 11
241.363
 21
3.0496
 31
0.0
  0
LINE
  8
0
 62
     0
 10
241.363
 20
3.0496
 30
0.0
 11
235.363
 21
3.0496
 31
0.0
  0
LINE
  8
0
 62
     0
 10
235.363
 20
3.0496
 30
0.0
 11
235.363
 21
0.0496094
 31
0.0
  0
LINE
  8
0
 62
     0
 10
235.363
 20
0.0496094
 30
0.0
 11
229.363
 21
0.0496094
 31
0.0
  0
LINE
  8
0
 62
     0
 10
229.363
 20
0.0496094
 30
0.0
 11
229.363
 21
3.0496
 31
0.0
  0
LINE
  8
0
 62
     0
 10
229.363
 20
3.0496
 30
0.0
 11
223.363
 21
3.0496
 31
0.0
  0
LINE
  8
0
 62
     0
 10
223.363
 20
3.0496
 30
0.0
 11
223.363
 21
0.0496094
 31
0.0
  0
LINE
  8
0
 62
     0
 10
223.363
 20
0.0496094
 30
0.0
 11
217.363
 21
0.0496094
 31
0.0
  0
LINE
  8
0
 62
     0
 10
217.363
 20
0.0496094
 30
0.0
 11
217.363
 21
3.0496
 31
0.0
  0
LINE
  8
0
 62
     0
 10
217.363
 20
3.0496
 30
0.0
 11
211.364
 21
3.0496
 31
0.0
  0
LINE
  8
0
 62
     0
 10
211.364
 20
3.0496
 30
0.0
 11
211.364
 21
0.0496094
 31
0.0
  0
LINE
  8
0
 62
     0
 10
211.364
 20
0.0496094
 30
0.0
 11
209.463
 21
0.0496094
 31
0.0
  0
LINE
  8
0
 62
     0
 10
209.463
 20
0.0496094
 30
0.0
 11
209.463
 21
3.74964
 31
0.0
  0
LINE
  8
0
 62
     0
 10
209.463
 20
3.74964
 30
0.0
 11
205.763
 21
3.74964
 31
0.0
  0
LINE
  8
0
 62
     0
 10
205.763
 20
3.74964
 30
0.0
 11
205.763
 21
0.0496094
 31
0.0
  0
LINE
  8
0
 62
     0
 10
205.763
 20
0.0496094
 30
0.0
 11
203.863
 21
0.0496094
 31
0.0
  0
LINE
  8
0
 62
     0
 10
203.863
 20
0.0496094
 30
0.0
 11
203.863
 21
3.0496
 31
0.0
  0
LINE
  8
0
 62
     0
 10
203.863
 20
3.0496
 30
0.0
 11
196.362
 21
3.0496
 31
0.0
  0
LINE
  8
0
 62
     0
 10
196.362
 20
3.0496
 30
0.0
 11
196.362
 21
9.04956
 31
0.0
  0
LINE
  8
0
 62
     0
 10
196.362
 20
9.04956
 30
0.0
 11
199.364
 21
9.04956
 31
0.0
  0
LINE
  8
0
 62
     0
 10
199.364
 20
9.04956
 30
0.0
 11
199.364
 21
18.0496
 31
0.0
  0
LINE
  8
0
 62
     0
 10
199.364
 20
18.0496
 30
0.0
 11
196.362
 21
18.0496
 31
0.0
  0
LINE
  8
0
 62
     0
 10
196.362
 20
18.0496
 30
0.0
 11
196.362
 21
24.0495
 31
0.0
  0
LINE
  8
0
 62
     0
 10
196.362
 20
24.0495
 30
0.0
 11
199.364
 21
24.0495
 31
0.0
  0
LINE
  8
0
 62
     0
 10
199.364
 20
24.0495
 30
0.0
 11
199.364
 21
30.0495
 31
0.0
  0
LINE
  8
0
 62
     0
 10
199.364
 20
30.0495
 30
0.0
 11
196.362
 21
30.0495
 31
0.0
  0
LINE
  8
0
 62
     0
 10
196.362
 20
30.0495
 30
0.0
 11
196.362
 21
36.0497
 31
0.0
  0
LINE
  8
0
 62
     0
 10
196.362
 20
36.0497
 30
0.0
 11
199.364
 21
36.0497
 31
0.0
  0
LINE
  8
0
 62
     0
 10
199.364
 20
36.0497
 30
0.0
 11
199.364
 21
42.0493
 31
0.0
  0
LINE
  8
0
 62
     0
 10
199.364
 20
42.0493
 30
0.0
 11
196.362
 21
42.0493
 31
0.0
  0
LINE
  8
0
 62
     0
 10
196.362
 20
42.0493
 30
0.0
 11
196.362
 21
48.0494
 31
0.0
  0
LINE
  8
0
 62
     0
 10
196.362
 20
48.0494
 30
0.0
 11
199.364
 21
48.0494
 31
0.0
  0
LINE
  8
0
 62
     0
 10
199.364
 20
48.0494
 30
0.0
 11
199.364
 21
57.0495
 31
0.0
  0
LINE
  8
0
 62
     0
 10
199.364
 20
57.0495
 30
0.0
 11
196.362
 21
57.0495
 31
0.0
  0
LINE
  8
0
 62
     0
 10
196.362
 20
57.0495
 30
0.0
 11
196.362
 21
63.0495
 31
0.0
  0
LINE
  8
0
 62
     0
 10
196.362
 20
63.0495
 30
0.0
 11
203.863
 21
63.0495
 31
0.0
  0
LINE
  8
0
 62
     0
 10
203.863
 20
63.0495
 30
0.0
 11
203.863
 21
66.0495
 31
0.0
  0
LINE
  8
0
 62
     0
 10
203.863
 20
66.0495
 30
0.0
 11
211.364
 21
66.0495
 31
0.0
  0
LINE
  8
0
 62
     0
 10
211.364
 20
66.0495
 30
0.0
 11
211.364
 21
63.0495
 31
0.0
  0
LINE
  8
0
 62
     0
 10
211.364
 20
63.0495
 30
0.0
 11
217.363
 21
63.0495
 31
0.0
  0
LINE
  8
0
 62
     0
 10
217.363
 20
63.0495
 30
0.0
 11
217.363
 21
66.0495
 31
0.0
  0
LINE
  8
0
 62
     0
 10
217.363
 20
66.0495
 30
0.0
 11
223.363
 21
66.0495
 31
0.0
  0
LINE
  8
0
 62
     0
 10
223.363
 20
66.0495
 30
0.0
 11
223.363
 21
63.0495
 31
0.0
  0
LINE
  8
0
 62
     0
 10
223.363
 20
63.0495
 30
0.0
 11
229.363
 21
63.0495
 31
0.0
  0
LINE
  8
0
 62
     0
 10
229.363
 20
63.0495
 30
0.0
 11
229.363
 21
66.0495
 31
0.0
  0
LINE
  8
0
 62
     0
 10
229.363
 20
66.0495
 30
0.0
 11
235.363
 21
66.0495
 31
0.0
  0
LINE
  8
0
 62
     0
 10
235.363
 20
66.0495
 30
0.0
 11
235.363
 21
63.0495
 31
0.0
  0
LINE
  8
0
 62
     0
 10
235.363
 20
63.0495
 30
0.0
 11
241.363
 21
63.0495
 31
0.0
  0
LINE
  8
0
 62
     0
 10
241.363
 20
63.0495
 30
0.0
 11
241.363
 21
66.0495
 31
0.0
  0
LINE
  8
0
 62
     0
 10
241.363
 20
66.0495
 30
0.0
 11
247.364
 21
66.0495
 31
0.0
  0
LINE
  8
0
 62
     0
 10
247.364
 20
66.0495
 30
0.0
 11
247.364
 21
63.0495
 31
0.0
  0
LINE
  8
0
 62
     0
 10
247.364
 20
63.0495
 30
0.0
 11
253.363
 21
63.0495
 31
0.0
  0
LINE
  8
0
 62
     0
 10
253.363
 20
63.0495
 30
0.0
 11
253.363
 21
66.0495
 31
0.0
  0
LINE
  8
0
 62
     0
 10
253.363
 20
66.0495
 30
0.0
 11
259.363
 21
66.0495
 31
0.0
  0
LINE
  8
0
 62
     0
 10
259.363
 20
66.0495
 30
0.0
 11
259.363
 21
63.0495
 31
0.0
  0
LINE
  8
0
 62
     0
 10
259.363
 20
63.0495
 30
0.0
 11
265.363
 21
63.0495
 31
0.0
  0
LINE
  8
0
 62
     0
 10
265.363
 20
63.0495
 30
0.0
 11
265.363
 21
66.0495
 31
0.0
  0
LINE
  8
0
 62
     0
 10
265.363
 20
66.0495
 30
0.0
 11
271.363
 21
66.0495
 31
0.0
  0
LINE
  8
0
 62
     0
 10
271.363
 20
66.0495
 30
0.0
 11
271.363
 21
63.0495
 31
0.0
  0
LINE
  8
0
 62
     0
 10
271.363
 20
63.0495
 30
0.0
 11
277.363
 21
63.0495
 31
0.0
  0
LINE
  8
0
 62
     0
 10
277.363
 20
63.0495
 30
0.0
 11
277.363
 21
66.0495
 31
0.0
  0
LINE
  8
0
 62
     0
 10
277.363
 20
66.0495
 30
0.0
 11
284.862
 21
66.0495
 31
0.0
  0
LINE
  8
0
 62
     0
 10
284.862
 20
66.0495
 30
0.0
 11
284.862
 21
63.0495
 31
0.0
  0
LINE
  8
0
 62
     0
 10
284.862
 20
63.0495
 30
0.0
 11
292.363
 21
63.0495
 31
0.0
  0
LINE
  8
0
 62
     0
 10
292.363
 20
63.0495
 30
0.0
 11
292.363
 21
57.0495
 31
0.0
  0
LINE
  8
0
 62
     0
 10
292.363
 20
57.0495
 30
0.0
 11
289.363
 21
57.0495
 31
0.0
  0
LINE
  8
0
 62
     0
 10
289.363
 20
57.0495
 30
0.0
 11
289.363
 21
48.0494
 31
0.0
  0
LINE
  8
0
 62
     0
 10
289.363
 20
48.0494
 30
0.0
 11
292.363
 21
48.0494
 31
0.0
  0
LINE
  8
0
 62
     0
 10
292.363
 20
48.0494
 30
0.0
 11
292.363
 21
42.0493
 31
0.0
  0
LINE
  8
0
 62
     0
 10
292.363
 20
42.0493
 30
0.0
 11
289.363
 21
42.0493
 31
0.0
  0
LINE
  8
0
 62
     0
 10
289.363
 20
42.0493
 30
0.0
 11
289.363
 21
36.0497
 31
0.0
  0
LINE
  8
0
 62
     0
 10
289.363
 20
36.0497
 30
0.0
 11
292.363
 21
36.0497
 31
0.0
  0
LINE
  8
0
 62
     0
 10
292.363
 20
36.0497
 30
0.0
 11
292.363
 21
30.0495
 31
0.0
  0
LINE
  8
0
 62
     0
 10
292.363
 20
30.0495
 30
0.0
 11
289.363
 21
30.0495
 31
0.0
  0
LINE
  8
0
 62
     0
 10
289.363
 20
30.0495
 30
0.0
 11
289.363
 21
24.0495
 31
0.0
  0
LINE
  8
0
 62
     0
 10
289.363
 20
24.0495
 30
0.0
 11
292.363
 21
24.0495
 31
0.0
  0
LINE
  8
0
 62
     0
 10
292.363
 20
24.0495
 30
0.0
 11
292.363
 21
18.0496
 31
0.0
  0
LINE
  8
0
 62
     0
 10
292.363
 20
18.0496
 30
0.0
 11
289.363
 21
18.0496
 31
0.0
  0
LINE
  8
0
 62
     0
 10
289.363
 20
18.0496
 30
0.0
 11
289.363
 21
9.04956
 31
0.0
  0
LINE
  8
0
 62
     0
 10
289.363
 20
9.04956
 30
0.0
 11
292.363
 21
9.04956
 31
0.0
  0
LINE
  8
0
 62
     0
 10
292.363
 20
9.04956
 30
0.0
 11
292.363
 21
3.0496
 31
0.0
  0
LINE
  8
0
 62
     0
 10
292.363
 20
3.0496
 30
0.0
 11
284.862
 21
3.0496
 31
0.0
  0
LINE
  8
0
 62
     0
 10
284.862
 20
3.0496
 30
0.0
 11
284.862
 21
0.0496094
 31
0.0
  0
LINE
  8
0
 62
     0
 10
284.862
 20
0.0496094
 30
0.0
 11
282.964
 21
0.0496094
 31
0.0
  0
LINE
  8
0
 62
     0
 10
282.964
 20
0.0496094
 30
0.0
 11
282.964
 21
3.74964
 31
0.0
  0
LINE
  8
0
 62
     0
 10
282.964
 20
3.74964
 30
0.0
 11
279.263
 21
3.74964
 31
0.0
  0
LINE
  8
0
 62
     0
 10
279.263
 20
3.74964
 30
0.0
 11
279.263
 21
0.0496094
 31
0.0
  0
LINE
  8
0
 62
     0
 10
279.263
 20
0.0496094
 30
0.0
 11
277.363
 21
0.0496094
 31
0.0
  0
LINE
  8
0
 62
     0
 10
277.363
 20
0.0496094
 30
0.0
 11
277.363
 21
3.0496
 31
0.0
  0
LINE
  8
0
 62
     0
 10
113.509
 20
164.662
 30
0.0
 11
113.509
 21
161.662
 31
0.0
  0
LINE
  8
0
 62
     0
 10
113.509
 20
161.662
 30
0.0
 11
119.509
 21
161.662
 31
0.0
  0
LINE
  8
0
 62
     0
 10
119.509
 20
161.662
 30
0.0
 11
119.509
 21
164.662
 31
0.0
  0
LINE
  8
0
 62
     0
 10
119.509
 20
164.662
 30
0.0
 11
125.509
 21
164.662
 31
0.0
  0
LINE
  8
0
 62
     0
 10
125.509
 20
164.662
 30
0.0
 11
125.509
 21
161.662
 31
0.0
  0
LINE
  8
0
 62
     0
 10
125.509
 20
161.662
 30
0.0
 11
131.509
 21
161.662
 31
0.0
  0
LINE
  8
0
 62
     0
 10
131.509
 20
161.662
 30
0.0
 11
131.509
 21
164.662
 31
0.0
  0
LINE
  8
0
 62
     0
 10
131.509
 20
164.662
 30
0.0
 11
137.509
 21
164.662
 31
0.0
  0
LINE
  8
0
 62
     0
 10
137.509
 20
164.662
 30
0.0
 11
137.509
 21
161.662
 31
0.0
  0
LINE
  8
0
 62
     0
 10
137.509
 20
161.662
 30
0.0
 11
143.509
 21
161.662
 31
0.0
  0
LINE
  8
0
 62
     0
 10
143.509
 20
161.662
 30
0.0
 11
143.509
 21
164.662
 31
0.0
  0
LINE
  8
0
 62
     0
 10
143.509
 20
164.662
 30
0.0
 11
149.509
 21
164.662
 31
0.0
  0
LINE
  8
0
 62
     0
 10
149.509
 20
164.662
 30
0.0
 11
149.509
 21
161.662
 31
0.0
  0
LINE
  8
0
 62
     0
 10
149.509
 20
161.662
 30
0.0
 11
155.509
 21
161.662
 31
0.0
  0
LINE
  8
0
 62
     0
 10
155.509
 20
161.662
 30
0.0
 11
155.509
 21
164.662
 31
0.0
  0
LINE
  8
0
 62
     0
 10
155.509
 20
164.662
 30
0.0
 11
161.509
 21
164.662
 31
0.0
  0
LINE
  8
0
 62
     0
 10
161.509
 20
164.662
 30
0.0
 11
161.509
 21
161.662
 31
0.0
  0
LINE
  8
0
 62
     0
 10
161.509
 20
161.662
 30
0.0
 11
167.509
 21
161.662
 31
0.0
  0
LINE
  8
0
 62
     0
 10
167.509
 20
161.662
 30
0.0
 11
167.509
 21
164.662
 31
0.0
  0
LINE
  8
0
 62
     0
 10
167.509
 20
164.662
 30
0.0
 11
173.509
 21
164.662
 31
0.0
  0
LINE
  8
0
 62
     0
 10
173.509
 20
164.662
 30
0.0
 11
173.509
 21
161.662
 31
0.0
  0
LINE
  8
0
 62
     0
 10
173.509
 20
161.662
 30
0.0
 11
179.509
 21
161.662
 31
0.0
  0
LINE
  8
0
 62
     0
 10
179.509
 20
161.662
 30
0.0
 11
179.509
 21
164.662
 31
0.0
  0
LINE
  8
0
 62
     0
 10
179.509
 20
164.662
 30
0.0
 11
187.008
 21
164.662
 31
0.0
  0
LINE
  8
0
 62
     0
 10
187.008
 20
164.662
 30
0.0
 11
187.008
 21
161.662
 31
0.0
  0
LINE
  8
0
 62
     0
 10
187.008
 20
161.662
 30
0.0
 11
194.509
 21
161.662
 31
0.0
  0
LINE
  8
0
 62
     0
 10
194.509
 20
161.662
 30
0.0
 11
194.509
 21
157.161
 31
0.0
  0
LINE
  8
0
 62
     0
 10
194.509
 20
157.161
 30
0.0
 11
191.509
 21
157.161
 31
0.0
  0
LINE
  8
0
 62
     0
 10
191.509
 20
157.161
 30
0.0
 11
191.509
 21
154.962
 31
0.0
  0
LINE
  8
0
 62
     0
 10
191.509
 20
154.962
 30
0.0
 11
189.409
 21
154.962
 31
0.0
  0
LINE
  8
0
 62
     0
 10
189.409
 20
154.962
 30
0.0
 11
189.409
 21
156.212
 31
0.0
  0
LINE
  8
0
 62
     0
 10
189.409
 20
156.212
 30
0.0
 11
186.909
 21
156.212
 31
0.0
  0
LINE
  8
0
 62
     0
 10
186.909
 20
156.212
 30
0.0
 11
186.909
 21
154.962
 31
0.0
  0
LINE
  8
0
 62
     0
 10
186.909
 20
154.962
 30
0.0
 11
184.409
 21
154.962
 31
0.0
  0
LINE
  8
0
 62
     0
 10
184.409
 20
154.962
 30
0.0
 11
184.409
 21
151.861
 31
0.0
  0
LINE
  8
0
 62
     0
 10
184.409
 20
151.861
 30
0.0
 11
186.909
 21
151.861
 31
0.0
  0
LINE
  8
0
 62
     0
 10
186.909
 20
151.861
 30
0.0
 11
186.909
 21
150.611
 31
0.0
  0
LINE
  8
0
 62
     0
 10
186.909
 20
150.611
 30
0.0
 11
189.409
 21
150.611
 31
0.0
  0
LINE
  8
0
 62
     0
 10
189.409
 20
150.611
 30
0.0
 11
189.409
 21
151.861
 31
0.0
  0
LINE
  8
0
 62
     0
 10
189.409
 20
151.861
 30
0.0
 11
191.509
 21
151.861
 31
0.0
  0
LINE
  8
0
 62
     0
 10
191.509
 20
151.861
 30
0.0
 11
191.509
 21
149.662
 31
0.0
  0
LINE
  8
0
 62
     0
 10
191.509
 20
149.662
 30
0.0
 11
194.509
 21
149.662
 31
0.0
  0
LINE
  8
0
 62
     0
 10
194.509
 20
149.662
 30
0.0
 11
194.509
 21
143.662
 31
0.0
  0
LINE
  8
0
 62
     0
 10
194.509
 20
143.662
 30
0.0
 11
191.509
 21
143.662
 31
0.0
  0
LINE
  8
0
 62
     0
 10
191.509
 20
143.662
 30
0.0
 11
191.509
 21
137.662
 31
0.0
  0
LINE
  8
0
 62
     0
 10
191.509
 20
137.662
 30
0.0
 11
194.509
 21
137.662
 31
0.0
  0
LINE
  8
0
 62
     0
 10
194.509
 20
137.662
 30
0.0
 11
194.509
 21
131.662
 31
0.0
  0
LINE
  8
0
 62
     0
 10
194.509
 20
131.662
 30
0.0
 11
191.509
 21
131.662
 31
0.0
  0
LINE
  8
0
 62
     0
 10
191.509
 20
131.662
 30
0.0
 11
191.509
 21
125.662
 31
0.0
  0
LINE
  8
0
 62
     0
 10
191.509
 20
125.662
 30
0.0
 11
194.509
 21
125.662
 31
0.0
  0
LINE
  8
0
 62
     0
 10
194.509
 20
125.662
 30
0.0
 11
194.509
 21
119.662
 31
0.0
  0
LINE
  8
0
 62
     0
 10
194.509
 20
119.662
 30
0.0
 11
191.509
 21
119.662
 31
0.0
  0
LINE
  8
0
 62
     0
 10
191.509
 20
119.662
 30
0.0
 11
191.509
 21
113.662
 31
0.0
  0
LINE
  8
0
 62
     0
 10
191.509
 20
113.662
 30
0.0
 11
194.509
 21
113.662
 31
0.0
  0
LINE
  8
0
 62
     0
 10
194.509
 20
113.662
 30
0.0
 11
194.509
 21
107.662
 31
0.0
  0
LINE
  8
0
 62
     0
 10
194.509
 20
107.662
 30
0.0
 11
191.509
 21
107.662
 31
0.0
  0
LINE
  8
0
 62
     0
 10
191.509
 20
107.662
 30
0.0
 11
191.509
 21
101.662
 31
0.0
  0
LINE
  8
0
 62
     0
 10
191.509
 20
101.662
 30
0.0
 11
194.509
 21
101.662
 31
0.0
  0
LINE
  8
0
 62
     0
 10
194.509
 20
101.662
 30
0.0
 11
194.509
 21
95.6606
 31
0.0
  0
LINE
  8
0
 62
     0
 10
194.509
 20
95.6606
 30
0.0
 11
191.509
 21
95.6606
 31
0.0
  0
LINE
  8
0
 62
     0
 10
191.509
 20
95.6606
 30
0.0
 11
191.509
 21
89.6606
 31
0.0
  0
LINE
  8
0
 62
     0
 10
191.509
 20
89.6606
 30
0.0
 11
194.509
 21
89.6606
 31
0.0
  0
LINE
  8
0
 62
     0
 10
194.509
 20
89.6606
 30
0.0
 11
194.509
 21
83.6605
 31
0.0
  0
LINE
  8
0
 62
     0
 10
194.509
 20
83.6605
 30
0.0
 11
191.509
 21
83.6605
 31
0.0
  0
LINE
  8
0
 62
     0
 10
191.509
 20
83.6605
 30
0.0
 11
191.509
 21
81.4613
 31
0.0
  0
LINE
  8
0
 62
     0
 10
191.509
 20
81.4613
 30
0.0
 11
189.409
 21
81.4613
 31
0.0
  0
LINE
  8
0
 62
     0
 10
189.409
 20
81.4613
 30
0.0
 11
189.409
 21
82.7112
 31
0.0
  0
LINE
  8
0
 62
     0
 10
189.409
 20
82.7112
 30
0.0
 11
186.909
 21
82.7112
 31
0.0
  0
LINE
  8
0
 62
     0
 10
186.909
 20
82.7112
 30
0.0
 11
186.909
 21
81.4613
 31
0.0
  0
LINE
  8
0
 62
     0
 10
186.909
 20
81.4613
 30
0.0
 11
184.409
 21
81.4613
 31
0.0
  0
LINE
  8
0
 62
     0
 10
184.409
 20
81.4613
 30
0.0
 11
184.409
 21
78.3608
 31
0.0
  0
LINE
  8
0
 62
     0
 10
184.409
 20
78.3608
 30
0.0
 11
186.909
 21
78.3608
 31
0.0
  0
LINE
  8
0
 62
     0
 10
186.909
 20
78.3608
 30
0.0
 11
186.909
 21
77.1109
 31
0.0
  0
LINE
  8
0
 62
     0
 10
186.909
 20
77.1109
 30
0.0
 11
189.409
 21
77.1109
 31
0.0
  0
LINE
  8
0
 62
     0
 10
189.409
 20
77.1109
 30
0.0
 11
189.409
 21
78.3608
 31
0.0
  0
LINE
  8
0
 62
     0
 10
189.409
 20
78.3608
 30
0.0
 11
191.509
 21
78.3608
 31
0.0
  0
LINE
  8
0
 62
     0
 10
191.509
 20
78.3608
 30
0.0
 11
191.509
 21
76.1615
 31
0.0
  0
LINE
  8
0
 62
     0
 10
191.509
 20
76.1615
 30
0.0
 11
194.509
 21
76.1615
 31
0.0
  0
LINE
  8
0
 62
     0
 10
194.509
 20
76.1615
 30
0.0
 11
194.509
 21
71.6608
 31
0.0
  0
LINE
  8
0
 62
     0
 10
194.509
 20
71.6608
 30
0.0
 11
187.008
 21
71.6608
 31
0.0
  0
LINE
  8
0
 62
     0
 10
187.008
 20
71.6608
 30
0.0
 11
187.008
 21
68.6608
 31
0.0
  0
LINE
  8
0
 62
     0
 10
187.008
 20
68.6608
 30
0.0
 11
179.509
 21
68.6608
 31
0.0
  0
LINE
  8
0
 62
     0
 10
179.509
 20
68.6608
 30
0.0
 11
179.509
 21
71.6608
 31
0.0
  0
LINE
  8
0
 62
     0
 10
179.509
 20
71.6608
 30
0.0
 11
173.509
 21
71.6608
 31
0.0
  0
LINE
  8
0
 62
     0
 10
173.509
 20
71.6608
 30
0.0
 11
173.509
 21
68.6608
 31
0.0
  0
LINE
  8
0
 62
     0
 10
173.509
 20
68.6608
 30
0.0
 11
167.509
 21
68.6608
 31
0.0
  0
LINE
  8
0
 62
     0
 10
167.509
 20
68.6608
 30
0.0
 11
167.509
 21
71.6608
 31
0.0
  0
LINE
  8
0
 62
     0
 10
167.509
 20
71.6608
 30
0.0
 11
161.509
 21
71.6608
 31
0.0
  0
LINE
  8
0
 62
     0
 10
161.509
 20
71.6608
 30
0.0
 11
161.509
 21
68.6608
 31
0.0
  0
LINE
  8
0
 62
     0
 10
161.509
 20
68.6608
 30
0.0
 11
155.509
 21
68.6608
 31
0.0
  0
LINE
  8
0
 62
     0
 10
155.509
 20
68.6608
 30
0.0
 11
155.509
 21
71.6608
 31
0.0
  0
LINE
  8
0
 62
     0
 10
155.509
 20
71.6608
 30
0.0
 11
149.509
 21
71.6608
 31
0.0
  0
LINE
  8
0
 62
     0
 10
149.509
 20
71.6608
 30
0.0
 11
149.509
 21
68.6608
 31
0.0
  0
LINE
  8
0
 62
     0
 10
149.509
 20
68.6608
 30
0.0
 11
143.509
 21
68.6608
 31
0.0
  0
LINE
  8
0
 62
     0
 10
143.509
 20
68.6608
 30
0.0
 11
143.509
 21
71.6608
 31
0.0
  0
LINE
  8
0
 62
     0
 10
143.509
 20
71.6608
 30
0.0
 11
137.509
 21
71.6608
 31
0.0
  0
LINE
  8
0
 62
     0
 10
137.509
 20
71.6608
 30
0.0
 11
137.509
 21
68.6608
 31
0.0
  0
LINE
  8
0
 62
     0
 10
137.509
 20
68.6608
 30
0.0
 11
131.509
 21
68.6608
 31
0.0
  0
LINE
  8
0
 62
     0
 10
131.509
 20
68.6608
 30
0.0
 11
131.509
 21
71.6608
 31
0.0
  0
LINE
  8
0
 62
     0
 10
131.509
 20
71.6608
 30
0.0
 11
125.509
 21
71.6608
 31
0.0
  0
LINE
  8
0
 62
     0
 10
125.509
 20
71.6608
 30
0.0
 11
125.509
 21
68.6608
 31
0.0
  0
LINE
  8
0
 62
     0
 10
125.509
 20
68.6608
 30
0.0
 11
119.509
 21
68.6608
 31
0.0
  0
LINE
  8
0
 62
     0
 10
119.509
 20
68.6608
 30
0.0
 11
119.509
 21
71.6608
 31
0.0
  0
LINE
  8
0
 62
     0
 10
119.509
 20
71.6608
 30
0.0
 11
113.509
 21
71.6608
 31
0.0
  0
LINE
  8
0
 62
     0
 10
113.509
 20
71.6608
 30
0.0
 11
113.509
 21
68.6608
 31
0.0
  0
LINE
  8
0
 62
     0
 10
113.509
 20
68.6608
 30
0.0
 11
106.008
 21
68.6608
 31
0.0
  0
LINE
  8
0
 62
     0
 10
106.008
 20
68.6608
 30
0.0
 11
106.008
 21
71.6608
 31
0.0
  0
LINE
  8
0
 62
     0
 10
106.008
 20
71.6608
 30
0.0
 11
98.5076
 21
71.6608
 31
0.0
  0
LINE
  8
0
 62
     0
 10
98.5076
 20
71.6608
 30
0.0
 11
98.5076
 21
76.1615
 31
0.0
  0
LINE
  8
0
 62
     0
 10
98.5076
 20
76.1615
 30
0.0
 11
101.508
 21
76.1615
 31
0.0
  0
LINE
  8
0
 62
     0
 10
101.508
 20
76.1615
 30
0.0
 11
101.508
 21
78.3608
 31
0.0
  0
LINE
  8
0
 62
     0
 10
101.508
 20
78.3608
 30
0.0
 11
103.608
 21
78.3608
 31
0.0
  0
LINE
  8
0
 62
     0
 10
103.608
 20
78.3608
 30
0.0
 11
103.608
 21
77.1109
 31
0.0
  0
LINE
  8
0
 62
     0
 10
103.608
 20
77.1109
 30
0.0
 11
106.109
 21
77.1109
 31
0.0
  0
LINE
  8
0
 62
     0
 10
106.109
 20
77.1109
 30
0.0
 11
106.109
 21
78.3608
 31
0.0
  0
LINE
  8
0
 62
     0
 10
106.109
 20
78.3608
 30
0.0
 11
108.609
 21
78.3608
 31
0.0
  0
LINE
  8
0
 62
     0
 10
108.609
 20
78.3608
 30
0.0
 11
108.609
 21
81.4613
 31
0.0
  0
LINE
  8
0
 62
     0
 10
108.609
 20
81.4613
 30
0.0
 11
106.109
 21
81.4613
 31
0.0
  0
LINE
  8
0
 62
     0
 10
106.109
 20
81.4613
 30
0.0
 11
106.109
 21
82.7112
 31
0.0
  0
LINE
  8
0
 62
     0
 10
106.109
 20
82.7112
 30
0.0
 11
103.608
 21
82.7112
 31
0.0
  0
LINE
  8
0
 62
     0
 10
103.608
 20
82.7112
 30
0.0
 11
103.608
 21
81.4613
 31
0.0
  0
LINE
  8
0
 62
     0
 10
103.608
 20
81.4613
 30
0.0
 11
101.508
 21
81.4613
 31
0.0
  0
LINE
  8
0
 62
     0
 10
101.508
 20
81.4613
 30
0.0
 11
101.508
 21
83.6605
 31
0.0
  0
LINE
  8
0
 62
     0
 10
101.508
 20
83.6605
 30
0.0
 11
98.5076
 21
83.6605
 31
0.0
  0
LINE
  8
0
 62
     0
 10
98.5076
 20
83.6605
 30
0.0
 11
98.5076
 21
89.6606
 31
0.0
  0
LINE
  8
0
 62
     0
 10
98.5076
 20
89.6606
 30
0.0
 11
101.508
 21
89.6606
 31
0.0
  0
LINE
  8
0
 62
     0
 10
101.508
 20
89.6606
 30
0.0
 11
101.508
 21
95.6606
 31
0.0
  0
LINE
  8
0
 62
     0
 10
101.508
 20
95.6606
 30
0.0
 11
98.5076
 21
95.6606
 31
0.0
  0
LINE
  8
0
 62
     0
 10
98.5076
 20
95.6606
 30
0.0
 11
98.5076
 21
101.662
 31
0.0
  0
LINE
  8
0
 62
     0
 10
98.5076
 20
101.662
 30
0.0
 11
101.508
 21
101.662
 31
0.0
  0
LINE
  8
0
 62
     0
 10
101.508
 20
101.662
 30
0.0
 11
101.508
 21
107.662
 31
0.0
  0
LINE
  8
0
 62
     0
 10
101.508
 20
107.662
 30
0.0
 11
98.5076
 21
107.662
 31
0.0
  0
LINE
  8
0
 62
     0
 10
98.5076
 20
107.662
 30
0.0
 11
98.5076
 21
113.662
 31
0.0
  0
LINE
  8
0
 62
     0
 10
98.5076
 20
113.662
 30
0.0
 11
101.508
 21
113.662
 31
0.0
  0
LINE
  8
0
 62
     0
 10
101.508
 20
113.662
 30
0.0
 11
101.508
 21
119.662
 31
0.0
  0
LINE
  8
0
 62
     0
 10
101.508
 20
119.662
 30
0.0
 11
98.5076
 21
119.662
 31
0.0
  0
LINE
  8
0
 62
     0
 10
98.5076
 20
119.662
 30
0.0
 11
98.5076
 21
125.662
 31
0.0
  0
LINE
  8
0
 62
     0
 10
98.5076
 20
125.662
 30
0.0
 11
101.508
 21
125.662
 31
0.0
  0
LINE
  8
0
 62
     0
 10
101.508
 20
125.662
 30
0.0
 11
101.508
 21
131.662
 31
0.0
  0
LINE
  8
0
 62
     0
 10
101.508
 20
131.662
 30
0.0
 11
98.5076
 21
131.662
 31
0.0
  0
LINE
  8
0
 62
     0
 10
98.5076
 20
131.662
 30
0.0
 11
98.5076
 21
137.662
 31
0.0
  0
LINE
  8
0
 62
     0
 10
98.5076
 20
137.662
 30
0.0
 11
101.508
 21
137.662
 31
0.0
  0
LINE
  8
0
 62
     0
 10
101.508
 20
137.662
 30
0.0
 11
101.508
 21
143.662
 31
0.0
  0
LINE
  8
0
 62
     0
 10
101.508
 20
143.662
 30
0.0
 11
98.5076
 21
143.662
 31
0.0
  0
LINE
  8
0
 62
     0
 10
98.5076
 20
143.662
 30
0.0
 11
98.5076
 21
149.662
 31
0.0
  0
LINE
  8
0
 62
     0
 10
98.5076
 20
149.662
 30
0.0
 11
101.508
 21
149.662
 31
0.0
  0
LINE
  8
0
 62
     0
 10
101.508
 20
149.662
 30
0.0
 11
101.508
 21
151.861
 31
0.0
  0
LINE
  8
0
 62
     0
 10
101.508
 20
151.861
 30
0.0
 11
103.608
 21
151.861
 31
0.0
  0
LINE
  8
0
 62
     0
 10
103.608
 20
151.861
 30
0.0
 11
103.608
 21
150.611
 31
0.0
  0
LINE
  8
0
 62
     0
 10
103.608
 20
150.611
 30
0.0
 11
106.109
 21
150.611
 31
0.0
  0
LINE
  8
0
 62
     0
 10
106.109
 20
150.611
 30
0.0
 11
106.109
 21
151.861
 31
0.0
  0
LINE
  8
0
 62
     0
 10
106.109
 20
151.861
 30
0.0
 11
108.609
 21
151.861
 31
0.0
  0
LINE
  8
0
 62
     0
 10
108.609
 20
151.861
 30
0.0
 11
108.609
 21
154.962
 31
0.0
  0
LINE
  8
0
 62
     0
 10
108.609
 20
154.962
 30
0.0
 11
106.109
 21
154.962
 31
0.0
  0
LINE
  8
0
 62
     0
 10
106.109
 20
154.962
 30
0.0
 11
106.109
 21
156.212
 31
0.0
  0
LINE
  8
0
 62
     0
 10
106.109
 20
156.212
 30
0.0
 11
103.608
 21
156.212
 31
0.0
  0
LINE
  8
0
 62
     0
 10
103.608
 20
156.212
 30
0.0
 11
103.608
 21
154.962
 31
0.0
  0
LINE
  8
0
 62
     0
 10
103.608
 20
154.962
 30
0.0
 11
101.508
 21
154.962
 31
0.0
  0
LINE
  8
0
 62
     0
 10
101.508
 20
154.962
 30
0.0
 11
101.508
 21
157.161
 31
0.0
  0
LINE
  8
0
 62
     0
 10
101.508
 20
157.161
 30
0.0
 11
98.5076
 21
157.161
 31
0.0
  0
LINE
  8
0
 62
     0
 10
98.5076
 20
157.161
 30
0.0
 11
98.5076
 21
161.662
 31
0.0
  0
LINE
  8
0
 62
     0
 10
98.5076
 20
161.662
 30
0.0
 11
106.008
 21
161.662
 31
0.0
  0
LINE
  8
0
 62
     0
 10
106.008
 20
161.662
 30
0.0
 11
106.008
 21
164.662
 31
0.0
  0
LINE
  8
0
 62
     0
 10
106.008
 20
164.662
 30
0.0
 11
113.509
 21
164.662
 31
0.0
  0
LINE
  8
0
 62
     0
 10
92.9337
 20
83.2873
 30
0.0
 11
92.9337
 21
89.2874
 31
0.0
  0
LINE
  8
0
 62
     0
 10
92.9337
 20
89.2874
 30
0.0
 11
95.9337
 21
89.2874
 31
0.0
  0
LINE
  8
0
 62
     0
 10
95.9337
 20
89.2874
 30
0.0
 11
95.9337
 21
95.287
 31
0.0
  0
LINE
  8
0
 62
     0
 10
95.9337
 20
95.287
 30
0.0
 11
92.9337
 21
95.287
 31
0.0
  0
LINE
  8
0
 62
     0
 10
92.9337
 20
95.287
 30
0.0
 11
92.9337
 21
101.287
 31
0.0
  0
LINE
  8
0
 62
     0
 10
92.9337
 20
101.287
 30
0.0
 11
95.9337
 21
101.287
 31
0.0
  0
LINE
  8
0
 62
     0
 10
95.9337
 20
101.287
 30
0.0
 11
95.9337
 21
107.287
 31
0.0
  0
LINE
  8
0
 62
     0
 10
95.9337
 20
107.287
 30
0.0
 11
92.9337
 21
107.287
 31
0.0
  0
LINE
  8
0
 62
     0
 10
92.9337
 20
107.287
 30
0.0
 11
92.9337
 21
113.287
 31
0.0
  0
LINE
  8
0
 62
     0
 10
92.9337
 20
113.287
 30
0.0
 11
95.9337
 21
113.287
 31
0.0
  0
LINE
  8
0
 62
     0
 10
95.9337
 20
113.287
 30
0.0
 11
95.9337
 21
119.287
 31
0.0
  0
LINE
  8
0
 62
     0
 10
95.9337
 20
119.287
 30
0.0
 11
92.9337
 21
119.287
 31
0.0
  0
LINE
  8
0
 62
     0
 10
92.9337
 20
119.287
 30
0.0
 11
92.9337
 21
125.287
 31
0.0
  0
LINE
  8
0
 62
     0
 10
92.9337
 20
125.287
 30
0.0
 11
95.9337
 21
125.287
 31
0.0
  0
LINE
  8
0
 62
     0
 10
95.9337
 20
125.287
 30
0.0
 11
95.9337
 21
131.287
 31
0.0
  0
LINE
  8
0
 62
     0
 10
95.9337
 20
131.287
 30
0.0
 11
92.9337
 21
131.287
 31
0.0
  0
LINE
  8
0
 62
     0
 10
92.9337
 20
131.287
 30
0.0
 11
92.9337
 21
137.287
 31
0.0
  0
LINE
  8
0
 62
     0
 10
92.9337
 20
137.287
 30
0.0
 11
95.9337
 21
137.287
 31
0.0
  0
LINE
  8
0
 62
     0
 10
95.9337
 20
137.287
 30
0.0
 11
95.9337
 21
143.287
 31
0.0
  0
LINE
  8
0
 62
     0
 10
95.9337
 20
143.287
 30
0.0
 11
92.9337
 21
143.287
 31
0.0
  0
LINE
  8
0
 62
     0
 10
92.9337
 20
143.287
 30
0.0
 11
92.9337
 21
149.287
 31
0.0
  0
LINE
  8
0
 62
     0
 10
92.9337
 20
149.287
 30
0.0
 11
95.9337
 21
149.287
 31
0.0
  0
LINE
  8
0
 62
     0
 10
95.9337
 20
149.287
 30
0.0
 11
95.9337
 21
151.187
 31
0.0
  0
LINE
  8
0
 62
     0
 10
95.9337
 20
151.187
 30
0.0
 11
92.2334
 21
151.187
 31
0.0
  0
LINE
  8
0
 62
     0
 10
92.2334
 20
151.187
 30
0.0
 11
92.2334
 21
154.887
 31
0.0
  0
LINE
  8
0
 62
     0
 10
92.2334
 20
154.887
 30
0.0
 11
95.9337
 21
154.887
 31
0.0
  0
LINE
  8
0
 62
     0
 10
95.9337
 20
154.887
 30
0.0
 11
95.9337
 21
156.788
 31
0.0
  0
LINE
  8
0
 62
     0
 10
95.9337
 20
156.788
 30
0.0
 11
92.9337
 21
156.788
 31
0.0
  0
LINE
  8
0
 62
     0
 10
92.9337
 20
156.788
 30
0.0
 11
92.9337
 21
164.287
 31
0.0
  0
LINE
  8
0
 62
     0
 10
92.9337
 20
164.287
 30
0.0
 11
86.9336
 21
164.287
 31
0.0
  0
LINE
  8
0
 62
     0
 10
86.9336
 20
164.287
 30
0.0
 11
86.9336
 21
161.287
 31
0.0
  0
LINE
  8
0
 62
     0
 10
86.9336
 20
161.287
 30
0.0
 11
77.9336
 21
161.287
 31
0.0
  0
LINE
  8
0
 62
     0
 10
77.9336
 20
161.287
 30
0.0
 11
77.9336
 21
164.287
 31
0.0
  0
LINE
  8
0
 62
     0
 10
77.9336
 20
164.287
 30
0.0
 11
71.9335
 21
164.287
 31
0.0
  0
LINE
  8
0
 62
     0
 10
71.9335
 20
164.287
 30
0.0
 11
71.9335
 21
161.287
 31
0.0
  0
LINE
  8
0
 62
     0
 10
71.9335
 20
161.287
 30
0.0
 11
65.9335
 21
161.287
 31
0.0
  0
LINE
  8
0
 62
     0
 10
65.9335
 20
161.287
 30
0.0
 11
65.9335
 21
164.287
 31
0.0
  0
LINE
  8
0
 62
     0
 10
65.9335
 20
164.287
 30
0.0
 11
59.9338
 21
164.287
 31
0.0
  0
LINE
  8
0
 62
     0
 10
59.9338
 20
164.287
 30
0.0
 11
59.9338
 21
161.287
 31
0.0
  0
LINE
  8
0
 62
     0
 10
59.9338
 20
161.287
 30
0.0
 11
53.9337
 21
161.287
 31
0.0
  0
LINE
  8
0
 62
     0
 10
53.9337
 20
161.287
 30
0.0
 11
53.9337
 21
164.287
 31
0.0
  0
LINE
  8
0
 62
     0
 10
53.9337
 20
164.287
 30
0.0
 11
47.9337
 21
164.287
 31
0.0
  0
LINE
  8
0
 62
     0
 10
47.9337
 20
164.287
 30
0.0
 11
47.9337
 21
161.287
 31
0.0
  0
LINE
  8
0
 62
     0
 10
47.9337
 20
161.287
 30
0.0
 11
38.9336
 21
161.287
 31
0.0
  0
LINE
  8
0
 62
     0
 10
38.9336
 20
161.287
 30
0.0
 11
38.9336
 21
164.287
 31
0.0
  0
LINE
  8
0
 62
     0
 10
38.9336
 20
164.287
 30
0.0
 11
32.9337
 21
164.287
 31
0.0
  0
LINE
  8
0
 62
     0
 10
32.9337
 20
164.287
 30
0.0
 11
32.9337
 21
156.788
 31
0.0
  0
LINE
  8
0
 62
     0
 10
32.9337
 20
156.788
 30
0.0
 11
29.9338
 21
156.788
 31
0.0
  0
LINE
  8
0
 62
     0
 10
29.9338
 20
156.788
 30
0.0
 11
29.9338
 21
149.287
 31
0.0
  0
LINE
  8
0
 62
     0
 10
29.9338
 20
149.287
 30
0.0
 11
32.9337
 21
149.287
 31
0.0
  0
LINE
  8
0
 62
     0
 10
32.9337
 20
149.287
 30
0.0
 11
32.9337
 21
143.287
 31
0.0
  0
LINE
  8
0
 62
     0
 10
32.9337
 20
143.287
 30
0.0
 11
29.9338
 21
143.287
 31
0.0
  0
LINE
  8
0
 62
     0
 10
29.9338
 20
143.287
 30
0.0
 11
29.9338
 21
137.287
 31
0.0
  0
LINE
  8
0
 62
     0
 10
29.9338
 20
137.287
 30
0.0
 11
32.9337
 21
137.287
 31
0.0
  0
LINE
  8
0
 62
     0
 10
32.9337
 20
137.287
 30
0.0
 11
32.9337
 21
131.287
 31
0.0
  0
LINE
  8
0
 62
     0
 10
32.9337
 20
131.287
 30
0.0
 11
29.9338
 21
131.287
 31
0.0
  0
LINE
  8
0
 62
     0
 10
29.9338
 20
131.287
 30
0.0
 11
29.9338
 21
125.287
 31
0.0
  0
LINE
  8
0
 62
     0
 10
29.9338
 20
125.287
 30
0.0
 11
32.9337
 21
125.287
 31
0.0
  0
LINE
  8
0
 62
     0
 10
32.9337
 20
125.287
 30
0.0
 11
32.9337
 21
119.287
 31
0.0
  0
LINE
  8
0
 62
     0
 10
32.9337
 20
119.287
 30
0.0
 11
29.9338
 21
119.287
 31
0.0
  0
LINE
  8
0
 62
     0
 10
29.9338
 20
119.287
 30
0.0
 11
29.9338
 21
113.287
 31
0.0
  0
LINE
  8
0
 62
     0
 10
29.9338
 20
113.287
 30
0.0
 11
32.9337
 21
113.287
 31
0.0
  0
LINE
  8
0
 62
     0
 10
32.9337
 20
113.287
 30
0.0
 11
32.9337
 21
107.287
 31
0.0
  0
LINE
  8
0
 62
     0
 10
32.9337
 20
107.287
 30
0.0
 11
29.9338
 21
107.287
 31
0.0
  0
LINE
  8
0
 62
     0
 10
29.9338
 20
107.287
 30
0.0
 11
29.9338
 21
101.287
 31
0.0
  0
LINE
  8
0
 62
     0
 10
29.9338
 20
101.287
 30
0.0
 11
32.9337
 21
101.287
 31
0.0
  0
LINE
  8
0
 62
     0
 10
32.9337
 20
101.287
 30
0.0
 11
32.9337
 21
95.287
 31
0.0
  0
LINE
  8
0
 62
     0
 10
32.9337
 20
95.287
 30
0.0
 11
29.9338
 21
95.287
 31
0.0
  0
LINE
  8
0
 62
     0
 10
29.9338
 20
95.287
 30
0.0
 11
29.9338
 21
89.2874
 31
0.0
  0
LINE
  8
0
 62
     0
 10
29.9338
 20
89.2874
 30
0.0
 11
32.9337
 21
89.2874
 31
0.0
  0
LINE
  8
0
 62
     0
 10
32.9337
 20
89.2874
 30
0.0
 11
32.9337
 21
83.2873
 31
0.0
  0
LINE
  8
0
 62
     0
 10
32.9337
 20
83.2873
 30
0.0
 11
29.9338
 21
83.2873
 31
0.0
  0
LINE
  8
0
 62
     0
 10
29.9338
 20
83.2873
 30
0.0
 11
29.9338
 21
75.7865
 31
0.0
  0
LINE
  8
0
 62
     0
 10
29.9338
 20
75.7865
 30
0.0
 11
32.9337
 21
75.7865
 31
0.0
  0
LINE
  8
0
 62
     0
 10
32.9337
 20
75.7865
 30
0.0
 11
32.9337
 21
68.2872
 31
0.0
  0
LINE
  8
0
 62
     0
 10
32.9337
 20
68.2872
 30
0.0
 11
38.9336
 21
68.2872
 31
0.0
  0
LINE
  8
0
 62
     0
 10
38.9336
 20
68.2872
 30
0.0
 11
38.9336
 21
71.2872
 31
0.0
  0
LINE
  8
0
 62
     0
 10
38.9336
 20
71.2872
 30
0.0
 11
47.9337
 21
71.2872
 31
0.0
  0
LINE
  8
0
 62
     0
 10
47.9337
 20
71.2872
 30
0.0
 11
47.9337
 21
68.2872
 31
0.0
  0
LINE
  8
0
 62
     0
 10
47.9337
 20
68.2872
 30
0.0
 11
53.9337
 21
68.2872
 31
0.0
  0
LINE
  8
0
 62
     0
 10
53.9337
 20
68.2872
 30
0.0
 11
53.9337
 21
71.2872
 31
0.0
  0
LINE
  8
0
 62
     0
 10
53.9337
 20
71.2872
 30
0.0
 11
59.9338
 21
71.2872
 31
0.0
  0
LINE
  8
0
 62
     0
 10
59.9338
 20
71.2872
 30
0.0
 11
59.9338
 21
68.2872
 31
0.0
  0
LINE
  8
0
 62
     0
 10
59.9338
 20
68.2872
 30
0.0
 11
65.9335
 21
68.2872
 31
0.0
  0
LINE
  8
0
 62
     0
 10
65.9335
 20
68.2872
 30
0.0
 11
65.9335
 21
71.2872
 31
0.0
  0
LINE
  8
0
 62
     0
 10
65.9335
 20
71.2872
 30
0.0
 11
71.9335
 21
71.2872
 31
0.0
  0
LINE
  8
0
 62
     0
 10
71.9335
 20
71.2872
 30
0.0
 11
71.9335
 21
68.2872
 31
0.0
  0
LINE
  8
0
 62
     0
 10
71.9335
 20
68.2872
 30
0.0
 11
77.9336
 21
68.2872
 31
0.0
  0
LINE
  8
0
 62
     0
 10
77.9336
 20
68.2872
 30
0.0
 11
77.9336
 21
71.2872
 31
0.0
  0
LINE
  8
0
 62
     0
 10
77.9336
 20
71.2872
 30
0.0
 11
86.9336
 21
71.2872
 31
0.0
  0
LINE
  8
0
 62
     0
 10
86.9336
 20
71.2872
 30
0.0
 11
86.9336
 21
68.2872
 31
0.0
  0
LINE
  8
0
 62
     0
 10
86.9336
 20
68.2872
 30
0.0
 11
92.9337
 21
68.2872
 31
0.0
  0
LINE
  8
0
 62
     0
 10
92.9337
 20
68.2872
 30
0.0
 11
92.9337
 21
75.7865
 31
0.0
  0
LINE
  8
0
 62
     0
 10
92.9337
 20
75.7865
 30
0.0
 11
95.9337
 21
75.7865
 31
0.0
  0
LINE
  8
0
 62
     0
 10
95.9337
 20
75.7865
 30
0.0
 11
95.9337
 21
77.687
 31
0.0
  0
LINE
  8
0
 62
     0
 10
95.9337
 20
77.687
 30
0.0
 11
92.2334
 21
77.687
 31
0.0
  0
LINE
  8
0
 62
     0
 10
92.2334
 20
77.687
 30
0.0
 11
92.2334
 21
81.3869
 31
0.0
  0
LINE
  8
0
 62
     0
 10
92.2334
 20
81.3869
 30
0.0
 11
95.9337
 21
81.3869
 31
0.0
  0
LINE
  8
0
 62
     0
 10
95.9337
 20
81.3869
 30
0.0
 11
95.9337
 21
83.2873
 31
0.0
  0
LINE
  8
0
 62
     0
 10
95.9337
 20
83.2873
 30
0.0
 11
92.9337
 21
83.2873
 31
0.0
  0
LINE
  8
0
 62
     0
 10
12.8502
 20
64.3393
 30
0.0
 11
15.0496
 21
64.3393
 31
0.0
  0
LINE
  8
0
 62
     0
 10
15.0496
 20
64.3393
 30
0.0
 11
15.0496
 21
67.3393
 31
0.0
  0
LINE
  8
0
 62
     0
 10
15.0496
 20
67.3393
 30
0.0
 11
21.0495
 21
67.3393
 31
0.0
  0
LINE
  8
0
 62
     0
 10
21.0495
 20
67.3393
 30
0.0
 11
21.0495
 21
64.3393
 31
0.0
  0
LINE
  8
0
 62
     0
 10
21.0495
 20
64.3393
 30
0.0
 11
27.0495
 21
64.3393
 31
0.0
  0
LINE
  8
0
 62
     0
 10
27.0495
 20
64.3393
 30
0.0
 11
27.0495
 21
67.3393
 31
0.0
  0
LINE
  8
0
 62
     0
 10
27.0495
 20
67.3393
 30
0.0
 11
33.0495
 21
67.3393
 31
0.0
  0
LINE
  8
0
 62
     0
 10
33.0495
 20
67.3393
 30
0.0
 11
33.0495
 21
64.3393
 31
0.0
  0
LINE
  8
0
 62
     0
 10
33.0495
 20
64.3393
 30
0.0
 11
39.0493
 21
64.3393
 31
0.0
  0
LINE
  8
0
 62
     0
 10
39.0493
 20
64.3393
 30
0.0
 11
39.0493
 21
67.3393
 31
0.0
  0
LINE
  8
0
 62
     0
 10
39.0493
 20
67.3393
 30
0.0
 11
45.0494
 21
67.3393
 31
0.0
  0
LINE
  8
0
 62
     0
 10
45.0494
 20
67.3393
 30
0.0
 11
45.0494
 21
64.3393
 31
0.0
  0
LINE
  8
0
 62
     0
 10
45.0494
 20
64.3393
 30
0.0
 11
51.0494
 21
64.3393
 31
0.0
  0
LINE
  8
0
 62
     0
 10
51.0494
 20
64.3393
 30
0.0
 11
51.0494
 21
67.3393
 31
0.0
  0
LINE
  8
0
 62
     0
 10
51.0494
 20
67.3393
 30
0.0
 11
57.0495
 21
67.3393
 31
0.0
  0
LINE
  8
0
 62
     0
 10
57.0495
 20
67.3393
 30
0.0
 11
57.0495
 21
64.3393
 31
0.0
  0
LINE
  8
0
 62
     0
 10
57.0495
 20
64.3393
 30
0.0
 11
63.0495
 21
64.3393
 31
0.0
  0
LINE
  8
0
 62
     0
 10
63.0495
 20
64.3393
 30
0.0
 11
63.0495
 21
67.3393
 31
0.0
  0
LINE
  8
0
 62
     0
 10
63.0495
 20
67.3393
 30
0.0
 11
69.0506
 21
67.3393
 31
0.0
  0
LINE
  8
0
 62
     0
 10
69.0506
 20
67.3393
 30
0.0
 11
69.0506
 21
64.3393
 31
0.0
  0
LINE
  8
0
 62
     0
 10
69.0506
 20
64.3393
 30
0.0
 11
75.0507
 21
64.3393
 31
0.0
  0
LINE
  8
0
 62
     0
 10
75.0507
 20
64.3393
 30
0.0
 11
75.0507
 21
67.3393
 31
0.0
  0
LINE
  8
0
 62
     0
 10
75.0507
 20
67.3393
 30
0.0
 11
81.0507
 21
67.3393
 31
0.0
  0
LINE
  8
0
 62
     0
 10
81.0507
 20
67.3393
 30
0.0
 11
81.0507
 21
64.3393
 31
0.0
  0
LINE
  8
0
 62
     0
 10
81.0507
 20
64.3393
 30
0.0
 11
88.55
 21
64.3393
 31
0.0
  0
LINE
  8
0
 62
     0
 10
88.55
 20
64.3393
 30
0.0
 11
88.55
 21
67.3393
 31
0.0
  0
LINE
  8
0
 62
     0
 10
88.55
 20
67.3393
 30
0.0
 11
93.0508
 21
67.3393
 31
0.0
  0
LINE
  8
0
 62
     0
 10
93.0508
 20
67.3393
 30
0.0
 11
93.0508
 21
58.3392
 31
0.0
  0
LINE
  8
0
 62
     0
 10
93.0508
 20
58.3392
 30
0.0
 11
96.0508
 21
58.3392
 31
0.0
  0
LINE
  8
0
 62
     0
 10
96.0508
 20
58.3392
 30
0.0
 11
96.0508
 21
49.3391
 31
0.0
  0
LINE
  8
0
 62
     0
 10
96.0508
 20
49.3391
 30
0.0
 11
93.0508
 21
49.3391
 31
0.0
  0
LINE
  8
0
 62
     0
 10
93.0508
 20
49.3391
 30
0.0
 11
93.0508
 21
43.338
 31
0.0
  0
LINE
  8
0
 62
     0
 10
93.0508
 20
43.338
 30
0.0
 11
96.0508
 21
43.338
 31
0.0
  0
LINE
  8
0
 62
     0
 10
96.0508
 20
43.338
 30
0.0
 11
96.0508
 21
37.338
 31
0.0
  0
LINE
  8
0
 62
     0
 10
96.0508
 20
37.338
 30
0.0
 11
93.0508
 21
37.338
 31
0.0
  0
LINE
  8
0
 62
     0
 10
93.0508
 20
37.338
 30
0.0
 11
93.0508
 21
31.338
 31
0.0
  0
LINE
  8
0
 62
     0
 10
93.0508
 20
31.338
 30
0.0
 11
96.0508
 21
31.338
 31
0.0
  0
LINE
  8
0
 62
     0
 10
96.0508
 20
31.338
 30
0.0
 11
96.0508
 21
25.338
 31
0.0
  0
LINE
  8
0
 62
     0
 10
96.0508
 20
25.338
 30
0.0
 11
93.0508
 21
25.338
 31
0.0
  0
LINE
  8
0
 62
     0
 10
93.0508
 20
25.338
 30
0.0
 11
93.0508
 21
19.338
 31
0.0
  0
LINE
  8
0
 62
     0
 10
93.0508
 20
19.338
 30
0.0
 11
96.0508
 21
19.338
 31
0.0
  0
LINE
  8
0
 62
     0
 10
96.0508
 20
19.338
 30
0.0
 11
96.0508
 21
10.338
 31
0.0
  0
LINE
  8
0
 62
     0
 10
96.0508
 20
10.338
 30
0.0
 11
93.0508
 21
10.338
 31
0.0
  0
LINE
  8
0
 62
     0
 10
93.0508
 20
10.338
 30
0.0
 11
93.0508
 21
1.33808
 31
0.0
  0
LINE
  8
0
 62
     0
 10
93.0508
 20
1.33808
 30
0.0
 11
88.55
 21
1.33808
 31
0.0
  0
LINE
  8
0
 62
     0
 10
88.55
 20
1.33808
 30
0.0
 11
88.55
 21
4.33807
 31
0.0
  0
LINE
  8
0
 62
     0
 10
88.55
 20
4.33807
 30
0.0
 11
81.0507
 21
4.33807
 31
0.0
  0
LINE
  8
0
 62
     0
 10
81.0507
 20
4.33807
 30
0.0
 11
81.0507
 21
1.33808
 31
0.0
  0
LINE
  8
0
 62
     0
 10
81.0507
 20
1.33808
 30
0.0
 11
75.0507
 21
1.33808
 31
0.0
  0
LINE
  8
0
 62
     0
 10
75.0507
 20
1.33808
 30
0.0
 11
75.0507
 21
4.33807
 31
0.0
  0
LINE
  8
0
 62
     0
 10
75.0507
 20
4.33807
 30
0.0
 11
69.0506
 21
4.33807
 31
0.0
  0
LINE
  8
0
 62
     0
 10
69.0506
 20
4.33807
 30
0.0
 11
69.0506
 21
1.33808
 31
0.0
  0
LINE
  8
0
 62
     0
 10
69.0506
 20
1.33808
 30
0.0
 11
63.0495
 21
1.33808
 31
0.0
  0
LINE
  8
0
 62
     0
 10
63.0495
 20
1.33808
 30
0.0
 11
63.0495
 21
4.33807
 31
0.0
  0
LINE
  8
0
 62
     0
 10
63.0495
 20
4.33807
 30
0.0
 11
57.0495
 21
4.33807
 31
0.0
  0
LINE
  8
0
 62
     0
 10
57.0495
 20
4.33807
 30
0.0
 11
57.0495
 21
1.33808
 31
0.0
  0
LINE
  8
0
 62
     0
 10
57.0495
 20
1.33808
 30
0.0
 11
51.0494
 21
1.33808
 31
0.0
  0
LINE
  8
0
 62
     0
 10
51.0494
 20
1.33808
 30
0.0
 11
51.0494
 21
4.33807
 31
0.0
  0
LINE
  8
0
 62
     0
 10
51.0494
 20
4.33807
 30
0.0
 11
45.0494
 21
4.33807
 31
0.0
  0
LINE
  8
0
 62
     0
 10
45.0494
 20
4.33807
 30
0.0
 11
45.0494
 21
1.33808
 31
0.0
  0
LINE
  8
0
 62
     0
 10
45.0494
 20
1.33808
 30
0.0
 11
39.0493
 21
1.33808
 31
0.0
  0
LINE
  8
0
 62
     0
 10
39.0493
 20
1.33808
 30
0.0
 11
39.0493
 21
4.33807
 31
0.0
  0
LINE
  8
0
 62
     0
 10
39.0493
 20
4.33807
 30
0.0
 11
33.0495
 21
4.33807
 31
0.0
  0
LINE
  8
0
 62
     0
 10
33.0495
 20
4.33807
 30
0.0
 11
33.0495
 21
1.33808
 31
0.0
  0
LINE
  8
0
 62
     0
 10
33.0495
 20
1.33808
 30
0.0
 11
27.0495
 21
1.33808
 31
0.0
  0
LINE
  8
0
 62
     0
 10
27.0495
 20
1.33808
 30
0.0
 11
27.0495
 21
4.33807
 31
0.0
  0
LINE
  8
0
 62
     0
 10
27.0495
 20
4.33807
 30
0.0
 11
21.0495
 21
4.33807
 31
0.0
  0
LINE
  8
0
 62
     0
 10
21.0495
 20
4.33807
 30
0.0
 11
21.0495
 21
1.33808
 31
0.0
  0
LINE
  8
0
 62
     0
 10
21.0495
 20
1.33808
 30
0.0
 11
15.0496
 21
1.33808
 31
0.0
  0
LINE
  8
0
 62
     0
 10
15.0496
 20
1.33808
 30
0.0
 11
15.0496
 21
4.33807
 31
0.0
  0
LINE
  8
0
 62
     0
 10
15.0496
 20
4.33807
 30
0.0
 11
7.55026
 21
4.33807
 31
0.0
  0
LINE
  8
0
 62
     0
 10
7.55026
 20
4.33807
 30
0.0
 11
7.55026
 21
1.33808
 31
0.0
  0
LINE
  8
0
 62
     0
 10
7.55026
 20
1.33808
 30
0.0
 11
3.0496
 21
1.33808
 31
0.0
  0
LINE
  8
0
 62
     0
 10
3.0496
 20
1.33808
 30
0.0
 11
3.0496
 21
10.338
 31
0.0
  0
LINE
  8
0
 62
     0
 10
3.0496
 20
10.338
 30
0.0
 11
0.0496094
 21
10.338
 31
0.0
  0
LINE
  8
0
 62
     0
 10
0.0496094
 20
10.338
 30
0.0
 11
0.0496094
 21
19.338
 31
0.0
  0
LINE
  8
0
 62
     0
 10
0.0496094
 20
19.338
 30
0.0
 11
3.0496
 21
19.338
 31
0.0
  0
LINE
  8
0
 62
     0
 10
3.0496
 20
19.338
 30
0.0
 11
3.0496
 21
25.338
 31
0.0
  0
LINE
  8
0
 62
     0
 10
3.0496
 20
25.338
 30
0.0
 11
0.0496094
 21
25.338
 31
0.0
  0
LINE
  8
0
 62
     0
 10
0.0496094
 20
25.338
 30
0.0
 11
0.0496094
 21
31.338
 31
0.0
  0
LINE
  8
0
 62
     0
 10
0.0496094
 20
31.338
 30
0.0
 11
3.0496
 21
31.338
 31
0.0
  0
LINE
  8
0
 62
     0
 10
3.0496
 20
31.338
 30
0.0
 11
3.0496
 21
37.338
 31
0.0
  0
LINE
  8
0
 62
     0
 10
3.0496
 20
37.338
 30
0.0
 11
0.0496094
 21
37.338
 31
0.0
  0
LINE
  8
0
 62
     0
 10
0.0496094
 20
37.338
 30
0.0
 11
0.0496094
 21
43.338
 31
0.0
  0
LINE
  8
0
 62
     0
 10
0.0496094
 20
43.338
 30
0.0
 11
3.0496
 21
43.338
 31
0.0
  0
LINE
  8
0
 62
     0
 10
3.0496
 20
43.338
 30
0.0
 11
3.0496
 21
49.3391
 31
0.0
  0
LINE
  8
0
 62
     0
 10
3.0496
 20
49.3391
 30
0.0
 11
0.0496094
 21
49.3391
 31
0.0
  0
LINE
  8
0
 62
     0
 10
0.0496094
 20
49.3391
 30
0.0
 11
0.0496094
 21
58.3392
 31
0.0
  0
LINE
  8
0
 62
     0
 10
0.0496094
 20
58.3392
 30
0.0
 11
3.0496
 21
58.3392
 31
0.0
  0
LINE
  8
0
 62
     0
 10
3.0496
 20
58.3392
 30
0.0
 11
3.0496
 21
67.3393
 31
0.0
  0
LINE
  8
0
 62
     0
 10
3.0496
 20
67.3393
 30
0.0
 11
7.55026
 21
67.3393
 31
0.0
  0
LINE
  8
0
 62
     0
 10
7.55026
 20
67.3393
 30
0.0
 11
7.55026
 21
64.3393
 31
0.0
  0
LINE
  8
0
 62
     0
 10
7.55026
 20
64.3393
 30
0.0
 11
12.8502
 21
64.3393
 31
0.0
  0
LINE
  8
0
 62
     0
 10
212.178
 20
163.726
 30
0.0
 11
212.178
 21
160.726
 31
0.0
  0
LINE
  8
0
 62
     0
 10
212.178
 20
160.726
 30
0.0
 11
218.178
 21
160.726
 31
0.0
  0
LINE
  8
0
 62
     0
 10
218.178
 20
160.726
 30
0.0
 11
218.178
 21
163.726
 31
0.0
  0
LINE
  8
0
 62
     0
 10
218.178
 20
163.726
 30
0.0
 11
224.178
 21
163.726
 31
0.0
  0
LINE
  8
0
 62
     0
 10
224.178
 20
163.726
 30
0.0
 11
224.178
 21
160.726
 31
0.0
  0
LINE
  8
0
 62
     0
 10
224.178
 20
160.726
 30
0.0
 11
230.178
 21
160.726
 31
0.0
  0
LINE
  8
0
 62
     0
 10
230.178
 20
160.726
 30
0.0
 11
230.178
 21
163.726
 31
0.0
  0
LINE
  8
0
 62
     0
 10
230.178
 20
163.726
 30
0.0
 11
236.178
 21
163.726
 31
0.0
  0
LINE
  8
0
 62
     0
 10
236.178
 20
163.726
 30
0.0
 11
236.178
 21
160.726
 31
0.0
  0
LINE
  8
0
 62
     0
 10
236.178
 20
160.726
 30
0.0
 11
242.178
 21
160.726
 31
0.0
  0
LINE
  8
0
 62
     0
 10
242.178
 20
160.726
 30
0.0
 11
242.178
 21
163.726
 31
0.0
  0
LINE
  8
0
 62
     0
 10
242.178
 20
163.726
 30
0.0
 11
248.178
 21
163.726
 31
0.0
  0
LINE
  8
0
 62
     0
 10
248.178
 20
163.726
 30
0.0
 11
248.178
 21
160.726
 31
0.0
  0
LINE
  8
0
 62
     0
 10
248.178
 20
160.726
 30
0.0
 11
254.178
 21
160.726
 31
0.0
  0
LINE
  8
0
 62
     0
 10
254.178
 20
160.726
 30
0.0
 11
254.178
 21
163.726
 31
0.0
  0
LINE
  8
0
 62
     0
 10
254.178
 20
163.726
 30
0.0
 11
260.178
 21
163.726
 31
0.0
  0
LINE
  8
0
 62
     0
 10
260.178
 20
163.726
 30
0.0
 11
260.178
 21
160.726
 31
0.0
  0
LINE
  8
0
 62
     0
 10
260.178
 20
160.726
 30
0.0
 11
266.178
 21
160.726
 31
0.0
  0
LINE
  8
0
 62
     0
 10
266.178
 20
160.726
 30
0.0
 11
266.178
 21
163.726
 31
0.0
  0
LINE
  8
0
 62
     0
 10
266.178
 20
163.726
 30
0.0
 11
272.178
 21
163.726
 31
0.0
  0
LINE
  8
0
 62
     0
 10
272.178
 20
163.726
 30
0.0
 11
272.178
 21
160.726
 31
0.0
  0
LINE
  8
0
 62
     0
 10
272.178
 20
160.726
 30
0.0
 11
278.178
 21
160.726
 31
0.0
  0
LINE
  8
0
 62
     0
 10
278.178
 20
160.726
 30
0.0
 11
278.178
 21
163.726
 31
0.0
  0
LINE
  8
0
 62
     0
 10
278.178
 20
163.726
 30
0.0
 11
285.677
 21
163.726
 31
0.0
  0
LINE
  8
0
 62
     0
 10
285.677
 20
163.726
 30
0.0
 11
285.677
 21
160.726
 31
0.0
  0
LINE
  8
0
 62
     0
 10
285.677
 20
160.726
 30
0.0
 11
293.178
 21
160.726
 31
0.0
  0
LINE
  8
0
 62
     0
 10
293.178
 20
160.726
 30
0.0
 11
293.178
 21
156.227
 31
0.0
  0
LINE
  8
0
 62
     0
 10
293.178
 20
156.227
 30
0.0
 11
290.178
 21
156.227
 31
0.0
  0
LINE
  8
0
 62
     0
 10
290.178
 20
156.227
 30
0.0
 11
290.178
 21
148.726
 31
0.0
  0
LINE
  8
0
 62
     0
 10
290.178
 20
148.726
 30
0.0
 11
293.178
 21
148.726
 31
0.0
  0
LINE
  8
0
 62
     0
 10
293.178
 20
148.726
 30
0.0
 11
293.178
 21
142.726
 31
0.0
  0
LINE
  8
0
 62
     0
 10
293.178
 20
142.726
 30
0.0
 11
290.178
 21
142.726
 31
0.0
  0
LINE
  8
0
 62
     0
 10
290.178
 20
142.726
 30
0.0
 11
290.178
 21
136.726
 31
0.0
  0
LINE
  8
0
 62
     0
 10
290.178
 20
136.726
 30
0.0
 11
293.178
 21
136.726
 31
0.0
  0
LINE
  8
0
 62
     0
 10
293.178
 20
136.726
 30
0.0
 11
293.178
 21
130.726
 31
0.0
  0
LINE
  8
0
 62
     0
 10
293.178
 20
130.726
 30
0.0
 11
290.178
 21
130.726
 31
0.0
  0
LINE
  8
0
 62
     0
 10
290.178
 20
130.726
 30
0.0
 11
290.178
 21
124.726
 31
0.0
  0
LINE
  8
0
 62
     0
 10
290.178
 20
124.726
 30
0.0
 11
293.178
 21
124.726
 31
0.0
  0
LINE
  8
0
 62
     0
 10
293.178
 20
124.726
 30
0.0
 11
293.178
 21
118.726
 31
0.0
  0
LINE
  8
0
 62
     0
 10
293.178
 20
118.726
 30
0.0
 11
290.178
 21
118.726
 31
0.0
  0
LINE
  8
0
 62
     0
 10
290.178
 20
118.726
 30
0.0
 11
290.178
 21
112.726
 31
0.0
  0
LINE
  8
0
 62
     0
 10
290.178
 20
112.726
 30
0.0
 11
293.178
 21
112.726
 31
0.0
  0
LINE
  8
0
 62
     0
 10
293.178
 20
112.726
 30
0.0
 11
293.178
 21
106.726
 31
0.0
  0
LINE
  8
0
 62
     0
 10
293.178
 20
106.726
 30
0.0
 11
290.178
 21
106.726
 31
0.0
  0
LINE
  8
0
 62
     0
 10
290.178
 20
106.726
 30
0.0
 11
290.178
 21
100.726
 31
0.0
  0
LINE
  8
0
 62
     0
 10
290.178
 20
100.726
 30
0.0
 11
293.178
 21
100.726
 31
0.0
  0
LINE
  8
0
 62
     0
 10
293.178
 20
100.726
 30
0.0
 11
293.178
 21
94.7265
 31
0.0
  0
LINE
  8
0
 62
     0
 10
293.178
 20
94.7265
 30
0.0
 11
290.178
 21
94.7265
 31
0.0
  0
LINE
  8
0
 62
     0
 10
290.178
 20
94.7265
 30
0.0
 11
290.178
 21
88.7264
 31
0.0
  0
LINE
  8
0
 62
     0
 10
290.178
 20
88.7264
 30
0.0
 11
293.178
 21
88.7264
 31
0.0
  0
LINE
  8
0
 62
     0
 10
293.178
 20
88.7264
 30
0.0
 11
293.178
 21
82.7264
 31
0.0
  0
LINE
  8
0
 62
     0
 10
293.178
 20
82.7264
 30
0.0
 11
290.178
 21
82.7264
 31
0.0
  0
LINE
  8
0
 62
     0
 10
290.178
 20
82.7264
 30
0.0
 11
290.178
 21
75.2256
 31
0.0
  0
LINE
  8
0
 62
     0
 10
290.178
 20
75.2256
 30
0.0
 11
293.178
 21
75.2256
 31
0.0
  0
LINE
  8
0
 62
     0
 10
293.178
 20
75.2256
 30
0.0
 11
293.178
 21
70.7263
 31
0.0
  0
LINE
  8
0
 62
     0
 10
293.178
 20
70.7263
 30
0.0
 11
285.677
 21
70.7263
 31
0.0
  0
LINE
  8
0
 62
     0
 10
285.677
 20
70.7263
 30
0.0
 11
285.677
 21
67.7263
 31
0.0
  0
LINE
  8
0
 62
     0
 10
285.677
 20
67.7263
 30
0.0
 11
278.178
 21
67.7263
 31
0.0
  0
LINE
  8
0
 62
     0
 10
278.178
 20
67.7263
 30
0.0
 11
278.178
 21
70.7263
 31
0.0
  0
LINE
  8
0
 62
     0
 10
278.178
 20
70.7263
 30
0.0
 11
272.178
 21
70.7263
 31
0.0
  0
LINE
  8
0
 62
     0
 10
272.178
 20
70.7263
 30
0.0
 11
272.178
 21
67.7263
 31
0.0
  0
LINE
  8
0
 62
     0
 10
272.178
 20
67.7263
 30
0.0
 11
266.178
 21
67.7263
 31
0.0
  0
LINE
  8
0
 62
     0
 10
266.178
 20
67.7263
 30
0.0
 11
266.178
 21
70.7263
 31
0.0
  0
LINE
  8
0
 62
     0
 10
266.178
 20
70.7263
 30
0.0
 11
260.178
 21
70.7263
 31
0.0
  0
LINE
  8
0
 62
     0
 10
260.178
 20
70.7263
 30
0.0
 11
260.178
 21
67.7263
 31
0.0
  0
LINE
  8
0
 62
     0
 10
260.178
 20
67.7263
 30
0.0
 11
254.178
 21
67.7263
 31
0.0
  0
LINE
  8
0
 62
     0
 10
254.178
 20
67.7263
 30
0.0
 11
254.178
 21
70.7263
 31
0.0
  0
LINE
  8
0
 62
     0
 10
254.178
 20
70.7263
 30
0.0
 11
248.178
 21
70.7263
 31
0.0
  0
LINE
  8
0
 62
     0
 10
248.178
 20
70.7263
 30
0.0
 11
248.178
 21
67.7263
 31
0.0
  0
LINE
  8
0
 62
     0
 10
248.178
 20
67.7263
 30
0.0
 11
242.178
 21
67.7263
 31
0.0
  0
LINE
  8
0
 62
     0
 10
242.178
 20
67.7263
 30
0.0
 11
242.178
 21
70.7263
 31
0.0
  0
LINE
  8
0
 62
     0
 10
242.178
 20
70.7263
 30
0.0
 11
236.178
 21
70.7263
 31
0.0
  0
LINE
  8
0
 62
     0
 10
236.178
 20
70.7263
 30
0.0
 11
236.178
 21
67.7263
 31
0.0
  0
LINE
  8
0
 62
     0
 10
236.178
 20
67.7263
 30
0.0
 11
230.178
 21
67.7263
 31
0.0
  0
LINE
  8
0
 62
     0
 10
230.178
 20
67.7263
 30
0.0
 11
230.178
 21
70.7263
 31
0.0
  0
LINE
  8
0
 62
     0
 10
230.178
 20
70.7263
 30
0.0
 11
224.178
 21
70.7263
 31
0.0
  0
LINE
  8
0
 62
     0
 10
224.178
 20
70.7263
 30
0.0
 11
224.178
 21
67.7263
 31
0.0
  0
LINE
  8
0
 62
     0
 10
224.178
 20
67.7263
 30
0.0
 11
218.178
 21
67.7263
 31
0.0
  0
LINE
  8
0
 62
     0
 10
218.178
 20
67.7263
 30
0.0
 11
218.178
 21
70.7263
 31
0.0
  0
LINE
  8
0
 62
     0
 10
218.178
 20
70.7263
 30
0.0
 11
212.178
 21
70.7263
 31
0.0
  0
LINE
  8
0
 62
     0
 10
212.178
 20
70.7263
 30
0.0
 11
212.178
 21
67.7263
 31
0.0
  0
LINE
  8
0
 62
     0
 10
212.178
 20
67.7263
 30
0.0
 11
204.677
 21
67.7263
 31
0.0
  0
LINE
  8
0
 62
     0
 10
204.677
 20
67.7263
 30
0.0
 11
204.677
 21
70.7263
 31
0.0
  0
LINE
  8
0
 62
     0
 10
204.677
 20
70.7263
 30
0.0
 11
197.177
 21
70.7263
 31
0.0
  0
LINE
  8
0
 62
     0
 10
197.177
 20
70.7263
 30
0.0
 11
197.177
 21
75.2256
 31
0.0
  0
LINE
  8
0
 62
     0
 10
197.177
 20
75.2256
 30
0.0
 11
200.177
 21
75.2256
 31
0.0
  0
LINE
  8
0
 62
     0
 10
200.177
 20
75.2256
 30
0.0
 11
200.177
 21
82.7264
 31
0.0
  0
LINE
  8
0
 62
     0
 10
200.177
 20
82.7264
 30
0.0
 11
197.177
 21
82.7264
 31
0.0
  0
LINE
  8
0
 62
     0
 10
197.177
 20
82.7264
 30
0.0
 11
197.177
 21
88.7264
 31
0.0
  0
LINE
  8
0
 62
     0
 10
197.177
 20
88.7264
 30
0.0
 11
200.177
 21
88.7264
 31
0.0
  0
LINE
  8
0
 62
     0
 10
200.177
 20
88.7264
 30
0.0
 11
200.177
 21
94.7265
 31
0.0
  0
LINE
  8
0
 62
     0
 10
200.177
 20
94.7265
 30
0.0
 11
197.177
 21
94.7265
 31
0.0
  0
LINE
  8
0
 62
     0
 10
197.177
 20
94.7265
 30
0.0
 11
197.177
 21
100.726
 31
0.0
  0
LINE
  8
0
 62
     0
 10
197.177
 20
100.726
 30
0.0
 11
200.177
 21
100.726
 31
0.0
  0
LINE
  8
0
 62
     0
 10
200.177
 20
100.726
 30
0.0
 11
200.177
 21
106.726
 31
0.0
  0
LINE
  8
0
 62
     0
 10
200.177
 20
106.726
 30
0.0
 11
197.177
 21
106.726
 31
0.0
  0
LINE
  8
0
 62
     0
 10
197.177
 20
106.726
 30
0.0
 11
197.177
 21
112.726
 31
0.0
  0
LINE
  8
0
 62
     0
 10
197.177
 20
112.726
 30
0.0
 11
200.177
 21
112.726
 31
0.0
  0
LINE
  8
0
 62
     0
 10
200.177
 20
112.726
 30
0.0
 11
200.177
 21
118.726
 31
0.0
  0
LINE
  8
0
 62
     0
 10
200.177
 20
118.726
 30
0.0
 11
197.177
 21
118.726
 31
0.0
  0
LINE
  8
0
 62
     0
 10
197.177
 20
118.726
 30
0.0
 11
197.177
 21
124.726
 31
0.0
  0
LINE
  8
0
 62
     0
 10
197.177
 20
124.726
 30
0.0
 11
200.177
 21
124.726
 31
0.0
  0
LINE
  8
0
 62
     0
 10
200.177
 20
124.726
 30
0.0
 11
200.177
 21
130.726
 31
0.0
  0
LINE
  8
0
 62
     0
 10
200.177
 20
130.726
 30
0.0
 11
197.177
 21
130.726
 31
0.0
  0
LINE
  8
0
 62
     0
 10
197.177
 20
130.726
 30
0.0
 11
197.177
 21
136.726
 31
0.0
  0
LINE
  8
0
 62
     0
 10
197.177
 20
136.726
 30
0.0
 11
200.177
 21
136.726
 31
0.0
  0
LINE
  8
0
 62
     0
 10
200.177
 20
136.726
 30
0.0
 11
200.177
 21
142.726
 31
0.0
  0
LINE
  8
0
 62
     0
 10
200.177
 20
142.726
 30
0.0
 11
197.177
 21
142.726
 31
0.0
  0
LINE
  8
0
 62
     0
 10
197.177
 20
142.726
 30
0.0
 11
197.177
 21
148.726
 31
0.0
  0
LINE
  8
0
 62
     0
 10
197.177
 20
148.726
 30
0.0
 11
200.177
 21
148.726
 31
0.0
  0
LINE
  8
0
 62
     0
 10
200.177
 20
148.726
 30
0.0
 11
200.177
 21
156.227
 31
0.0
  0
LINE
  8
0
 62
     0
 10
200.177
 20
156.227
 30
0.0
 11
197.177
 21
156.227
 31
0.0
  0
LINE
  8
0
 62
     0
 10
197.177
 20
156.227
 30
0.0
 11
197.177
 21
160.726
 31
0.0
  0
LINE
  8
0
 62
     0
 10
197.177
 20
160.726
 30
0.0
 11
204.677
 21
160.726
 31
0.0
  0
LINE
  8
0
 62
     0
 10
204.677
 20
160.726
 30
0.0
 11
204.677
 21
163.726
 31
0.0
  0
LINE
  8
0
 62
     0
 10
204.677
 20
163.726
 30
0.0
 11
212.178
 21
163.726
 31
0.0
  0
LINE
  8
0
 62
     0
 10
257.627
 20
115.726
 30
0.0
 11
257.627
 21
115.099
 31
0.0
  0
LINE
  8
0
 62
     0
 10
257.627
 20
115.099
 30
0.0
 11
257.374
 21
113.218
 31
0.0
  0
LINE
  8
0
 62
     0
 10
257.374
 20
113.218
 30
0.0
 11
256.649
 21
110.881
 31
0.0
  0
LINE
  8
0
 62
     0
 10
256.649
 20
110.881
 30
0.0
 11
255.501
 21
108.766
 31
0.0
  0
LINE
  8
0
 62
     0
 10
255.501
 20
108.766
 30
0.0
 11
253.979
 21
106.923
 31
0.0
  0
LINE
  8
0
 62
     0
 10
253.979
 20
106.923
 30
0.0
 11
252.137
 21
105.403
 31
0.0
  0
LINE
  8
0
 62
     0
 10
252.137
 20
105.403
 30
0.0
 11
250.023
 21
104.254
 31
0.0
  0
LINE
  8
0
 62
     0
 10
250.023
 20
104.254
 30
0.0
 11
247.686
 21
103.529
 31
0.0
  0
LINE
  8
0
 62
     0
 10
247.686
 20
103.529
 30
0.0
 11
245.805
 21
103.276
 31
0.0
  0
LINE
  8
0
 62
     0
 10
245.805
 20
103.276
 30
0.0
 11
245.178
 21
103.276
 31
0.0
  0
LINE
  8
0
 62
     0
 10
245.178
 20
103.276
 30
0.0
 11
244.567
 21
103.276
 31
0.0
  0
LINE
  8
0
 62
     0
 10
244.567
 20
103.276
 30
0.0
 11
242.736
 21
103.518
 31
0.0
  0
LINE
  8
0
 62
     0
 10
242.736
 20
103.518
 30
0.0
 11
240.412
 21
104.224
 31
0.0
  0
LINE
  8
0
 62
     0
 10
240.412
 20
104.224
 30
0.0
 11
238.27
 21
105.369
 31
0.0
  0
LINE
  8
0
 62
     0
 10
238.27
 20
105.369
 30
0.0
 11
236.805
 21
106.492
 31
0.0
  0
LINE
  8
0
 62
     0
 10
236.805
 20
106.492
 30
0.0
 11
236.373
 21
106.923
 31
0.0
  0
LINE
  8
0
 62
     0
 10
236.373
 20
106.923
 30
0.0
 11
235.942
 21
107.355
 31
0.0
  0
LINE
  8
0
 62
     0
 10
235.942
 20
107.355
 30
0.0
 11
234.818
 21
108.82
 31
0.0
  0
LINE
  8
0
 62
     0
 10
234.818
 20
108.82
 30
0.0
 11
233.674
 21
110.962
 31
0.0
  0
LINE
  8
0
 62
     0
 10
233.674
 20
110.962
 30
0.0
 11
232.968
 21
113.287
 31
0.0
  0
LINE
  8
0
 62
     0
 10
232.968
 20
113.287
 30
0.0
 11
232.727
 21
115.117
 31
0.0
  0
LINE
  8
0
 62
     0
 10
232.727
 20
115.117
 30
0.0
 11
232.727
 21
115.726
 31
0.0
  0
LINE
  8
0
 62
     0
 10
232.727
 20
115.726
 30
0.0
 11
232.727
 21
116.337
 31
0.0
  0
LINE
  8
0
 62
     0
 10
232.727
 20
116.337
 30
0.0
 11
232.968
 21
118.167
 31
0.0
  0
LINE
  8
0
 62
     0
 10
232.968
 20
118.167
 30
0.0
 11
233.674
 21
120.492
 31
0.0
  0
LINE
  8
0
 62
     0
 10
233.674
 20
120.492
 30
0.0
 11
234.818
 21
122.634
 31
0.0
  0
LINE
  8
0
 62
     0
 10
234.818
 20
122.634
 30
0.0
 11
235.942
 21
124.098
 31
0.0
  0
LINE
  8
0
 62
     0
 10
235.942
 20
124.098
 30
0.0
 11
236.373
 21
124.529
 31
0.0
  0
LINE
  8
0
 62
     0
 10
236.373
 20
124.529
 30
0.0
 11
236.805
 21
124.961
 31
0.0
  0
LINE
  8
0
 62
     0
 10
236.805
 20
124.961
 30
0.0
 11
238.27
 21
126.085
 31
0.0
  0
LINE
  8
0
 62
     0
 10
238.27
 20
126.085
 30
0.0
 11
240.412
 21
127.23
 31
0.0
  0
LINE
  8
0
 62
     0
 10
240.412
 20
127.23
 30
0.0
 11
242.736
 21
127.936
 31
0.0
  0
LINE
  8
0
 62
     0
 10
242.736
 20
127.936
 30
0.0
 11
244.567
 21
128.177
 31
0.0
  0
LINE
  8
0
 62
     0
 10
244.567
 20
128.177
 30
0.0
 11
245.178
 21
128.177
 31
0.0
  0
LINE
  8
0
 62
     0
 10
245.178
 20
128.177
 30
0.0
 11
245.805
 21
128.177
 31
0.0
  0
LINE
  8
0
 62
     0
 10
245.805
 20
128.177
 30
0.0
 11
247.686
 21
127.925
 31
0.0
  0
LINE
  8
0
 62
     0
 10
247.686
 20
127.925
 30
0.0
 11
250.023
 21
127.199
 31
0.0
  0
LINE
  8
0
 62
     0
 10
250.023
 20
127.199
 30
0.0
 11
252.137
 21
126.051
 31
0.0
  0
LINE
  8
0
 62
     0
 10
252.137
 20
126.051
 30
0.0
 11
253.979
 21
124.531
 31
0.0
  0
LINE
  8
0
 62
     0
 10
253.979
 20
124.531
 30
0.0
 11
255.501
 21
122.688
 31
0.0
  0
LINE
  8
0
 62
     0
 10
255.501
 20
122.688
 30
0.0
 11
256.649
 21
120.573
 31
0.0
  0
LINE
  8
0
 62
     0
 10
256.649
 20
120.573
 30
0.0
 11
257.374
 21
118.236
 31
0.0
  0
LINE
  8
0
 62
     0
 10
257.374
 20
118.236
 30
0.0
 11
257.627
 21
116.355
 31
0.0
  0
LINE
  8
0
 62
     0
 10
257.627
 20
116.355
 30
0.0
 11
257.627
 21
115.726
 31
0.0
  0
LINE
  8
0
 62
     0
 10
228.599
 20
115.726
 30
0.0
 11
228.599
 21
115.54
 31
0.0
  0
LINE
  8
0
 62
     0
 10
228.599
 20
115.54
 30
0.0
 11
228.45
 21
114.981
 31
0.0
  0
LINE
  8
0
 62
     0
 10
228.45
 20
114.981
 30
0.0
 11
228.119
 21
114.439
 31
0.0
  0
LINE
  8
0
 62
     0
 10
228.119
 20
114.439
 30
0.0
 11
228.028
 21
114.347
 31
0.0
  0
LINE
  8
0
 62
     0
 10
228.028
 20
114.347
 30
0.0
 11
227.936
 21
114.256
 31
0.0
  0
LINE
  8
0
 62
     0
 10
227.936
 20
114.256
 30
0.0
 11
227.396
 21
113.925
 31
0.0
  0
LINE
  8
0
 62
     0
 10
227.396
 20
113.925
 30
0.0
 11
226.835
 21
113.776
 31
0.0
  0
LINE
  8
0
 62
     0
 10
226.835
 20
113.776
 30
0.0
 11
226.649
 21
113.776
 31
0.0
  0
LINE
  8
0
 62
     0
 10
226.649
 20
113.776
 30
0.0
 11
226.461
 21
113.776
 31
0.0
  0
LINE
  8
0
 62
     0
 10
226.461
 20
113.776
 30
0.0
 11
225.902
 21
113.925
 31
0.0
  0
LINE
  8
0
 62
     0
 10
225.902
 20
113.925
 30
0.0
 11
225.362
 21
114.256
 31
0.0
  0
LINE
  8
0
 62
     0
 10
225.362
 20
114.256
 30
0.0
 11
225.271
 21
114.347
 31
0.0
  0
LINE
  8
0
 62
     0
 10
225.271
 20
114.347
 30
0.0
 11
225.178
 21
114.439
 31
0.0
  0
LINE
  8
0
 62
     0
 10
225.178
 20
114.439
 30
0.0
 11
224.846
 21
114.981
 31
0.0
  0
LINE
  8
0
 62
     0
 10
224.846
 20
114.981
 30
0.0
 11
224.699
 21
115.54
 31
0.0
  0
LINE
  8
0
 62
     0
 10
224.699
 20
115.54
 30
0.0
 11
224.699
 21
115.726
 31
0.0
  0
LINE
  8
0
 62
     0
 10
224.699
 20
115.726
 30
0.0
 11
224.699
 21
115.914
 31
0.0
  0
LINE
  8
0
 62
     0
 10
224.699
 20
115.914
 30
0.0
 11
224.846
 21
116.473
 31
0.0
  0
LINE
  8
0
 62
     0
 10
224.846
 20
116.473
 30
0.0
 11
225.178
 21
117.015
 31
0.0
  0
LINE
  8
0
 62
     0
 10
225.178
 20
117.015
 30
0.0
 11
225.271
 21
117.106
 31
0.0
  0
LINE
  8
0
 62
     0
 10
225.271
 20
117.106
 30
0.0
 11
225.362
 21
117.198
 31
0.0
  0
LINE
  8
0
 62
     0
 10
225.362
 20
117.198
 30
0.0
 11
225.902
 21
117.529
 31
0.0
  0
LINE
  8
0
 62
     0
 10
225.902
 20
117.529
 30
0.0
 11
226.461
 21
117.676
 31
0.0
  0
LINE
  8
0
 62
     0
 10
226.461
 20
117.676
 30
0.0
 11
226.649
 21
117.676
 31
0.0
  0
LINE
  8
0
 62
     0
 10
226.649
 20
117.676
 30
0.0
 11
226.838
 21
117.676
 31
0.0
  0
LINE
  8
0
 62
     0
 10
226.838
 20
117.676
 30
0.0
 11
227.408
 21
117.523
 31
0.0
  0
LINE
  8
0
 62
     0
 10
227.408
 20
117.523
 30
0.0
 11
228.027
 21
117.106
 31
0.0
  0
LINE
  8
0
 62
     0
 10
228.027
 20
117.106
 30
0.0
 11
228.444
 21
116.485
 31
0.0
  0
LINE
  8
0
 62
     0
 10
228.444
 20
116.485
 30
0.0
 11
228.599
 21
115.916
 31
0.0
  0
LINE
  8
0
 62
     0
 10
228.599
 20
115.916
 30
0.0
 11
228.599
 21
115.726
 31
0.0
  0
LINE
  8
0
 62
     0
 10
265.655
 20
115.726
 30
0.0
 11
265.655
 21
115.54
 31
0.0
  0
LINE
  8
0
 62
     0
 10
265.655
 20
115.54
 30
0.0
 11
265.507
 21
114.981
 31
0.0
  0
LINE
  8
0
 62
     0
 10
265.507
 20
114.981
 30
0.0
 11
265.176
 21
114.439
 31
0.0
  0
LINE
  8
0
 62
     0
 10
265.176
 20
114.439
 30
0.0
 11
265.085
 21
114.347
 31
0.0
  0
LINE
  8
0
 62
     0
 10
265.085
 20
114.347
 30
0.0
 11
264.993
 21
114.256
 31
0.0
  0
LINE
  8
0
 62
     0
 10
264.993
 20
114.256
 30
0.0
 11
264.451
 21
113.925
 31
0.0
  0
LINE
  8
0
 62
     0
 10
264.451
 20
113.925
 30
0.0
 11
263.892
 21
113.776
 31
0.0
  0
LINE
  8
0
 62
     0
 10
263.892
 20
113.776
 30
0.0
 11
263.706
 21
113.776
 31
0.0
  0
LINE
  8
0
 62
     0
 10
263.706
 20
113.776
 30
0.0
 11
263.518
 21
113.776
 31
0.0
  0
LINE
  8
0
 62
     0
 10
263.518
 20
113.776
 30
0.0
 11
262.959
 21
113.925
 31
0.0
  0
LINE
  8
0
 62
     0
 10
262.959
 20
113.925
 30
0.0
 11
262.417
 21
114.256
 31
0.0
  0
LINE
  8
0
 62
     0
 10
262.417
 20
114.256
 30
0.0
 11
262.326
 21
114.347
 31
0.0
  0
LINE
  8
0
 62
     0
 10
262.326
 20
114.347
 30
0.0
 11
262.234
 21
114.439
 31
0.0
  0
LINE
  8
0
 62
     0
 10
262.234
 20
114.439
 30
0.0
 11
261.903
 21
114.981
 31
0.0
  0
LINE
  8
0
 62
     0
 10
261.903
 20
114.981
 30
0.0
 11
261.755
 21
115.54
 31
0.0
  0
LINE
  8
0
 62
     0
 10
261.755
 20
115.54
 30
0.0
 11
261.755
 21
115.726
 31
0.0
  0
LINE
  8
0
 62
     0
 10
261.755
 20
115.726
 30
0.0
 11
261.755
 21
115.916
 31
0.0
  0
LINE
  8
0
 62
     0
 10
261.755
 20
115.916
 30
0.0
 11
261.909
 21
116.485
 31
0.0
  0
LINE
  8
0
 62
     0
 10
261.909
 20
116.485
 30
0.0
 11
262.326
 21
117.106
 31
0.0
  0
LINE
  8
0
 62
     0
 10
262.326
 20
117.106
 30
0.0
 11
262.946
 21
117.523
 31
0.0
  0
LINE
  8
0
 62
     0
 10
262.946
 20
117.523
 30
0.0
 11
263.515
 21
117.676
 31
0.0
  0
LINE
  8
0
 62
     0
 10
263.515
 20
117.676
 30
0.0
 11
263.706
 21
117.676
 31
0.0
  0
LINE
  8
0
 62
     0
 10
263.706
 20
117.676
 30
0.0
 11
263.892
 21
117.676
 31
0.0
  0
LINE
  8
0
 62
     0
 10
263.892
 20
117.676
 30
0.0
 11
264.451
 21
117.529
 31
0.0
  0
LINE
  8
0
 62
     0
 10
264.451
 20
117.529
 30
0.0
 11
264.993
 21
117.198
 31
0.0
  0
LINE
  8
0
 62
     0
 10
264.993
 20
117.198
 30
0.0
 11
265.085
 21
117.106
 31
0.0
  0
LINE
  8
0
 62
     0
 10
265.085
 20
117.106
 30
0.0
 11
265.176
 21
117.015
 31
0.0
  0
LINE
  8
0
 62
     0
 10
265.176
 20
117.015
 30
0.0
 11
265.507
 21
116.473
 31
0.0
  0
LINE
  8
0
 62
     0
 10
265.507
 20
116.473
 30
0.0
 11
265.655
 21
115.914
 31
0.0
  0
LINE
  8
0
 62
     0
 10
265.655
 20
115.914
 30
0.0
 11
265.655
 21
115.726
 31
0.0
  0
LINE
  8
0
 62
     1
 10
275.127
 20
115.726
 30
0.0
 11
275.127
 21
114.217
 31
0.0
  0
LINE
  8
0
 62
     1
 10
275.127
 20
114.217
 30
0.0
 11
274.518
 21
109.691
 31
0.0
  0
LINE
  8
0
 62
     1
 10
274.518
 20
109.691
 30
0.0
 11
272.773
 21
104.069
 31
0.0
  0
LINE
  8
0
 62
     1
 10
272.773
 20
104.069
 30
0.0
 11
270.012
 21
98.9817
 31
0.0
  0
LINE
  8
0
 62
     1
 10
270.012
 20
98.9817
 30
0.0
 11
266.354
 21
94.5487
 31
0.0
  0
LINE
  8
0
 62
     1
 10
266.354
 20
94.5487
 30
0.0
 11
261.922
 21
90.8914
 31
0.0
  0
LINE
  8
0
 62
     1
 10
261.922
 20
90.8914
 30
0.0
 11
256.835
 21
88.1309
 31
0.0
  0
LINE
  8
0
 62
     1
 10
256.835
 20
88.1309
 30
0.0
 11
251.214
 21
86.385
 31
0.0
  0
LINE
  8
0
 62
     1
 10
251.214
 20
86.385
 30
0.0
 11
246.687
 21
85.7762
 31
0.0
  0
LINE
  8
0
 62
     1
 10
246.687
 20
85.7762
 30
0.0
 11
245.178
 21
85.7762
 31
0.0
  0
LINE
  8
0
 62
     1
 10
245.178
 20
85.7762
 30
0.0
 11
243.709
 21
85.7762
 31
0.0
  0
LINE
  8
0
 62
     1
 10
243.709
 20
85.7762
 30
0.0
 11
239.306
 21
86.3575
 31
0.0
  0
LINE
  8
0
 62
     1
 10
239.306
 20
86.3575
 30
0.0
 11
233.715
 21
88.0565
 31
0.0
  0
LINE
  8
0
 62
     1
 10
233.715
 20
88.0565
 30
0.0
 11
228.56
 21
90.8085
 31
0.0
  0
LINE
  8
0
 62
     1
 10
228.56
 20
90.8085
 30
0.0
 11
225.036
 21
93.5108
 31
0.0
  0
LINE
  8
0
 62
     1
 10
225.036
 20
93.5108
 30
0.0
 11
223.999
 21
94.5487
 31
0.0
  0
LINE
  8
0
 62
     1
 10
223.999
 20
94.5487
 30
0.0
 11
222.961
 21
95.5862
 31
0.0
  0
LINE
  8
0
 62
     1
 10
222.961
 20
95.5862
 30
0.0
 11
220.259
 21
99.1112
 31
0.0
  0
LINE
  8
0
 62
     1
 10
220.259
 20
99.1112
 30
0.0
 11
217.507
 21
104.265
 31
0.0
  0
LINE
  8
0
 62
     1
 10
217.507
 20
104.265
 30
0.0
 11
215.808
 21
109.857
 31
0.0
  0
LINE
  8
0
 62
     1
 10
215.808
 20
109.857
 30
0.0
 11
215.228
 21
114.26
 31
0.0
  0
LINE
  8
0
 62
     1
 10
215.228
 20
114.26
 30
0.0
 11
215.228
 21
115.726
 31
0.0
  0
LINE
  8
0
 62
     1
 10
215.228
 20
115.726
 30
0.0
 11
215.228
 21
117.237
 31
0.0
  0
LINE
  8
0
 62
     1
 10
215.228
 20
117.237
 30
0.0
 11
215.835
 21
121.763
 31
0.0
  0
LINE
  8
0
 62
     1
 10
215.835
 20
121.763
 30
0.0
 11
217.58
 21
127.385
 31
0.0
  0
LINE
  8
0
 62
     1
 10
217.58
 20
127.385
 30
0.0
 11
220.341
 21
132.472
 31
0.0
  0
LINE
  8
0
 62
     1
 10
220.341
 20
132.472
 30
0.0
 11
223.999
 21
136.905
 31
0.0
  0
LINE
  8
0
 62
     1
 10
223.999
 20
136.905
 30
0.0
 11
228.432
 21
140.563
 31
0.0
  0
LINE
  8
0
 62
     1
 10
228.432
 20
140.563
 30
0.0
 11
233.518
 21
143.323
 31
0.0
  0
LINE
  8
0
 62
     1
 10
233.518
 20
143.323
 30
0.0
 11
239.141
 21
145.069
 31
0.0
  0
LINE
  8
0
 62
     1
 10
239.141
 20
145.069
 30
0.0
 11
243.667
 21
145.676
 31
0.0
  0
LINE
  8
0
 62
     1
 10
243.667
 20
145.676
 30
0.0
 11
245.178
 21
145.676
 31
0.0
  0
LINE
  8
0
 62
     1
 10
245.178
 20
145.676
 30
0.0
 11
246.687
 21
145.676
 31
0.0
  0
LINE
  8
0
 62
     1
 10
246.687
 20
145.676
 30
0.0
 11
251.214
 21
145.069
 31
0.0
  0
LINE
  8
0
 62
     1
 10
251.214
 20
145.069
 30
0.0
 11
256.835
 21
143.323
 31
0.0
  0
LINE
  8
0
 62
     1
 10
256.835
 20
143.323
 30
0.0
 11
261.922
 21
140.563
 31
0.0
  0
LINE
  8
0
 62
     1
 10
261.922
 20
140.563
 30
0.0
 11
266.354
 21
136.905
 31
0.0
  0
LINE
  8
0
 62
     1
 10
266.354
 20
136.905
 30
0.0
 11
270.012
 21
132.472
 31
0.0
  0
LINE
  8
0
 62
     1
 10
270.012
 20
132.472
 30
0.0
 11
272.773
 21
127.385
 31
0.0
  0
LINE
  8
0
 62
     1
 10
272.773
 20
127.385
 30
0.0
 11
274.518
 21
121.763
 31
0.0
  0
LINE
  8
0
 62
     1
 10
274.518
 20
121.763
 30
0.0
 11
275.127
 21
117.237
 31
0.0
  0
LINE
  8
0
 62
     1
 10
275.127
 20
117.237
 30
0.0
 11
275.127
 21
115.726
 31
0.0
  0
LINE
  8
0
 62
     1
 10
58.6659
 20
61.3449
 30
0.0
 11
58.0665
 21
61.3449
 31
0.0
  0
LINE
  8
0
 62
     1
 10
58.0665
 20
61.3449
 30
0.0
 11
56.2709
 21
61.1657
 31
0.0
  0
LINE
  8
0
 62
     1
 10
56.2709
 20
61.1657
 30
0.0
 11
53.7161
 21
60.6517
 31
0.0
  0
LINE
  8
0
 62
     1
 10
53.7161
 20
60.6517
 30
0.0
 11
51.0438
 21
59.8399
 31
0.0
  0
LINE
  8
0
 62
     1
 10
51.0438
 20
59.8399
 30
0.0
 11
48.2988
 21
58.7678
 31
0.0
  0
LINE
  8
0
 62
     1
 10
48.2988
 20
58.7678
 30
0.0
 11
45.5235
 21
57.4696
 31
0.0
  0
LINE
  8
0
 62
     1
 10
45.5235
 20
57.4696
 30
0.0
 11
42.7634
 21
55.9855
 31
0.0
  0
LINE
  8
0
 62
     1
 10
42.7634
 20
55.9855
 30
0.0
 11
40.0583
 21
54.3486
 31
0.0
  0
LINE
  8
0
 62
     1
 10
40.0583
 20
54.3486
 30
0.0
 11
37.4537
 21
52.5985
 31
0.0
  0
LINE
  8
0
 62
     1
 10
37.4537
 20
52.5985
 30
0.0
 11
34.9939
 21
50.7711
 31
0.0
  0
LINE
  8
0
 62
     1
 10
34.9939
 20
50.7711
 30
0.0
 11
32.7201
 21
48.9024
 31
0.0
  0
LINE
  8
0
 62
     1
 10
32.7201
 20
48.9024
 30
0.0
 11
30.6779
 21
47.0285
 31
0.0
  0
LINE
  8
0
 62
     1
 10
30.6779
 20
47.0285
 30
0.0
 11
28.9099
 21
45.1887
 31
0.0
  0
LINE
  8
0
 62
     1
 10
28.9099
 20
45.1887
 30
0.0
 11
27.4574
 21
43.4164
 31
0.0
  0
LINE
  8
0
 62
     1
 10
27.4574
 20
43.4164
 30
0.0
 11
26.3674
 21
41.752
 31
0.0
  0
LINE
  8
0
 62
     1
 10
26.3674
 20
41.752
 30
0.0
 11
25.6811
 21
40.229
 31
0.0
  0
LINE
  8
0
 62
     1
 10
25.6811
 20
40.229
 30
0.0
 11
25.4441
 21
39.2204
 31
0.0
  0
LINE
  8
0
 62
     1
 10
25.4441
 20
39.2204
 30
0.0
 11
25.4441
 21
38.8842
 31
0.0
  0
LINE
  8
0
 62
     1
 10
25.4441
 20
38.8842
 30
0.0
 11
25.4441
 21
38.6662
 31
0.0
  0
LINE
  8
0
 62
     1
 10
25.4441
 20
38.6662
 30
0.0
 11
25.5916
 21
38.0104
 31
0.0
  0
LINE
  8
0
 62
     1
 10
25.5916
 20
38.0104
 30
0.0
 11
26.0146
 21
37.2897
 31
0.0
  0
LINE
  8
0
 62
     1
 10
26.0146
 20
37.2897
 30
0.0
 11
26.6761
 21
36.8018
 31
0.0
  0
LINE
  8
0
 62
     1
 10
26.6761
 20
36.8018
 30
0.0
 11
27.3251
 21
36.6215
 31
0.0
  0
LINE
  8
0
 62
     1
 10
27.3251
 20
36.6215
 30
0.0
 11
27.5428
 21
36.6215
 31
0.0
  0
LINE
  8
0
 62
     1
 10
27.5428
 20
36.6215
 30
0.0
 11
27.7813
 21
36.6215
 31
0.0
  0
LINE
  8
0
 62
     1
 10
27.7813
 20
36.6215
 30
0.0
 11
28.4992
 21
36.7827
 31
0.0
  0
LINE
  8
0
 62
     1
 10
28.4992
 20
36.7827
 30
0.0
 11
29.6416
 21
37.1616
 31
0.0
  0
LINE
  8
0
 62
     1
 10
29.6416
 20
37.1616
 30
0.0
 11
30.5993
 21
37.6121
 31
0.0
  0
LINE
  8
0
 62
     1
 10
30.5993
 20
37.6121
 30
0.0
 11
31.0017
 21
37.8876
 31
0.0
  0
LINE
  8
0
 62
     1
 10
31.0017
 20
37.8876
 30
0.0
 11
31.0017
 21
37.9786
 31
0.0
  0
LINE
  8
0
 62
     1
 10
31.0017
 20
37.9786
 30
0.0
 11
30.8984
 21
37.9483
 31
0.0
  0
LINE
  8
0
 62
     1
 10
30.8984
 20
37.9483
 30
0.0
 11
30.5704
 21
37.8767
 31
0.0
  0
LINE
  8
0
 62
     1
 10
30.5704
 20
37.8767
 30
0.0
 11
29.993
 21
37.7694
 31
0.0
  0
LINE
  8
0
 62
     1
 10
29.993
 20
37.7694
 30
0.0
 11
29.4142
 21
37.6851
 31
0.0
  0
LINE
  8
0
 62
     1
 10
29.4142
 20
37.6851
 30
0.0
 11
29.0917
 21
37.6509
 31
0.0
  0
LINE
  8
0
 62
     1
 10
29.0917
 20
37.6509
 30
0.0
 11
28.9843
 21
37.6509
 31
0.0
  0
LINE
  8
0
 62
     1
 10
28.9843
 20
37.6509
 30
0.0
 11
28.8506
 21
37.6509
 31
0.0
  0
LINE
  8
0
 62
     1
 10
28.8506
 20
37.6509
 30
0.0
 11
28.4538
 21
37.8368
 31
0.0
  0
LINE
  8
0
 62
     1
 10
28.4538
 20
37.8368
 30
0.0
 11
28.2015
 21
38.2531
 31
0.0
  0
LINE
  8
0
 62
     1
 10
28.2015
 20
38.2531
 30
0.0
 11
28.2015
 21
38.3907
 31
0.0
  0
LINE
  8
0
 62
     1
 10
28.2015
 20
38.3907
 30
0.0
 11
28.2015
 21
38.5604
 31
0.0
  0
LINE
  8
0
 62
     1
 10
28.2015
 20
38.5604
 30
0.0
 11
28.4165
 21
39.0645
 31
0.0
  0
LINE
  8
0
 62
     1
 10
28.4165
 20
39.0645
 30
0.0
 11
29.0353
 21
40.0773
 31
0.0
  0
LINE
  8
0
 62
     1
 10
29.0353
 20
40.0773
 30
0.0
 11
30.0206
 21
41.377
 31
0.0
  0
LINE
  8
0
 62
     1
 10
30.0206
 20
41.377
 30
0.0
 11
31.3338
 21
42.9108
 31
0.0
  0
LINE
  8
0
 62
     1
 10
31.3338
 20
42.9108
 30
0.0
 11
32.9365
 21
44.625
 31
0.0
  0
LINE
  8
0
 62
     1
 10
32.9365
 20
44.625
 30
0.0
 11
34.79
 21
46.4675
 31
0.0
  0
LINE
  8
0
 62
     1
 10
34.79
 20
46.4675
 30
0.0
 11
36.8558
 21
48.3856
 31
0.0
  0
LINE
  8
0
 62
     1
 10
36.8558
 20
48.3856
 30
0.0
 11
39.0948
 21
50.3259
 31
0.0
  0
LINE
  8
0
 62
     1
 10
39.0948
 20
50.3259
 30
0.0
 11
41.4708
 21
52.2358
 31
0.0
  0
LINE
  8
0
 62
     1
 10
41.4708
 20
52.2358
 30
0.0
 11
43.9431
 21
54.0632
 31
0.0
  0
LINE
  8
0
 62
     1
 10
43.9431
 20
54.0632
 30
0.0
 11
46.4742
 21
55.7541
 31
0.0
  0
LINE
  8
0
 62
     1
 10
46.4742
 20
55.7541
 30
0.0
 11
49.0252
 21
57.2562
 31
0.0
  0
LINE
  8
0
 62
     1
 10
49.0252
 20
57.2562
 30
0.0
 11
51.5578
 21
58.5156
 31
0.0
  0
LINE
  8
0
 62
     1
 10
51.5578
 20
58.5156
 30
0.0
 11
54.0357
 21
59.4815
 31
0.0
  0
LINE
  8
0
 62
     1
 10
54.0357
 20
59.4815
 30
0.0
 11
56.4169
 21
60.0989
 31
0.0
  0
LINE
  8
0
 62
     1
 10
56.4169
 20
60.0989
 30
0.0
 11
58.1036
 21
60.3169
 31
0.0
  0
LINE
  8
0
 62
     1
 10
58.1036
 20
60.3169
 30
0.0
 11
58.6659
 21
60.3169
 31
0.0
  0
LINE
  8
0
 62
     1
 10
58.6659
 20
60.3169
 30
0.0
 11
58.9608
 21
60.3169
 31
0.0
  0
LINE
  8
0
 62
     1
 10
58.9608
 20
60.3169
 30
0.0
 11
59.848
 21
60.2354
 31
0.0
  0
LINE
  8
0
 62
     1
 10
59.848
 20
60.2354
 30
0.0
 11
60.9656
 21
59.9115
 31
0.0
  0
LINE
  8
0
 62
     1
 10
60.9656
 20
59.9115
 30
0.0
 11
61.7982
 21
59.224
 31
0.0
  0
LINE
  8
0
 62
     1
 10
61.7982
 20
59.224
 30
0.0
 11
62.1249
 21
58.3477
 31
0.0
  0
LINE
  8
0
 62
     1
 10
62.1249
 20
58.3477
 30
0.0
 11
62.1249
 21
58.0542
 31
0.0
  0
LINE
  8
0
 62
     1
 10
62.1249
 20
58.0542
 30
0.0
 11
62.1249
 21
57.5525
 31
0.0
  0
LINE
  8
0
 62
     1
 10
62.1249
 20
57.5525
 30
0.0
 11
61.6437
 21
56.0447
 31
0.0
  0
LINE
  8
0
 62
     1
 10
61.6437
 20
56.0447
 30
0.0
 11
60.3278
 21
53.2888
 31
0.0
  0
LINE
  8
0
 62
     1
 10
60.3278
 20
53.2888
 30
0.0
 11
58.3586
 21
49.9526
 31
0.0
  0
LINE
  8
0
 62
     1
 10
58.3586
 20
49.9526
 30
0.0
 11
55.9209
 21
46.2058
 31
0.0
  0
LINE
  8
0
 62
     1
 10
55.9209
 20
46.2058
 30
0.0
 11
53.1992
 21
42.2134
 31
0.0
  0
LINE
  8
0
 62
     1
 10
53.1992
 20
42.2134
 30
0.0
 11
50.377
 21
38.1441
 31
0.0
  0
LINE
  8
0
 62
     1
 10
50.377
 20
38.1441
 30
0.0
 11
47.6402
 21
34.1657
 31
0.0
  0
LINE
  8
0
 62
     1
 10
47.6402
 20
34.1657
 30
0.0
 11
45.7743
 21
31.3834
 31
0.0
  0
LINE
  8
0
 62
     1
 10
45.7743
 20
31.3834
 30
0.0
 11
45.1721
 21
30.4436
 31
0.0
  0
LINE
  8
0
 62
     1
 10
45.1721
 20
30.4436
 30
0.0
 11
44.8525
 21
30.4946
 31
0.0
  0
LINE
  8
0
 62
     1
 10
44.8525
 20
30.4946
 30
0.0
 11
43.3021
 21
30.6076
 31
0.0
  0
LINE
  8
0
 62
     1
 10
43.3021
 20
30.6076
 30
0.0
 11
41.8525
 21
30.62
 31
0.0
  0
LINE
  8
0
 62
     1
 10
41.8525
 20
30.62
 30
0.0
 11
41.3702
 21
30.62
 31
0.0
  0
LINE
  8
0
 62
     1
 10
41.3702
 20
30.62
 30
0.0
 11
39.9852
 21
30.62
 31
0.0
  0
LINE
  8
0
 62
     1
 10
39.9852
 20
30.62
 30
0.0
 11
35.833
 21
30.1225
 31
0.0
  0
LINE
  8
0
 62
     1
 10
35.833
 20
30.1225
 30
0.0
 11
30.2355
 21
28.7418
 31
0.0
  0
LINE
  8
0
 62
     1
 10
30.2355
 20
28.7418
 30
0.0
 11
24.8336
 21
26.6471
 31
0.0
  0
LINE
  8
0
 62
     1
 10
24.8336
 20
26.6471
 30
0.0
 11
19.8851
 21
24.0082
 31
0.0
  0
LINE
  8
0
 62
     1
 10
19.8851
 20
24.0082
 30
0.0
 11
15.649
 21
20.9958
 31
0.0
  0
LINE
  8
0
 62
     1
 10
15.649
 20
20.9958
 30
0.0
 11
12.3831
 21
17.7781
 31
0.0
  0
LINE
  8
0
 62
     1
 10
12.3831
 20
17.7781
 30
0.0
 11
10.3449
 21
14.5259
 31
0.0
  0
LINE
  8
0
 62
     1
 10
10.3449
 20
14.5259
 30
0.0
 11
9.72344
 21
12.1695
 31
0.0
  0
LINE
  8
0
 62
     1
 10
9.72344
 20
12.1695
 30
0.0
 11
9.79371
 21
11.4088
 31
0.0
  0
LINE
  8
0
 62
     1
 10
9.79371
 20
11.4088
 30
0.0
 11
9.8461
 21
10.9154
 31
0.0
  0
LINE
  8
0
 62
     1
 10
9.8461
 20
10.9154
 30
0.0
 11
10.4235
 21
9.47678
 31
0.0
  0
LINE
  8
0
 62
     1
 10
10.4235
 20
9.47678
 30
0.0
 11
11.7133
 21
8.20071
 31
0.0
  0
LINE
  8
0
 62
     1
 10
11.7133
 20
8.20071
 30
0.0
 11
13.5048
 21
7.51032
 31
0.0
  0
LINE
  8
0
 62
     1
 10
13.5048
 20
7.51032
 30
0.0
 11
15.1074
 21
7.32289
 31
0.0
  0
LINE
  8
0
 62
     1
 10
15.1074
 20
7.32289
 30
0.0
 11
15.6393
 21
7.33668
 31
0.0
  0
LINE
  8
0
 62
     1
 10
15.6393
 20
7.33668
 30
0.0
 11
16.7101
 21
7.35736
 31
0.0
  0
LINE
  8
0
 62
     1
 10
16.7101
 20
7.35736
 30
0.0
 11
19.9154
 21
7.97059
 31
0.0
  0
LINE
  8
0
 62
     1
 10
19.9154
 20
7.97059
 30
0.0
 11
24.4878
 21
9.58564
 31
0.0
  0
LINE
  8
0
 62
     1
 10
24.4878
 20
9.58564
 30
0.0
 11
29.1965
 21
11.9917
 31
0.0
  0
LINE
  8
0
 62
     1
 10
29.1965
 20
11.9917
 30
0.0
 11
33.8818
 21
14.9931
 31
0.0
  0
LINE
  8
0
 62
     1
 10
33.8818
 20
14.9931
 30
0.0
 11
38.3826
 21
18.3982
 31
0.0
  0
LINE
  8
0
 62
     1
 10
38.3826
 20
18.3982
 30
0.0
 11
42.5415
 21
22.0141
 31
0.0
  0
LINE
  8
0
 62
     1
 10
42.5415
 20
22.0141
 30
0.0
 11
46.1973
 21
25.6453
 31
0.0
  0
LINE
  8
0
 62
     1
 10
46.1973
 20
25.6453
 30
0.0
 11
48.4837
 21
28.2043
 31
0.0
  0
LINE
  8
0
 62
     1
 10
48.4837
 20
28.2043
 30
0.0
 11
49.1917
 21
29.0987
 31
0.0
  0
LINE
  8
0
 62
     1
 10
49.1917
 20
29.0987
 30
0.0
 11
49.8507
 21
28.976
 31
0.0
  0
LINE
  8
0
 62
     1
 10
49.8507
 20
28.976
 30
0.0
 11
52.4633
 21
28.2801
 31
0.0
  0
LINE
  8
0
 62
     1
 10
52.4633
 20
28.2801
 30
0.0
 11
54.8308
 21
27.4423
 31
0.0
  0
LINE
  8
0
 62
     1
 10
54.8308
 20
27.4423
 30
0.0
 11
55.3667
 21
27.2466
 31
0.0
  0
LINE
  8
0
 62
     1
 10
55.3667
 20
27.2466
 30
0.0
 11
55.3766
 21
27.2466
 31
0.0
  0
LINE
  8
0
 62
     1
 10
55.3766
 20
27.2466
 30
0.0
 11
55.4083
 21
27.2879
 31
0.0
  0
LINE
  8
0
 62
     1
 10
55.4083
 20
27.2879
 30
0.0
 11
55.4083
 21
27.2879
 31
0.0
  0
LINE
  8
0
 62
     1
 10
55.4083
 20
27.2879
 30
0.0
 11
54.9631
 21
27.6242
 31
0.0
  0
LINE
  8
0
 62
     1
 10
54.9631
 20
27.6242
 30
0.0
 11
52.6217
 21
28.8189
 31
0.0
  0
LINE
  8
0
 62
     1
 10
52.6217
 20
28.8189
 30
0.0
 11
50.1523
 21
29.5493
 31
0.0
  0
LINE
  8
0
 62
     1
 10
50.1523
 20
29.5493
 30
0.0
 11
49.6439
 21
29.6526
 31
0.0
  0
LINE
  8
0
 62
     1
 10
49.6439
 20
29.6526
 30
0.0
 11
50.8483
 21
30.9824
 31
0.0
  0
LINE
  8
0
 62
     1
 10
50.8483
 20
30.9824
 30
0.0
 11
54.6474
 21
34.8051
 31
0.0
  0
LINE
  8
0
 62
     1
 10
54.6474
 20
34.8051
 30
0.0
 11
60.8513
 21
40.4192
 31
0.0
  0
LINE
  8
0
 62
     1
 10
60.8513
 20
40.4192
 30
0.0
 11
67.9372
 21
45.9715
 31
0.0
  0
LINE
  8
0
 62
     1
 10
67.9372
 20
45.9715
 30
0.0
 11
73.612
 21
49.8023
 31
0.0
  0
LINE
  8
0
 62
     1
 10
73.612
 20
49.8023
 30
0.0
 11
75.5855
 21
50.9365
 31
0.0
  0
LINE
  8
0
 62
     1
 10
75.5855
 20
50.9365
 30
0.0
 11
74.8979
 21
50.1922
 31
0.0
  0
LINE
  8
0
 62
     1
 10
74.8979
 20
50.1922
 30
0.0
 11
72.9629
 21
47.8398
 31
0.0
  0
LINE
  8
0
 62
     1
 10
72.9629
 20
47.8398
 30
0.0
 11
70.2289
 21
44.1399
 31
0.0
  0
LINE
  8
0
 62
     1
 10
70.2289
 20
44.1399
 30
0.0
 11
67.5792
 21
40.0858
 31
0.0
  0
LINE
  8
0
 62
     1
 10
67.5792
 20
40.0858
 30
0.0
 11
65.7655
 21
36.9838
 31
0.0
  0
LINE
  8
0
 62
     1
 10
65.7655
 20
36.9838
 30
0.0
 11
65.2117
 21
35.9227
 31
0.0
  0
LINE
  8
0
 62
     1
 10
65.2117
 20
35.9227
 30
0.0
 11
64.7954
 21
35.1372
 31
0.0
  0
LINE
  8
0
 62
     1
 10
64.7954
 20
35.1372
 30
0.0
 11
63.664
 21
32.7174
 31
0.0
  0
LINE
  8
0
 62
     1
 10
63.664
 20
32.7174
 30
0.0
 11
62.4678
 21
29.5934
 31
0.0
  0
LINE
  8
0
 62
     1
 10
62.4678
 20
29.5934
 30
0.0
 11
61.6977
 21
26.6623
 31
0.0
  0
LINE
  8
0
 62
     1
 10
61.6977
 20
26.6623
 30
0.0
 11
61.4246
 21
24.6917
 31
0.0
  0
LINE
  8
0
 62
     1
 10
61.4246
 20
24.6917
 30
0.0
 11
61.4246
 21
24.0344
 31
0.0
  0
LINE
  8
0
 62
     1
 10
61.4246
 20
24.0344
 30
0.0
 11
61.4246
 21
23.282
 31
0.0
  0
LINE
  8
0
 62
     1
 10
61.4246
 20
23.282
 30
0.0
 11
62.0215
 21
21.0234
 31
0.0
  0
LINE
  8
0
 62
     1
 10
62.0215
 20
21.0234
 30
0.0
 11
63.6669
 21
19.0114
 31
0.0
  0
LINE
  8
0
 62
     1
 10
63.6669
 20
19.0114
 30
0.0
 11
66.1472
 21
17.8856
 31
0.0
  0
LINE
  8
0
 62
     1
 10
66.1472
 20
17.8856
 30
0.0
 11
68.4706
 21
17.5341
 31
0.0
  0
LINE
  8
0
 62
     1
 10
68.4706
 20
17.5341
 30
0.0
 11
69.2464
 21
17.5341
 31
0.0
  0
LINE
  8
0
 62
     1
 10
69.2464
 20
17.5341
 30
0.0
 11
69.5759
 21
17.5341
 31
0.0
  0
LINE
  8
0
 62
     1
 10
69.5759
 20
17.5341
 30
0.0
 11
70.4494
 21
17.5659
 31
0.0
  0
LINE
  8
0
 62
     1
 10
70.4494
 20
17.5659
 30
0.0
 11
70.5637
 21
17.5755
 31
0.0
  0
LINE
  8
0
 62
     1
 10
70.5637
 20
17.5755
 30
0.0
 11
70.9884
 21
17.6058
 31
0.0
  0
LINE
  8
0
 62
     1
 10
70.9884
 20
17.6058
 30
0.0
 11
72.2559
 21
17.8511
 31
0.0
  0
LINE
  8
0
 62
     1
 10
72.2559
 20
17.8511
 30
0.0
 11
74.5451
 21
18.5057
 31
0.0
  0
LINE
  8
0
 62
     1
 10
74.5451
 20
18.5057
 30
0.0
 11
77.2047
 21
19.5695
 31
0.0
  0
LINE
  8
0
 62
     1
 10
77.2047
 20
19.5695
 30
0.0
 11
79.3323
 21
20.6527
 31
0.0
  0
LINE
  8
0
 62
     1
 10
79.3323
 20
20.6527
 30
0.0
 11
80.0075
 21
21.0688
 31
0.0
  0
LINE
  8
0
 62
     1
 10
80.0075
 20
21.0688
 30
0.0
 11
80.7117
 21
21.5043
 31
0.0
  0
LINE
  8
0
 62
     1
 10
80.7117
 20
21.5043
 30
0.0
 11
82.6354
 21
23.1207
 31
0.0
  0
LINE
  8
0
 62
     1
 10
82.6354
 20
23.1207
 30
0.0
 11
84.7383
 21
25.7431
 31
0.0
  0
LINE
  8
0
 62
     1
 10
84.7383
 20
25.7431
 30
0.0
 11
86.0407
 21
28.8313
 31
0.0
  0
LINE
  8
0
 62
     1
 10
86.0407
 20
28.8313
 30
0.0
 11
86.3618
 21
31.4317
 31
0.0
  0
LINE
  8
0
 62
     1
 10
86.3618
 20
31.4317
 30
0.0
 11
86.2665
 21
32.2737
 31
0.0
  0
LINE
  8
0
 62
     1
 10
86.2665
 20
32.2737
 30
0.0
 11
86.2334
 21
32.5672
 31
0.0
  0
LINE
  8
0
 62
     1
 10
86.2334
 20
32.5672
 30
0.0
 11
86.0393
 21
33.4339
 31
0.0
  0
LINE
  8
0
 62
     1
 10
86.0393
 20
33.4339
 30
0.0
 11
85.6601
 21
34.422
 31
0.0
  0
LINE
  8
0
 62
     1
 10
85.6601
 20
34.422
 30
0.0
 11
85.1588
 21
35.2323
 31
0.0
  0
LINE
  8
0
 62
     1
 10
85.1588
 20
35.2323
 30
0.0
 11
84.5647
 21
35.8553
 31
0.0
  0
LINE
  8
0
 62
     1
 10
84.5647
 20
35.8553
 30
0.0
 11
83.9061
 21
36.285
 31
0.0
  0
LINE
  8
0
 62
     1
 10
83.9061
 20
36.285
 30
0.0
 11
83.2129
 21
36.5139
 31
0.0
  0
LINE
  8
0
 62
     1
 10
83.2129
 20
36.5139
 30
0.0
 11
82.514
 21
36.5333
 31
0.0
  0
LINE
  8
0
 62
     1
 10
82.514
 20
36.5333
 30
0.0
 11
81.9961
 21
36.4091
 31
0.0
  0
LINE
  8
0
 62
     1
 10
81.9961
 20
36.4091
 30
0.0
 11
81.8402
 21
36.3347
 31
0.0
  0
LINE
  8
0
 62
     1
 10
81.8402
 20
36.3347
 30
0.0
 11
81.5097
 21
36.1791
 31
0.0
  0
LINE
  8
0
 62
     1
 10
81.5097
 20
36.1791
 30
0.0
 11
80.6799
 21
35.373
 31
0.0
  0
LINE
  8
0
 62
     1
 10
80.6799
 20
35.373
 30
0.0
 11
80.1617
 21
34.0996
 31
0.0
  0
LINE
  8
0
 62
     1
 10
80.1617
 20
34.0996
 30
0.0
 11
80.1592
 21
32.7822
 31
0.0
  0
LINE
  8
0
 62
     1
 10
80.1592
 20
32.7822
 30
0.0
 11
80.3988
 21
31.9291
 31
0.0
  0
LINE
  8
0
 62
     1
 10
80.3988
 20
31.9291
 30
0.0
 11
80.5462
 21
31.6839
 31
0.0
  0
LINE
  8
0
 62
     1
 10
80.5462
 20
31.6839
 30
0.0
 11
80.2584
 21
31.8864
 31
0.0
  0
LINE
  8
0
 62
     1
 10
80.2584
 20
31.8864
 30
0.0
 11
79.393
 21
32.49
 31
0.0
  0
LINE
  8
0
 62
     1
 10
79.393
 20
32.49
 30
0.0
 11
78.3788
 21
33.1239
 31
0.0
  0
LINE
  8
0
 62
     1
 10
78.3788
 20
33.1239
 30
0.0
 11
77.458
 21
33.5098
 31
0.0
  0
LINE
  8
0
 62
     1
 10
77.458
 20
33.5098
 30
0.0
 11
76.7994
 21
33.598
 31
0.0
  0
LINE
  8
0
 62
     1
 10
76.7994
 20
33.598
 30
0.0
 11
76.5912
 21
33.5649
 31
0.0
  0
LINE
  8
0
 62
     1
 10
76.5912
 20
33.5649
 30
0.0
 11
76.3958
 21
33.5346
 31
0.0
  0
LINE
  8
0
 62
     1
 10
76.3958
 20
33.5346
 30
0.0
 11
75.8402
 21
33.2314
 31
0.0
  0
LINE
  8
0
 62
     1
 10
75.8402
 20
33.2314
 30
0.0
 11
75.4683
 21
32.5754
 31
0.0
  0
LINE
  8
0
 62
     1
 10
75.4683
 20
32.5754
 30
0.0
 11
75.4683
 21
31.677
 31
0.0
  0
LINE
  8
0
 62
     1
 10
75.4683
 20
31.677
 30
0.0
 11
75.8349
 21
30.6145
 31
0.0
  0
LINE
  8
0
 62
     1
 10
75.8349
 20
30.6145
 30
0.0
 11
76.5598
 21
29.4666
 31
0.0
  0
LINE
  8
0
 62
     1
 10
76.5598
 20
29.4666
 30
0.0
 11
77.6386
 21
28.309
 31
0.0
  0
LINE
  8
0
 62
     1
 10
77.6386
 20
28.309
 30
0.0
 11
79.0649
 21
27.2232
 31
0.0
  0
LINE
  8
0
 62
     1
 10
79.0649
 20
27.2232
 30
0.0
 11
80.3741
 21
26.4818
 31
0.0
  0
LINE
  8
0
 62
     1
 10
80.3741
 20
26.4818
 30
0.0
 11
80.8316
 21
26.2833
 31
0.0
  0
LINE
  8
0
 62
     1
 10
80.8316
 20
26.2833
 30
0.0
 11
80.337
 21
26.7422
 31
0.0
  0
LINE
  8
0
 62
     1
 10
80.337
 20
26.7422
 30
0.0
 11
78.8554
 21
28.1189
 31
0.0
  0
LINE
  8
0
 62
     1
 10
78.8554
 20
28.1189
 30
0.0
 11
77.4883
 21
29.6306
 31
0.0
  0
LINE
  8
0
 62
     1
 10
77.4883
 20
29.6306
 30
0.0
 11
76.8145
 21
31.0872
 31
0.0
  0
LINE
  8
0
 62
     1
 10
76.8145
 20
31.0872
 30
0.0
 11
76.8064
 21
32.3619
 31
0.0
  0
LINE
  8
0
 62
     1
 10
76.8064
 20
32.3619
 30
0.0
 11
76.9165
 21
32.7546
 31
0.0
  0
LINE
  8
0
 62
     1
 10
76.9165
 20
32.7546
 30
0.0
 11
77.0146
 21
32.8208
 31
0.0
  0
LINE
  8
0
 62
     1
 10
77.0146
 20
32.8208
 30
0.0
 11
77.4238
 21
32.8497
 31
0.0
  0
LINE
  8
0
 62
     1
 10
77.4238
 20
32.8497
 30
0.0
 11
78.0934
 21
32.6416
 31
0.0
  0
LINE
  8
0
 62
     1
 10
78.0934
 20
32.6416
 30
0.0
 11
78.8554
 21
32.2185
 31
0.0
  0
LINE
  8
0
 62
     1
 10
78.8554
 20
32.2185
 30
0.0
 11
79.641
 21
31.6646
 31
0.0
  0
LINE
  8
0
 62
     1
 10
79.641
 20
31.6646
 30
0.0
 11
80.3797
 21
31.0651
 31
0.0
  0
LINE
  8
0
 62
     1
 10
80.3797
 20
31.0651
 30
0.0
 11
81.0052
 21
30.507
 31
0.0
  0
LINE
  8
0
 62
     1
 10
81.0052
 20
30.507
 30
0.0
 11
81.4476
 21
30.0771
 31
0.0
  0
LINE
  8
0
 62
     1
 10
81.4476
 20
30.0771
 30
0.0
 11
81.6116
 21
29.9145
 31
0.0
  0
LINE
  8
0
 62
     1
 10
81.6116
 20
29.9145
 30
0.0
 11
81.6391
 21
29.8579
 31
0.0
  0
LINE
  8
0
 62
     1
 10
81.6391
 20
29.8579
 30
0.0
 11
81.6391
 21
29.8579
 31
0.0
  0
LINE
  8
0
 62
     1
 10
81.6391
 20
29.8579
 30
0.0
 11
81.5619
 21
30.0564
 31
0.0
  0
LINE
  8
0
 62
     1
 10
81.5619
 20
30.0564
 30
0.0
 11
81.3869
 21
30.5897
 31
0.0
  0
LINE
  8
0
 62
     1
 10
81.3869
 20
30.5897
 30
0.0
 11
81.19
 21
31.3655
 31
0.0
  0
LINE
  8
0
 62
     1
 10
81.19
 20
31.3655
 30
0.0
 11
81.0493
 21
32.2888
 31
0.0
  0
LINE
  8
0
 62
     1
 10
81.0493
 20
32.2888
 30
0.0
 11
81.0426
 21
33.2686
 31
0.0
  0
LINE
  8
0
 62
     1
 10
81.0426
 20
33.2686
 30
0.0
 11
81.2493
 21
34.2098
 31
0.0
  0
LINE
  8
0
 62
     1
 10
81.2493
 20
34.2098
 30
0.0
 11
81.7453
 21
35.0201
 31
0.0
  0
LINE
  8
0
 62
     1
 10
81.7453
 20
35.0201
 30
0.0
 11
82.375
 21
35.5092
 31
0.0
  0
LINE
  8
0
 62
     1
 10
82.375
 20
35.5092
 30
0.0
 11
82.6121
 21
35.6073
 31
0.0
  0
LINE
  8
0
 62
     1
 10
82.6121
 20
35.6073
 30
0.0
 11
82.8065
 21
35.6676
 31
0.0
  0
LINE
  8
0
 62
     1
 10
82.8065
 20
35.6676
 30
0.0
 11
83.4513
 21
35.6609
 31
0.0
  0
LINE
  8
0
 62
     1
 10
83.4513
 20
35.6609
 30
0.0
 11
84.1597
 21
35.275
 31
0.0
  0
LINE
  8
0
 62
     1
 10
84.1597
 20
35.275
 30
0.0
 11
84.7288
 21
34.4661
 31
0.0
  0
LINE
  8
0
 62
     1
 10
84.7288
 20
34.4661
 30
0.0
 11
85.0745
 21
33.5594
 31
0.0
  0
LINE
  8
0
 62
     1
 10
85.0745
 20
33.5594
 30
0.0
 11
85.1503
 21
33.2466
 31
0.0
  0
LINE
  8
0
 62
     1
 10
85.1503
 20
33.2466
 30
0.0
 11
85.3556
 21
32.4418
 31
0.0
  0
LINE
  8
0
 62
     1
 10
85.3556
 20
32.4418
 30
0.0
 11
85.3447
 21
29.8621
 31
0.0
  0
LINE
  8
0
 62
     1
 10
85.3447
 20
29.8621
 30
0.0
 11
84.3841
 21
26.767
 31
0.0
  0
LINE
  8
0
 62
     1
 10
84.3841
 20
26.767
 30
0.0
 11
82.6216
 21
24.1088
 31
0.0
  0
LINE
  8
0
 62
     1
 10
82.6216
 20
24.1088
 30
0.0
 11
81.0147
 21
22.4841
 31
0.0
  0
LINE
  8
0
 62
     1
 10
81.0147
 20
22.4841
 30
0.0
 11
80.4139
 21
22.0307
 31
0.0
  0
LINE
  8
0
 62
     1
 10
80.4139
 20
22.0307
 30
0.0
 11
79.6424
 21
21.4519
 31
0.0
  0
LINE
  8
0
 62
     1
 10
79.6424
 20
21.4519
 30
0.0
 11
75.7206
 21
19.4675
 31
0.0
  0
LINE
  8
0
 62
     1
 10
75.7206
 20
19.4675
 30
0.0
 11
71.7917
 21
18.5622
 31
0.0
  0
LINE
  8
0
 62
     1
 10
71.7917
 20
18.5622
 30
0.0
 11
71.0159
 21
18.5222
 31
0.0
  0
LINE
  8
0
 62
     1
 10
71.0159
 20
18.5222
 30
0.0
 11
70.9126
 21
18.5126
 31
0.0
  0
LINE
  8
0
 62
     1
 10
70.9126
 20
18.5126
 30
0.0
 11
70.0634
 21
18.4809
 31
0.0
  0
LINE
  8
0
 62
     1
 10
70.0634
 20
18.4809
 30
0.0
 11
69.7812
 21
18.4809
 31
0.0
  0
LINE
  8
0
 62
     1
 10
69.7812
 20
18.4809
 30
0.0
 11
69.1914
 21
18.4809
 31
0.0
  0
LINE
  8
0
 62
     1
 10
69.1914
 20
18.4809
 30
0.0
 11
67.4247
 21
18.6779
 31
0.0
  0
LINE
  8
0
 62
     1
 10
67.4247
 20
18.6779
 30
0.0
 11
65.5768
 21
19.3766
 31
0.0
  0
LINE
  8
0
 62
     1
 10
65.5768
 20
19.3766
 30
0.0
 11
64.3682
 21
20.7381
 31
0.0
  0
LINE
  8
0
 62
     1
 10
64.3682
 20
20.7381
 30
0.0
 11
63.9353
 21
22.378
 31
0.0
  0
LINE
  8
0
 62
     1
 10
63.9353
 20
22.378
 30
0.0
 11
63.9353
 21
22.9237
 31
0.0
  0
LINE
  8
0
 62
     1
 10
63.9353
 20
22.9237
 30
0.0
 11
63.9353
 21
23.807
 31
0.0
  0
LINE
  8
0
 62
     1
 10
63.9353
 20
23.807
 30
0.0
 11
64.5887
 21
26.457
 31
0.0
  0
LINE
  8
0
 62
     1
 10
64.5887
 20
26.457
 30
0.0
 11
65.9624
 21
29.9682
 31
0.0
  0
LINE
  8
0
 62
     1
 10
65.9624
 20
29.9682
 30
0.0
 11
66.3236
 21
30.6985
 31
0.0
  0
LINE
  8
0
 62
     1
 10
66.3236
 20
30.6985
 30
0.0
 11
66.7713
 21
31.6039
 31
0.0
  0
LINE
  8
0
 62
     1
 10
66.7713
 20
31.6039
 30
0.0
 11
68.2502
 21
34.2511
 31
0.0
  0
LINE
  8
0
 62
     1
 10
68.2502
 20
34.2511
 30
0.0
 11
70.5845
 21
38.0365
 31
0.0
  0
LINE
  8
0
 62
     1
 10
70.5845
 20
38.0365
 30
0.0
 11
73.1615
 21
41.8373
 31
0.0
  0
LINE
  8
0
 62
     1
 10
73.1615
 20
41.8373
 30
0.0
 11
75.8112
 21
45.4353
 31
0.0
  0
LINE
  8
0
 62
     1
 10
75.8112
 20
45.4353
 30
0.0
 11
78.3703
 21
48.6131
 31
0.0
  0
LINE
  8
0
 62
     1
 10
78.3703
 20
48.6131
 30
0.0
 11
80.6676
 21
51.1528
 31
0.0
  0
LINE
  8
0
 62
     1
 10
80.6676
 20
51.1528
 30
0.0
 11
82.5405
 21
52.8366
 31
0.0
  0
LINE
  8
0
 62
     1
 10
82.5405
 20
52.8366
 30
0.0
 11
83.4993
 21
53.4458
 31
0.0
  0
LINE
  8
0
 62
     1
 10
83.4993
 20
53.4458
 30
0.0
 11
83.8193
 21
53.4458
 31
0.0
  0
LINE
  8
0
 62
     1
 10
83.8193
 20
53.4458
 30
0.0
 11
83.9488
 21
53.4458
 31
0.0
  0
LINE
  8
0
 62
     1
 10
83.9488
 20
53.4458
 30
0.0
 11
84.3386
 21
53.3852
 31
0.0
  0
LINE
  8
0
 62
     1
 10
84.3386
 20
53.3852
 30
0.0
 11
84.8169
 21
53.0765
 31
0.0
  0
LINE
  8
0
 62
     1
 10
84.8169
 20
53.0765
 30
0.0
 11
84.89
 21
52.9527
 31
0.0
  0
LINE
  8
0
 62
     1
 10
84.89
 20
52.9527
 30
0.0
 11
84.8981
 21
53.0641
 31
0.0
  0
LINE
  8
0
 62
     1
 10
84.8981
 20
53.0641
 30
0.0
 11
84.8212
 21
53.4046
 31
0.0
  0
LINE
  8
0
 62
     1
 10
84.8212
 20
53.4046
 30
0.0
 11
84.5785
 21
53.9309
 31
0.0
  0
LINE
  8
0
 62
     1
 10
84.5785
 20
53.9309
 30
0.0
 11
84.2024
 21
54.4904
 31
0.0
  0
LINE
  8
0
 62
     1
 10
84.2024
 20
54.4904
 30
0.0
 11
83.7311
 21
55.0404
 31
0.0
  0
LINE
  8
0
 62
     1
 10
83.7311
 20
55.0404
 30
0.0
 11
83.2044
 21
55.5417
 31
0.0
  0
LINE
  8
0
 62
     1
 10
83.2044
 20
55.5417
 30
0.0
 11
82.6604
 21
55.9499
 31
0.0
  0
LINE
  8
0
 62
     1
 10
82.6604
 20
55.9499
 30
0.0
 11
82.138
 21
56.2254
 31
0.0
  0
LINE
  8
0
 62
     1
 10
82.138
 20
56.2254
 30
0.0
 11
81.7933
 21
56.3259
 31
0.0
  0
LINE
  8
0
 62
     1
 10
81.7933
 20
56.3259
 30
0.0
 11
81.679
 21
56.3259
 31
0.0
  0
LINE
  8
0
 62
     1
 10
81.679
 20
56.3259
 30
0.0
 11
81.1939
 21
56.3259
 31
0.0
  0
LINE
  8
0
 62
     1
 10
81.1939
 20
56.3259
 30
0.0
 11
79.7429
 21
55.728
 31
0.0
  0
LINE
  8
0
 62
     1
 10
79.7429
 20
55.728
 30
0.0
 11
76.6339
 21
54.0494
 31
0.0
  0
LINE
  8
0
 62
     1
 10
76.6339
 20
54.0494
 30
0.0
 11
72.6447
 21
51.4671
 31
0.0
  0
LINE
  8
0
 62
     1
 10
72.6447
 20
51.4671
 30
0.0
 11
68.0667
 21
48.1612
 31
0.0
  0
LINE
  8
0
 62
     1
 10
68.0667
 20
48.1612
 30
0.0
 11
63.1941
 21
44.3082
 31
0.0
  0
LINE
  8
0
 62
     1
 10
63.1941
 20
44.3082
 30
0.0
 11
58.3188
 21
40.083
 31
0.0
  0
LINE
  8
0
 62
     1
 10
58.3188
 20
40.083
 30
0.0
 11
53.7337
 21
35.6665
 31
0.0
  0
LINE
  8
0
 62
     1
 10
53.7337
 20
35.6665
 30
0.0
 11
50.6801
 21
32.3839
 31
0.0
  0
LINE
  8
0
 62
     1
 10
50.6801
 20
32.3839
 30
0.0
 11
49.7321
 21
31.2333
 31
0.0
  0
LINE
  8
0
 62
     1
 10
49.7321
 20
31.2333
 30
0.0
 11
50.2984
 21
31.9746
 31
0.0
  0
LINE
  8
0
 62
     1
 10
50.2984
 20
31.9746
 30
0.0
 11
51.9811
 21
34.2126
 31
0.0
  0
LINE
  8
0
 62
     1
 10
51.9811
 20
34.2126
 30
0.0
 11
54.4283
 21
37.55
 31
0.0
  0
LINE
  8
0
 62
     1
 10
54.4283
 20
37.55
 30
0.0
 11
56.92
 21
41.0834
 31
0.0
  0
LINE
  8
0
 62
     1
 10
56.92
 20
41.0834
 30
0.0
 11
59.3037
 21
44.6486
 31
0.0
  0
LINE
  8
0
 62
     1
 10
59.3037
 20
44.6486
 30
0.0
 11
61.4232
 21
48.0868
 31
0.0
  0
LINE
  8
0
 62
     1
 10
61.4232
 20
48.0868
 30
0.0
 11
63.1278
 21
51.2314
 31
0.0
  0
LINE
  8
0
 62
     1
 10
63.1278
 20
51.2314
 30
0.0
 11
64.2634
 21
53.9228
 31
0.0
  0
LINE
  8
0
 62
     1
 10
64.2634
 20
53.9228
 30
0.0
 11
64.6769
 21
55.4785
 31
0.0
  0
LINE
  8
0
 62
     1
 10
64.6769
 20
55.4785
 30
0.0
 11
64.6769
 21
55.9964
 31
0.0
  0
LINE
  8
0
 62
     1
 10
64.6769
 20
55.9964
 30
0.0
 11
64.6769
 21
56.5616
 31
0.0
  0
LINE
  8
0
 62
     1
 10
64.6769
 20
56.5616
 30
0.0
 11
64.2867
 21
58.2567
 31
0.0
  0
LINE
  8
0
 62
     1
 10
64.2867
 20
58.2567
 30
0.0
 11
63.1377
 21
59.9362
 31
0.0
  0
LINE
  8
0
 62
     1
 10
63.1377
 20
59.9362
 30
0.0
 11
61.2539
 21
60.9836
 31
0.0
  0
LINE
  8
0
 62
     1
 10
61.2539
 20
60.9836
 30
0.0
 11
59.3122
 21
61.3449
 31
0.0
  0
LINE
  8
0
 62
     1
 10
59.3122
 20
61.3449
 30
0.0
 11
58.6659
 21
61.3449
 31
0.0
  0
LINE
  8
0
 62
     1
 10
41.7809
 20
29.9489
 30
0.0
 11
42.5111
 21
29.9489
 31
0.0
  0
LINE
  8
0
 62
     1
 10
42.5111
 20
29.9489
 30
0.0
 11
44.4775
 21
29.7436
 31
0.0
  0
LINE
  8
0
 62
     1
 10
44.4775
 20
29.7436
 30
0.0
 11
44.7051
 21
29.7022
 31
0.0
  0
LINE
  8
0
 62
     1
 10
44.7051
 20
29.7022
 30
0.0
 11
44.02
 21
28.8451
 31
0.0
  0
LINE
  8
0
 62
     1
 10
44.02
 20
28.8451
 30
0.0
 11
41.7999
 21
26.4032
 31
0.0
  0
LINE
  8
0
 62
     1
 10
41.7999
 20
26.4032
 30
0.0
 11
38.3286
 21
23.027
 31
0.0
  0
LINE
  8
0
 62
     1
 10
38.3286
 20
23.027
 30
0.0
 11
34.4551
 21
19.7349
 31
0.0
  0
LINE
  8
0
 62
     1
 10
34.4551
 20
19.7349
 30
0.0
 11
30.3513
 21
16.6839
 31
0.0
  0
LINE
  8
0
 62
     1
 10
30.3513
 20
16.6839
 30
0.0
 11
26.1827
 21
14.034
 31
0.0
  0
LINE
  8
0
 62
     1
 10
26.1827
 20
14.034
 30
0.0
 11
22.1189
 21
11.9435
 31
0.0
  0
LINE
  8
0
 62
     1
 10
22.1189
 20
11.9435
 30
0.0
 11
18.3293
 21
10.5737
 31
0.0
  0
LINE
  8
0
 62
     1
 10
18.3293
 20
10.5737
 30
0.0
 11
15.8171
 21
10.0803
 31
0.0
  0
LINE
  8
0
 62
     1
 10
15.8171
 20
10.0803
 30
0.0
 11
14.9806
 21
10.0803
 31
0.0
  0
LINE
  8
0
 62
     1
 10
14.9806
 20
10.0803
 30
0.0
 11
14.7078
 21
10.0803
 31
0.0
  0
LINE
  8
0
 62
     1
 10
14.7078
 20
10.0803
 30
0.0
 11
13.8934
 21
10.214
 31
0.0
  0
LINE
  8
0
 62
     1
 10
13.8934
 20
10.214
 30
0.0
 11
12.9839
 21
10.6206
 31
0.0
  0
LINE
  8
0
 62
     1
 10
12.9839
 20
10.6206
 30
0.0
 11
12.3513
 21
11.3123
 31
0.0
  0
LINE
  8
0
 62
     1
 10
12.3513
 20
11.3123
 30
0.0
 11
12.1047
 21
12.0537
 31
0.0
  0
LINE
  8
0
 62
     1
 10
12.1047
 20
12.0537
 30
0.0
 11
12.0992
 21
12.3017
 31
0.0
  0
LINE
  8
0
 62
     1
 10
12.0992
 20
12.3017
 30
0.0
 11
12.0868
 21
13.0914
 31
0.0
  0
LINE
  8
0
 62
     1
 10
12.0868
 20
13.0914
 30
0.0
 11
12.864
 21
15.4699
 31
0.0
  0
LINE
  8
0
 62
     1
 10
12.864
 20
15.4699
 30
0.0
 11
15.0578
 21
18.5994
 31
0.0
  0
LINE
  8
0
 62
     1
 10
15.0578
 20
18.5994
 30
0.0
 11
18.3858
 21
21.5732
 31
0.0
  0
LINE
  8
0
 62
     1
 10
18.3858
 20
21.5732
 30
0.0
 11
22.5557
 21
24.2728
 31
0.0
  0
LINE
  8
0
 62
     1
 10
22.5557
 20
24.2728
 30
0.0
 11
27.2728
 21
26.5782
 31
0.0
  0
LINE
  8
0
 62
     1
 10
27.2728
 20
26.5782
 30
0.0
 11
32.2447
 21
28.3724
 31
0.0
  0
LINE
  8
0
 62
     1
 10
32.2447
 20
28.3724
 30
0.0
 11
37.1782
 21
29.5355
 31
0.0
  0
LINE
  8
0
 62
     1
 10
37.1782
 20
29.5355
 30
0.0
 11
40.6301
 21
29.9489
 31
0.0
  0
LINE
  8
0
 62
     1
 10
40.6301
 20
29.9489
 30
0.0
 11
41.7809
 21
29.9489
 31
0.0
  0
LINE
  8
0
 62
     0
 10
148.963
 20
6.3252
 30
0.0
 11
148.963
 21
6.61321
 31
0.0
  0
LINE
  8
0
 62
     0
 10
148.963
 20
6.61321
 30
0.0
 11
148.73
 21
7.47448
 31
0.0
  0
LINE
  8
0
 62
     0
 10
148.73
 20
7.47448
 30
0.0
 11
148.098
 21
8.41156
 31
0.0
  0
LINE
  8
0
 62
     0
 10
148.098
 20
8.41156
 30
0.0
 11
147.161
 21
9.04406
 31
0.0
  0
LINE
  8
0
 62
     0
 10
147.161
 20
9.04406
 30
0.0
 11
146.299
 21
9.27559
 31
0.0
  0
LINE
  8
0
 62
     0
 10
146.299
 20
9.27559
 30
0.0
 11
146.013
 21
9.27559
 31
0.0
  0
LINE
  8
0
 62
     0
 10
146.013
 20
9.27559
 30
0.0
 11
145.725
 21
9.27559
 31
0.0
  0
LINE
  8
0
 62
     0
 10
145.725
 20
9.27559
 30
0.0
 11
144.864
 21
9.04406
 31
0.0
  0
LINE
  8
0
 62
     0
 10
144.864
 20
9.04406
 30
0.0
 11
143.926
 21
8.41156
 31
0.0
  0
LINE
  8
0
 62
     0
 10
143.926
 20
8.41156
 30
0.0
 11
143.294
 21
7.47448
 31
0.0
  0
LINE
  8
0
 62
     0
 10
143.294
 20
7.47448
 30
0.0
 11
143.062
 21
6.61321
 31
0.0
  0
LINE
  8
0
 62
     0
 10
143.062
 20
6.61321
 30
0.0
 11
143.062
 21
6.3252
 31
0.0
  0
LINE
  8
0
 62
     0
 10
143.062
 20
6.3252
 30
0.0
 11
143.013
 21
3.32107
 31
0.0
  0
LINE
  8
0
 62
     0
 10
143.013
 20
3.32107
 30
0.0
 11
143.013
 21
0.321083
 31
0.0
  0
LINE
  8
0
 62
     0
 10
143.013
 20
0.321083
 30
0.0
 11
137.013
 21
0.321083
 31
0.0
  0
LINE
  8
0
 62
     0
 10
137.013
 20
0.321083
 30
0.0
 11
137.013
 21
3.32107
 31
0.0
  0
LINE
  8
0
 62
     0
 10
137.013
 20
3.32107
 30
0.0
 11
131.013
 21
3.32107
 31
0.0
  0
LINE
  8
0
 62
     0
 10
131.013
 20
3.32107
 30
0.0
 11
131.013
 21
0.321083
 31
0.0
  0
LINE
  8
0
 62
     0
 10
131.013
 20
0.321083
 30
0.0
 11
125.013
 21
0.321083
 31
0.0
  0
LINE
  8
0
 62
     0
 10
125.013
 20
0.321083
 30
0.0
 11
125.013
 21
3.32107
 31
0.0
  0
LINE
  8
0
 62
     0
 10
125.013
 20
3.32107
 30
0.0
 11
119.013
 21
3.32107
 31
0.0
  0
LINE
  8
0
 62
     0
 10
119.013
 20
3.32107
 30
0.0
 11
119.013
 21
0.321083
 31
0.0
  0
LINE
  8
0
 62
     0
 10
119.013
 20
0.321083
 30
0.0
 11
113.013
 21
0.321083
 31
0.0
  0
LINE
  8
0
 62
     0
 10
113.013
 20
0.321083
 30
0.0
 11
113.013
 21
3.32107
 31
0.0
  0
LINE
  8
0
 62
     0
 10
113.013
 20
3.32107
 30
0.0
 11
105.512
 21
3.32107
 31
0.0
  0
LINE
  8
0
 62
     0
 10
105.512
 20
3.32107
 30
0.0
 11
105.512
 21
0.321083
 31
0.0
  0
LINE
  8
0
 62
     0
 10
105.512
 20
0.321083
 30
0.0
 11
101.013
 21
0.321083
 31
0.0
  0
LINE
  8
0
 62
     0
 10
101.013
 20
0.321083
 30
0.0
 11
101.013
 21
9.32106
 31
0.0
  0
LINE
  8
0
 62
     0
 10
101.013
 20
9.32106
 30
0.0
 11
98.013
 21
9.32106
 31
0.0
  0
LINE
  8
0
 62
     0
 10
98.013
 20
9.32106
 30
0.0
 11
98.013
 21
18.321
 31
0.0
  0
LINE
  8
0
 62
     0
 10
98.013
 20
18.321
 30
0.0
 11
101.013
 21
18.321
 31
0.0
  0
LINE
  8
0
 62
     0
 10
101.013
 20
18.321
 30
0.0
 11
101.013
 21
24.321
 31
0.0
  0
LINE
  8
0
 62
     0
 10
101.013
 20
24.321
 30
0.0
 11
98.013
 21
24.321
 31
0.0
  0
LINE
  8
0
 62
     0
 10
98.013
 20
24.321
 30
0.0
 11
98.013
 21
30.321
 31
0.0
  0
LINE
  8
0
 62
     0
 10
98.013
 20
30.321
 30
0.0
 11
101.013
 21
30.321
 31
0.0
  0
LINE
  8
0
 62
     0
 10
101.013
 20
30.321
 30
0.0
 11
101.013
 21
36.3209
 31
0.0
  0
LINE
  8
0
 62
     0
 10
101.013
 20
36.3209
 30
0.0
 11
98.013
 21
36.3209
 31
0.0
  0
LINE
  8
0
 62
     0
 10
98.013
 20
36.3209
 30
0.0
 11
98.013
 21
42.321
 31
0.0
  0
LINE
  8
0
 62
     0
 10
98.013
 20
42.321
 30
0.0
 11
101.013
 21
42.321
 31
0.0
  0
LINE
  8
0
 62
     0
 10
101.013
 20
42.321
 30
0.0
 11
101.013
 21
48.321
 31
0.0
  0
LINE
  8
0
 62
     0
 10
101.013
 20
48.321
 30
0.0
 11
98.013
 21
48.321
 31
0.0
  0
LINE
  8
0
 62
     0
 10
98.013
 20
48.321
 30
0.0
 11
98.013
 21
57.3207
 31
0.0
  0
LINE
  8
0
 62
     0
 10
98.013
 20
57.3207
 30
0.0
 11
101.013
 21
57.3207
 31
0.0
  0
LINE
  8
0
 62
     0
 10
101.013
 20
57.3207
 30
0.0
 11
101.013
 21
66.3208
 31
0.0
  0
LINE
  8
0
 62
     0
 10
101.013
 20
66.3208
 30
0.0
 11
105.512
 21
66.3208
 31
0.0
  0
LINE
  8
0
 62
     0
 10
105.512
 20
66.3208
 30
0.0
 11
105.512
 21
63.3208
 31
0.0
  0
LINE
  8
0
 62
     0
 10
105.512
 20
63.3208
 30
0.0
 11
113.013
 21
63.3208
 31
0.0
  0
LINE
  8
0
 62
     0
 10
113.013
 20
63.3208
 30
0.0
 11
113.013
 21
66.3208
 31
0.0
  0
LINE
  8
0
 62
     0
 10
113.013
 20
66.3208
 30
0.0
 11
119.013
 21
66.3208
 31
0.0
  0
LINE
  8
0
 62
     0
 10
119.013
 20
66.3208
 30
0.0
 11
119.013
 21
63.3208
 31
0.0
  0
LINE
  8
0
 62
     0
 10
119.013
 20
63.3208
 30
0.0
 11
125.013
 21
63.3208
 31
0.0
  0
LINE
  8
0
 62
     0
 10
125.013
 20
63.3208
 30
0.0
 11
125.013
 21
66.3208
 31
0.0
  0
LINE
  8
0
 62
     0
 10
125.013
 20
66.3208
 30
0.0
 11
131.013
 21
66.3208
 31
0.0
  0
LINE
  8
0
 62
     0
 10
131.013
 20
66.3208
 30
0.0
 11
131.013
 21
63.3208
 31
0.0
  0
LINE
  8
0
 62
     0
 10
131.013
 20
63.3208
 30
0.0
 11
137.013
 21
63.3208
 31
0.0
  0
LINE
  8
0
 62
     0
 10
137.013
 20
63.3208
 30
0.0
 11
137.013
 21
66.3208
 31
0.0
  0
LINE
  8
0
 62
     0
 10
137.013
 20
66.3208
 30
0.0
 11
143.013
 21
66.3208
 31
0.0
  0
LINE
  8
0
 62
     0
 10
143.013
 20
66.3208
 30
0.0
 11
143.013
 21
63.3208
 31
0.0
  0
LINE
  8
0
 62
     0
 10
143.013
 20
63.3208
 30
0.0
 11
149.013
 21
63.3208
 31
0.0
  0
LINE
  8
0
 62
     0
 10
149.013
 20
63.3208
 30
0.0
 11
149.013
 21
66.3208
 31
0.0
  0
LINE
  8
0
 62
     0
 10
149.013
 20
66.3208
 30
0.0
 11
155.013
 21
66.3208
 31
0.0
  0
LINE
  8
0
 62
     0
 10
155.013
 20
66.3208
 30
0.0
 11
155.013
 21
63.3208
 31
0.0
  0
LINE
  8
0
 62
     0
 10
155.013
 20
63.3208
 30
0.0
 11
161.013
 21
63.3208
 31
0.0
  0
LINE
  8
0
 62
     0
 10
161.013
 20
63.3208
 30
0.0
 11
161.013
 21
66.3208
 31
0.0
  0
LINE
  8
0
 62
     0
 10
161.013
 20
66.3208
 30
0.0
 11
167.013
 21
66.3208
 31
0.0
  0
LINE
  8
0
 62
     0
 10
167.013
 20
66.3208
 30
0.0
 11
167.013
 21
63.3208
 31
0.0
  0
LINE
  8
0
 62
     0
 10
167.013
 20
63.3208
 30
0.0
 11
173.013
 21
63.3208
 31
0.0
  0
LINE
  8
0
 62
     0
 10
173.013
 20
63.3208
 30
0.0
 11
173.013
 21
66.3208
 31
0.0
  0
LINE
  8
0
 62
     0
 10
173.013
 20
66.3208
 30
0.0
 11
179.013
 21
66.3208
 31
0.0
  0
LINE
  8
0
 62
     0
 10
179.013
 20
66.3208
 30
0.0
 11
179.013
 21
63.3208
 31
0.0
  0
LINE
  8
0
 62
     0
 10
179.013
 20
63.3208
 30
0.0
 11
186.512
 21
63.3208
 31
0.0
  0
LINE
  8
0
 62
     0
 10
186.512
 20
63.3208
 30
0.0
 11
186.512
 21
66.3208
 31
0.0
  0
LINE
  8
0
 62
     0
 10
186.512
 20
66.3208
 30
0.0
 11
191.013
 21
66.3208
 31
0.0
  0
LINE
  8
0
 62
     0
 10
191.013
 20
66.3208
 30
0.0
 11
191.013
 21
57.3207
 31
0.0
  0
LINE
  8
0
 62
     0
 10
191.013
 20
57.3207
 30
0.0
 11
194.013
 21
57.3207
 31
0.0
  0
LINE
  8
0
 62
     0
 10
194.013
 20
57.3207
 30
0.0
 11
194.013
 21
48.321
 31
0.0
  0
LINE
  8
0
 62
     0
 10
194.013
 20
48.321
 30
0.0
 11
191.013
 21
48.321
 31
0.0
  0
LINE
  8
0
 62
     0
 10
191.013
 20
48.321
 30
0.0
 11
191.013
 21
42.321
 31
0.0
  0
LINE
  8
0
 62
     0
 10
191.013
 20
42.321
 30
0.0
 11
194.013
 21
42.321
 31
0.0
  0
LINE
  8
0
 62
     0
 10
194.013
 20
42.321
 30
0.0
 11
194.013
 21
36.3209
 31
0.0
  0
LINE
  8
0
 62
     0
 10
194.013
 20
36.3209
 30
0.0
 11
191.013
 21
36.3209
 31
0.0
  0
LINE
  8
0
 62
     0
 10
191.013
 20
36.3209
 30
0.0
 11
191.013
 21
30.321
 31
0.0
  0
LINE
  8
0
 62
     0
 10
191.013
 20
30.321
 30
0.0
 11
194.013
 21
30.321
 31
0.0
  0
LINE
  8
0
 62
     0
 10
194.013
 20
30.321
 30
0.0
 11
194.013
 21
24.321
 31
0.0
  0
LINE
  8
0
 62
     0
 10
194.013
 20
24.321
 30
0.0
 11
191.013
 21
24.321
 31
0.0
  0
LINE
  8
0
 62
     0
 10
191.013
 20
24.321
 30
0.0
 11
191.013
 21
18.321
 31
0.0
  0
LINE
  8
0
 62
     0
 10
191.013
 20
18.321
 30
0.0
 11
194.013
 21
18.321
 31
0.0
  0
LINE
  8
0
 62
     0
 10
194.013
 20
18.321
 30
0.0
 11
194.013
 21
9.32106
 31
0.0
  0
LINE
  8
0
 62
     0
 10
194.013
 20
9.32106
 30
0.0
 11
191.013
 21
9.32106
 31
0.0
  0
LINE
  8
0
 62
     0
 10
191.013
 20
9.32106
 30
0.0
 11
191.013
 21
0.321083
 31
0.0
  0
LINE
  8
0
 62
     0
 10
191.013
 20
0.321083
 30
0.0
 11
186.512
 21
0.321083
 31
0.0
  0
LINE
  8
0
 62
     0
 10
186.512
 20
0.321083
 30
0.0
 11
186.512
 21
3.32107
 31
0.0
  0
LINE
  8
0
 62
     0
 10
186.512
 20
3.32107
 30
0.0
 11
179.013
 21
3.32107
 31
0.0
  0
LINE
  8
0
 62
     0
 10
179.013
 20
3.32107
 30
0.0
 11
179.013
 21
0.321083
 31
0.0
  0
LINE
  8
0
 62
     0
 10
179.013
 20
0.321083
 30
0.0
 11
173.013
 21
0.321083
 31
0.0
  0
LINE
  8
0
 62
     0
 10
173.013
 20
0.321083
 30
0.0
 11
173.013
 21
3.32107
 31
0.0
  0
LINE
  8
0
 62
     0
 10
173.013
 20
3.32107
 30
0.0
 11
167.013
 21
3.32107
 31
0.0
  0
LINE
  8
0
 62
     0
 10
167.013
 20
3.32107
 30
0.0
 11
167.013
 21
0.321083
 31
0.0
  0
LINE
  8
0
 62
     0
 10
167.013
 20
0.321083
 30
0.0
 11
161.013
 21
0.321083
 31
0.0
  0
LINE
  8
0
 62
     0
 10
161.013
 20
0.321083
 30
0.0
 11
161.013
 21
3.32107
 31
0.0
  0
LINE
  8
0
 62
     0
 10
161.013
 20
3.32107
 30
0.0
 11
155.013
 21
3.32107
 31
0.0
  0
LINE
  8
0
 62
     0
 10
155.013
 20
3.32107
 30
0.0
 11
155.013
 21
0.321083
 31
0.0
  0
LINE
  8
0
 62
     0
 10
155.013
 20
0.321083
 30
0.0
 11
149.013
 21
0.321083
 31
0.0
  0
LINE
  8
0
 62
     0
 10
149.013
 20
0.321083
 30
0.0
 11
149.013
 21
3.32107
 31
0.0
  0
LINE
  8
0
 62
     0
 10
149.013
 20
3.32107
 30
0.0
 11
148.963
 21
6.3252
 31
0.0
  0
ENDSEC
  0
EOF
