  0
SECTION
  2
HEADER
  9
$ACADVER
  1
AC1009
  9
$EXTMIN
 10
0.0
 20
0.0
 30
0.0
  9
$EXTMAX
 10
1000.0
 20
1000.0
 30
0.0
  9
$FILLMODE
 70
 0
  9
$SPLFRAME
 70
 1
  0
ENDSEC
  0
SECTION
  2
TABLES
  0
TABLE
  2
LAYER
 70
1
  0
LAYER
  2
0
 70
     0
 62
     7
  6
CONTINUOUS
  0
ENDTAB
  0
ENDSEC
  0
SECTION
  2
ENTITIES
  0
LINE
  8
0
 62
     1
 10
0.181901
 20
211.414
 30
0.0
 11
176.182
 21
211.414
 31
0.0
  0
LINE
  8
0
 62
     1
 10
176.182
 20
211.414
 30
0.0
 11
176.182
 21
196.071
 31
0.0
  0
LINE
  8
0
 62
     1
 10
176.182
 20
196.071
 30
0.0
 11
172.982
 21
196.071
 31
0.0
  0
LINE
  8
0
 62
     1
 10
172.982
 20
196.071
 30
0.0
 11
172.982
 21
180.89
 31
0.0
  0
LINE
  8
0
 62
     1
 10
172.982
 20
180.89
 30
0.0
 11
176.182
 21
180.89
 31
0.0
  0
LINE
  8
0
 62
     1
 10
176.182
 20
180.89
 30
0.0
 11
176.182
 21
165.548
 31
0.0
  0
LINE
  8
0
 62
     1
 10
176.182
 20
165.548
 30
0.0
 11
164.396
 21
165.548
 31
0.0
  0
LINE
  8
0
 62
     1
 10
164.396
 20
165.548
 30
0.0
 11
164.396
 21
168.748
 31
0.0
  0
LINE
  8
0
 62
     1
 10
164.396
 20
168.748
 30
0.0
 11
152.769
 21
168.748
 31
0.0
  0
LINE
  8
0
 62
     1
 10
152.769
 20
168.748
 30
0.0
 11
152.769
 21
165.548
 31
0.0
  0
LINE
  8
0
 62
     1
 10
152.769
 20
165.548
 30
0.0
 11
140.929
 21
165.548
 31
0.0
  0
LINE
  8
0
 62
     1
 10
140.929
 20
165.548
 30
0.0
 11
140.929
 21
168.748
 31
0.0
  0
LINE
  8
0
 62
     1
 10
140.929
 20
168.748
 30
0.0
 11
129.303
 21
168.748
 31
0.0
  0
LINE
  8
0
 62
     1
 10
129.303
 20
168.748
 30
0.0
 11
129.303
 21
165.548
 31
0.0
  0
LINE
  8
0
 62
     1
 10
129.303
 20
165.548
 30
0.0
 11
117.463
 21
165.548
 31
0.0
  0
LINE
  8
0
 62
     1
 10
117.463
 20
165.548
 30
0.0
 11
117.463
 21
168.748
 31
0.0
  0
LINE
  8
0
 62
     1
 10
117.463
 20
168.748
 30
0.0
 11
105.836
 21
168.748
 31
0.0
  0
LINE
  8
0
 62
     1
 10
105.836
 20
168.748
 30
0.0
 11
105.836
 21
165.548
 31
0.0
  0
LINE
  8
0
 62
     1
 10
105.836
 20
165.548
 30
0.0
 11
93.9959
 21
165.548
 31
0.0
  0
LINE
  8
0
 62
     1
 10
93.9959
 20
165.548
 30
0.0
 11
93.9959
 21
168.748
 31
0.0
  0
LINE
  8
0
 62
     1
 10
93.9959
 20
168.748
 30
0.0
 11
82.3694
 21
168.748
 31
0.0
  0
LINE
  8
0
 62
     1
 10
82.3694
 20
168.748
 30
0.0
 11
82.3694
 21
165.548
 31
0.0
  0
LINE
  8
0
 62
     1
 10
82.3694
 20
165.548
 30
0.0
 11
70.5294
 21
165.548
 31
0.0
  0
LINE
  8
0
 62
     1
 10
70.5294
 20
165.548
 30
0.0
 11
70.5294
 21
168.748
 31
0.0
  0
LINE
  8
0
 62
     1
 10
70.5294
 20
168.748
 30
0.0
 11
58.903
 21
168.748
 31
0.0
  0
LINE
  8
0
 62
     1
 10
58.903
 20
168.748
 30
0.0
 11
58.903
 21
165.548
 31
0.0
  0
LINE
  8
0
 62
     1
 10
58.903
 20
165.548
 30
0.0
 11
47.0627
 21
165.548
 31
0.0
  0
LINE
  8
0
 62
     1
 10
47.0627
 20
165.548
 30
0.0
 11
47.0627
 21
168.748
 31
0.0
  0
LINE
  8
0
 62
     1
 10
47.0627
 20
168.748
 30
0.0
 11
35.4362
 21
168.748
 31
0.0
  0
LINE
  8
0
 62
     1
 10
35.4362
 20
168.748
 30
0.0
 11
35.4362
 21
165.548
 31
0.0
  0
LINE
  8
0
 62
     1
 10
35.4362
 20
165.548
 30
0.0
 11
23.5961
 21
165.548
 31
0.0
  0
LINE
  8
0
 62
     1
 10
23.5961
 20
165.548
 30
0.0
 11
23.5961
 21
168.748
 31
0.0
  0
LINE
  8
0
 62
     1
 10
23.5961
 20
168.748
 30
0.0
 11
11.9683
 21
168.748
 31
0.0
  0
LINE
  8
0
 62
     1
 10
11.9683
 20
168.748
 30
0.0
 11
11.9683
 21
165.548
 31
0.0
  0
LINE
  8
0
 62
     1
 10
11.9683
 20
165.548
 30
0.0
 11
0.181901
 21
165.548
 31
0.0
  0
LINE
  8
0
 62
     1
 10
0.181901
 20
165.548
 30
0.0
 11
0.181901
 21
180.89
 31
0.0
  0
LINE
  8
0
 62
     1
 10
0.181901
 20
180.89
 30
0.0
 11
3.38171
 21
180.89
 31
0.0
  0
LINE
  8
0
 62
     1
 10
3.38171
 20
180.89
 30
0.0
 11
3.38171
 21
196.071
 31
0.0
  0
LINE
  8
0
 62
     1
 10
3.38171
 20
196.071
 30
0.0
 11
0.181901
 21
196.071
 31
0.0
  0
LINE
  8
0
 62
     1
 10
0.181901
 20
196.071
 30
0.0
 11
0.181901
 21
211.414
 31
0.0
  0
LINE
  8
0
 62
     1
 10
20.2875
 20
69.106
 30
0.0
 11
20.2875
 21
81.1417
 31
0.0
  0
LINE
  8
0
 62
     1
 10
20.2875
 20
81.1417
 30
0.0
 11
17.0877
 21
81.1417
 31
0.0
  0
LINE
  8
0
 62
     1
 10
17.0877
 20
81.1417
 30
0.0
 11
17.0877
 21
96.5369
 31
0.0
  0
LINE
  8
0
 62
     1
 10
17.0877
 20
96.5369
 30
0.0
 11
20.2875
 21
96.5369
 31
0.0
  0
LINE
  8
0
 62
     1
 10
20.2875
 20
96.5369
 30
0.0
 11
20.2875
 21
108.573
 31
0.0
  0
LINE
  8
0
 62
     1
 10
20.2875
 20
108.573
 30
0.0
 11
125.096
 21
111.773
 31
0.0
  0
LINE
  8
0
 62
     1
 10
125.096
 20
111.773
 30
0.0
 11
136.854
 21
111.773
 31
0.0
  0
LINE
  8
0
 62
     1
 10
136.854
 20
111.773
 30
0.0
 11
136.854
 21
108.573
 31
0.0
  0
LINE
  8
0
 62
     1
 10
136.854
 20
108.573
 30
0.0
 11
148.398
 21
108.573
 31
0.0
  0
LINE
  8
0
 62
     1
 10
148.398
 20
108.573
 30
0.0
 11
148.398
 21
111.773
 31
0.0
  0
LINE
  8
0
 62
     1
 10
148.398
 20
111.773
 30
0.0
 11
160.157
 21
111.773
 31
0.0
  0
LINE
  8
0
 62
     1
 10
160.157
 20
111.773
 30
0.0
 11
160.157
 21
108.573
 31
0.0
  0
LINE
  8
0
 62
     1
 10
160.157
 20
108.573
 30
0.0
 11
171.754
 21
108.573
 31
0.0
  0
LINE
  8
0
 62
     1
 10
171.754
 20
108.573
 30
0.0
 11
171.754
 21
96.5369
 31
0.0
  0
LINE
  8
0
 62
     1
 10
171.754
 20
96.5369
 30
0.0
 11
174.954
 21
96.5369
 31
0.0
  0
LINE
  8
0
 62
     1
 10
174.954
 20
96.5369
 30
0.0
 11
174.954
 21
81.1417
 31
0.0
  0
LINE
  8
0
 62
     1
 10
174.954
 20
81.1417
 30
0.0
 11
171.754
 21
81.1417
 31
0.0
  0
LINE
  8
0
 62
     1
 10
171.754
 20
81.1417
 30
0.0
 11
171.754
 21
69.106
 31
0.0
  0
LINE
  8
0
 62
     1
 10
171.754
 20
69.106
 30
0.0
 11
160.157
 21
69.106
 31
0.0
  0
LINE
  8
0
 62
     1
 10
160.157
 20
69.106
 30
0.0
 11
160.157
 21
65.9059
 31
0.0
  0
LINE
  8
0
 62
     1
 10
160.157
 20
65.9059
 30
0.0
 11
148.398
 21
65.9059
 31
0.0
  0
LINE
  8
0
 62
     1
 10
148.398
 20
65.9059
 30
0.0
 11
148.398
 21
69.106
 31
0.0
  0
LINE
  8
0
 62
     1
 10
148.398
 20
69.106
 30
0.0
 11
136.854
 21
69.106
 31
0.0
  0
LINE
  8
0
 62
     1
 10
136.854
 20
69.106
 30
0.0
 11
136.854
 21
65.9059
 31
0.0
  0
LINE
  8
0
 62
     1
 10
136.854
 20
65.9059
 30
0.0
 11
125.096
 21
65.9059
 31
0.0
  0
LINE
  8
0
 62
     1
 10
125.096
 20
65.9059
 30
0.0
 11
125.096
 21
69.106
 31
0.0
  0
LINE
  8
0
 62
     1
 10
125.096
 20
69.106
 30
0.0
 11
113.552
 21
69.106
 31
0.0
  0
LINE
  8
0
 62
     1
 10
113.552
 20
69.106
 30
0.0
 11
113.552
 21
65.9059
 31
0.0
  0
LINE
  8
0
 62
     1
 10
113.552
 20
65.9059
 30
0.0
 11
101.793
 21
65.9059
 31
0.0
  0
LINE
  8
0
 62
     1
 10
101.793
 20
65.9059
 30
0.0
 11
101.793
 21
69.106
 31
0.0
  0
LINE
  8
0
 62
     1
 10
101.793
 20
69.106
 30
0.0
 11
90.249
 21
69.106
 31
0.0
  0
LINE
  8
0
 62
     1
 10
90.249
 20
69.106
 30
0.0
 11
90.249
 21
65.9059
 31
0.0
  0
LINE
  8
0
 62
     1
 10
90.249
 20
65.9059
 30
0.0
 11
78.4902
 21
65.9059
 31
0.0
  0
LINE
  8
0
 62
     1
 10
78.4902
 20
65.9059
 30
0.0
 11
78.4902
 21
69.106
 31
0.0
  0
LINE
  8
0
 62
     1
 10
78.4902
 20
69.106
 30
0.0
 11
66.9466
 21
69.106
 31
0.0
  0
LINE
  8
0
 62
     1
 10
66.9466
 20
69.106
 30
0.0
 11
66.9466
 21
65.9059
 31
0.0
  0
LINE
  8
0
 62
     1
 10
66.9466
 20
65.9059
 30
0.0
 11
55.1879
 21
65.9059
 31
0.0
  0
LINE
  8
0
 62
     1
 10
55.1879
 20
65.9059
 30
0.0
 11
55.1879
 21
69.106
 31
0.0
  0
LINE
  8
0
 62
     1
 10
55.1879
 20
69.106
 30
0.0
 11
43.6439
 21
69.106
 31
0.0
  0
LINE
  8
0
 62
     1
 10
43.6439
 20
69.106
 30
0.0
 11
43.6439
 21
65.9059
 31
0.0
  0
LINE
  8
0
 62
     1
 10
43.6439
 20
65.9059
 30
0.0
 11
31.885
 21
65.9059
 31
0.0
  0
LINE
  8
0
 62
     1
 10
31.885
 20
65.9059
 30
0.0
 11
31.885
 21
69.106
 31
0.0
  0
LINE
  8
0
 62
     1
 10
31.885
 20
69.106
 30
0.0
 11
20.2875
 21
69.106
 31
0.0
  0
LINE
  8
0
 62
     1
 10
162.002
 20
18.4023
 30
0.0
 11
162.002
 21
30.4367
 31
0.0
  0
LINE
  8
0
 62
     1
 10
162.002
 20
30.4367
 30
0.0
 11
165.203
 21
30.4367
 31
0.0
  0
LINE
  8
0
 62
     1
 10
165.203
 20
30.4367
 30
0.0
 11
165.203
 21
45.8322
 31
0.0
  0
LINE
  8
0
 62
     1
 10
165.203
 20
45.8322
 30
0.0
 11
162.002
 21
45.8322
 31
0.0
  0
LINE
  8
0
 62
     1
 10
162.002
 20
45.8322
 30
0.0
 11
162.002
 21
57.8679
 31
0.0
  0
LINE
  8
0
 62
     1
 10
162.002
 20
57.8679
 30
0.0
 11
57.1941
 21
61.0676
 31
0.0
  0
LINE
  8
0
 62
     1
 10
57.1941
 20
61.0676
 30
0.0
 11
45.4367
 21
61.0676
 31
0.0
  0
LINE
  8
0
 62
     1
 10
45.4367
 20
61.0676
 30
0.0
 11
45.4367
 21
57.8679
 31
0.0
  0
LINE
  8
0
 62
     1
 10
45.4367
 20
57.8679
 30
0.0
 11
33.8915
 21
57.8679
 31
0.0
  0
LINE
  8
0
 62
     1
 10
33.8915
 20
57.8679
 30
0.0
 11
33.8915
 21
61.0676
 31
0.0
  0
LINE
  8
0
 62
     1
 10
33.8915
 20
61.0676
 30
0.0
 11
22.1341
 21
61.0676
 31
0.0
  0
LINE
  8
0
 62
     1
 10
22.1341
 20
61.0676
 30
0.0
 11
22.1341
 21
57.8679
 31
0.0
  0
LINE
  8
0
 62
     1
 10
22.1341
 20
57.8679
 30
0.0
 11
10.5365
 21
57.8679
 31
0.0
  0
LINE
  8
0
 62
     1
 10
10.5365
 20
57.8679
 30
0.0
 11
10.5365
 21
45.8322
 31
0.0
  0
LINE
  8
0
 62
     1
 10
10.5365
 20
45.8322
 30
0.0
 11
7.33668
 21
45.8322
 31
0.0
  0
LINE
  8
0
 62
     1
 10
7.33668
 20
45.8322
 30
0.0
 11
7.33668
 21
30.4367
 31
0.0
  0
LINE
  8
0
 62
     1
 10
7.33668
 20
30.4367
 30
0.0
 11
10.5365
 21
30.4367
 31
0.0
  0
LINE
  8
0
 62
     1
 10
10.5365
 20
30.4367
 30
0.0
 11
10.5365
 21
18.4023
 31
0.0
  0
LINE
  8
0
 62
     1
 10
10.5365
 20
18.4023
 30
0.0
 11
22.1341
 21
18.4023
 31
0.0
  0
LINE
  8
0
 62
     1
 10
22.1341
 20
18.4023
 30
0.0
 11
22.1341
 21
15.2011
 31
0.0
  0
LINE
  8
0
 62
     1
 10
22.1341
 20
15.2011
 30
0.0
 11
33.8915
 21
15.2011
 31
0.0
  0
LINE
  8
0
 62
     1
 10
33.8915
 20
15.2011
 30
0.0
 11
33.8915
 21
18.4023
 31
0.0
  0
LINE
  8
0
 62
     1
 10
33.8915
 20
18.4023
 30
0.0
 11
45.4367
 21
18.4023
 31
0.0
  0
LINE
  8
0
 62
     1
 10
45.4367
 20
18.4023
 30
0.0
 11
45.4367
 21
15.2011
 31
0.0
  0
LINE
  8
0
 62
     1
 10
45.4367
 20
15.2011
 30
0.0
 11
57.1941
 21
15.2011
 31
0.0
  0
LINE
  8
0
 62
     1
 10
57.1941
 20
15.2011
 30
0.0
 11
57.1941
 21
18.4023
 31
0.0
  0
LINE
  8
0
 62
     1
 10
57.1941
 20
18.4023
 30
0.0
 11
68.7395
 21
18.4023
 31
0.0
  0
LINE
  8
0
 62
     1
 10
68.7395
 20
18.4023
 30
0.0
 11
68.7395
 21
15.2011
 31
0.0
  0
LINE
  8
0
 62
     1
 10
68.7395
 20
15.2011
 30
0.0
 11
80.4968
 21
15.2011
 31
0.0
  0
LINE
  8
0
 62
     1
 10
80.4968
 20
15.2011
 30
0.0
 11
80.4968
 21
18.4023
 31
0.0
  0
LINE
  8
0
 62
     1
 10
80.4968
 20
18.4023
 30
0.0
 11
92.0418
 21
18.4023
 31
0.0
  0
LINE
  8
0
 62
     1
 10
92.0418
 20
18.4023
 30
0.0
 11
92.0418
 21
15.2011
 31
0.0
  0
LINE
  8
0
 62
     1
 10
92.0418
 20
15.2011
 30
0.0
 11
103.799
 21
15.2011
 31
0.0
  0
LINE
  8
0
 62
     1
 10
103.799
 20
15.2011
 30
0.0
 11
103.799
 21
18.4023
 31
0.0
  0
LINE
  8
0
 62
     1
 10
103.799
 20
18.4023
 30
0.0
 11
115.345
 21
18.4023
 31
0.0
  0
LINE
  8
0
 62
     1
 10
115.345
 20
18.4023
 30
0.0
 11
115.345
 21
15.2011
 31
0.0
  0
LINE
  8
0
 62
     1
 10
115.345
 20
15.2011
 30
0.0
 11
127.102
 21
15.2011
 31
0.0
  0
LINE
  8
0
 62
     1
 10
127.102
 20
15.2011
 30
0.0
 11
127.102
 21
18.4023
 31
0.0
  0
LINE
  8
0
 62
     1
 10
127.102
 20
18.4023
 30
0.0
 11
138.647
 21
18.4023
 31
0.0
  0
LINE
  8
0
 62
     1
 10
138.647
 20
18.4023
 30
0.0
 11
138.647
 21
15.2011
 31
0.0
  0
LINE
  8
0
 62
     1
 10
138.647
 20
15.2011
 30
0.0
 11
150.405
 21
15.2011
 31
0.0
  0
LINE
  8
0
 62
     1
 10
150.405
 20
15.2011
 30
0.0
 11
150.405
 21
18.4023
 31
0.0
  0
LINE
  8
0
 62
     1
 10
150.405
 20
18.4023
 30
0.0
 11
162.002
 21
18.4023
 31
0.0
  0
LINE
  8
0
 62
     1
 10
0.14056
 20
161.463
 30
0.0
 11
11.9283
 21
161.463
 31
0.0
  0
LINE
  8
0
 62
     1
 10
11.9283
 20
161.463
 30
0.0
 11
11.9283
 21
158.262
 31
0.0
  0
LINE
  8
0
 62
     1
 10
11.9283
 20
158.262
 30
0.0
 11
23.5548
 21
158.262
 31
0.0
  0
LINE
  8
0
 62
     1
 10
23.5548
 20
158.262
 30
0.0
 11
23.5548
 21
161.463
 31
0.0
  0
LINE
  8
0
 62
     1
 10
23.5548
 20
161.463
 30
0.0
 11
35.3949
 21
161.463
 31
0.0
  0
LINE
  8
0
 62
     1
 10
35.3949
 20
161.463
 30
0.0
 11
35.3949
 21
158.262
 31
0.0
  0
LINE
  8
0
 62
     1
 10
35.3949
 20
158.262
 30
0.0
 11
47.0214
 21
158.262
 31
0.0
  0
LINE
  8
0
 62
     1
 10
47.0214
 20
158.262
 30
0.0
 11
47.0214
 21
161.463
 31
0.0
  0
LINE
  8
0
 62
     1
 10
47.0214
 20
161.463
 30
0.0
 11
58.8617
 21
161.463
 31
0.0
  0
LINE
  8
0
 62
     1
 10
58.8617
 20
161.463
 30
0.0
 11
58.8617
 21
158.262
 31
0.0
  0
LINE
  8
0
 62
     1
 10
58.8617
 20
158.262
 30
0.0
 11
70.4882
 21
158.262
 31
0.0
  0
LINE
  8
0
 62
     1
 10
70.4882
 20
158.262
 30
0.0
 11
70.4882
 21
161.463
 31
0.0
  0
LINE
  8
0
 62
     1
 10
70.4882
 20
161.463
 30
0.0
 11
82.3281
 21
161.463
 31
0.0
  0
LINE
  8
0
 62
     1
 10
82.3281
 20
161.463
 30
0.0
 11
82.3281
 21
158.262
 31
0.0
  0
LINE
  8
0
 62
     1
 10
82.3281
 20
158.262
 30
0.0
 11
93.9546
 21
158.262
 31
0.0
  0
LINE
  8
0
 62
     1
 10
93.9546
 20
158.262
 30
0.0
 11
93.9546
 21
161.463
 31
0.0
  0
LINE
  8
0
 62
     1
 10
93.9546
 20
161.463
 30
0.0
 11
105.795
 21
161.463
 31
0.0
  0
LINE
  8
0
 62
     1
 10
105.795
 20
161.463
 30
0.0
 11
105.795
 21
158.262
 31
0.0
  0
LINE
  8
0
 62
     1
 10
105.795
 20
158.262
 30
0.0
 11
117.421
 21
158.262
 31
0.0
  0
LINE
  8
0
 62
     1
 10
117.421
 20
158.262
 30
0.0
 11
117.421
 21
161.463
 31
0.0
  0
LINE
  8
0
 62
     1
 10
117.421
 20
161.463
 30
0.0
 11
129.261
 21
161.463
 31
0.0
  0
LINE
  8
0
 62
     1
 10
129.261
 20
161.463
 30
0.0
 11
129.261
 21
158.262
 31
0.0
  0
LINE
  8
0
 62
     1
 10
129.261
 20
158.262
 30
0.0
 11
140.888
 21
158.262
 31
0.0
  0
LINE
  8
0
 62
     1
 10
140.888
 20
158.262
 30
0.0
 11
140.888
 21
161.463
 31
0.0
  0
LINE
  8
0
 62
     1
 10
140.888
 20
161.463
 30
0.0
 11
152.728
 21
161.463
 31
0.0
  0
LINE
  8
0
 62
     1
 10
152.728
 20
161.463
 30
0.0
 11
152.728
 21
158.262
 31
0.0
  0
LINE
  8
0
 62
     1
 10
152.728
 20
158.262
 30
0.0
 11
164.355
 21
158.262
 31
0.0
  0
LINE
  8
0
 62
     1
 10
164.355
 20
158.262
 30
0.0
 11
164.355
 21
161.463
 31
0.0
  0
LINE
  8
0
 62
     1
 10
164.355
 20
161.463
 30
0.0
 11
176.141
 21
161.463
 31
0.0
  0
LINE
  8
0
 62
     1
 10
176.141
 20
161.463
 30
0.0
 11
176.141
 21
146.12
 31
0.0
  0
LINE
  8
0
 62
     1
 10
176.141
 20
146.12
 30
0.0
 11
172.941
 21
146.12
 31
0.0
  0
LINE
  8
0
 62
     1
 10
172.941
 20
146.12
 30
0.0
 11
172.941
 21
130.938
 31
0.0
  0
LINE
  8
0
 62
     1
 10
172.941
 20
130.938
 30
0.0
 11
176.141
 21
130.938
 31
0.0
  0
LINE
  8
0
 62
     1
 10
176.141
 20
130.938
 30
0.0
 11
176.141
 21
115.597
 31
0.0
  0
LINE
  8
0
 62
     1
 10
176.141
 20
115.597
 30
0.0
 11
164.355
 21
115.597
 31
0.0
  0
LINE
  8
0
 62
     1
 10
164.355
 20
115.597
 30
0.0
 11
164.355
 21
118.797
 31
0.0
  0
LINE
  8
0
 62
     1
 10
164.355
 20
118.797
 30
0.0
 11
152.728
 21
118.797
 31
0.0
  0
LINE
  8
0
 62
     1
 10
152.728
 20
118.797
 30
0.0
 11
152.728
 21
115.597
 31
0.0
  0
LINE
  8
0
 62
     1
 10
152.728
 20
115.597
 30
0.0
 11
140.888
 21
115.597
 31
0.0
  0
LINE
  8
0
 62
     1
 10
140.888
 20
115.597
 30
0.0
 11
140.888
 21
118.797
 31
0.0
  0
LINE
  8
0
 62
     1
 10
140.888
 20
118.797
 30
0.0
 11
129.261
 21
118.797
 31
0.0
  0
LINE
  8
0
 62
     1
 10
129.261
 20
118.797
 30
0.0
 11
129.261
 21
115.597
 31
0.0
  0
LINE
  8
0
 62
     1
 10
129.261
 20
115.597
 30
0.0
 11
117.421
 21
115.597
 31
0.0
  0
LINE
  8
0
 62
     1
 10
117.421
 20
115.597
 30
0.0
 11
117.421
 21
118.797
 31
0.0
  0
LINE
  8
0
 62
     1
 10
117.421
 20
118.797
 30
0.0
 11
105.795
 21
118.797
 31
0.0
  0
LINE
  8
0
 62
     1
 10
105.795
 20
118.797
 30
0.0
 11
105.795
 21
115.597
 31
0.0
  0
LINE
  8
0
 62
     1
 10
105.795
 20
115.597
 30
0.0
 11
93.9546
 21
115.597
 31
0.0
  0
LINE
  8
0
 62
     1
 10
93.9546
 20
115.597
 30
0.0
 11
93.9546
 21
118.797
 31
0.0
  0
LINE
  8
0
 62
     1
 10
93.9546
 20
118.797
 30
0.0
 11
82.3281
 21
118.797
 31
0.0
  0
LINE
  8
0
 62
     1
 10
82.3281
 20
118.797
 30
0.0
 11
82.3281
 21
115.597
 31
0.0
  0
LINE
  8
0
 62
     1
 10
82.3281
 20
115.597
 30
0.0
 11
70.4882
 21
115.597
 31
0.0
  0
LINE
  8
0
 62
     1
 10
70.4882
 20
115.597
 30
0.0
 11
70.4882
 21
118.797
 31
0.0
  0
LINE
  8
0
 62
     1
 10
70.4882
 20
118.797
 30
0.0
 11
58.8617
 21
118.797
 31
0.0
  0
LINE
  8
0
 62
     1
 10
58.8617
 20
118.797
 30
0.0
 11
58.8617
 21
115.597
 31
0.0
  0
LINE
  8
0
 62
     1
 10
58.8617
 20
115.597
 30
0.0
 11
47.0214
 21
115.597
 31
0.0
  0
LINE
  8
0
 62
     1
 10
47.0214
 20
115.597
 30
0.0
 11
47.0214
 21
118.797
 31
0.0
  0
LINE
  8
0
 62
     1
 10
47.0214
 20
118.797
 30
0.0
 11
35.3949
 21
118.797
 31
0.0
  0
LINE
  8
0
 62
     1
 10
35.3949
 20
118.797
 30
0.0
 11
35.3949
 21
115.597
 31
0.0
  0
LINE
  8
0
 62
     1
 10
35.3949
 20
115.597
 30
0.0
 11
23.5548
 21
115.597
 31
0.0
  0
LINE
  8
0
 62
     1
 10
23.5548
 20
115.597
 30
0.0
 11
23.5548
 21
118.797
 31
0.0
  0
LINE
  8
0
 62
     1
 10
23.5548
 20
118.797
 30
0.0
 11
11.9283
 21
118.797
 31
0.0
  0
LINE
  8
0
 62
     1
 10
11.9283
 20
118.797
 30
0.0
 11
11.9283
 21
115.597
 31
0.0
  0
LINE
  8
0
 62
     1
 10
11.9283
 20
115.597
 30
0.0
 11
0.14056
 21
115.597
 31
0.0
  0
LINE
  8
0
 62
     1
 10
0.14056
 20
115.597
 30
0.0
 11
0.14056
 21
130.938
 31
0.0
  0
LINE
  8
0
 62
     1
 10
0.14056
 20
130.938
 30
0.0
 11
3.34174
 21
130.938
 31
0.0
  0
LINE
  8
0
 62
     1
 10
3.34174
 20
130.938
 30
0.0
 11
3.34174
 21
146.12
 31
0.0
  0
LINE
  8
0
 62
     1
 10
3.34174
 20
146.12
 30
0.0
 11
0.14056
 21
146.12
 31
0.0
  0
LINE
  8
0
 62
     1
 10
0.14056
 20
146.12
 30
0.0
 11
0.14056
 21
161.463
 31
0.0
  0
LINE
  8
0
 62
     1
 10
140.82
 20
139.48
 30
0.0
 11
140.82
 21
138.828
 31
0.0
  0
LINE
  8
0
 62
     1
 10
140.82
 20
138.828
 30
0.0
 11
140.557
 21
136.871
 31
0.0
  0
LINE
  8
0
 62
     1
 10
140.557
 20
136.871
 30
0.0
 11
139.802
 21
134.44
 31
0.0
  0
LINE
  8
0
 62
     1
 10
139.802
 20
134.44
 30
0.0
 11
138.609
 21
132.239
 31
0.0
  0
LINE
  8
0
 62
     1
 10
138.609
 20
132.239
 30
0.0
 11
137.027
 21
130.324
 31
0.0
  0
LINE
  8
0
 62
     1
 10
137.027
 20
130.324
 30
0.0
 11
135.11
 21
128.742
 31
0.0
  0
LINE
  8
0
 62
     1
 10
135.11
 20
128.742
 30
0.0
 11
132.91
 21
127.549
 31
0.0
  0
LINE
  8
0
 62
     1
 10
132.91
 20
127.549
 30
0.0
 11
130.479
 21
126.793
 31
0.0
  0
LINE
  8
0
 62
     1
 10
130.479
 20
126.793
 30
0.0
 11
128.522
 21
126.53
 31
0.0
  0
LINE
  8
0
 62
     1
 10
128.522
 20
126.53
 30
0.0
 11
127.87
 21
126.53
 31
0.0
  0
LINE
  8
0
 62
     1
 10
127.87
 20
126.53
 30
0.0
 11
127.216
 21
126.53
 31
0.0
  0
LINE
  8
0
 62
     1
 10
127.216
 20
126.53
 30
0.0
 11
125.259
 21
126.793
 31
0.0
  0
LINE
  8
0
 62
     1
 10
125.259
 20
126.793
 30
0.0
 11
122.829
 21
127.549
 31
0.0
  0
LINE
  8
0
 62
     1
 10
122.829
 20
127.549
 30
0.0
 11
120.628
 21
128.742
 31
0.0
  0
LINE
  8
0
 62
     1
 10
120.628
 20
128.742
 30
0.0
 11
118.713
 21
130.324
 31
0.0
  0
LINE
  8
0
 62
     1
 10
118.713
 20
130.324
 30
0.0
 11
117.13
 21
132.239
 31
0.0
  0
LINE
  8
0
 62
     1
 10
117.13
 20
132.239
 30
0.0
 11
115.937
 21
134.44
 31
0.0
  0
LINE
  8
0
 62
     1
 10
115.937
 20
134.44
 30
0.0
 11
115.182
 21
136.871
 31
0.0
  0
LINE
  8
0
 62
     1
 10
115.182
 20
136.871
 30
0.0
 11
114.92
 21
138.828
 31
0.0
  0
LINE
  8
0
 62
     1
 10
114.92
 20
138.828
 30
0.0
 11
114.92
 21
139.48
 31
0.0
  0
LINE
  8
0
 62
     1
 10
114.92
 20
139.48
 30
0.0
 11
114.92
 21
140.133
 31
0.0
  0
LINE
  8
0
 62
     1
 10
114.92
 20
140.133
 30
0.0
 11
115.182
 21
142.089
 31
0.0
  0
LINE
  8
0
 62
     1
 10
115.182
 20
142.089
 30
0.0
 11
115.937
 21
144.52
 31
0.0
  0
LINE
  8
0
 62
     1
 10
115.937
 20
144.52
 30
0.0
 11
117.13
 21
146.721
 31
0.0
  0
LINE
  8
0
 62
     1
 10
117.13
 20
146.721
 30
0.0
 11
118.713
 21
148.637
 31
0.0
  0
LINE
  8
0
 62
     1
 10
118.713
 20
148.637
 30
0.0
 11
120.628
 21
150.218
 31
0.0
  0
LINE
  8
0
 62
     1
 10
120.628
 20
150.218
 30
0.0
 11
122.829
 21
151.412
 31
0.0
  0
LINE
  8
0
 62
     1
 10
122.829
 20
151.412
 30
0.0
 11
125.259
 21
152.167
 31
0.0
  0
LINE
  8
0
 62
     1
 10
125.259
 20
152.167
 30
0.0
 11
127.216
 21
152.429
 31
0.0
  0
LINE
  8
0
 62
     1
 10
127.216
 20
152.429
 30
0.0
 11
127.87
 21
152.429
 31
0.0
  0
LINE
  8
0
 62
     1
 10
127.87
 20
152.429
 30
0.0
 11
128.522
 21
152.429
 31
0.0
  0
LINE
  8
0
 62
     1
 10
128.522
 20
152.429
 30
0.0
 11
130.479
 21
152.167
 31
0.0
  0
LINE
  8
0
 62
     1
 10
130.479
 20
152.167
 30
0.0
 11
132.91
 21
151.412
 31
0.0
  0
LINE
  8
0
 62
     1
 10
132.91
 20
151.412
 30
0.0
 11
135.11
 21
150.218
 31
0.0
  0
LINE
  8
0
 62
     1
 10
135.11
 20
150.218
 30
0.0
 11
137.027
 21
148.637
 31
0.0
  0
LINE
  8
0
 62
     1
 10
137.027
 20
148.637
 30
0.0
 11
138.609
 21
146.721
 31
0.0
  0
LINE
  8
0
 62
     1
 10
138.609
 20
146.721
 30
0.0
 11
139.802
 21
144.52
 31
0.0
  0
LINE
  8
0
 62
     1
 10
139.802
 20
144.52
 30
0.0
 11
140.557
 21
142.089
 31
0.0
  0
LINE
  8
0
 62
     1
 10
140.557
 20
142.089
 30
0.0
 11
140.82
 21
140.133
 31
0.0
  0
LINE
  8
0
 62
     1
 10
140.82
 20
140.133
 30
0.0
 11
140.82
 21
139.48
 31
0.0
  0
LINE
  8
0
 62
     1
 10
178.597
 20
208.171
 30
0.0
 11
190.277
 21
208.171
 31
0.0
  0
LINE
  8
0
 62
     1
 10
190.277
 20
208.171
 30
0.0
 11
190.277
 21
211.37
 31
0.0
  0
LINE
  8
0
 62
     1
 10
190.277
 20
211.37
 30
0.0
 11
202.117
 21
211.37
 31
0.0
  0
LINE
  8
0
 62
     1
 10
202.117
 20
211.37
 30
0.0
 11
202.117
 21
208.171
 31
0.0
  0
LINE
  8
0
 62
     1
 10
202.117
 20
208.171
 30
0.0
 11
213.743
 21
208.171
 31
0.0
  0
LINE
  8
0
 62
     1
 10
213.743
 20
208.171
 30
0.0
 11
213.743
 21
211.37
 31
0.0
  0
LINE
  8
0
 62
     1
 10
213.743
 20
211.37
 30
0.0
 11
225.583
 21
211.37
 31
0.0
  0
LINE
  8
0
 62
     1
 10
225.583
 20
211.37
 30
0.0
 11
225.583
 21
208.171
 31
0.0
  0
LINE
  8
0
 62
     1
 10
225.583
 20
208.171
 30
0.0
 11
237.21
 21
208.171
 31
0.0
  0
LINE
  8
0
 62
     1
 10
237.21
 20
208.171
 30
0.0
 11
237.21
 21
211.37
 31
0.0
  0
LINE
  8
0
 62
     1
 10
237.21
 20
211.37
 30
0.0
 11
249.05
 21
211.37
 31
0.0
  0
LINE
  8
0
 62
     1
 10
249.05
 20
211.37
 30
0.0
 11
249.05
 21
208.171
 31
0.0
  0
LINE
  8
0
 62
     1
 10
249.05
 20
208.171
 30
0.0
 11
260.677
 21
208.171
 31
0.0
  0
LINE
  8
0
 62
     1
 10
260.677
 20
208.171
 30
0.0
 11
260.677
 21
211.37
 31
0.0
  0
LINE
  8
0
 62
     1
 10
260.677
 20
211.37
 30
0.0
 11
272.517
 21
211.37
 31
0.0
  0
LINE
  8
0
 62
     1
 10
272.517
 20
211.37
 30
0.0
 11
272.517
 21
208.171
 31
0.0
  0
LINE
  8
0
 62
     1
 10
272.517
 20
208.171
 30
0.0
 11
284.143
 21
208.171
 31
0.0
  0
LINE
  8
0
 62
     1
 10
284.143
 20
208.171
 30
0.0
 11
284.143
 21
211.37
 31
0.0
  0
LINE
  8
0
 62
     1
 10
284.143
 20
211.37
 30
0.0
 11
295.983
 21
211.37
 31
0.0
  0
LINE
  8
0
 62
     1
 10
295.983
 20
211.37
 30
0.0
 11
295.983
 21
208.171
 31
0.0
  0
LINE
  8
0
 62
     1
 10
295.983
 20
208.171
 30
0.0
 11
307.61
 21
208.171
 31
0.0
  0
LINE
  8
0
 62
     1
 10
307.61
 20
208.171
 30
0.0
 11
307.61
 21
211.37
 31
0.0
  0
LINE
  8
0
 62
     1
 10
307.61
 20
211.37
 30
0.0
 11
319.45
 21
211.37
 31
0.0
  0
LINE
  8
0
 62
     1
 10
319.45
 20
211.37
 30
0.0
 11
319.45
 21
208.171
 31
0.0
  0
LINE
  8
0
 62
     1
 10
319.45
 20
208.171
 30
0.0
 11
331.076
 21
208.171
 31
0.0
  0
LINE
  8
0
 62
     1
 10
331.076
 20
208.171
 30
0.0
 11
331.076
 21
211.37
 31
0.0
  0
LINE
  8
0
 62
     1
 10
331.076
 20
211.37
 30
0.0
 11
342.917
 21
211.37
 31
0.0
  0
LINE
  8
0
 62
     1
 10
342.917
 20
211.37
 30
0.0
 11
342.917
 21
208.171
 31
0.0
  0
LINE
  8
0
 62
     1
 10
342.917
 20
208.171
 30
0.0
 11
354.598
 21
208.171
 31
0.0
  0
LINE
  8
0
 62
     1
 10
354.598
 20
208.171
 30
0.0
 11
354.598
 21
196.465
 31
0.0
  0
LINE
  8
0
 62
     1
 10
354.598
 20
196.465
 30
0.0
 11
351.397
 21
196.465
 31
0.0
  0
LINE
  8
0
 62
     1
 10
351.397
 20
196.465
 30
0.0
 11
351.397
 21
184.922
 31
0.0
  0
LINE
  8
0
 62
     1
 10
351.397
 20
184.922
 30
0.0
 11
354.598
 21
184.922
 31
0.0
  0
LINE
  8
0
 62
     1
 10
354.598
 20
184.922
 30
0.0
 11
354.598
 21
173.163
 31
0.0
  0
LINE
  8
0
 62
     1
 10
354.598
 20
173.163
 30
0.0
 11
351.397
 21
173.163
 31
0.0
  0
LINE
  8
0
 62
     1
 10
351.397
 20
173.163
 30
0.0
 11
351.397
 21
161.619
 31
0.0
  0
LINE
  8
0
 62
     1
 10
351.397
 20
161.619
 30
0.0
 11
354.598
 21
161.619
 31
0.0
  0
LINE
  8
0
 62
     1
 10
354.598
 20
161.619
 30
0.0
 11
354.598
 21
149.86
 31
0.0
  0
LINE
  8
0
 62
     1
 10
354.598
 20
149.86
 30
0.0
 11
351.397
 21
149.86
 31
0.0
  0
LINE
  8
0
 62
     1
 10
351.397
 20
149.86
 30
0.0
 11
351.397
 21
138.316
 31
0.0
  0
LINE
  8
0
 62
     1
 10
351.397
 20
138.316
 30
0.0
 11
354.598
 21
138.316
 31
0.0
  0
LINE
  8
0
 62
     1
 10
354.598
 20
138.316
 30
0.0
 11
354.598
 21
126.558
 31
0.0
  0
LINE
  8
0
 62
     1
 10
354.598
 20
126.558
 30
0.0
 11
351.397
 21
126.558
 31
0.0
  0
LINE
  8
0
 62
     1
 10
351.397
 20
126.558
 30
0.0
 11
351.397
 21
115.014
 31
0.0
  0
LINE
  8
0
 62
     1
 10
351.397
 20
115.014
 30
0.0
 11
354.598
 21
115.014
 31
0.0
  0
LINE
  8
0
 62
     1
 10
354.598
 20
115.014
 30
0.0
 11
354.598
 21
103.255
 31
0.0
  0
LINE
  8
0
 62
     1
 10
354.598
 20
103.255
 30
0.0
 11
351.397
 21
103.255
 31
0.0
  0
LINE
  8
0
 62
     1
 10
351.397
 20
103.255
 30
0.0
 11
351.397
 21
91.7113
 31
0.0
  0
LINE
  8
0
 62
     1
 10
351.397
 20
91.7113
 30
0.0
 11
354.598
 21
91.7113
 31
0.0
  0
LINE
  8
0
 62
     1
 10
354.598
 20
91.7113
 30
0.0
 11
354.598
 21
79.9525
 31
0.0
  0
LINE
  8
0
 62
     1
 10
354.598
 20
79.9525
 30
0.0
 11
351.397
 21
79.9525
 31
0.0
  0
LINE
  8
0
 62
     1
 10
351.397
 20
79.9525
 30
0.0
 11
351.397
 21
68.4086
 31
0.0
  0
LINE
  8
0
 62
     1
 10
351.397
 20
68.4086
 30
0.0
 11
354.598
 21
68.4086
 31
0.0
  0
LINE
  8
0
 62
     1
 10
354.598
 20
68.4086
 30
0.0
 11
354.598
 21
56.7034
 31
0.0
  0
LINE
  8
0
 62
     1
 10
354.598
 20
56.7034
 30
0.0
 11
342.917
 21
56.7034
 31
0.0
  0
LINE
  8
0
 62
     1
 10
342.917
 20
56.7034
 30
0.0
 11
342.917
 21
53.5037
 31
0.0
  0
LINE
  8
0
 62
     1
 10
342.917
 20
53.5037
 30
0.0
 11
331.076
 21
53.5037
 31
0.0
  0
LINE
  8
0
 62
     1
 10
331.076
 20
53.5037
 30
0.0
 11
331.076
 21
56.7034
 31
0.0
  0
LINE
  8
0
 62
     1
 10
331.076
 20
56.7034
 30
0.0
 11
319.45
 21
56.7034
 31
0.0
  0
LINE
  8
0
 62
     1
 10
319.45
 20
56.7034
 30
0.0
 11
319.45
 21
53.5037
 31
0.0
  0
LINE
  8
0
 62
     1
 10
319.45
 20
53.5037
 30
0.0
 11
307.61
 21
53.5037
 31
0.0
  0
LINE
  8
0
 62
     1
 10
307.61
 20
53.5037
 30
0.0
 11
307.61
 21
56.7034
 31
0.0
  0
LINE
  8
0
 62
     1
 10
307.61
 20
56.7034
 30
0.0
 11
295.983
 21
56.7034
 31
0.0
  0
LINE
  8
0
 62
     1
 10
295.983
 20
56.7034
 30
0.0
 11
295.983
 21
53.5037
 31
0.0
  0
LINE
  8
0
 62
     1
 10
295.983
 20
53.5037
 30
0.0
 11
284.143
 21
53.5037
 31
0.0
  0
LINE
  8
0
 62
     1
 10
284.143
 20
53.5037
 30
0.0
 11
284.143
 21
56.7034
 31
0.0
  0
LINE
  8
0
 62
     1
 10
284.143
 20
56.7034
 30
0.0
 11
272.517
 21
56.7034
 31
0.0
  0
LINE
  8
0
 62
     1
 10
272.517
 20
56.7034
 30
0.0
 11
272.517
 21
53.5037
 31
0.0
  0
LINE
  8
0
 62
     1
 10
272.517
 20
53.5037
 30
0.0
 11
260.677
 21
53.5037
 31
0.0
  0
LINE
  8
0
 62
     1
 10
260.677
 20
53.5037
 30
0.0
 11
260.677
 21
56.7034
 31
0.0
  0
LINE
  8
0
 62
     1
 10
260.677
 20
56.7034
 30
0.0
 11
249.05
 21
56.7034
 31
0.0
  0
LINE
  8
0
 62
     1
 10
249.05
 20
56.7034
 30
0.0
 11
249.05
 21
53.5037
 31
0.0
  0
LINE
  8
0
 62
     1
 10
249.05
 20
53.5037
 30
0.0
 11
237.21
 21
53.5037
 31
0.0
  0
LINE
  8
0
 62
     1
 10
237.21
 20
53.5037
 30
0.0
 11
237.21
 21
56.7034
 31
0.0
  0
LINE
  8
0
 62
     1
 10
237.21
 20
56.7034
 30
0.0
 11
225.583
 21
56.7034
 31
0.0
  0
LINE
  8
0
 62
     1
 10
225.583
 20
56.7034
 30
0.0
 11
225.583
 21
53.5037
 31
0.0
  0
LINE
  8
0
 62
     1
 10
225.583
 20
53.5037
 30
0.0
 11
213.743
 21
53.5037
 31
0.0
  0
LINE
  8
0
 62
     1
 10
213.743
 20
53.5037
 30
0.0
 11
213.743
 21
56.7034
 31
0.0
  0
LINE
  8
0
 62
     1
 10
213.743
 20
56.7034
 30
0.0
 11
202.117
 21
56.7034
 31
0.0
  0
LINE
  8
0
 62
     1
 10
202.117
 20
56.7034
 30
0.0
 11
202.117
 21
53.5037
 31
0.0
  0
LINE
  8
0
 62
     1
 10
202.117
 20
53.5037
 30
0.0
 11
190.277
 21
53.5037
 31
0.0
  0
LINE
  8
0
 62
     1
 10
190.277
 20
53.5037
 30
0.0
 11
190.277
 21
56.7034
 31
0.0
  0
LINE
  8
0
 62
     1
 10
190.277
 20
56.7034
 30
0.0
 11
178.597
 21
56.7034
 31
0.0
  0
LINE
  8
0
 62
     1
 10
178.597
 20
56.7034
 30
0.0
 11
178.597
 21
68.4086
 31
0.0
  0
LINE
  8
0
 62
     1
 10
178.597
 20
68.4086
 30
0.0
 11
181.796
 21
68.4086
 31
0.0
  0
LINE
  8
0
 62
     1
 10
181.796
 20
68.4086
 30
0.0
 11
181.796
 21
79.9525
 31
0.0
  0
LINE
  8
0
 62
     1
 10
181.796
 20
79.9525
 30
0.0
 11
178.597
 21
79.9525
 31
0.0
  0
LINE
  8
0
 62
     1
 10
178.597
 20
79.9525
 30
0.0
 11
178.597
 21
91.7113
 31
0.0
  0
LINE
  8
0
 62
     1
 10
178.597
 20
91.7113
 30
0.0
 11
181.796
 21
91.7113
 31
0.0
  0
LINE
  8
0
 62
     1
 10
181.796
 20
91.7113
 30
0.0
 11
181.796
 21
103.255
 31
0.0
  0
LINE
  8
0
 62
     1
 10
181.796
 20
103.255
 30
0.0
 11
178.597
 21
103.255
 31
0.0
  0
LINE
  8
0
 62
     1
 10
178.597
 20
103.255
 30
0.0
 11
178.597
 21
115.014
 31
0.0
  0
LINE
  8
0
 62
     1
 10
178.597
 20
115.014
 30
0.0
 11
181.796
 21
115.014
 31
0.0
  0
LINE
  8
0
 62
     1
 10
181.796
 20
115.014
 30
0.0
 11
181.796
 21
126.558
 31
0.0
  0
LINE
  8
0
 62
     1
 10
181.796
 20
126.558
 30
0.0
 11
178.597
 21
126.558
 31
0.0
  0
LINE
  8
0
 62
     1
 10
178.597
 20
126.558
 30
0.0
 11
178.597
 21
138.316
 31
0.0
  0
LINE
  8
0
 62
     1
 10
178.597
 20
138.316
 30
0.0
 11
181.796
 21
138.316
 31
0.0
  0
LINE
  8
0
 62
     1
 10
181.796
 20
138.316
 30
0.0
 11
181.796
 21
149.86
 31
0.0
  0
LINE
  8
0
 62
     1
 10
181.796
 20
149.86
 30
0.0
 11
178.597
 21
149.86
 31
0.0
  0
LINE
  8
0
 62
     1
 10
178.597
 20
149.86
 30
0.0
 11
178.597
 21
161.619
 31
0.0
  0
LINE
  8
0
 62
     1
 10
178.597
 20
161.619
 30
0.0
 11
181.796
 21
161.619
 31
0.0
  0
LINE
  8
0
 62
     1
 10
181.796
 20
161.619
 30
0.0
 11
181.796
 21
173.163
 31
0.0
  0
LINE
  8
0
 62
     1
 10
181.796
 20
173.163
 30
0.0
 11
178.597
 21
173.163
 31
0.0
  0
LINE
  8
0
 62
     1
 10
178.597
 20
173.163
 30
0.0
 11
178.597
 21
184.922
 31
0.0
  0
LINE
  8
0
 62
     1
 10
178.597
 20
184.922
 30
0.0
 11
181.796
 21
184.922
 31
0.0
  0
LINE
  8
0
 62
     1
 10
181.796
 20
184.922
 30
0.0
 11
181.796
 21
196.465
 31
0.0
  0
LINE
  8
0
 62
     1
 10
181.796
 20
196.465
 30
0.0
 11
178.597
 21
196.465
 31
0.0
  0
LINE
  8
0
 62
     1
 10
178.597
 20
196.465
 30
0.0
 11
178.597
 21
208.171
 31
0.0
  0
LINE
  8
0
 62
     1
 10
231.652
 20
202.37
 30
0.0
 11
231.652
 21
202.035
 31
0.0
  0
LINE
  8
0
 62
     1
 10
231.652
 20
202.035
 30
0.0
 11
231.381
 21
201.028
 31
0.0
  0
LINE
  8
0
 62
     1
 10
231.381
 20
201.028
 30
0.0
 11
230.642
 21
199.931
 31
0.0
  0
LINE
  8
0
 62
     1
 10
230.642
 20
199.931
 30
0.0
 11
229.545
 21
199.191
 31
0.0
  0
LINE
  8
0
 62
     1
 10
229.545
 20
199.191
 30
0.0
 11
228.538
 21
198.92
 31
0.0
  0
LINE
  8
0
 62
     1
 10
228.538
 20
198.92
 30
0.0
 11
228.203
 21
198.92
 31
0.0
  0
LINE
  8
0
 62
     1
 10
228.203
 20
198.92
 30
0.0
 11
227.867
 21
198.92
 31
0.0
  0
LINE
  8
0
 62
     1
 10
227.867
 20
198.92
 30
0.0
 11
226.859
 21
199.191
 31
0.0
  0
LINE
  8
0
 62
     1
 10
226.859
 20
199.191
 30
0.0
 11
225.763
 21
199.931
 31
0.0
  0
LINE
  8
0
 62
     1
 10
225.763
 20
199.931
 30
0.0
 11
225.022
 21
201.028
 31
0.0
  0
LINE
  8
0
 62
     1
 10
225.022
 20
201.028
 30
0.0
 11
224.753
 21
202.035
 31
0.0
  0
LINE
  8
0
 62
     1
 10
224.753
 20
202.035
 30
0.0
 11
224.753
 21
202.37
 31
0.0
  0
LINE
  8
0
 62
     1
 10
224.753
 20
202.37
 30
0.0
 11
224.753
 21
202.707
 31
0.0
  0
LINE
  8
0
 62
     1
 10
224.753
 20
202.707
 30
0.0
 11
225.022
 21
203.714
 31
0.0
  0
LINE
  8
0
 62
     1
 10
225.022
 20
203.714
 30
0.0
 11
225.763
 21
204.811
 31
0.0
  0
LINE
  8
0
 62
     1
 10
225.763
 20
204.811
 30
0.0
 11
226.859
 21
205.549
 31
0.0
  0
LINE
  8
0
 62
     1
 10
226.859
 20
205.549
 30
0.0
 11
227.867
 21
205.82
 31
0.0
  0
LINE
  8
0
 62
     1
 10
227.867
 20
205.82
 30
0.0
 11
228.203
 21
205.82
 31
0.0
  0
LINE
  8
0
 62
     1
 10
228.203
 20
205.82
 30
0.0
 11
228.538
 21
205.82
 31
0.0
  0
LINE
  8
0
 62
     1
 10
228.538
 20
205.82
 30
0.0
 11
229.545
 21
205.549
 31
0.0
  0
LINE
  8
0
 62
     1
 10
229.545
 20
205.549
 30
0.0
 11
230.642
 21
204.811
 31
0.0
  0
LINE
  8
0
 62
     1
 10
230.642
 20
204.811
 30
0.0
 11
231.381
 21
203.714
 31
0.0
  0
LINE
  8
0
 62
     1
 10
231.381
 20
203.714
 30
0.0
 11
231.652
 21
202.707
 31
0.0
  0
LINE
  8
0
 62
     1
 10
231.652
 20
202.707
 30
0.0
 11
231.652
 21
202.37
 31
0.0
  0
LINE
  8
0
 62
     1
 10
318.346
 20
202.37
 30
0.0
 11
318.346
 21
202.035
 31
0.0
  0
LINE
  8
0
 62
     1
 10
318.346
 20
202.035
 30
0.0
 11
318.075
 21
201.028
 31
0.0
  0
LINE
  8
0
 62
     1
 10
318.075
 20
201.028
 30
0.0
 11
317.336
 21
199.931
 31
0.0
  0
LINE
  8
0
 62
     1
 10
317.336
 20
199.931
 30
0.0
 11
316.239
 21
199.191
 31
0.0
  0
LINE
  8
0
 62
     1
 10
316.239
 20
199.191
 30
0.0
 11
315.232
 21
198.92
 31
0.0
  0
LINE
  8
0
 62
     1
 10
315.232
 20
198.92
 30
0.0
 11
314.897
 21
198.92
 31
0.0
  0
LINE
  8
0
 62
     1
 10
314.897
 20
198.92
 30
0.0
 11
314.561
 21
198.92
 31
0.0
  0
LINE
  8
0
 62
     1
 10
314.561
 20
198.92
 30
0.0
 11
313.553
 21
199.191
 31
0.0
  0
LINE
  8
0
 62
     1
 10
313.553
 20
199.191
 30
0.0
 11
312.456
 21
199.931
 31
0.0
  0
LINE
  8
0
 62
     1
 10
312.456
 20
199.931
 30
0.0
 11
311.716
 21
201.028
 31
0.0
  0
LINE
  8
0
 62
     1
 10
311.716
 20
201.028
 30
0.0
 11
311.446
 21
202.035
 31
0.0
  0
LINE
  8
0
 62
     1
 10
311.446
 20
202.035
 30
0.0
 11
311.446
 21
202.37
 31
0.0
  0
LINE
  8
0
 62
     1
 10
311.446
 20
202.37
 30
0.0
 11
311.446
 21
202.707
 31
0.0
  0
LINE
  8
0
 62
     1
 10
311.446
 20
202.707
 30
0.0
 11
311.716
 21
203.714
 31
0.0
  0
LINE
  8
0
 62
     1
 10
311.716
 20
203.714
 30
0.0
 11
312.456
 21
204.811
 31
0.0
  0
LINE
  8
0
 62
     1
 10
312.456
 20
204.811
 30
0.0
 11
313.553
 21
205.549
 31
0.0
  0
LINE
  8
0
 62
     1
 10
313.553
 20
205.549
 30
0.0
 11
314.561
 21
205.82
 31
0.0
  0
LINE
  8
0
 62
     1
 10
314.561
 20
205.82
 30
0.0
 11
314.897
 21
205.82
 31
0.0
  0
LINE
  8
0
 62
     1
 10
314.897
 20
205.82
 30
0.0
 11
315.232
 21
205.82
 31
0.0
  0
LINE
  8
0
 62
     1
 10
315.232
 20
205.82
 30
0.0
 11
316.239
 21
205.549
 31
0.0
  0
LINE
  8
0
 62
     1
 10
316.239
 20
205.549
 30
0.0
 11
317.336
 21
204.811
 31
0.0
  0
LINE
  8
0
 62
     1
 10
317.336
 20
204.811
 30
0.0
 11
318.075
 21
203.714
 31
0.0
  0
LINE
  8
0
 62
     1
 10
318.075
 20
203.714
 30
0.0
 11
318.346
 21
202.707
 31
0.0
  0
LINE
  8
0
 62
     1
 10
318.346
 20
202.707
 30
0.0
 11
318.346
 21
202.37
 31
0.0
  0
LINE
  8
0
 62
     1
 10
231.652
 20
104.67
 30
0.0
 11
231.652
 21
104.335
 31
0.0
  0
LINE
  8
0
 62
     1
 10
231.652
 20
104.335
 30
0.0
 11
231.381
 21
103.328
 31
0.0
  0
LINE
  8
0
 62
     1
 10
231.381
 20
103.328
 30
0.0
 11
230.642
 21
102.231
 31
0.0
  0
LINE
  8
0
 62
     1
 10
230.642
 20
102.231
 30
0.0
 11
229.545
 21
101.491
 31
0.0
  0
LINE
  8
0
 62
     1
 10
229.545
 20
101.491
 30
0.0
 11
228.538
 21
101.22
 31
0.0
  0
LINE
  8
0
 62
     1
 10
228.538
 20
101.22
 30
0.0
 11
228.203
 21
101.22
 31
0.0
  0
LINE
  8
0
 62
     1
 10
228.203
 20
101.22
 30
0.0
 11
227.867
 21
101.22
 31
0.0
  0
LINE
  8
0
 62
     1
 10
227.867
 20
101.22
 30
0.0
 11
226.859
 21
101.491
 31
0.0
  0
LINE
  8
0
 62
     1
 10
226.859
 20
101.491
 30
0.0
 11
225.763
 21
102.231
 31
0.0
  0
LINE
  8
0
 62
     1
 10
225.763
 20
102.231
 30
0.0
 11
225.022
 21
103.328
 31
0.0
  0
LINE
  8
0
 62
     1
 10
225.022
 20
103.328
 30
0.0
 11
224.753
 21
104.335
 31
0.0
  0
LINE
  8
0
 62
     1
 10
224.753
 20
104.335
 30
0.0
 11
224.753
 21
104.67
 31
0.0
  0
LINE
  8
0
 62
     1
 10
224.753
 20
104.67
 30
0.0
 11
224.753
 21
105.006
 31
0.0
  0
LINE
  8
0
 62
     1
 10
224.753
 20
105.006
 30
0.0
 11
225.022
 21
106.014
 31
0.0
  0
LINE
  8
0
 62
     1
 10
225.022
 20
106.014
 30
0.0
 11
225.763
 21
107.111
 31
0.0
  0
LINE
  8
0
 62
     1
 10
225.763
 20
107.111
 30
0.0
 11
226.859
 21
107.851
 31
0.0
  0
LINE
  8
0
 62
     1
 10
226.859
 20
107.851
 30
0.0
 11
227.867
 21
108.121
 31
0.0
  0
LINE
  8
0
 62
     1
 10
227.867
 20
108.121
 30
0.0
 11
228.203
 21
108.121
 31
0.0
  0
LINE
  8
0
 62
     1
 10
228.203
 20
108.121
 30
0.0
 11
228.538
 21
108.121
 31
0.0
  0
LINE
  8
0
 62
     1
 10
228.538
 20
108.121
 30
0.0
 11
229.545
 21
107.851
 31
0.0
  0
LINE
  8
0
 62
     1
 10
229.545
 20
107.851
 30
0.0
 11
230.642
 21
107.111
 31
0.0
  0
LINE
  8
0
 62
     1
 10
230.642
 20
107.111
 30
0.0
 11
231.381
 21
106.014
 31
0.0
  0
LINE
  8
0
 62
     1
 10
231.381
 20
106.014
 30
0.0
 11
231.652
 21
105.006
 31
0.0
  0
LINE
  8
0
 62
     1
 10
231.652
 20
105.006
 30
0.0
 11
231.652
 21
104.67
 31
0.0
  0
LINE
  8
0
 62
     1
 10
351.815
 20
49.8934
 30
0.0
 11
351.815
 21
38.348
 31
0.0
  0
LINE
  8
0
 62
     1
 10
351.815
 20
38.348
 30
0.0
 11
355.014
 21
38.348
 31
0.0
  0
LINE
  8
0
 62
     1
 10
355.014
 20
38.348
 30
0.0
 11
355.014
 21
26.5906
 31
0.0
  0
LINE
  8
0
 62
     1
 10
355.014
 20
26.5906
 30
0.0
 11
351.815
 21
26.5906
 31
0.0
  0
LINE
  8
0
 62
     1
 10
351.815
 20
26.5906
 30
0.0
 11
351.815
 21
15.0454
 31
0.0
  0
LINE
  8
0
 62
     1
 10
351.815
 20
15.0454
 30
0.0
 11
355.014
 21
15.0454
 31
0.0
  0
LINE
  8
0
 62
     1
 10
355.014
 20
15.0454
 30
0.0
 11
355.014
 21
3.34174
 31
0.0
  0
LINE
  8
0
 62
     1
 10
355.014
 20
3.34174
 30
0.0
 11
343.334
 21
3.34174
 31
0.0
  0
LINE
  8
0
 62
     1
 10
343.334
 20
3.34174
 30
0.0
 11
343.334
 21
0.141938
 31
0.0
  0
LINE
  8
0
 62
     1
 10
343.334
 20
0.141938
 30
0.0
 11
331.494
 21
0.141938
 31
0.0
  0
LINE
  8
0
 62
     1
 10
331.494
 20
0.141938
 30
0.0
 11
331.494
 21
3.34174
 31
0.0
  0
LINE
  8
0
 62
     1
 10
331.494
 20
3.34174
 30
0.0
 11
319.867
 21
3.34174
 31
0.0
  0
LINE
  8
0
 62
     1
 10
319.867
 20
3.34174
 30
0.0
 11
319.867
 21
0.141938
 31
0.0
  0
LINE
  8
0
 62
     1
 10
319.867
 20
0.141938
 30
0.0
 11
308.027
 21
0.141938
 31
0.0
  0
LINE
  8
0
 62
     1
 10
308.027
 20
0.141938
 30
0.0
 11
308.027
 21
3.34174
 31
0.0
  0
LINE
  8
0
 62
     1
 10
308.027
 20
3.34174
 30
0.0
 11
296.401
 21
3.34174
 31
0.0
  0
LINE
  8
0
 62
     1
 10
296.401
 20
3.34174
 30
0.0
 11
296.401
 21
0.141938
 31
0.0
  0
LINE
  8
0
 62
     1
 10
296.401
 20
0.141938
 30
0.0
 11
284.561
 21
0.141938
 31
0.0
  0
LINE
  8
0
 62
     1
 10
284.561
 20
0.141938
 30
0.0
 11
284.561
 21
3.34174
 31
0.0
  0
LINE
  8
0
 62
     1
 10
284.561
 20
3.34174
 30
0.0
 11
272.934
 21
3.34174
 31
0.0
  0
LINE
  8
0
 62
     1
 10
272.934
 20
3.34174
 30
0.0
 11
272.934
 21
0.141938
 31
0.0
  0
LINE
  8
0
 62
     1
 10
272.934
 20
0.141938
 30
0.0
 11
261.094
 21
0.141938
 31
0.0
  0
LINE
  8
0
 62
     1
 10
261.094
 20
0.141938
 30
0.0
 11
261.094
 21
3.34174
 31
0.0
  0
LINE
  8
0
 62
     1
 10
261.094
 20
3.34174
 30
0.0
 11
249.468
 21
3.34174
 31
0.0
  0
LINE
  8
0
 62
     1
 10
249.468
 20
3.34174
 30
0.0
 11
249.468
 21
0.141938
 31
0.0
  0
LINE
  8
0
 62
     1
 10
249.468
 20
0.141938
 30
0.0
 11
237.628
 21
0.141938
 31
0.0
  0
LINE
  8
0
 62
     1
 10
237.628
 20
0.141938
 30
0.0
 11
237.628
 21
3.34174
 31
0.0
  0
LINE
  8
0
 62
     1
 10
237.628
 20
3.34174
 30
0.0
 11
226.001
 21
3.34174
 31
0.0
  0
LINE
  8
0
 62
     1
 10
226.001
 20
3.34174
 30
0.0
 11
226.001
 21
0.141938
 31
0.0
  0
LINE
  8
0
 62
     1
 10
226.001
 20
0.141938
 30
0.0
 11
214.161
 21
0.141938
 31
0.0
  0
LINE
  8
0
 62
     1
 10
214.161
 20
0.141938
 30
0.0
 11
214.161
 21
3.34174
 31
0.0
  0
LINE
  8
0
 62
     1
 10
214.161
 20
3.34174
 30
0.0
 11
202.534
 21
3.34174
 31
0.0
  0
LINE
  8
0
 62
     1
 10
202.534
 20
3.34174
 30
0.0
 11
202.534
 21
0.141938
 31
0.0
  0
LINE
  8
0
 62
     1
 10
202.534
 20
0.141938
 30
0.0
 11
190.694
 21
0.141938
 31
0.0
  0
LINE
  8
0
 62
     1
 10
190.694
 20
0.141938
 30
0.0
 11
190.694
 21
3.34174
 31
0.0
  0
LINE
  8
0
 62
     1
 10
190.694
 20
3.34174
 30
0.0
 11
179.014
 21
3.34174
 31
0.0
  0
LINE
  8
0
 62
     1
 10
179.014
 20
3.34174
 30
0.0
 11
179.014
 21
15.0454
 31
0.0
  0
LINE
  8
0
 62
     1
 10
179.014
 20
15.0454
 30
0.0
 11
182.214
 21
15.0454
 31
0.0
  0
LINE
  8
0
 62
     1
 10
182.214
 20
15.0454
 30
0.0
 11
182.214
 21
26.5906
 31
0.0
  0
LINE
  8
0
 62
     1
 10
182.214
 20
26.5906
 30
0.0
 11
179.014
 21
26.5906
 31
0.0
  0
LINE
  8
0
 62
     1
 10
179.014
 20
26.5906
 30
0.0
 11
179.014
 21
38.348
 31
0.0
  0
LINE
  8
0
 62
     1
 10
179.014
 20
38.348
 30
0.0
 11
182.214
 21
38.348
 31
0.0
  0
LINE
  8
0
 62
     1
 10
182.214
 20
38.348
 30
0.0
 11
182.214
 21
49.8934
 31
0.0
  0
LINE
  8
0
 62
     1
 10
182.214
 20
49.8934
 30
0.0
 11
351.815
 21
49.8934
 31
0.0
  0
LINE
  8
0
 62
     0
 10
229.809
 20
47.3989
 30
0.0
 11
228.873
 21
47.3989
 31
0.0
  0
LINE
  8
0
 62
     0
 10
228.873
 20
47.3989
 30
0.0
 11
226.07
 21
46.8768
 31
0.0
  0
LINE
  8
0
 62
     0
 10
226.07
 20
46.8768
 30
0.0
 11
221.978
 21
45.4547
 31
0.0
  0
LINE
  8
0
 62
     0
 10
221.978
 20
45.4547
 30
0.0
 11
217.796
 21
43.3546
 31
0.0
  0
LINE
  8
0
 62
     0
 10
217.796
 20
43.3546
 30
0.0
 11
213.786
 21
40.798
 31
0.0
  0
LINE
  8
0
 62
     0
 10
213.786
 20
40.798
 30
0.0
 11
210.21
 21
38.009
 31
0.0
  0
LINE
  8
0
 62
     0
 10
210.21
 20
38.009
 30
0.0
 11
207.331
 21
35.2061
 31
0.0
  0
LINE
  8
0
 62
     0
 10
207.331
 20
35.2061
 30
0.0
 11
205.412
 21
32.6113
 31
0.0
  0
LINE
  8
0
 62
     0
 10
205.412
 20
32.6113
 30
0.0
 11
204.714
 21
30.9893
 31
0.0
  0
LINE
  8
0
 62
     0
 10
204.714
 20
30.9893
 30
0.0
 11
204.714
 21
30.4478
 31
0.0
  0
LINE
  8
0
 62
     0
 10
204.714
 20
30.4478
 30
0.0
 11
204.714
 21
30.2838
 31
0.0
  0
LINE
  8
0
 62
     0
 10
204.714
 20
30.2838
 30
0.0
 11
204.826
 21
29.789
 31
0.0
  0
LINE
  8
0
 62
     0
 10
204.826
 20
29.789
 30
0.0
 11
205.146
 21
29.2447
 31
0.0
  0
LINE
  8
0
 62
     0
 10
205.146
 20
29.2447
 30
0.0
 11
205.645
 21
28.8768
 31
0.0
  0
LINE
  8
0
 62
     0
 10
205.645
 20
28.8768
 30
0.0
 11
206.137
 21
28.7404
 31
0.0
  0
LINE
  8
0
 62
     0
 10
206.137
 20
28.7404
 30
0.0
 11
206.301
 21
28.7404
 31
0.0
  0
LINE
  8
0
 62
     0
 10
206.301
 20
28.7404
 30
0.0
 11
206.481
 21
28.7404
 31
0.0
  0
LINE
  8
0
 62
     0
 10
206.481
 20
28.7404
 30
0.0
 11
207.023
 21
28.8616
 31
0.0
  0
LINE
  8
0
 62
     0
 10
207.023
 20
28.8616
 30
0.0
 11
207.885
 21
29.1483
 31
0.0
  0
LINE
  8
0
 62
     0
 10
207.885
 20
29.1483
 30
0.0
 11
208.607
 21
29.4886
 31
0.0
  0
LINE
  8
0
 62
     0
 10
208.607
 20
29.4886
 30
0.0
 11
208.912
 21
29.6967
 31
0.0
  0
LINE
  8
0
 62
     0
 10
208.912
 20
29.6967
 30
0.0
 11
208.912
 21
29.7656
 31
0.0
  0
LINE
  8
0
 62
     0
 10
208.912
 20
29.7656
 30
0.0
 11
208.834
 21
29.7422
 31
0.0
  0
LINE
  8
0
 62
     0
 10
208.834
 20
29.7422
 30
0.0
 11
208.15
 21
29.6058
 31
0.0
  0
LINE
  8
0
 62
     0
 10
208.15
 20
29.6058
 30
0.0
 11
207.578
 21
29.5162
 31
0.0
  0
LINE
  8
0
 62
     0
 10
207.578
 20
29.5162
 30
0.0
 11
207.388
 21
29.5162
 31
0.0
  0
LINE
  8
0
 62
     0
 10
207.388
 20
29.5162
 30
0.0
 11
207.287
 21
29.5162
 31
0.0
  0
LINE
  8
0
 62
     0
 10
207.287
 20
29.5162
 30
0.0
 11
206.987
 21
29.6568
 31
0.0
  0
LINE
  8
0
 62
     0
 10
206.987
 20
29.6568
 30
0.0
 11
206.798
 21
29.9709
 31
0.0
  0
LINE
  8
0
 62
     0
 10
206.798
 20
29.9709
 30
0.0
 11
206.798
 21
30.0757
 31
0.0
  0
LINE
  8
0
 62
     0
 10
206.798
 20
30.0757
 30
0.0
 11
206.798
 21
30.394
 31
0.0
  0
LINE
  8
0
 62
     0
 10
206.798
 20
30.394
 30
0.0
 11
207.428
 21
31.349
 31
0.0
  0
LINE
  8
0
 62
     0
 10
207.428
 20
31.349
 30
0.0
 11
209.164
 21
33.4863
 31
0.0
  0
LINE
  8
0
 62
     0
 10
209.164
 20
33.4863
 30
0.0
 11
211.774
 21
36.1707
 31
0.0
  0
LINE
  8
0
 62
     0
 10
211.774
 20
36.1707
 30
0.0
 11
215.026
 21
39.0839
 31
0.0
  0
LINE
  8
0
 62
     0
 10
215.026
 20
39.0839
 30
0.0
 11
218.688
 21
41.9033
 31
0.0
  0
LINE
  8
0
 62
     0
 10
218.688
 20
41.9033
 30
0.0
 11
222.526
 21
44.3135
 31
0.0
  0
LINE
  8
0
 62
     0
 10
222.526
 20
44.3135
 30
0.0
 11
226.31
 21
45.9934
 31
0.0
  0
LINE
  8
0
 62
     0
 10
226.31
 20
45.9934
 30
0.0
 11
228.933
 21
46.6231
 31
0.0
  0
LINE
  8
0
 62
     0
 10
228.933
 20
46.6231
 30
0.0
 11
229.809
 21
46.6231
 31
0.0
  0
LINE
  8
0
 62
     0
 10
229.809
 20
46.6231
 30
0.0
 11
230.032
 21
46.6231
 31
0.0
  0
LINE
  8
0
 62
     0
 10
230.032
 20
46.6231
 30
0.0
 11
230.701
 21
46.5624
 31
0.0
  0
LINE
  8
0
 62
     0
 10
230.701
 20
46.5624
 30
0.0
 11
231.546
 21
46.3173
 31
0.0
  0
LINE
  8
0
 62
     0
 10
231.546
 20
46.3173
 30
0.0
 11
232.175
 21
45.7976
 31
0.0
  0
LINE
  8
0
 62
     0
 10
232.175
 20
45.7976
 30
0.0
 11
232.421
 21
45.1362
 31
0.0
  0
LINE
  8
0
 62
     0
 10
232.421
 20
45.1362
 30
0.0
 11
232.421
 21
44.9157
 31
0.0
  0
LINE
  8
0
 62
     0
 10
232.421
 20
44.9157
 30
0.0
 11
232.421
 21
44.5368
 31
0.0
  0
LINE
  8
0
 62
     0
 10
232.421
 20
44.5368
 30
0.0
 11
232.058
 21
43.3998
 31
0.0
  0
LINE
  8
0
 62
     0
 10
232.058
 20
43.3998
 30
0.0
 11
231.064
 21
41.3191
 31
0.0
  0
LINE
  8
0
 62
     0
 10
231.064
 20
41.3191
 30
0.0
 11
229.576
 21
38.8013
 31
0.0
  0
LINE
  8
0
 62
     0
 10
229.576
 20
38.8013
 30
0.0
 11
227.735
 21
35.9738
 31
0.0
  0
LINE
  8
0
 62
     0
 10
227.735
 20
35.9738
 30
0.0
 11
225.679
 21
32.9613
 31
0.0
  0
LINE
  8
0
 62
     0
 10
225.679
 20
32.9613
 30
0.0
 11
223.547
 21
29.8897
 31
0.0
  0
LINE
  8
0
 62
     0
 10
223.547
 20
29.8897
 30
0.0
 11
221.48
 21
26.8869
 31
0.0
  0
LINE
  8
0
 62
     0
 10
221.48
 20
26.8869
 30
0.0
 11
220.07
 21
24.7881
 31
0.0
  0
LINE
  8
0
 62
     0
 10
220.07
 20
24.7881
 30
0.0
 11
219.615
 21
24.0785
 31
0.0
  0
LINE
  8
0
 62
     0
 10
219.615
 20
24.0785
 30
0.0
 11
219.374
 21
24.1171
 31
0.0
  0
LINE
  8
0
 62
     0
 10
219.374
 20
24.1171
 30
0.0
 11
218.203
 21
24.2025
 31
0.0
  0
LINE
  8
0
 62
     0
 10
218.203
 20
24.2025
 30
0.0
 11
217.109
 21
24.2108
 31
0.0
  0
LINE
  8
0
 62
     0
 10
217.109
 20
24.2108
 30
0.0
 11
216.745
 21
24.2108
 31
0.0
  0
LINE
  8
0
 62
     0
 10
216.745
 20
24.2108
 30
0.0
 11
215.699
 21
24.2108
 31
0.0
  0
LINE
  8
0
 62
     0
 10
215.699
 20
24.2108
 30
0.0
 11
212.562
 21
23.8359
 31
0.0
  0
LINE
  8
0
 62
     0
 10
212.562
 20
23.8359
 30
0.0
 11
208.333
 21
22.7928
 31
0.0
  0
LINE
  8
0
 62
     0
 10
208.333
 20
22.7928
 30
0.0
 11
204.253
 21
21.2121
 31
0.0
  0
LINE
  8
0
 62
     0
 10
204.253
 20
21.2121
 30
0.0
 11
200.516
 21
19.2209
 31
0.0
  0
LINE
  8
0
 62
     0
 10
200.516
 20
19.2209
 30
0.0
 11
197.314
 21
16.9471
 31
0.0
  0
LINE
  8
0
 62
     0
 10
197.314
 20
16.9471
 30
0.0
 11
194.848
 21
14.519
 31
0.0
  0
LINE
  8
0
 62
     0
 10
194.848
 20
14.519
 30
0.0
 11
193.308
 21
12.0661
 31
0.0
  0
LINE
  8
0
 62
     0
 10
193.308
 20
12.0661
 30
0.0
 11
192.84
 21
10.2871
 31
0.0
  0
LINE
  8
0
 62
     0
 10
192.84
 20
10.2871
 30
0.0
 11
192.894
 21
9.71243
 31
0.0
  0
LINE
  8
0
 62
     0
 10
192.894
 20
9.71243
 30
0.0
 11
192.933
 21
9.34036
 31
0.0
  0
LINE
  8
0
 62
     0
 10
192.933
 20
9.34036
 30
0.0
 11
193.368
 21
8.25444
 31
0.0
  0
LINE
  8
0
 62
     0
 10
193.368
 20
8.25444
 30
0.0
 11
194.342
 21
7.29121
 31
0.0
  0
LINE
  8
0
 62
     0
 10
194.342
 20
7.29121
 30
0.0
 11
195.695
 21
6.77168
 31
0.0
  0
LINE
  8
0
 62
     0
 10
195.695
 20
6.77168
 30
0.0
 11
196.906
 21
6.62975
 31
0.0
  0
LINE
  8
0
 62
     0
 10
196.906
 20
6.62975
 30
0.0
 11
197.309
 21
6.63938
 31
0.0
  0
LINE
  8
0
 62
     0
 10
197.309
 20
6.63938
 30
0.0
 11
198.118
 21
6.65455
 31
0.0
  0
LINE
  8
0
 62
     0
 10
198.118
 20
6.65455
 30
0.0
 11
200.539
 21
7.11757
 31
0.0
  0
LINE
  8
0
 62
     0
 10
200.539
 20
7.11757
 30
0.0
 11
203.992
 21
8.33713
 31
0.0
  0
LINE
  8
0
 62
     0
 10
203.992
 20
8.33713
 30
0.0
 11
207.549
 21
10.152
 31
0.0
  0
LINE
  8
0
 62
     0
 10
207.549
 20
10.152
 30
0.0
 11
211.088
 21
12.4175
 31
0.0
  0
LINE
  8
0
 62
     0
 10
211.088
 20
12.4175
 30
0.0
 11
214.487
 21
14.9876
 31
0.0
  0
LINE
  8
0
 62
     0
 10
214.487
 20
14.9876
 30
0.0
 11
217.629
 21
17.7161
 31
0.0
  0
LINE
  8
0
 62
     0
 10
217.629
 20
17.7161
 30
0.0
 11
220.391
 21
20.457
 31
0.0
  0
LINE
  8
0
 62
     0
 10
220.391
 20
20.457
 30
0.0
 11
222.118
 21
22.3876
 31
0.0
  0
LINE
  8
0
 62
     0
 10
222.118
 20
22.3876
 30
0.0
 11
222.653
 21
23.0628
 31
0.0
  0
LINE
  8
0
 62
     0
 10
222.653
 20
23.0628
 30
0.0
 11
222.989
 21
23.0008
 31
0.0
  0
LINE
  8
0
 62
     0
 10
222.989
 20
23.0008
 30
0.0
 11
223.993
 21
22.7707
 31
0.0
  0
LINE
  8
0
 62
     0
 10
223.993
 20
22.7707
 30
0.0
 11
225.123
 21
22.4455
 31
0.0
  0
LINE
  8
0
 62
     0
 10
225.123
 20
22.4455
 30
0.0
 11
226.184
 21
22.0803
 31
0.0
  0
LINE
  8
0
 62
     0
 10
226.184
 20
22.0803
 30
0.0
 11
227.033
 21
21.7689
 31
0.0
  0
LINE
  8
0
 62
     0
 10
227.033
 20
21.7689
 30
0.0
 11
227.317
 21
21.6655
 31
0.0
  0
LINE
  8
0
 62
     0
 10
227.317
 20
21.6655
 30
0.0
 11
227.324
 21
21.6655
 31
0.0
  0
LINE
  8
0
 62
     0
 10
227.324
 20
21.6655
 30
0.0
 11
227.347
 21
21.6958
 31
0.0
  0
LINE
  8
0
 62
     0
 10
227.347
 20
21.6958
 30
0.0
 11
227.347
 21
21.6958
 31
0.0
  0
LINE
  8
0
 62
     0
 10
227.347
 20
21.6958
 30
0.0
 11
227.011
 21
21.9508
 31
0.0
  0
LINE
  8
0
 62
     0
 10
227.011
 20
21.9508
 30
0.0
 11
225.243
 21
22.852
 31
0.0
  0
LINE
  8
0
 62
     0
 10
225.243
 20
22.852
 30
0.0
 11
223.379
 21
23.4032
 31
0.0
  0
LINE
  8
0
 62
     0
 10
223.379
 20
23.4032
 30
0.0
 11
222.994
 21
23.4818
 31
0.0
  0
LINE
  8
0
 62
     0
 10
222.994
 20
23.4818
 30
0.0
 11
223.904
 21
24.4864
 31
0.0
  0
LINE
  8
0
 62
     0
 10
223.904
 20
24.4864
 30
0.0
 11
226.774
 21
27.3706
 31
0.0
  0
LINE
  8
0
 62
     0
 10
226.774
 20
27.3706
 30
0.0
 11
231.461
 21
31.6067
 31
0.0
  0
LINE
  8
0
 62
     0
 10
231.461
 20
31.6067
 30
0.0
 11
236.812
 21
35.7974
 31
0.0
  0
LINE
  8
0
 62
     0
 10
236.812
 20
35.7974
 30
0.0
 11
241.099
 21
38.6884
 31
0.0
  0
LINE
  8
0
 62
     0
 10
241.099
 20
38.6884
 30
0.0
 11
242.59
 21
39.5443
 31
0.0
  0
LINE
  8
0
 62
     0
 10
242.59
 20
39.5443
 30
0.0
 11
242.07
 21
38.9819
 31
0.0
  0
LINE
  8
0
 62
     0
 10
242.07
 20
38.9819
 30
0.0
 11
240.608
 21
37.2071
 31
0.0
  0
LINE
  8
0
 62
     0
 10
240.608
 20
37.2071
 30
0.0
 11
238.543
 21
34.4151
 31
0.0
  0
LINE
  8
0
 62
     0
 10
238.543
 20
34.4151
 30
0.0
 11
236.542
 21
31.3545
 31
0.0
  0
LINE
  8
0
 62
     0
 10
236.542
 20
31.3545
 30
0.0
 11
235.17
 21
29.0132
 31
0.0
  0
LINE
  8
0
 62
     0
 10
235.17
 20
29.0132
 30
0.0
 11
234.753
 21
28.2126
 31
0.0
  0
LINE
  8
0
 62
     0
 10
234.753
 20
28.2126
 30
0.0
 11
234.439
 21
27.62
 31
0.0
  0
LINE
  8
0
 62
     0
 10
234.439
 20
27.62
 30
0.0
 11
233.584
 21
25.7941
 31
0.0
  0
LINE
  8
0
 62
     0
 10
233.584
 20
25.7941
 30
0.0
 11
232.68
 21
23.4363
 31
0.0
  0
LINE
  8
0
 62
     0
 10
232.68
 20
23.4363
 30
0.0
 11
232.097
 21
21.2232
 31
0.0
  0
LINE
  8
0
 62
     0
 10
232.097
 20
21.2232
 30
0.0
 11
231.892
 21
19.7363
 31
0.0
  0
LINE
  8
0
 62
     0
 10
231.892
 20
19.7363
 30
0.0
 11
231.892
 21
19.2402
 31
0.0
  0
LINE
  8
0
 62
     0
 10
231.892
 20
19.2402
 30
0.0
 11
231.892
 21
18.6724
 31
0.0
  0
LINE
  8
0
 62
     0
 10
231.892
 20
18.6724
 30
0.0
 11
232.343
 21
16.9692
 31
0.0
  0
LINE
  8
0
 62
     0
 10
232.343
 20
16.9692
 30
0.0
 11
233.587
 21
15.4506
 31
0.0
  0
LINE
  8
0
 62
     0
 10
233.587
 20
15.4506
 30
0.0
 11
235.46
 21
14.6003
 31
0.0
  0
LINE
  8
0
 62
     0
 10
235.46
 20
14.6003
 30
0.0
 11
237.216
 21
14.3357
 31
0.0
  0
LINE
  8
0
 62
     0
 10
237.216
 20
14.3357
 30
0.0
 11
237.801
 21
14.3357
 31
0.0
  0
LINE
  8
0
 62
     0
 10
237.801
 20
14.3357
 30
0.0
 11
238.049
 21
14.3357
 31
0.0
  0
LINE
  8
0
 62
     0
 10
238.049
 20
14.3357
 30
0.0
 11
238.711
 21
14.3591
 31
0.0
  0
LINE
  8
0
 62
     0
 10
238.711
 20
14.3591
 30
0.0
 11
238.796
 21
14.3661
 31
0.0
  0
LINE
  8
0
 62
     0
 10
238.796
 20
14.3661
 30
0.0
 11
239.117
 21
14.3895
 31
0.0
  0
LINE
  8
0
 62
     0
 10
239.117
 20
14.3895
 30
0.0
 11
240.075
 21
14.5741
 31
0.0
  0
LINE
  8
0
 62
     0
 10
240.075
 20
14.5741
 30
0.0
 11
241.804
 21
15.0688
 31
0.0
  0
LINE
  8
0
 62
     0
 10
241.804
 20
15.0688
 30
0.0
 11
243.811
 21
15.8709
 31
0.0
  0
LINE
  8
0
 62
     0
 10
243.811
 20
15.8709
 30
0.0
 11
245.419
 21
16.688
 31
0.0
  0
LINE
  8
0
 62
     0
 10
245.419
 20
16.688
 30
0.0
 11
245.929
 21
17.0022
 31
0.0
  0
LINE
  8
0
 62
     0
 10
245.929
 20
17.0022
 30
0.0
 11
246.461
 21
17.3316
 31
0.0
  0
LINE
  8
0
 62
     0
 10
246.461
 20
17.3316
 30
0.0
 11
247.915
 21
18.5511
 31
0.0
  0
LINE
  8
0
 62
     0
 10
247.915
 20
18.5511
 30
0.0
 11
249.504
 21
20.53
 31
0.0
  0
LINE
  8
0
 62
     0
 10
249.504
 20
20.53
 30
0.0
 11
250.486
 21
22.8617
 31
0.0
  0
LINE
  8
0
 62
     0
 10
250.486
 20
22.8617
 30
0.0
 11
250.729
 21
24.824
 31
0.0
  0
LINE
  8
0
 62
     0
 10
250.729
 20
24.824
 30
0.0
 11
250.657
 21
25.4593
 31
0.0
  0
LINE
  8
0
 62
     0
 10
250.657
 20
25.4593
 30
0.0
 11
250.61
 21
25.8727
 31
0.0
  0
LINE
  8
0
 62
     0
 10
250.61
 20
25.8727
 30
0.0
 11
250.2
 21
27.0812
 31
0.0
  0
LINE
  8
0
 62
     0
 10
250.2
 20
27.0812
 30
0.0
 11
249.371
 21
28.1616
 31
0.0
  0
LINE
  8
0
 62
     0
 10
249.371
 20
28.1616
 30
0.0
 11
248.35
 21
28.6591
 31
0.0
  0
LINE
  8
0
 62
     0
 10
248.35
 20
28.6591
 30
0.0
 11
247.539
 21
28.6287
 31
0.0
  0
LINE
  8
0
 62
     0
 10
247.539
 20
28.6287
 30
0.0
 11
247.314
 21
28.5226
 31
0.0
  0
LINE
  8
0
 62
     0
 10
247.314
 20
28.5226
 30
0.0
 11
247.064
 21
28.4055
 31
0.0
  0
LINE
  8
0
 62
     0
 10
247.064
 20
28.4055
 30
0.0
 11
246.437
 21
27.7978
 31
0.0
  0
LINE
  8
0
 62
     0
 10
246.437
 20
27.7978
 30
0.0
 11
246.046
 21
26.8373
 31
0.0
  0
LINE
  8
0
 62
     0
 10
246.046
 20
26.8373
 30
0.0
 11
246.045
 21
25.8437
 31
0.0
  0
LINE
  8
0
 62
     0
 10
246.045
 20
25.8437
 30
0.0
 11
246.225
 21
25.1988
 31
0.0
  0
LINE
  8
0
 62
     0
 10
246.225
 20
25.1988
 30
0.0
 11
246.337
 21
25.0142
 31
0.0
  0
LINE
  8
0
 62
     0
 10
246.337
 20
25.0142
 30
0.0
 11
246.119
 21
25.1671
 31
0.0
  0
LINE
  8
0
 62
     0
 10
246.119
 20
25.1671
 30
0.0
 11
245.466
 21
25.6219
 31
0.0
  0
LINE
  8
0
 62
     0
 10
245.466
 20
25.6219
 30
0.0
 11
244.7
 21
26.1014
 31
0.0
  0
LINE
  8
0
 62
     0
 10
244.7
 20
26.1014
 30
0.0
 11
244.005
 21
26.3922
 31
0.0
  0
LINE
  8
0
 62
     0
 10
244.005
 20
26.3922
 30
0.0
 11
243.508
 21
26.4583
 31
0.0
  0
LINE
  8
0
 62
     0
 10
243.508
 20
26.4583
 30
0.0
 11
243.349
 21
26.4335
 31
0.0
  0
LINE
  8
0
 62
     0
 10
243.349
 20
26.4335
 30
0.0
 11
243.2
 21
26.4115
 31
0.0
  0
LINE
  8
0
 62
     0
 10
243.2
 20
26.4115
 30
0.0
 11
242.781
 21
26.1813
 31
0.0
  0
LINE
  8
0
 62
     0
 10
242.781
 20
26.1813
 30
0.0
 11
242.5
 21
25.6866
 31
0.0
  0
LINE
  8
0
 62
     0
 10
242.5
 20
25.6866
 30
0.0
 11
242.5
 21
25.0086
 31
0.0
  0
LINE
  8
0
 62
     0
 10
242.5
 20
25.0086
 30
0.0
 11
242.777
 21
24.2066
 31
0.0
  0
LINE
  8
0
 62
     0
 10
242.777
 20
24.2066
 30
0.0
 11
243.326
 21
23.3398
 31
0.0
  0
LINE
  8
0
 62
     0
 10
243.326
 20
23.3398
 30
0.0
 11
244.14
 21
22.4675
 31
0.0
  0
LINE
  8
0
 62
     0
 10
244.14
 20
22.4675
 30
0.0
 11
245.218
 21
21.6476
 31
0.0
  0
LINE
  8
0
 62
     0
 10
245.218
 20
21.6476
 30
0.0
 11
246.206
 21
21.0881
 31
0.0
  0
LINE
  8
0
 62
     0
 10
246.206
 20
21.0881
 30
0.0
 11
246.552
 21
20.9379
 31
0.0
  0
LINE
  8
0
 62
     0
 10
246.552
 20
20.9379
 30
0.0
 11
246.178
 21
21.2838
 31
0.0
  0
LINE
  8
0
 62
     0
 10
246.178
 20
21.2838
 30
0.0
 11
245.059
 21
22.3242
 31
0.0
  0
LINE
  8
0
 62
     0
 10
245.059
 20
22.3242
 30
0.0
 11
244.027
 21
23.4652
 31
0.0
  0
LINE
  8
0
 62
     0
 10
244.027
 20
23.4652
 30
0.0
 11
243.517
 21
24.5635
 31
0.0
  0
LINE
  8
0
 62
     0
 10
243.517
 20
24.5635
 30
0.0
 11
243.512
 21
25.5254
 31
0.0
  0
LINE
  8
0
 62
     0
 10
243.512
 20
25.5254
 30
0.0
 11
243.594
 21
25.8217
 31
0.0
  0
LINE
  8
0
 62
     0
 10
243.594
 20
25.8217
 30
0.0
 11
243.667
 21
25.8727
 31
0.0
  0
LINE
  8
0
 62
     0
 10
243.667
 20
25.8727
 30
0.0
 11
243.978
 21
25.8933
 31
0.0
  0
LINE
  8
0
 62
     0
 10
243.978
 20
25.8933
 30
0.0
 11
244.483
 21
25.7362
 31
0.0
  0
LINE
  8
0
 62
     0
 10
244.483
 20
25.7362
 30
0.0
 11
245.059
 21
25.4165
 31
0.0
  0
LINE
  8
0
 62
     0
 10
245.059
 20
25.4165
 30
0.0
 11
245.653
 21
24.999
 31
0.0
  0
LINE
  8
0
 62
     0
 10
245.653
 20
24.999
 30
0.0
 11
246.211
 21
24.547
 31
0.0
  0
LINE
  8
0
 62
     0
 10
246.211
 20
24.547
 30
0.0
 11
246.684
 21
24.1267
 31
0.0
  0
LINE
  8
0
 62
     0
 10
246.684
 20
24.1267
 30
0.0
 11
247.017
 21
23.8015
 31
0.0
  0
LINE
  8
0
 62
     0
 10
247.017
 20
23.8015
 30
0.0
 11
247.142
 21
23.6788
 31
0.0
  0
LINE
  8
0
 62
     0
 10
247.142
 20
23.6788
 30
0.0
 11
247.162
 21
23.6361
 31
0.0
  0
LINE
  8
0
 62
     0
 10
247.162
 20
23.6361
 30
0.0
 11
247.162
 21
23.6361
 31
0.0
  0
LINE
  8
0
 62
     0
 10
247.162
 20
23.6361
 30
0.0
 11
247.104
 21
23.7863
 31
0.0
  0
LINE
  8
0
 62
     0
 10
247.104
 20
23.7863
 30
0.0
 11
246.972
 21
24.1887
 31
0.0
  0
LINE
  8
0
 62
     0
 10
246.972
 20
24.1887
 30
0.0
 11
246.823
 21
24.7744
 31
0.0
  0
LINE
  8
0
 62
     0
 10
246.823
 20
24.7744
 30
0.0
 11
246.717
 21
25.4717
 31
0.0
  0
LINE
  8
0
 62
     0
 10
246.717
 20
25.4717
 30
0.0
 11
246.712
 21
26.2103
 31
0.0
  0
LINE
  8
0
 62
     0
 10
246.712
 20
26.2103
 30
0.0
 11
246.867
 21
26.9214
 31
0.0
  0
LINE
  8
0
 62
     0
 10
246.867
 20
26.9214
 30
0.0
 11
247.242
 21
27.5332
 31
0.0
  0
LINE
  8
0
 62
     0
 10
247.242
 20
27.5332
 30
0.0
 11
247.717
 21
27.9025
 31
0.0
  0
LINE
  8
0
 62
     0
 10
247.717
 20
27.9025
 30
0.0
 11
247.897
 21
27.9756
 31
0.0
  0
LINE
  8
0
 62
     0
 10
247.897
 20
27.9756
 30
0.0
 11
248.044
 21
28.021
 31
0.0
  0
LINE
  8
0
 62
     0
 10
248.044
 20
28.021
 30
0.0
 11
248.531
 21
28.0169
 31
0.0
  0
LINE
  8
0
 62
     0
 10
248.531
 20
28.0169
 30
0.0
 11
249.067
 21
27.7247
 31
0.0
  0
LINE
  8
0
 62
     0
 10
249.067
 20
27.7247
 30
0.0
 11
249.496
 21
27.1143
 31
0.0
  0
LINE
  8
0
 62
     0
 10
249.496
 20
27.1143
 30
0.0
 11
249.757
 21
26.4294
 31
0.0
  0
LINE
  8
0
 62
     0
 10
249.757
 20
26.4294
 30
0.0
 11
249.815
 21
26.1938
 31
0.0
  0
LINE
  8
0
 62
     0
 10
249.815
 20
26.1938
 30
0.0
 11
249.969
 21
25.586
 31
0.0
  0
LINE
  8
0
 62
     0
 10
249.969
 20
25.586
 30
0.0
 11
249.961
 21
23.6389
 31
0.0
  0
LINE
  8
0
 62
     0
 10
249.961
 20
23.6389
 30
0.0
 11
249.236
 21
21.3031
 31
0.0
  0
LINE
  8
0
 62
     0
 10
249.236
 20
21.3031
 30
0.0
 11
247.905
 21
19.2967
 31
0.0
  0
LINE
  8
0
 62
     0
 10
247.905
 20
19.2967
 30
0.0
 11
246.692
 21
18.0702
 31
0.0
  0
LINE
  8
0
 62
     0
 10
246.692
 20
18.0702
 30
0.0
 11
246.237
 21
17.7285
 31
0.0
  0
LINE
  8
0
 62
     0
 10
246.237
 20
17.7285
 30
0.0
 11
245.655
 21
17.2916
 31
0.0
  0
LINE
  8
0
 62
     0
 10
245.655
 20
17.2916
 30
0.0
 11
242.692
 21
15.7951
 31
0.0
  0
LINE
  8
0
 62
     0
 10
242.692
 20
15.7951
 30
0.0
 11
239.723
 21
15.1102
 31
0.0
  0
LINE
  8
0
 62
     0
 10
239.723
 20
15.1102
 30
0.0
 11
239.138
 21
15.0799
 31
0.0
  0
LINE
  8
0
 62
     0
 10
239.138
 20
15.0799
 30
0.0
 11
239.059
 21
15.073
 31
0.0
  0
LINE
  8
0
 62
     0
 10
239.059
 20
15.073
 30
0.0
 11
238.419
 21
15.0496
 31
0.0
  0
LINE
  8
0
 62
     0
 10
238.419
 20
15.0496
 30
0.0
 11
238.205
 21
15.0496
 31
0.0
  0
LINE
  8
0
 62
     0
 10
238.205
 20
15.0496
 30
0.0
 11
237.972
 21
15.0496
 31
0.0
  0
LINE
  8
0
 62
     0
 10
237.972
 20
15.0496
 30
0.0
 11
237.273
 21
15.0854
 31
0.0
  0
LINE
  8
0
 62
     0
 10
237.273
 20
15.0854
 30
0.0
 11
236.426
 21
15.1984
 31
0.0
  0
LINE
  8
0
 62
     0
 10
236.426
 20
15.1984
 30
0.0
 11
235.674
 21
15.4079
 31
0.0
  0
LINE
  8
0
 62
     0
 10
235.674
 20
15.4079
 30
0.0
 11
235.029
 21
15.7262
 31
0.0
  0
LINE
  8
0
 62
     0
 10
235.029
 20
15.7262
 30
0.0
 11
234.505
 21
16.1685
 31
0.0
  0
LINE
  8
0
 62
     0
 10
234.505
 20
16.1685
 30
0.0
 11
234.116
 21
16.7528
 31
0.0
  0
LINE
  8
0
 62
     0
 10
234.116
 20
16.7528
 30
0.0
 11
233.872
 21
17.4928
 31
0.0
  0
LINE
  8
0
 62
     0
 10
233.872
 20
17.4928
 30
0.0
 11
233.79
 21
18.1749
 31
0.0
  0
LINE
  8
0
 62
     0
 10
233.79
 20
18.1749
 30
0.0
 11
233.79
 21
18.4023
 31
0.0
  0
LINE
  8
0
 62
     0
 10
233.79
 20
18.4023
 30
0.0
 11
233.79
 21
19.0693
 31
0.0
  0
LINE
  8
0
 62
     0
 10
233.79
 20
19.0693
 30
0.0
 11
234.283
 21
21.0688
 31
0.0
  0
LINE
  8
0
 62
     0
 10
234.283
 20
21.0688
 30
0.0
 11
235.321
 21
23.7188
 31
0.0
  0
LINE
  8
0
 62
     0
 10
235.321
 20
23.7188
 30
0.0
 11
235.593
 21
24.27
 31
0.0
  0
LINE
  8
0
 62
     0
 10
235.593
 20
24.27
 30
0.0
 11
235.931
 21
24.9535
 31
0.0
  0
LINE
  8
0
 62
     0
 10
235.931
 20
24.9535
 30
0.0
 11
237.049
 21
26.9517
 31
0.0
  0
LINE
  8
0
 62
     0
 10
237.049
 20
26.9517
 30
0.0
 11
238.813
 21
29.8083
 31
0.0
  0
LINE
  8
0
 62
     0
 10
238.813
 20
29.8083
 30
0.0
 11
240.758
 21
32.676
 31
0.0
  0
LINE
  8
0
 62
     0
 10
240.758
 20
32.676
 30
0.0
 11
242.761
 21
35.3921
 31
0.0
  0
LINE
  8
0
 62
     0
 10
242.761
 20
35.3921
 30
0.0
 11
244.693
 21
37.7913
 31
0.0
  0
LINE
  8
0
 62
     0
 10
244.693
 20
37.7913
 30
0.0
 11
246.429
 21
39.7083
 31
0.0
  0
LINE
  8
0
 62
     0
 10
246.429
 20
39.7083
 30
0.0
 11
247.843
 21
40.9787
 31
0.0
  0
LINE
  8
0
 62
     0
 10
247.843
 20
40.9787
 30
0.0
 11
248.567
 21
41.4376
 31
0.0
  0
LINE
  8
0
 62
     0
 10
248.567
 20
41.4376
 30
0.0
 11
248.809
 21
41.4376
 31
0.0
  0
LINE
  8
0
 62
     0
 10
248.809
 20
41.4376
 30
0.0
 11
248.907
 21
41.4376
 31
0.0
  0
LINE
  8
0
 62
     0
 10
248.907
 20
41.4376
 30
0.0
 11
249.202
 21
41.3921
 31
0.0
  0
LINE
  8
0
 62
     0
 10
249.202
 20
41.3921
 30
0.0
 11
249.563
 21
41.1593
 31
0.0
  0
LINE
  8
0
 62
     0
 10
249.563
 20
41.1593
 30
0.0
 11
249.618
 21
41.0654
 31
0.0
  0
LINE
  8
0
 62
     0
 10
249.618
 20
41.0654
 30
0.0
 11
249.63
 21
41.2447
 31
0.0
  0
LINE
  8
0
 62
     0
 10
249.63
 20
41.2447
 30
0.0
 11
249.382
 21
41.8042
 31
0.0
  0
LINE
  8
0
 62
     0
 10
249.382
 20
41.8042
 30
0.0
 11
248.743
 21
42.642
 31
0.0
  0
LINE
  8
0
 62
     0
 10
248.743
 20
42.642
 30
0.0
 11
247.934
 21
43.3268
 31
0.0
  0
LINE
  8
0
 62
     0
 10
247.934
 20
43.3268
 30
0.0
 11
247.377
 21
43.6107
 31
0.0
  0
LINE
  8
0
 62
     0
 10
247.377
 20
43.6107
 30
0.0
 11
247.192
 21
43.6107
 31
0.0
  0
LINE
  8
0
 62
     0
 10
247.192
 20
43.6107
 30
0.0
 11
246.826
 21
43.6107
 31
0.0
  0
LINE
  8
0
 62
     0
 10
246.826
 20
43.6107
 30
0.0
 11
245.731
 21
43.1588
 31
0.0
  0
LINE
  8
0
 62
     0
 10
245.731
 20
43.1588
 30
0.0
 11
243.382
 21
41.8924
 31
0.0
  0
LINE
  8
0
 62
     0
 10
243.382
 20
41.8924
 30
0.0
 11
240.368
 21
39.944
 31
0.0
  0
LINE
  8
0
 62
     0
 10
240.368
 20
39.944
 30
0.0
 11
236.911
 21
37.4495
 31
0.0
  0
LINE
  8
0
 62
     0
 10
236.911
 20
37.4495
 30
0.0
 11
233.229
 21
34.5405
 31
0.0
  0
LINE
  8
0
 62
     0
 10
233.229
 20
34.5405
 30
0.0
 11
229.547
 21
31.3531
 31
0.0
  0
LINE
  8
0
 62
     0
 10
229.547
 20
31.3531
 30
0.0
 11
226.084
 21
28.0197
 31
0.0
  0
LINE
  8
0
 62
     0
 10
226.084
 20
28.0197
 30
0.0
 11
223.778
 21
25.5419
 31
0.0
  0
LINE
  8
0
 62
     0
 10
223.778
 20
25.5419
 30
0.0
 11
223.062
 21
24.6738
 31
0.0
  0
LINE
  8
0
 62
     0
 10
223.062
 20
24.6738
 30
0.0
 11
223.489
 21
25.2332
 31
0.0
  0
LINE
  8
0
 62
     0
 10
223.489
 20
25.2332
 30
0.0
 11
224.761
 21
26.9227
 31
0.0
  0
LINE
  8
0
 62
     0
 10
224.761
 20
26.9227
 30
0.0
 11
226.609
 21
29.4418
 31
0.0
  0
LINE
  8
0
 62
     0
 10
226.609
 20
29.4418
 30
0.0
 11
228.491
 21
32.1069
 31
0.0
  0
LINE
  8
0
 62
     0
 10
228.491
 20
32.1069
 30
0.0
 11
230.291
 21
34.7982
 31
0.0
  0
LINE
  8
0
 62
     0
 10
230.291
 20
34.7982
 30
0.0
 11
231.892
 21
37.393
 31
0.0
  0
LINE
  8
0
 62
     0
 10
231.892
 20
37.393
 30
0.0
 11
233.179
 21
39.7662
 31
0.0
  0
LINE
  8
0
 62
     0
 10
233.179
 20
39.7662
 30
0.0
 11
234.036
 21
41.7971
 31
0.0
  0
LINE
  8
0
 62
     0
 10
234.036
 20
41.7971
 30
0.0
 11
234.349
 21
42.9715
 31
0.0
  0
LINE
  8
0
 62
     0
 10
234.349
 20
42.9715
 30
0.0
 11
234.349
 21
43.3627
 31
0.0
  0
LINE
  8
0
 62
     0
 10
234.349
 20
43.3627
 30
0.0
 11
234.349
 21
43.79
 31
0.0
  0
LINE
  8
0
 62
     0
 10
234.349
 20
43.79
 30
0.0
 11
234.054
 21
45.0674
 31
0.0
  0
LINE
  8
0
 62
     0
 10
234.054
 20
45.0674
 30
0.0
 11
233.186
 21
46.3367
 31
0.0
  0
LINE
  8
0
 62
     0
 10
233.186
 20
46.3367
 30
0.0
 11
231.764
 21
47.1276
 31
0.0
  0
LINE
  8
0
 62
     0
 10
231.764
 20
47.1276
 30
0.0
 11
230.297
 21
47.3989
 31
0.0
  0
LINE
  8
0
 62
     0
 10
230.297
 20
47.3989
 30
0.0
 11
229.809
 21
47.3989
 31
0.0
  0
LINE
  8
0
 62
     0
 10
217.055
 20
23.7036
 30
0.0
 11
217.606
 21
23.7036
 31
0.0
  0
LINE
  8
0
 62
     0
 10
217.606
 20
23.7036
 30
0.0
 11
219.092
 21
23.5493
 31
0.0
  0
LINE
  8
0
 62
     0
 10
219.092
 20
23.5493
 30
0.0
 11
219.262
 21
23.5176
 31
0.0
  0
LINE
  8
0
 62
     0
 10
219.262
 20
23.5176
 30
0.0
 11
218.744
 21
22.8713
 31
0.0
  0
LINE
  8
0
 62
     0
 10
218.744
 20
22.8713
 30
0.0
 11
217.069
 21
21.0275
 31
0.0
  0
LINE
  8
0
 62
     0
 10
217.069
 20
21.0275
 30
0.0
 11
214.446
 21
18.4809
 31
0.0
  0
LINE
  8
0
 62
     0
 10
214.446
 20
18.4809
 30
0.0
 11
211.521
 21
15.9949
 31
0.0
  0
LINE
  8
0
 62
     0
 10
211.521
 20
15.9949
 30
0.0
 11
208.421
 21
13.6922
 31
0.0
  0
LINE
  8
0
 62
     0
 10
208.421
 20
13.6922
 30
0.0
 11
205.273
 21
11.6926
 31
0.0
  0
LINE
  8
0
 62
     0
 10
205.273
 20
11.6926
 30
0.0
 11
202.204
 21
10.1162
 31
0.0
  0
LINE
  8
0
 62
     0
 10
202.204
 20
10.1162
 30
0.0
 11
199.34
 21
9.08128
 31
0.0
  0
LINE
  8
0
 62
     0
 10
199.34
 20
9.08128
 30
0.0
 11
197.443
 21
8.7092
 31
0.0
  0
LINE
  8
0
 62
     0
 10
197.443
 20
8.7092
 30
0.0
 11
196.812
 21
8.7092
 31
0.0
  0
LINE
  8
0
 62
     0
 10
196.812
 20
8.7092
 30
0.0
 11
196.606
 21
8.7092
 31
0.0
  0
LINE
  8
0
 62
     0
 10
196.606
 20
8.7092
 30
0.0
 11
195.99
 21
8.80981
 31
0.0
  0
LINE
  8
0
 62
     0
 10
195.99
 20
8.80981
 30
0.0
 11
195.302
 21
9.11712
 31
0.0
  0
LINE
  8
0
 62
     0
 10
195.302
 20
9.11712
 30
0.0
 11
194.826
 21
9.63937
 31
0.0
  0
LINE
  8
0
 62
     0
 10
194.826
 20
9.63937
 30
0.0
 11
194.638
 21
10.1989
 31
0.0
  0
LINE
  8
0
 62
     0
 10
194.638
 20
10.1989
 30
0.0
 11
194.634
 21
10.3863
 31
0.0
  0
LINE
  8
0
 62
     0
 10
194.634
 20
10.3863
 30
0.0
 11
194.624
 21
10.9816
 31
0.0
  0
LINE
  8
0
 62
     0
 10
194.624
 20
10.9816
 30
0.0
 11
195.211
 21
12.7772
 31
0.0
  0
LINE
  8
0
 62
     0
 10
195.211
 20
12.7772
 30
0.0
 11
196.869
 21
15.1391
 31
0.0
  0
LINE
  8
0
 62
     0
 10
196.869
 20
15.1391
 30
0.0
 11
199.383
 21
17.3839
 31
0.0
  0
LINE
  8
0
 62
     0
 10
199.383
 20
17.3839
 30
0.0
 11
202.533
 21
19.4207
 31
0.0
  0
LINE
  8
0
 62
     0
 10
202.533
 20
19.4207
 30
0.0
 11
206.095
 21
21.1598
 31
0.0
  0
LINE
  8
0
 62
     0
 10
206.095
 20
21.1598
 30
0.0
 11
209.852
 21
22.5144
 31
0.0
  0
LINE
  8
0
 62
     0
 10
209.852
 20
22.5144
 30
0.0
 11
213.578
 21
23.3922
 31
0.0
  0
LINE
  8
0
 62
     0
 10
213.578
 20
23.3922
 30
0.0
 11
216.185
 21
23.7036
 31
0.0
  0
LINE
  8
0
 62
     0
 10
216.185
 20
23.7036
 30
0.0
 11
217.055
 21
23.7036
 31
0.0
  0
ENDSEC
  0
EOF
