  0
SECTION
  2
HEADER
  9
$ACADVER
  1
AC1009
  9
$EXTMIN
 10
0.0
 20
0.0
 30
0.0
  9
$EXTMAX
 10
1000.0
 20
1000.0
 30
0.0
  9
$FILLMODE
 70
 0
  9
$SPLFRAME
 70
 1
  0
ENDSEC
  0
SECTION
  2
TABLES
  0
TABLE
  2
LAYER
 70
1
  0
LAYER
  2
0
 70
     0
 62
     7
  6
CONTINUOUS
  0
ENDTAB
  0
ENDSEC
  0
SECTION
  2
ENTITIES
  0
LINE
  8
0
 62
     1
 10
174.975
 20
26.9751
 30
0.0
 11
174.975
 21
39.0095
 31
0.0
  0
LINE
  8
0
 62
     1
 10
174.975
 20
39.0095
 30
0.0
 11
178.175
 21
39.0095
 31
0.0
  0
LINE
  8
0
 62
     1
 10
178.175
 20
39.0095
 30
0.0
 11
178.175
 21
54.4064
 31
0.0
  0
LINE
  8
0
 62
     1
 10
178.175
 20
54.4064
 30
0.0
 11
174.975
 21
54.4064
 31
0.0
  0
LINE
  8
0
 62
     1
 10
174.975
 20
54.4064
 30
0.0
 11
174.975
 21
66.4408
 31
0.0
  0
LINE
  8
0
 62
     1
 10
174.975
 20
66.4408
 30
0.0
 11
163.377
 21
66.4408
 31
0.0
  0
LINE
  8
0
 62
     1
 10
163.377
 20
66.4408
 30
0.0
 11
163.377
 21
69.6419
 31
0.0
  0
LINE
  8
0
 62
     1
 10
163.377
 20
69.6419
 30
0.0
 11
58.4094
 21
69.6419
 31
0.0
  0
LINE
  8
0
 62
     1
 10
58.4094
 20
69.6419
 30
0.0
 11
58.4094
 21
66.4408
 31
0.0
  0
LINE
  8
0
 62
     1
 10
58.4094
 20
66.4408
 30
0.0
 11
46.8644
 21
66.4408
 31
0.0
  0
LINE
  8
0
 62
     1
 10
46.8644
 20
66.4408
 30
0.0
 11
46.8644
 21
69.6419
 31
0.0
  0
LINE
  8
0
 62
     1
 10
46.8644
 20
69.6419
 30
0.0
 11
35.1069
 21
69.6419
 31
0.0
  0
LINE
  8
0
 62
     1
 10
35.1069
 20
69.6419
 30
0.0
 11
35.1069
 21
66.4408
 31
0.0
  0
LINE
  8
0
 62
     1
 10
35.1069
 20
66.4408
 30
0.0
 11
23.5079
 21
66.4408
 31
0.0
  0
LINE
  8
0
 62
     1
 10
23.5079
 20
66.4408
 30
0.0
 11
23.5079
 21
54.4064
 31
0.0
  0
LINE
  8
0
 62
     1
 10
23.5079
 20
54.4064
 30
0.0
 11
20.3081
 21
54.4064
 31
0.0
  0
LINE
  8
0
 62
     1
 10
20.3081
 20
54.4064
 30
0.0
 11
20.3081
 21
39.0095
 31
0.0
  0
LINE
  8
0
 62
     1
 10
20.3081
 20
39.0095
 30
0.0
 11
23.5079
 21
39.0095
 31
0.0
  0
LINE
  8
0
 62
     1
 10
23.5079
 20
39.0095
 30
0.0
 11
23.5079
 21
26.9751
 31
0.0
  0
LINE
  8
0
 62
     1
 10
23.5079
 20
26.9751
 30
0.0
 11
35.1069
 21
26.9751
 31
0.0
  0
LINE
  8
0
 62
     1
 10
35.1069
 20
26.9751
 30
0.0
 11
35.1069
 21
23.7753
 31
0.0
  0
LINE
  8
0
 62
     1
 10
35.1069
 20
23.7753
 30
0.0
 11
46.8644
 21
23.7753
 31
0.0
  0
LINE
  8
0
 62
     1
 10
46.8644
 20
23.7753
 30
0.0
 11
46.8644
 21
26.9751
 31
0.0
  0
LINE
  8
0
 62
     1
 10
46.8644
 20
26.9751
 30
0.0
 11
58.4094
 21
26.9751
 31
0.0
  0
LINE
  8
0
 62
     1
 10
58.4094
 20
26.9751
 30
0.0
 11
58.4094
 21
23.7753
 31
0.0
  0
LINE
  8
0
 62
     1
 10
58.4094
 20
23.7753
 30
0.0
 11
70.1668
 21
23.7753
 31
0.0
  0
LINE
  8
0
 62
     1
 10
70.1668
 20
23.7753
 30
0.0
 11
70.1668
 21
26.9751
 31
0.0
  0
LINE
  8
0
 62
     1
 10
70.1668
 20
26.9751
 30
0.0
 11
81.7107
 21
26.9751
 31
0.0
  0
LINE
  8
0
 62
     1
 10
81.7107
 20
26.9751
 30
0.0
 11
81.7107
 21
23.7753
 31
0.0
  0
LINE
  8
0
 62
     1
 10
81.7107
 20
23.7753
 30
0.0
 11
93.4695
 21
23.7753
 31
0.0
  0
LINE
  8
0
 62
     1
 10
93.4695
 20
23.7753
 30
0.0
 11
93.4695
 21
26.9751
 31
0.0
  0
LINE
  8
0
 62
     1
 10
93.4695
 20
26.9751
 30
0.0
 11
105.013
 21
26.9751
 31
0.0
  0
LINE
  8
0
 62
     1
 10
105.013
 20
26.9751
 30
0.0
 11
105.013
 21
23.7753
 31
0.0
  0
LINE
  8
0
 62
     1
 10
105.013
 20
23.7753
 30
0.0
 11
116.772
 21
23.7753
 31
0.0
  0
LINE
  8
0
 62
     1
 10
116.772
 20
23.7753
 30
0.0
 11
116.772
 21
26.9751
 31
0.0
  0
LINE
  8
0
 62
     1
 10
116.772
 20
26.9751
 30
0.0
 11
128.316
 21
26.9751
 31
0.0
  0
LINE
  8
0
 62
     1
 10
128.316
 20
26.9751
 30
0.0
 11
128.316
 21
23.7753
 31
0.0
  0
LINE
  8
0
 62
     1
 10
128.316
 20
23.7753
 30
0.0
 11
140.075
 21
23.7753
 31
0.0
  0
LINE
  8
0
 62
     1
 10
140.075
 20
23.7753
 30
0.0
 11
140.075
 21
26.9751
 31
0.0
  0
LINE
  8
0
 62
     1
 10
140.075
 20
26.9751
 30
0.0
 11
151.619
 21
26.9751
 31
0.0
  0
LINE
  8
0
 62
     1
 10
151.619
 20
26.9751
 30
0.0
 11
151.619
 21
23.7753
 31
0.0
  0
LINE
  8
0
 62
     1
 10
151.619
 20
23.7753
 30
0.0
 11
163.377
 21
23.7753
 31
0.0
  0
LINE
  8
0
 62
     1
 10
163.377
 20
23.7753
 30
0.0
 11
163.377
 21
26.9751
 31
0.0
  0
LINE
  8
0
 62
     1
 10
163.377
 20
26.9751
 30
0.0
 11
174.975
 21
26.9751
 31
0.0
  0
LINE
  8
0
 62
     1
 10
1.06936
 20
164.546
 30
0.0
 11
12.8557
 21
164.546
 31
0.0
  0
LINE
  8
0
 62
     1
 10
12.8557
 20
164.546
 30
0.0
 11
12.8557
 21
161.346
 31
0.0
  0
LINE
  8
0
 62
     1
 10
12.8557
 20
161.346
 30
0.0
 11
24.4822
 21
161.346
 31
0.0
  0
LINE
  8
0
 62
     1
 10
24.4822
 20
161.346
 30
0.0
 11
24.4822
 21
164.546
 31
0.0
  0
LINE
  8
0
 62
     1
 10
24.4822
 20
164.546
 30
0.0
 11
36.3224
 21
164.546
 31
0.0
  0
LINE
  8
0
 62
     1
 10
36.3224
 20
164.546
 30
0.0
 11
36.3224
 21
161.346
 31
0.0
  0
LINE
  8
0
 62
     1
 10
36.3224
 20
161.346
 30
0.0
 11
47.9488
 21
161.346
 31
0.0
  0
LINE
  8
0
 62
     1
 10
47.9488
 20
161.346
 30
0.0
 11
47.9488
 21
164.546
 31
0.0
  0
LINE
  8
0
 62
     1
 10
47.9488
 20
164.546
 30
0.0
 11
59.7888
 21
164.546
 31
0.0
  0
LINE
  8
0
 62
     1
 10
59.7888
 20
164.546
 30
0.0
 11
59.7888
 21
161.346
 31
0.0
  0
LINE
  8
0
 62
     1
 10
59.7888
 20
161.346
 30
0.0
 11
71.4156
 21
161.346
 31
0.0
  0
LINE
  8
0
 62
     1
 10
71.4156
 20
161.346
 30
0.0
 11
71.4156
 21
164.546
 31
0.0
  0
LINE
  8
0
 62
     1
 10
71.4156
 20
164.546
 30
0.0
 11
83.2556
 21
164.546
 31
0.0
  0
LINE
  8
0
 62
     1
 10
83.2556
 20
164.546
 30
0.0
 11
83.2556
 21
161.346
 31
0.0
  0
LINE
  8
0
 62
     1
 10
83.2556
 20
161.346
 30
0.0
 11
94.8821
 21
161.346
 31
0.0
  0
LINE
  8
0
 62
     1
 10
94.8821
 20
161.346
 30
0.0
 11
94.8821
 21
164.546
 31
0.0
  0
LINE
  8
0
 62
     1
 10
94.8821
 20
164.546
 30
0.0
 11
106.722
 21
164.546
 31
0.0
  0
LINE
  8
0
 62
     1
 10
106.722
 20
164.546
 30
0.0
 11
106.722
 21
161.346
 31
0.0
  0
LINE
  8
0
 62
     1
 10
106.722
 20
161.346
 30
0.0
 11
118.349
 21
161.346
 31
0.0
  0
LINE
  8
0
 62
     1
 10
118.349
 20
161.346
 30
0.0
 11
118.349
 21
164.546
 31
0.0
  0
LINE
  8
0
 62
     1
 10
118.349
 20
164.546
 30
0.0
 11
130.189
 21
164.546
 31
0.0
  0
LINE
  8
0
 62
     1
 10
130.189
 20
164.546
 30
0.0
 11
130.189
 21
161.346
 31
0.0
  0
LINE
  8
0
 62
     1
 10
130.189
 20
161.346
 30
0.0
 11
141.815
 21
161.346
 31
0.0
  0
LINE
  8
0
 62
     1
 10
141.815
 20
161.346
 30
0.0
 11
141.815
 21
164.546
 31
0.0
  0
LINE
  8
0
 62
     1
 10
141.815
 20
164.546
 30
0.0
 11
153.656
 21
164.546
 31
0.0
  0
LINE
  8
0
 62
     1
 10
153.656
 20
164.546
 30
0.0
 11
153.656
 21
161.346
 31
0.0
  0
LINE
  8
0
 62
     1
 10
153.656
 20
161.346
 30
0.0
 11
165.282
 21
161.346
 31
0.0
  0
LINE
  8
0
 62
     1
 10
165.282
 20
161.346
 30
0.0
 11
165.282
 21
164.546
 31
0.0
  0
LINE
  8
0
 62
     1
 10
165.282
 20
164.546
 30
0.0
 11
177.07
 21
164.546
 31
0.0
  0
LINE
  8
0
 62
     1
 10
177.07
 20
164.546
 30
0.0
 11
177.07
 21
149.203
 31
0.0
  0
LINE
  8
0
 62
     1
 10
177.07
 20
149.203
 30
0.0
 11
173.87
 21
149.203
 31
0.0
  0
LINE
  8
0
 62
     1
 10
173.87
 20
149.203
 30
0.0
 11
173.87
 21
134.021
 31
0.0
  0
LINE
  8
0
 62
     1
 10
173.87
 20
134.021
 30
0.0
 11
177.07
 21
134.021
 31
0.0
  0
LINE
  8
0
 62
     1
 10
177.07
 20
134.021
 30
0.0
 11
177.07
 21
118.679
 31
0.0
  0
LINE
  8
0
 62
     1
 10
177.07
 20
118.679
 30
0.0
 11
165.282
 21
118.679
 31
0.0
  0
LINE
  8
0
 62
     1
 10
165.282
 20
118.679
 30
0.0
 11
165.282
 21
121.879
 31
0.0
  0
LINE
  8
0
 62
     1
 10
165.282
 20
121.879
 30
0.0
 11
153.656
 21
121.879
 31
0.0
  0
LINE
  8
0
 62
     1
 10
153.656
 20
121.879
 30
0.0
 11
153.656
 21
118.679
 31
0.0
  0
LINE
  8
0
 62
     1
 10
153.656
 20
118.679
 30
0.0
 11
141.815
 21
118.679
 31
0.0
  0
LINE
  8
0
 62
     1
 10
141.815
 20
118.679
 30
0.0
 11
141.815
 21
121.879
 31
0.0
  0
LINE
  8
0
 62
     1
 10
141.815
 20
121.879
 30
0.0
 11
130.189
 21
121.879
 31
0.0
  0
LINE
  8
0
 62
     1
 10
130.189
 20
121.879
 30
0.0
 11
130.189
 21
118.679
 31
0.0
  0
LINE
  8
0
 62
     1
 10
130.189
 20
118.679
 30
0.0
 11
118.349
 21
118.679
 31
0.0
  0
LINE
  8
0
 62
     1
 10
118.349
 20
118.679
 30
0.0
 11
118.349
 21
121.879
 31
0.0
  0
LINE
  8
0
 62
     1
 10
118.349
 20
121.879
 30
0.0
 11
106.722
 21
121.879
 31
0.0
  0
LINE
  8
0
 62
     1
 10
106.722
 20
121.879
 30
0.0
 11
106.722
 21
118.679
 31
0.0
  0
LINE
  8
0
 62
     1
 10
106.722
 20
118.679
 30
0.0
 11
94.8821
 21
118.679
 31
0.0
  0
LINE
  8
0
 62
     1
 10
94.8821
 20
118.679
 30
0.0
 11
94.8821
 21
121.879
 31
0.0
  0
LINE
  8
0
 62
     1
 10
94.8821
 20
121.879
 30
0.0
 11
83.2556
 21
121.879
 31
0.0
  0
LINE
  8
0
 62
     1
 10
83.2556
 20
121.879
 30
0.0
 11
83.2556
 21
118.679
 31
0.0
  0
LINE
  8
0
 62
     1
 10
83.2556
 20
118.679
 30
0.0
 11
71.4156
 21
118.679
 31
0.0
  0
LINE
  8
0
 62
     1
 10
71.4156
 20
118.679
 30
0.0
 11
71.4156
 21
121.879
 31
0.0
  0
LINE
  8
0
 62
     1
 10
71.4156
 20
121.879
 30
0.0
 11
59.7888
 21
121.879
 31
0.0
  0
LINE
  8
0
 62
     1
 10
59.7888
 20
121.879
 30
0.0
 11
59.7888
 21
118.679
 31
0.0
  0
LINE
  8
0
 62
     1
 10
59.7888
 20
118.679
 30
0.0
 11
47.9488
 21
118.679
 31
0.0
  0
LINE
  8
0
 62
     1
 10
47.9488
 20
118.679
 30
0.0
 11
47.9488
 21
121.879
 31
0.0
  0
LINE
  8
0
 62
     1
 10
47.9488
 20
121.879
 30
0.0
 11
36.3224
 21
121.879
 31
0.0
  0
LINE
  8
0
 62
     1
 10
36.3224
 20
121.879
 30
0.0
 11
36.3224
 21
118.679
 31
0.0
  0
LINE
  8
0
 62
     1
 10
36.3224
 20
118.679
 30
0.0
 11
24.4822
 21
118.679
 31
0.0
  0
LINE
  8
0
 62
     1
 10
24.4822
 20
118.679
 30
0.0
 11
24.4822
 21
121.879
 31
0.0
  0
LINE
  8
0
 62
     1
 10
24.4822
 20
121.879
 30
0.0
 11
12.8557
 21
121.879
 31
0.0
  0
LINE
  8
0
 62
     1
 10
12.8557
 20
121.879
 30
0.0
 11
12.8557
 21
118.679
 31
0.0
  0
LINE
  8
0
 62
     1
 10
12.8557
 20
118.679
 30
0.0
 11
1.06936
 21
118.679
 31
0.0
  0
LINE
  8
0
 62
     1
 10
1.06936
 20
118.679
 30
0.0
 11
1.06936
 21
134.021
 31
0.0
  0
LINE
  8
0
 62
     1
 10
1.06936
 20
134.021
 30
0.0
 11
4.26918
 21
134.021
 31
0.0
  0
LINE
  8
0
 62
     1
 10
4.26918
 20
134.021
 30
0.0
 11
4.26918
 21
149.203
 31
0.0
  0
LINE
  8
0
 62
     1
 10
4.26918
 20
149.203
 30
0.0
 11
1.06936
 21
149.203
 31
0.0
  0
LINE
  8
0
 62
     1
 10
1.06936
 20
149.203
 30
0.0
 11
1.06936
 21
164.546
 31
0.0
  0
LINE
  8
0
 62
     1
 10
141.748
 20
142.562
 30
0.0
 11
141.748
 21
141.911
 31
0.0
  0
LINE
  8
0
 62
     1
 10
141.748
 20
141.911
 30
0.0
 11
141.485
 21
139.954
 31
0.0
  0
LINE
  8
0
 62
     1
 10
141.485
 20
139.954
 30
0.0
 11
140.729
 21
137.523
 31
0.0
  0
LINE
  8
0
 62
     1
 10
140.729
 20
137.523
 30
0.0
 11
139.536
 21
135.322
 31
0.0
  0
LINE
  8
0
 62
     1
 10
139.536
 20
135.322
 30
0.0
 11
137.954
 21
133.406
 31
0.0
  0
LINE
  8
0
 62
     1
 10
137.954
 20
133.406
 30
0.0
 11
136.039
 21
131.825
 31
0.0
  0
LINE
  8
0
 62
     1
 10
136.039
 20
131.825
 30
0.0
 11
133.838
 21
130.631
 31
0.0
  0
LINE
  8
0
 62
     1
 10
133.838
 20
130.631
 30
0.0
 11
131.407
 21
129.876
 31
0.0
  0
LINE
  8
0
 62
     1
 10
131.407
 20
129.876
 30
0.0
 11
129.45
 21
129.613
 31
0.0
  0
LINE
  8
0
 62
     1
 10
129.45
 20
129.613
 30
0.0
 11
128.798
 21
129.613
 31
0.0
  0
LINE
  8
0
 62
     1
 10
128.798
 20
129.613
 30
0.0
 11
128.145
 21
129.613
 31
0.0
  0
LINE
  8
0
 62
     1
 10
128.145
 20
129.613
 30
0.0
 11
126.188
 21
129.876
 31
0.0
  0
LINE
  8
0
 62
     1
 10
126.188
 20
129.876
 30
0.0
 11
123.758
 21
130.631
 31
0.0
  0
LINE
  8
0
 62
     1
 10
123.758
 20
130.631
 30
0.0
 11
121.557
 21
131.825
 31
0.0
  0
LINE
  8
0
 62
     1
 10
121.557
 20
131.825
 30
0.0
 11
119.641
 21
133.406
 31
0.0
  0
LINE
  8
0
 62
     1
 10
119.641
 20
133.406
 30
0.0
 11
118.059
 21
135.322
 31
0.0
  0
LINE
  8
0
 62
     1
 10
118.059
 20
135.322
 30
0.0
 11
116.866
 21
137.523
 31
0.0
  0
LINE
  8
0
 62
     1
 10
116.866
 20
137.523
 30
0.0
 11
116.111
 21
139.954
 31
0.0
  0
LINE
  8
0
 62
     1
 10
116.111
 20
139.954
 30
0.0
 11
115.849
 21
141.911
 31
0.0
  0
LINE
  8
0
 62
     1
 10
115.849
 20
141.911
 30
0.0
 11
115.849
 21
142.562
 31
0.0
  0
LINE
  8
0
 62
     1
 10
115.849
 20
142.562
 30
0.0
 11
115.849
 21
143.215
 31
0.0
  0
LINE
  8
0
 62
     1
 10
115.849
 20
143.215
 30
0.0
 11
116.111
 21
145.172
 31
0.0
  0
LINE
  8
0
 62
     1
 10
116.111
 20
145.172
 30
0.0
 11
116.866
 21
147.603
 31
0.0
  0
LINE
  8
0
 62
     1
 10
116.866
 20
147.603
 30
0.0
 11
118.059
 21
149.804
 31
0.0
  0
LINE
  8
0
 62
     1
 10
118.059
 20
149.804
 30
0.0
 11
119.641
 21
151.719
 31
0.0
  0
LINE
  8
0
 62
     1
 10
119.641
 20
151.719
 30
0.0
 11
121.557
 21
153.301
 31
0.0
  0
LINE
  8
0
 62
     1
 10
121.557
 20
153.301
 30
0.0
 11
123.758
 21
154.495
 31
0.0
  0
LINE
  8
0
 62
     1
 10
123.758
 20
154.495
 30
0.0
 11
126.188
 21
155.25
 31
0.0
  0
LINE
  8
0
 62
     1
 10
126.188
 20
155.25
 30
0.0
 11
128.145
 21
155.512
 31
0.0
  0
LINE
  8
0
 62
     1
 10
128.145
 20
155.512
 30
0.0
 11
128.798
 21
155.512
 31
0.0
  0
LINE
  8
0
 62
     1
 10
128.798
 20
155.512
 30
0.0
 11
129.45
 21
155.512
 31
0.0
  0
LINE
  8
0
 62
     1
 10
129.45
 20
155.512
 30
0.0
 11
131.407
 21
155.25
 31
0.0
  0
LINE
  8
0
 62
     1
 10
131.407
 20
155.25
 30
0.0
 11
133.838
 21
154.495
 31
0.0
  0
LINE
  8
0
 62
     1
 10
133.838
 20
154.495
 30
0.0
 11
136.039
 21
153.301
 31
0.0
  0
LINE
  8
0
 62
     1
 10
136.039
 20
153.301
 30
0.0
 11
137.954
 21
151.719
 31
0.0
  0
LINE
  8
0
 62
     1
 10
137.954
 20
151.719
 30
0.0
 11
139.536
 21
149.804
 31
0.0
  0
LINE
  8
0
 62
     1
 10
139.536
 20
149.804
 30
0.0
 11
140.729
 21
147.603
 31
0.0
  0
LINE
  8
0
 62
     1
 10
140.729
 20
147.603
 30
0.0
 11
141.485
 21
145.172
 31
0.0
  0
LINE
  8
0
 62
     1
 10
141.485
 20
145.172
 30
0.0
 11
141.748
 21
143.215
 31
0.0
  0
LINE
  8
0
 62
     1
 10
141.748
 20
143.215
 30
0.0
 11
141.748
 21
142.562
 31
0.0
  0
LINE
  8
0
 62
     1
 10
179.805
 20
208.169
 30
0.0
 11
191.485
 21
208.169
 31
0.0
  0
LINE
  8
0
 62
     1
 10
191.485
 20
208.169
 30
0.0
 11
191.485
 21
211.369
 31
0.0
  0
LINE
  8
0
 62
     1
 10
191.485
 20
211.369
 30
0.0
 11
203.325
 21
211.369
 31
0.0
  0
LINE
  8
0
 62
     1
 10
203.325
 20
211.369
 30
0.0
 11
203.325
 21
208.169
 31
0.0
  0
LINE
  8
0
 62
     1
 10
203.325
 20
208.169
 30
0.0
 11
214.952
 21
208.169
 31
0.0
  0
LINE
  8
0
 62
     1
 10
214.952
 20
208.169
 30
0.0
 11
214.952
 21
211.369
 31
0.0
  0
LINE
  8
0
 62
     1
 10
214.952
 20
211.369
 30
0.0
 11
226.792
 21
211.369
 31
0.0
  0
LINE
  8
0
 62
     1
 10
226.792
 20
211.369
 30
0.0
 11
226.792
 21
208.169
 31
0.0
  0
LINE
  8
0
 62
     1
 10
226.792
 20
208.169
 30
0.0
 11
238.419
 21
208.169
 31
0.0
  0
LINE
  8
0
 62
     1
 10
238.419
 20
208.169
 30
0.0
 11
238.419
 21
211.369
 31
0.0
  0
LINE
  8
0
 62
     1
 10
238.419
 20
211.369
 30
0.0
 11
250.259
 21
211.369
 31
0.0
  0
LINE
  8
0
 62
     1
 10
250.259
 20
211.369
 30
0.0
 11
250.259
 21
208.169
 31
0.0
  0
LINE
  8
0
 62
     1
 10
250.259
 20
208.169
 30
0.0
 11
261.885
 21
208.169
 31
0.0
  0
LINE
  8
0
 62
     1
 10
261.885
 20
208.169
 30
0.0
 11
261.885
 21
211.369
 31
0.0
  0
LINE
  8
0
 62
     1
 10
261.885
 20
211.369
 30
0.0
 11
273.725
 21
211.369
 31
0.0
  0
LINE
  8
0
 62
     1
 10
273.725
 20
211.369
 30
0.0
 11
273.725
 21
208.169
 31
0.0
  0
LINE
  8
0
 62
     1
 10
273.725
 20
208.169
 30
0.0
 11
285.352
 21
208.169
 31
0.0
  0
LINE
  8
0
 62
     1
 10
285.352
 20
208.169
 30
0.0
 11
285.352
 21
211.369
 31
0.0
  0
LINE
  8
0
 62
     1
 10
285.352
 20
211.369
 30
0.0
 11
297.192
 21
211.369
 31
0.0
  0
LINE
  8
0
 62
     1
 10
297.192
 20
211.369
 30
0.0
 11
297.192
 21
208.169
 31
0.0
  0
LINE
  8
0
 62
     1
 10
297.192
 20
208.169
 30
0.0
 11
308.818
 21
208.169
 31
0.0
  0
LINE
  8
0
 62
     1
 10
308.818
 20
208.169
 30
0.0
 11
308.818
 21
211.369
 31
0.0
  0
LINE
  8
0
 62
     1
 10
308.818
 20
211.369
 30
0.0
 11
320.658
 21
211.369
 31
0.0
  0
LINE
  8
0
 62
     1
 10
320.658
 20
211.369
 30
0.0
 11
320.658
 21
208.169
 31
0.0
  0
LINE
  8
0
 62
     1
 10
320.658
 20
208.169
 30
0.0
 11
332.285
 21
208.169
 31
0.0
  0
LINE
  8
0
 62
     1
 10
332.285
 20
208.169
 30
0.0
 11
332.285
 21
211.369
 31
0.0
  0
LINE
  8
0
 62
     1
 10
332.285
 20
211.369
 30
0.0
 11
344.125
 21
211.369
 31
0.0
  0
LINE
  8
0
 62
     1
 10
344.125
 20
211.369
 30
0.0
 11
344.125
 21
208.169
 31
0.0
  0
LINE
  8
0
 62
     1
 10
344.125
 20
208.169
 30
0.0
 11
355.805
 21
208.169
 31
0.0
  0
LINE
  8
0
 62
     1
 10
355.805
 20
208.169
 30
0.0
 11
355.805
 21
196.465
 31
0.0
  0
LINE
  8
0
 62
     1
 10
355.805
 20
196.465
 30
0.0
 11
352.606
 21
196.465
 31
0.0
  0
LINE
  8
0
 62
     1
 10
352.606
 20
196.465
 30
0.0
 11
352.606
 21
184.92
 31
0.0
  0
LINE
  8
0
 62
     1
 10
352.606
 20
184.92
 30
0.0
 11
355.805
 21
184.92
 31
0.0
  0
LINE
  8
0
 62
     1
 10
355.805
 20
184.92
 30
0.0
 11
355.805
 21
173.163
 31
0.0
  0
LINE
  8
0
 62
     1
 10
355.805
 20
173.163
 30
0.0
 11
352.606
 21
173.163
 31
0.0
  0
LINE
  8
0
 62
     1
 10
352.606
 20
173.163
 30
0.0
 11
352.606
 21
161.618
 31
0.0
  0
LINE
  8
0
 62
     1
 10
352.606
 20
161.618
 30
0.0
 11
355.805
 21
161.618
 31
0.0
  0
LINE
  8
0
 62
     1
 10
355.805
 20
161.618
 30
0.0
 11
355.805
 21
149.86
 31
0.0
  0
LINE
  8
0
 62
     1
 10
355.805
 20
149.86
 30
0.0
 11
352.606
 21
149.86
 31
0.0
  0
LINE
  8
0
 62
     1
 10
352.606
 20
149.86
 30
0.0
 11
352.606
 21
138.315
 31
0.0
  0
LINE
  8
0
 62
     1
 10
352.606
 20
138.315
 30
0.0
 11
355.805
 21
138.315
 31
0.0
  0
LINE
  8
0
 62
     1
 10
355.805
 20
138.315
 30
0.0
 11
355.805
 21
126.558
 31
0.0
  0
LINE
  8
0
 62
     1
 10
355.805
 20
126.558
 30
0.0
 11
352.606
 21
126.558
 31
0.0
  0
LINE
  8
0
 62
     1
 10
352.606
 20
126.558
 30
0.0
 11
352.606
 21
115.013
 31
0.0
  0
LINE
  8
0
 62
     1
 10
352.606
 20
115.013
 30
0.0
 11
355.805
 21
115.013
 31
0.0
  0
LINE
  8
0
 62
     1
 10
355.805
 20
115.013
 30
0.0
 11
355.805
 21
103.255
 31
0.0
  0
LINE
  8
0
 62
     1
 10
355.805
 20
103.255
 30
0.0
 11
352.606
 21
103.255
 31
0.0
  0
LINE
  8
0
 62
     1
 10
352.606
 20
103.255
 30
0.0
 11
352.606
 21
91.7099
 31
0.0
  0
LINE
  8
0
 62
     1
 10
352.606
 20
91.7099
 30
0.0
 11
355.805
 21
91.7099
 31
0.0
  0
LINE
  8
0
 62
     1
 10
355.805
 20
91.7099
 30
0.0
 11
355.805
 21
79.9525
 31
0.0
  0
LINE
  8
0
 62
     1
 10
355.805
 20
79.9525
 30
0.0
 11
352.606
 21
79.9525
 31
0.0
  0
LINE
  8
0
 62
     1
 10
352.606
 20
79.9525
 30
0.0
 11
352.606
 21
68.4071
 31
0.0
  0
LINE
  8
0
 62
     1
 10
352.606
 20
68.4071
 30
0.0
 11
355.805
 21
68.4071
 31
0.0
  0
LINE
  8
0
 62
     1
 10
355.805
 20
68.4071
 30
0.0
 11
355.805
 21
56.7034
 31
0.0
  0
LINE
  8
0
 62
     1
 10
355.805
 20
56.7034
 30
0.0
 11
344.125
 21
56.7034
 31
0.0
  0
LINE
  8
0
 62
     1
 10
344.125
 20
56.7034
 30
0.0
 11
344.125
 21
53.5023
 31
0.0
  0
LINE
  8
0
 62
     1
 10
344.125
 20
53.5023
 30
0.0
 11
332.285
 21
53.5023
 31
0.0
  0
LINE
  8
0
 62
     1
 10
332.285
 20
53.5023
 30
0.0
 11
332.285
 21
56.7034
 31
0.0
  0
LINE
  8
0
 62
     1
 10
332.285
 20
56.7034
 30
0.0
 11
320.658
 21
56.7034
 31
0.0
  0
LINE
  8
0
 62
     1
 10
320.658
 20
56.7034
 30
0.0
 11
320.658
 21
53.5023
 31
0.0
  0
LINE
  8
0
 62
     1
 10
320.658
 20
53.5023
 30
0.0
 11
308.818
 21
53.5023
 31
0.0
  0
LINE
  8
0
 62
     1
 10
308.818
 20
53.5023
 30
0.0
 11
308.818
 21
56.7034
 31
0.0
  0
LINE
  8
0
 62
     1
 10
308.818
 20
56.7034
 30
0.0
 11
297.192
 21
56.7034
 31
0.0
  0
LINE
  8
0
 62
     1
 10
297.192
 20
56.7034
 30
0.0
 11
297.192
 21
53.5023
 31
0.0
  0
LINE
  8
0
 62
     1
 10
297.192
 20
53.5023
 30
0.0
 11
285.352
 21
53.5023
 31
0.0
  0
LINE
  8
0
 62
     1
 10
285.352
 20
53.5023
 30
0.0
 11
285.352
 21
56.7034
 31
0.0
  0
LINE
  8
0
 62
     1
 10
285.352
 20
56.7034
 30
0.0
 11
273.725
 21
56.7034
 31
0.0
  0
LINE
  8
0
 62
     1
 10
273.725
 20
56.7034
 30
0.0
 11
273.725
 21
53.5023
 31
0.0
  0
LINE
  8
0
 62
     1
 10
273.725
 20
53.5023
 30
0.0
 11
261.885
 21
53.5023
 31
0.0
  0
LINE
  8
0
 62
     1
 10
261.885
 20
53.5023
 30
0.0
 11
261.885
 21
56.7034
 31
0.0
  0
LINE
  8
0
 62
     1
 10
261.885
 20
56.7034
 30
0.0
 11
250.259
 21
56.7034
 31
0.0
  0
LINE
  8
0
 62
     1
 10
250.259
 20
56.7034
 30
0.0
 11
250.259
 21
53.5023
 31
0.0
  0
LINE
  8
0
 62
     1
 10
250.259
 20
53.5023
 30
0.0
 11
238.419
 21
53.5023
 31
0.0
  0
LINE
  8
0
 62
     1
 10
238.419
 20
53.5023
 30
0.0
 11
238.419
 21
56.7034
 31
0.0
  0
LINE
  8
0
 62
     1
 10
238.419
 20
56.7034
 30
0.0
 11
226.792
 21
56.7034
 31
0.0
  0
LINE
  8
0
 62
     1
 10
226.792
 20
56.7034
 30
0.0
 11
226.792
 21
53.5023
 31
0.0
  0
LINE
  8
0
 62
     1
 10
226.792
 20
53.5023
 30
0.0
 11
214.952
 21
53.5023
 31
0.0
  0
LINE
  8
0
 62
     1
 10
214.952
 20
53.5023
 30
0.0
 11
214.952
 21
56.7034
 31
0.0
  0
LINE
  8
0
 62
     1
 10
214.952
 20
56.7034
 30
0.0
 11
203.325
 21
56.7034
 31
0.0
  0
LINE
  8
0
 62
     1
 10
203.325
 20
56.7034
 30
0.0
 11
203.325
 21
53.5023
 31
0.0
  0
LINE
  8
0
 62
     1
 10
203.325
 20
53.5023
 30
0.0
 11
191.485
 21
53.5023
 31
0.0
  0
LINE
  8
0
 62
     1
 10
191.485
 20
53.5023
 30
0.0
 11
191.485
 21
56.7034
 31
0.0
  0
LINE
  8
0
 62
     1
 10
191.485
 20
56.7034
 30
0.0
 11
179.805
 21
56.7034
 31
0.0
  0
LINE
  8
0
 62
     1
 10
179.805
 20
56.7034
 30
0.0
 11
179.805
 21
68.4071
 31
0.0
  0
LINE
  8
0
 62
     1
 10
179.805
 20
68.4071
 30
0.0
 11
183.005
 21
68.4071
 31
0.0
  0
LINE
  8
0
 62
     1
 10
183.005
 20
68.4071
 30
0.0
 11
183.005
 21
79.9525
 31
0.0
  0
LINE
  8
0
 62
     1
 10
183.005
 20
79.9525
 30
0.0
 11
179.805
 21
79.9525
 31
0.0
  0
LINE
  8
0
 62
     1
 10
179.805
 20
79.9525
 30
0.0
 11
179.805
 21
91.7099
 31
0.0
  0
LINE
  8
0
 62
     1
 10
179.805
 20
91.7099
 30
0.0
 11
183.005
 21
91.7099
 31
0.0
  0
LINE
  8
0
 62
     1
 10
183.005
 20
91.7099
 30
0.0
 11
183.005
 21
103.255
 31
0.0
  0
LINE
  8
0
 62
     1
 10
183.005
 20
103.255
 30
0.0
 11
179.805
 21
103.255
 31
0.0
  0
LINE
  8
0
 62
     1
 10
179.805
 20
103.255
 30
0.0
 11
179.805
 21
115.013
 31
0.0
  0
LINE
  8
0
 62
     1
 10
179.805
 20
115.013
 30
0.0
 11
183.005
 21
115.013
 31
0.0
  0
LINE
  8
0
 62
     1
 10
183.005
 20
115.013
 30
0.0
 11
183.005
 21
126.558
 31
0.0
  0
LINE
  8
0
 62
     1
 10
183.005
 20
126.558
 30
0.0
 11
179.805
 21
126.558
 31
0.0
  0
LINE
  8
0
 62
     1
 10
179.805
 20
126.558
 30
0.0
 11
179.805
 21
138.315
 31
0.0
  0
LINE
  8
0
 62
     1
 10
179.805
 20
138.315
 30
0.0
 11
183.005
 21
138.315
 31
0.0
  0
LINE
  8
0
 62
     1
 10
183.005
 20
138.315
 30
0.0
 11
183.005
 21
149.86
 31
0.0
  0
LINE
  8
0
 62
     1
 10
183.005
 20
149.86
 30
0.0
 11
179.805
 21
149.86
 31
0.0
  0
LINE
  8
0
 62
     1
 10
179.805
 20
149.86
 30
0.0
 11
179.805
 21
161.618
 31
0.0
  0
LINE
  8
0
 62
     1
 10
179.805
 20
161.618
 30
0.0
 11
183.005
 21
161.618
 31
0.0
  0
LINE
  8
0
 62
     1
 10
183.005
 20
161.618
 30
0.0
 11
183.005
 21
173.163
 31
0.0
  0
LINE
  8
0
 62
     1
 10
183.005
 20
173.163
 30
0.0
 11
179.805
 21
173.163
 31
0.0
  0
LINE
  8
0
 62
     1
 10
179.805
 20
173.163
 30
0.0
 11
179.805
 21
184.92
 31
0.0
  0
LINE
  8
0
 62
     1
 10
179.805
 20
184.92
 30
0.0
 11
183.005
 21
184.92
 31
0.0
  0
LINE
  8
0
 62
     1
 10
183.005
 20
184.92
 30
0.0
 11
183.005
 21
196.465
 31
0.0
  0
LINE
  8
0
 62
     1
 10
183.005
 20
196.465
 30
0.0
 11
179.805
 21
196.465
 31
0.0
  0
LINE
  8
0
 62
     1
 10
179.805
 20
196.465
 30
0.0
 11
179.805
 21
208.169
 31
0.0
  0
LINE
  8
0
 62
     1
 10
232.861
 20
202.369
 30
0.0
 11
232.861
 21
202.034
 31
0.0
  0
LINE
  8
0
 62
     1
 10
232.861
 20
202.034
 30
0.0
 11
232.59
 21
201.027
 31
0.0
  0
LINE
  8
0
 62
     1
 10
232.59
 20
201.027
 30
0.0
 11
231.849
 21
199.931
 31
0.0
  0
LINE
  8
0
 62
     1
 10
231.849
 20
199.931
 30
0.0
 11
230.754
 21
199.191
 31
0.0
  0
LINE
  8
0
 62
     1
 10
230.754
 20
199.191
 30
0.0
 11
229.747
 21
198.92
 31
0.0
  0
LINE
  8
0
 62
     1
 10
229.747
 20
198.92
 30
0.0
 11
229.412
 21
198.92
 31
0.0
  0
LINE
  8
0
 62
     1
 10
229.412
 20
198.92
 30
0.0
 11
229.076
 21
198.92
 31
0.0
  0
LINE
  8
0
 62
     1
 10
229.076
 20
198.92
 30
0.0
 11
228.068
 21
199.191
 31
0.0
  0
LINE
  8
0
 62
     1
 10
228.068
 20
199.191
 30
0.0
 11
226.971
 21
199.931
 31
0.0
  0
LINE
  8
0
 62
     1
 10
226.971
 20
199.931
 30
0.0
 11
226.231
 21
201.027
 31
0.0
  0
LINE
  8
0
 62
     1
 10
226.231
 20
201.027
 30
0.0
 11
225.961
 21
202.034
 31
0.0
  0
LINE
  8
0
 62
     1
 10
225.961
 20
202.034
 30
0.0
 11
225.961
 21
202.369
 31
0.0
  0
LINE
  8
0
 62
     1
 10
225.961
 20
202.369
 30
0.0
 11
225.961
 21
202.705
 31
0.0
  0
LINE
  8
0
 62
     1
 10
225.961
 20
202.705
 30
0.0
 11
226.231
 21
203.713
 31
0.0
  0
LINE
  8
0
 62
     1
 10
226.231
 20
203.713
 30
0.0
 11
226.971
 21
204.81
 31
0.0
  0
LINE
  8
0
 62
     1
 10
226.971
 20
204.81
 30
0.0
 11
228.068
 21
205.549
 31
0.0
  0
LINE
  8
0
 62
     1
 10
228.068
 20
205.549
 30
0.0
 11
229.076
 21
205.82
 31
0.0
  0
LINE
  8
0
 62
     1
 10
229.076
 20
205.82
 30
0.0
 11
229.412
 21
205.82
 31
0.0
  0
LINE
  8
0
 62
     1
 10
229.412
 20
205.82
 30
0.0
 11
229.747
 21
205.82
 31
0.0
  0
LINE
  8
0
 62
     1
 10
229.747
 20
205.82
 30
0.0
 11
230.754
 21
205.549
 31
0.0
  0
LINE
  8
0
 62
     1
 10
230.754
 20
205.549
 30
0.0
 11
231.849
 21
204.81
 31
0.0
  0
LINE
  8
0
 62
     1
 10
231.849
 20
204.81
 30
0.0
 11
232.59
 21
203.713
 31
0.0
  0
LINE
  8
0
 62
     1
 10
232.59
 20
203.713
 30
0.0
 11
232.861
 21
202.705
 31
0.0
  0
LINE
  8
0
 62
     1
 10
232.861
 20
202.705
 30
0.0
 11
232.861
 21
202.369
 31
0.0
  0
LINE
  8
0
 62
     1
 10
319.555
 20
202.369
 30
0.0
 11
319.555
 21
202.034
 31
0.0
  0
LINE
  8
0
 62
     1
 10
319.555
 20
202.034
 30
0.0
 11
319.283
 21
201.027
 31
0.0
  0
LINE
  8
0
 62
     1
 10
319.283
 20
201.027
 30
0.0
 11
318.543
 21
199.931
 31
0.0
  0
LINE
  8
0
 62
     1
 10
318.543
 20
199.931
 30
0.0
 11
317.448
 21
199.191
 31
0.0
  0
LINE
  8
0
 62
     1
 10
317.448
 20
199.191
 30
0.0
 11
316.44
 21
198.92
 31
0.0
  0
LINE
  8
0
 62
     1
 10
316.44
 20
198.92
 30
0.0
 11
316.105
 21
198.92
 31
0.0
  0
LINE
  8
0
 62
     1
 10
316.105
 20
198.92
 30
0.0
 11
315.769
 21
198.92
 31
0.0
  0
LINE
  8
0
 62
     1
 10
315.769
 20
198.92
 30
0.0
 11
314.762
 21
199.191
 31
0.0
  0
LINE
  8
0
 62
     1
 10
314.762
 20
199.191
 30
0.0
 11
313.665
 21
199.931
 31
0.0
  0
LINE
  8
0
 62
     1
 10
313.665
 20
199.931
 30
0.0
 11
312.925
 21
201.027
 31
0.0
  0
LINE
  8
0
 62
     1
 10
312.925
 20
201.027
 30
0.0
 11
312.655
 21
202.034
 31
0.0
  0
LINE
  8
0
 62
     1
 10
312.655
 20
202.034
 30
0.0
 11
312.655
 21
202.369
 31
0.0
  0
LINE
  8
0
 62
     1
 10
312.655
 20
202.369
 30
0.0
 11
312.655
 21
202.705
 31
0.0
  0
LINE
  8
0
 62
     1
 10
312.655
 20
202.705
 30
0.0
 11
312.925
 21
203.713
 31
0.0
  0
LINE
  8
0
 62
     1
 10
312.925
 20
203.713
 30
0.0
 11
313.665
 21
204.81
 31
0.0
  0
LINE
  8
0
 62
     1
 10
313.665
 20
204.81
 30
0.0
 11
314.762
 21
205.549
 31
0.0
  0
LINE
  8
0
 62
     1
 10
314.762
 20
205.549
 30
0.0
 11
315.769
 21
205.82
 31
0.0
  0
LINE
  8
0
 62
     1
 10
315.769
 20
205.82
 30
0.0
 11
316.105
 21
205.82
 31
0.0
  0
LINE
  8
0
 62
     1
 10
316.105
 20
205.82
 30
0.0
 11
316.44
 21
205.82
 31
0.0
  0
LINE
  8
0
 62
     1
 10
316.44
 20
205.82
 30
0.0
 11
317.448
 21
205.549
 31
0.0
  0
LINE
  8
0
 62
     1
 10
317.448
 20
205.549
 30
0.0
 11
318.543
 21
204.81
 31
0.0
  0
LINE
  8
0
 62
     1
 10
318.543
 20
204.81
 30
0.0
 11
319.283
 21
203.713
 31
0.0
  0
LINE
  8
0
 62
     1
 10
319.283
 20
203.713
 30
0.0
 11
319.555
 21
202.705
 31
0.0
  0
LINE
  8
0
 62
     1
 10
319.555
 20
202.705
 30
0.0
 11
319.555
 21
202.369
 31
0.0
  0
LINE
  8
0
 62
     1
 10
232.861
 20
104.669
 30
0.0
 11
232.861
 21
104.334
 31
0.0
  0
LINE
  8
0
 62
     1
 10
232.861
 20
104.334
 30
0.0
 11
232.59
 21
103.327
 31
0.0
  0
LINE
  8
0
 62
     1
 10
232.59
 20
103.327
 30
0.0
 11
231.849
 21
102.231
 31
0.0
  0
LINE
  8
0
 62
     1
 10
231.849
 20
102.231
 30
0.0
 11
230.754
 21
101.491
 31
0.0
  0
LINE
  8
0
 62
     1
 10
230.754
 20
101.491
 30
0.0
 11
229.747
 21
101.22
 31
0.0
  0
LINE
  8
0
 62
     1
 10
229.747
 20
101.22
 30
0.0
 11
229.412
 21
101.22
 31
0.0
  0
LINE
  8
0
 62
     1
 10
229.412
 20
101.22
 30
0.0
 11
229.076
 21
101.22
 31
0.0
  0
LINE
  8
0
 62
     1
 10
229.076
 20
101.22
 30
0.0
 11
228.068
 21
101.491
 31
0.0
  0
LINE
  8
0
 62
     1
 10
228.068
 20
101.491
 30
0.0
 11
226.971
 21
102.231
 31
0.0
  0
LINE
  8
0
 62
     1
 10
226.971
 20
102.231
 30
0.0
 11
226.231
 21
103.327
 31
0.0
  0
LINE
  8
0
 62
     1
 10
226.231
 20
103.327
 30
0.0
 11
225.961
 21
104.334
 31
0.0
  0
LINE
  8
0
 62
     1
 10
225.961
 20
104.334
 30
0.0
 11
225.961
 21
104.669
 31
0.0
  0
LINE
  8
0
 62
     1
 10
225.961
 20
104.669
 30
0.0
 11
225.961
 21
105.005
 31
0.0
  0
LINE
  8
0
 62
     1
 10
225.961
 20
105.005
 30
0.0
 11
226.231
 21
106.013
 31
0.0
  0
LINE
  8
0
 62
     1
 10
226.231
 20
106.013
 30
0.0
 11
226.971
 21
107.109
 31
0.0
  0
LINE
  8
0
 62
     1
 10
226.971
 20
107.109
 30
0.0
 11
228.068
 21
107.849
 31
0.0
  0
LINE
  8
0
 62
     1
 10
228.068
 20
107.849
 30
0.0
 11
229.076
 21
108.119
 31
0.0
  0
LINE
  8
0
 62
     1
 10
229.076
 20
108.119
 30
0.0
 11
229.412
 21
108.119
 31
0.0
  0
LINE
  8
0
 62
     1
 10
229.412
 20
108.119
 30
0.0
 11
229.747
 21
108.119
 31
0.0
  0
LINE
  8
0
 62
     1
 10
229.747
 20
108.119
 30
0.0
 11
230.754
 21
107.849
 31
0.0
  0
LINE
  8
0
 62
     1
 10
230.754
 20
107.849
 30
0.0
 11
231.849
 21
107.109
 31
0.0
  0
LINE
  8
0
 62
     1
 10
231.849
 20
107.109
 30
0.0
 11
232.59
 21
106.013
 31
0.0
  0
LINE
  8
0
 62
     1
 10
232.59
 20
106.013
 30
0.0
 11
232.861
 21
105.005
 31
0.0
  0
LINE
  8
0
 62
     1
 10
232.861
 20
105.005
 30
0.0
 11
232.861
 21
104.669
 31
0.0
  0
LINE
  8
0
 62
     1
 10
353.025
 20
49.8919
 30
0.0
 11
353.025
 21
38.348
 31
0.0
  0
LINE
  8
0
 62
     1
 10
353.025
 20
38.348
 30
0.0
 11
356.224
 21
38.348
 31
0.0
  0
LINE
  8
0
 62
     1
 10
356.224
 20
38.348
 30
0.0
 11
356.224
 21
26.5906
 31
0.0
  0
LINE
  8
0
 62
     1
 10
356.224
 20
26.5906
 30
0.0
 11
353.025
 21
26.5906
 31
0.0
  0
LINE
  8
0
 62
     1
 10
353.025
 20
26.5906
 30
0.0
 11
353.025
 21
15.0454
 31
0.0
  0
LINE
  8
0
 62
     1
 10
353.025
 20
15.0454
 30
0.0
 11
356.224
 21
15.0454
 31
0.0
  0
LINE
  8
0
 62
     1
 10
356.224
 20
15.0454
 30
0.0
 11
356.224
 21
3.34036
 31
0.0
  0
LINE
  8
0
 62
     1
 10
356.224
 20
3.34036
 30
0.0
 11
344.543
 21
3.34036
 31
0.0
  0
LINE
  8
0
 62
     1
 10
344.543
 20
3.34036
 30
0.0
 11
344.543
 21
0.14056
 31
0.0
  0
LINE
  8
0
 62
     1
 10
344.543
 20
0.14056
 30
0.0
 11
332.703
 21
0.14056
 31
0.0
  0
LINE
  8
0
 62
     1
 10
332.703
 20
0.14056
 30
0.0
 11
332.703
 21
3.34036
 31
0.0
  0
LINE
  8
0
 62
     1
 10
332.703
 20
3.34036
 30
0.0
 11
321.076
 21
3.34036
 31
0.0
  0
LINE
  8
0
 62
     1
 10
321.076
 20
3.34036
 30
0.0
 11
321.076
 21
0.14056
 31
0.0
  0
LINE
  8
0
 62
     1
 10
321.076
 20
0.14056
 30
0.0
 11
309.236
 21
0.14056
 31
0.0
  0
LINE
  8
0
 62
     1
 10
309.236
 20
0.14056
 30
0.0
 11
309.236
 21
3.34036
 31
0.0
  0
LINE
  8
0
 62
     1
 10
309.236
 20
3.34036
 30
0.0
 11
297.609
 21
3.34036
 31
0.0
  0
LINE
  8
0
 62
     1
 10
297.609
 20
3.34036
 30
0.0
 11
297.609
 21
0.14056
 31
0.0
  0
LINE
  8
0
 62
     1
 10
297.609
 20
0.14056
 30
0.0
 11
285.769
 21
0.14056
 31
0.0
  0
LINE
  8
0
 62
     1
 10
285.769
 20
0.14056
 30
0.0
 11
285.769
 21
3.34036
 31
0.0
  0
LINE
  8
0
 62
     1
 10
285.769
 20
3.34036
 30
0.0
 11
274.143
 21
3.34036
 31
0.0
  0
LINE
  8
0
 62
     1
 10
274.143
 20
3.34036
 30
0.0
 11
274.143
 21
0.14056
 31
0.0
  0
LINE
  8
0
 62
     1
 10
274.143
 20
0.14056
 30
0.0
 11
262.303
 21
0.14056
 31
0.0
  0
LINE
  8
0
 62
     1
 10
262.303
 20
0.14056
 30
0.0
 11
262.303
 21
3.34036
 31
0.0
  0
LINE
  8
0
 62
     1
 10
262.303
 20
3.34036
 30
0.0
 11
250.676
 21
3.34036
 31
0.0
  0
LINE
  8
0
 62
     1
 10
250.676
 20
3.34036
 30
0.0
 11
250.676
 21
0.14056
 31
0.0
  0
LINE
  8
0
 62
     1
 10
250.676
 20
0.14056
 30
0.0
 11
238.836
 21
0.14056
 31
0.0
  0
LINE
  8
0
 62
     1
 10
238.836
 20
0.14056
 30
0.0
 11
238.836
 21
3.34036
 31
0.0
  0
LINE
  8
0
 62
     1
 10
238.836
 20
3.34036
 30
0.0
 11
227.21
 21
3.34036
 31
0.0
  0
LINE
  8
0
 62
     1
 10
227.21
 20
3.34036
 30
0.0
 11
227.21
 21
0.14056
 31
0.0
  0
LINE
  8
0
 62
     1
 10
227.21
 20
0.14056
 30
0.0
 11
215.369
 21
0.14056
 31
0.0
  0
LINE
  8
0
 62
     1
 10
215.369
 20
0.14056
 30
0.0
 11
215.369
 21
3.34036
 31
0.0
  0
LINE
  8
0
 62
     1
 10
215.369
 20
3.34036
 30
0.0
 11
203.743
 21
3.34036
 31
0.0
  0
LINE
  8
0
 62
     1
 10
203.743
 20
3.34036
 30
0.0
 11
203.743
 21
0.14056
 31
0.0
  0
LINE
  8
0
 62
     1
 10
203.743
 20
0.14056
 30
0.0
 11
191.903
 21
0.14056
 31
0.0
  0
LINE
  8
0
 62
     1
 10
191.903
 20
0.14056
 30
0.0
 11
191.903
 21
3.34036
 31
0.0
  0
LINE
  8
0
 62
     1
 10
191.903
 20
3.34036
 30
0.0
 11
180.223
 21
3.34036
 31
0.0
  0
LINE
  8
0
 62
     1
 10
180.223
 20
3.34036
 30
0.0
 11
180.223
 21
15.0454
 31
0.0
  0
LINE
  8
0
 62
     1
 10
180.223
 20
15.0454
 30
0.0
 11
183.423
 21
15.0454
 31
0.0
  0
LINE
  8
0
 62
     1
 10
183.423
 20
15.0454
 30
0.0
 11
183.423
 21
26.5906
 31
0.0
  0
LINE
  8
0
 62
     1
 10
183.423
 20
26.5906
 30
0.0
 11
180.223
 21
26.5906
 31
0.0
  0
LINE
  8
0
 62
     1
 10
180.223
 20
26.5906
 30
0.0
 11
180.223
 21
38.348
 31
0.0
  0
LINE
  8
0
 62
     1
 10
180.223
 20
38.348
 30
0.0
 11
183.423
 21
38.348
 31
0.0
  0
LINE
  8
0
 62
     1
 10
183.423
 20
38.348
 30
0.0
 11
183.423
 21
49.8919
 31
0.0
  0
LINE
  8
0
 62
     1
 10
183.423
 20
49.8919
 30
0.0
 11
353.025
 21
49.8919
 31
0.0
  0
LINE
  8
0
 62
     0
 10
231.017
 20
47.3975
 30
0.0
 11
230.081
 21
47.3975
 31
0.0
  0
LINE
  8
0
 62
     0
 10
230.081
 20
47.3975
 30
0.0
 11
227.279
 21
46.8753
 31
0.0
  0
LINE
  8
0
 62
     0
 10
227.279
 20
46.8753
 30
0.0
 11
223.187
 21
45.4533
 31
0.0
  0
LINE
  8
0
 62
     0
 10
223.187
 20
45.4533
 30
0.0
 11
219.005
 21
43.3532
 31
0.0
  0
LINE
  8
0
 62
     0
 10
219.005
 20
43.3532
 30
0.0
 11
214.995
 21
40.798
 31
0.0
  0
LINE
  8
0
 62
     0
 10
214.995
 20
40.798
 30
0.0
 11
211.419
 21
38.0076
 31
0.0
  0
LINE
  8
0
 62
     0
 10
211.419
 20
38.0076
 30
0.0
 11
208.54
 21
35.2061
 31
0.0
  0
LINE
  8
0
 62
     0
 10
208.54
 20
35.2061
 30
0.0
 11
206.62
 21
32.6113
 31
0.0
  0
LINE
  8
0
 62
     0
 10
206.62
 20
32.6113
 30
0.0
 11
205.923
 21
30.9893
 31
0.0
  0
LINE
  8
0
 62
     0
 10
205.923
 20
30.9893
 30
0.0
 11
205.923
 21
30.4478
 31
0.0
  0
LINE
  8
0
 62
     0
 10
205.923
 20
30.4478
 30
0.0
 11
205.923
 21
30.2838
 31
0.0
  0
LINE
  8
0
 62
     0
 10
205.923
 20
30.2838
 30
0.0
 11
206.035
 21
29.789
 31
0.0
  0
LINE
  8
0
 62
     0
 10
206.035
 20
29.789
 30
0.0
 11
206.354
 21
29.2447
 31
0.0
  0
LINE
  8
0
 62
     0
 10
206.354
 20
29.2447
 30
0.0
 11
206.853
 21
28.8768
 31
0.0
  0
LINE
  8
0
 62
     0
 10
206.853
 20
28.8768
 30
0.0
 11
207.345
 21
28.7404
 31
0.0
  0
LINE
  8
0
 62
     0
 10
207.345
 20
28.7404
 30
0.0
 11
207.509
 21
28.7404
 31
0.0
  0
LINE
  8
0
 62
     0
 10
207.509
 20
28.7404
 30
0.0
 11
207.69
 21
28.7404
 31
0.0
  0
LINE
  8
0
 62
     0
 10
207.69
 20
28.7404
 30
0.0
 11
208.231
 21
28.8616
 31
0.0
  0
LINE
  8
0
 62
     0
 10
208.231
 20
28.8616
 30
0.0
 11
209.094
 21
29.1483
 31
0.0
  0
LINE
  8
0
 62
     0
 10
209.094
 20
29.1483
 30
0.0
 11
209.816
 21
29.4872
 31
0.0
  0
LINE
  8
0
 62
     0
 10
209.816
 20
29.4872
 30
0.0
 11
210.12
 21
29.6954
 31
0.0
  0
LINE
  8
0
 62
     0
 10
210.12
 20
29.6954
 30
0.0
 11
210.12
 21
29.7642
 31
0.0
  0
LINE
  8
0
 62
     0
 10
210.12
 20
29.7642
 30
0.0
 11
210.042
 21
29.7408
 31
0.0
  0
LINE
  8
0
 62
     0
 10
210.042
 20
29.7408
 30
0.0
 11
209.358
 21
29.6058
 31
0.0
  0
LINE
  8
0
 62
     0
 10
209.358
 20
29.6058
 30
0.0
 11
208.787
 21
29.5162
 31
0.0
  0
LINE
  8
0
 62
     0
 10
208.787
 20
29.5162
 30
0.0
 11
208.596
 21
29.5162
 31
0.0
  0
LINE
  8
0
 62
     0
 10
208.596
 20
29.5162
 30
0.0
 11
208.496
 21
29.5162
 31
0.0
  0
LINE
  8
0
 62
     0
 10
208.496
 20
29.5162
 30
0.0
 11
208.195
 21
29.6568
 31
0.0
  0
LINE
  8
0
 62
     0
 10
208.195
 20
29.6568
 30
0.0
 11
208.007
 21
29.9709
 31
0.0
  0
LINE
  8
0
 62
     0
 10
208.007
 20
29.9709
 30
0.0
 11
208.007
 21
30.0743
 31
0.0
  0
LINE
  8
0
 62
     0
 10
208.007
 20
30.0743
 30
0.0
 11
208.007
 21
30.3926
 31
0.0
  0
LINE
  8
0
 62
     0
 10
208.007
 20
30.3926
 30
0.0
 11
208.636
 21
31.3476
 31
0.0
  0
LINE
  8
0
 62
     0
 10
208.636
 20
31.3476
 30
0.0
 11
210.373
 21
33.4863
 31
0.0
  0
LINE
  8
0
 62
     0
 10
210.373
 20
33.4863
 30
0.0
 11
212.983
 21
36.1707
 31
0.0
  0
LINE
  8
0
 62
     0
 10
212.983
 20
36.1707
 30
0.0
 11
216.235
 21
39.0825
 31
0.0
  0
LINE
  8
0
 62
     0
 10
216.235
 20
39.0825
 30
0.0
 11
219.896
 21
41.9033
 31
0.0
  0
LINE
  8
0
 62
     0
 10
219.896
 20
41.9033
 30
0.0
 11
223.734
 21
44.3121
 31
0.0
  0
LINE
  8
0
 62
     0
 10
223.734
 20
44.3121
 30
0.0
 11
227.518
 21
45.992
 31
0.0
  0
LINE
  8
0
 62
     0
 10
227.518
 20
45.992
 30
0.0
 11
230.142
 21
46.6217
 31
0.0
  0
LINE
  8
0
 62
     0
 10
230.142
 20
46.6217
 30
0.0
 11
231.017
 21
46.6217
 31
0.0
  0
LINE
  8
0
 62
     0
 10
231.017
 20
46.6217
 30
0.0
 11
231.24
 21
46.6217
 31
0.0
  0
LINE
  8
0
 62
     0
 10
231.24
 20
46.6217
 30
0.0
 11
231.91
 21
46.561
 31
0.0
  0
LINE
  8
0
 62
     0
 10
231.91
 20
46.561
 30
0.0
 11
232.755
 21
46.3158
 31
0.0
  0
LINE
  8
0
 62
     0
 10
232.755
 20
46.3158
 30
0.0
 11
233.383
 21
45.7976
 31
0.0
  0
LINE
  8
0
 62
     0
 10
233.383
 20
45.7976
 30
0.0
 11
233.63
 21
45.1362
 31
0.0
  0
LINE
  8
0
 62
     0
 10
233.63
 20
45.1362
 30
0.0
 11
233.63
 21
44.9143
 31
0.0
  0
LINE
  8
0
 62
     0
 10
233.63
 20
44.9143
 30
0.0
 11
233.63
 21
44.5354
 31
0.0
  0
LINE
  8
0
 62
     0
 10
233.63
 20
44.5354
 30
0.0
 11
233.266
 21
43.3987
 31
0.0
  0
LINE
  8
0
 62
     0
 10
233.266
 20
43.3987
 30
0.0
 11
232.272
 21
41.3177
 31
0.0
  0
LINE
  8
0
 62
     0
 10
232.272
 20
41.3177
 30
0.0
 11
230.784
 21
38.7999
 31
0.0
  0
LINE
  8
0
 62
     0
 10
230.784
 20
38.7999
 30
0.0
 11
228.943
 21
35.9724
 31
0.0
  0
LINE
  8
0
 62
     0
 10
228.943
 20
35.9724
 30
0.0
 11
226.887
 21
32.9599
 31
0.0
  0
LINE
  8
0
 62
     0
 10
226.887
 20
32.9599
 30
0.0
 11
224.755
 21
29.8883
 31
0.0
  0
LINE
  8
0
 62
     0
 10
224.755
 20
29.8883
 30
0.0
 11
222.688
 21
26.8855
 31
0.0
  0
LINE
  8
0
 62
     0
 10
222.688
 20
26.8855
 30
0.0
 11
221.278
 21
24.7868
 31
0.0
  0
LINE
  8
0
 62
     0
 10
221.278
 20
24.7868
 30
0.0
 11
220.824
 21
24.0771
 31
0.0
  0
LINE
  8
0
 62
     0
 10
220.824
 20
24.0771
 30
0.0
 11
220.582
 21
24.1157
 31
0.0
  0
LINE
  8
0
 62
     0
 10
220.582
 20
24.1157
 30
0.0
 11
219.411
 21
24.2011
 31
0.0
  0
LINE
  8
0
 62
     0
 10
219.411
 20
24.2011
 30
0.0
 11
218.316
 21
24.2108
 31
0.0
  0
LINE
  8
0
 62
     0
 10
218.316
 20
24.2108
 30
0.0
 11
217.952
 21
24.2108
 31
0.0
  0
LINE
  8
0
 62
     0
 10
217.952
 20
24.2108
 30
0.0
 11
216.906
 21
24.2108
 31
0.0
  0
LINE
  8
0
 62
     0
 10
216.906
 20
24.2108
 30
0.0
 11
213.77
 21
23.8359
 31
0.0
  0
LINE
  8
0
 62
     0
 10
213.77
 20
23.8359
 30
0.0
 11
209.542
 21
22.7928
 31
0.0
  0
LINE
  8
0
 62
     0
 10
209.542
 20
22.7928
 30
0.0
 11
205.461
 21
21.2121
 31
0.0
  0
LINE
  8
0
 62
     0
 10
205.461
 20
21.2121
 30
0.0
 11
201.723
 21
19.2209
 31
0.0
  0
LINE
  8
0
 62
     0
 10
201.723
 20
19.2209
 30
0.0
 11
198.523
 21
16.9471
 31
0.0
  0
LINE
  8
0
 62
     0
 10
198.523
 20
16.9471
 30
0.0
 11
196.056
 21
14.519
 31
0.0
  0
LINE
  8
0
 62
     0
 10
196.056
 20
14.519
 30
0.0
 11
194.517
 21
12.0647
 31
0.0
  0
LINE
  8
0
 62
     0
 10
194.517
 20
12.0647
 30
0.0
 11
194.049
 21
10.2857
 31
0.0
  0
LINE
  8
0
 62
     0
 10
194.049
 20
10.2857
 30
0.0
 11
194.102
 21
9.71243
 31
0.0
  0
LINE
  8
0
 62
     0
 10
194.102
 20
9.71243
 30
0.0
 11
194.142
 21
9.34036
 31
0.0
  0
LINE
  8
0
 62
     0
 10
194.142
 20
9.34036
 30
0.0
 11
194.576
 21
8.25444
 31
0.0
  0
LINE
  8
0
 62
     0
 10
194.576
 20
8.25444
 30
0.0
 11
195.55
 21
7.29121
 31
0.0
  0
LINE
  8
0
 62
     0
 10
195.55
 20
7.29121
 30
0.0
 11
196.904
 21
6.7703
 31
0.0
  0
LINE
  8
0
 62
     0
 10
196.904
 20
6.7703
 30
0.0
 11
198.115
 21
6.62838
 31
0.0
  0
LINE
  8
0
 62
     0
 10
198.115
 20
6.62838
 30
0.0
 11
198.518
 21
6.63801
 31
0.0
  0
LINE
  8
0
 62
     0
 10
198.518
 20
6.63801
 30
0.0
 11
199.327
 21
6.65318
 31
0.0
  0
LINE
  8
0
 62
     0
 10
199.327
 20
6.65318
 30
0.0
 11
201.748
 21
7.1162
 31
0.0
  0
LINE
  8
0
 62
     0
 10
201.748
 20
7.1162
 30
0.0
 11
205.201
 21
8.33575
 31
0.0
  0
LINE
  8
0
 62
     0
 10
205.201
 20
8.33575
 30
0.0
 11
208.758
 21
10.152
 31
0.0
  0
LINE
  8
0
 62
     0
 10
208.758
 20
10.152
 30
0.0
 11
212.296
 21
12.4175
 31
0.0
  0
LINE
  8
0
 62
     0
 10
212.296
 20
12.4175
 30
0.0
 11
215.696
 21
14.9876
 31
0.0
  0
LINE
  8
0
 62
     0
 10
215.696
 20
14.9876
 30
0.0
 11
218.838
 21
17.7147
 31
0.0
  0
LINE
  8
0
 62
     0
 10
218.838
 20
17.7147
 30
0.0
 11
221.599
 21
20.4556
 31
0.0
  0
LINE
  8
0
 62
     0
 10
221.599
 20
20.4556
 30
0.0
 11
223.326
 21
22.3862
 31
0.0
  0
LINE
  8
0
 62
     0
 10
223.326
 20
22.3862
 30
0.0
 11
223.861
 21
23.0615
 31
0.0
  0
LINE
  8
0
 62
     0
 10
223.861
 20
23.0615
 30
0.0
 11
224.197
 21
22.9995
 31
0.0
  0
LINE
  8
0
 62
     0
 10
224.197
 20
22.9995
 30
0.0
 11
225.202
 21
22.7693
 31
0.0
  0
LINE
  8
0
 62
     0
 10
225.202
 20
22.7693
 30
0.0
 11
226.332
 21
22.4455
 31
0.0
  0
LINE
  8
0
 62
     0
 10
226.332
 20
22.4455
 30
0.0
 11
227.393
 21
22.0803
 31
0.0
  0
LINE
  8
0
 62
     0
 10
227.393
 20
22.0803
 30
0.0
 11
228.242
 21
21.7675
 31
0.0
  0
LINE
  8
0
 62
     0
 10
228.242
 20
21.7675
 30
0.0
 11
228.526
 21
21.6642
 31
0.0
  0
LINE
  8
0
 62
     0
 10
228.526
 20
21.6642
 30
0.0
 11
228.533
 21
21.6642
 31
0.0
  0
LINE
  8
0
 62
     0
 10
228.533
 20
21.6642
 30
0.0
 11
228.556
 21
21.6958
 31
0.0
  0
LINE
  8
0
 62
     0
 10
228.556
 20
21.6958
 30
0.0
 11
228.556
 21
21.6958
 31
0.0
  0
LINE
  8
0
 62
     0
 10
228.556
 20
21.6958
 30
0.0
 11
228.22
 21
21.9494
 31
0.0
  0
LINE
  8
0
 62
     0
 10
228.22
 20
21.9494
 30
0.0
 11
226.452
 21
22.8506
 31
0.0
  0
LINE
  8
0
 62
     0
 10
226.452
 20
22.8506
 30
0.0
 11
224.587
 21
23.4018
 31
0.0
  0
LINE
  8
0
 62
     0
 10
224.587
 20
23.4018
 30
0.0
 11
224.203
 21
23.4804
 31
0.0
  0
LINE
  8
0
 62
     0
 10
224.203
 20
23.4804
 30
0.0
 11
225.112
 21
24.485
 31
0.0
  0
LINE
  8
0
 62
     0
 10
225.112
 20
24.485
 30
0.0
 11
227.983
 21
27.3692
 31
0.0
  0
LINE
  8
0
 62
     0
 10
227.983
 20
27.3692
 30
0.0
 11
232.669
 21
31.6067
 31
0.0
  0
LINE
  8
0
 62
     0
 10
232.669
 20
31.6067
 30
0.0
 11
238.02
 21
35.7974
 31
0.0
  0
LINE
  8
0
 62
     0
 10
238.02
 20
35.7974
 30
0.0
 11
242.307
 21
38.6884
 31
0.0
  0
LINE
  8
0
 62
     0
 10
242.307
 20
38.6884
 30
0.0
 11
243.798
 21
39.5443
 31
0.0
  0
LINE
  8
0
 62
     0
 10
243.798
 20
39.5443
 30
0.0
 11
243.279
 21
38.9819
 31
0.0
  0
LINE
  8
0
 62
     0
 10
243.279
 20
38.9819
 30
0.0
 11
241.817
 21
37.2057
 31
0.0
  0
LINE
  8
0
 62
     0
 10
241.817
 20
37.2057
 30
0.0
 11
239.751
 21
34.4138
 31
0.0
  0
LINE
  8
0
 62
     0
 10
239.751
 20
34.4138
 30
0.0
 11
237.75
 21
31.3545
 31
0.0
  0
LINE
  8
0
 62
     0
 10
237.75
 20
31.3545
 30
0.0
 11
236.381
 21
29.0132
 31
0.0
  0
LINE
  8
0
 62
     0
 10
236.381
 20
29.0132
 30
0.0
 11
235.961
 21
28.2126
 31
0.0
  0
LINE
  8
0
 62
     0
 10
235.961
 20
28.2126
 30
0.0
 11
235.647
 21
27.62
 31
0.0
  0
LINE
  8
0
 62
     0
 10
235.647
 20
27.62
 30
0.0
 11
234.793
 21
25.7941
 31
0.0
  0
LINE
  8
0
 62
     0
 10
234.793
 20
25.7941
 30
0.0
 11
233.889
 21
23.4363
 31
0.0
  0
LINE
  8
0
 62
     0
 10
233.889
 20
23.4363
 30
0.0
 11
233.306
 21
21.2232
 31
0.0
  0
LINE
  8
0
 62
     0
 10
233.306
 20
21.2232
 30
0.0
 11
233.101
 21
19.7363
 31
0.0
  0
LINE
  8
0
 62
     0
 10
233.101
 20
19.7363
 30
0.0
 11
233.101
 21
19.2402
 31
0.0
  0
LINE
  8
0
 62
     0
 10
233.101
 20
19.2402
 30
0.0
 11
233.101
 21
18.6724
 31
0.0
  0
LINE
  8
0
 62
     0
 10
233.101
 20
18.6724
 30
0.0
 11
233.551
 21
16.9678
 31
0.0
  0
LINE
  8
0
 62
     0
 10
233.551
 20
16.9678
 30
0.0
 11
234.796
 21
15.4492
 31
0.0
  0
LINE
  8
0
 62
     0
 10
234.796
 20
15.4492
 30
0.0
 11
236.668
 21
14.5989
 31
0.0
  0
LINE
  8
0
 62
     0
 10
236.668
 20
14.5989
 30
0.0
 11
238.424
 21
14.3343
 31
0.0
  0
LINE
  8
0
 62
     0
 10
238.424
 20
14.3343
 30
0.0
 11
239.01
 21
14.3343
 31
0.0
  0
LINE
  8
0
 62
     0
 10
239.01
 20
14.3343
 30
0.0
 11
239.258
 21
14.3343
 31
0.0
  0
LINE
  8
0
 62
     0
 10
239.258
 20
14.3343
 30
0.0
 11
239.919
 21
14.3591
 31
0.0
  0
LINE
  8
0
 62
     0
 10
239.919
 20
14.3591
 30
0.0
 11
240.005
 21
14.3661
 31
0.0
  0
LINE
  8
0
 62
     0
 10
240.005
 20
14.3661
 30
0.0
 11
240.326
 21
14.3895
 31
0.0
  0
LINE
  8
0
 62
     0
 10
240.326
 20
14.3895
 30
0.0
 11
241.283
 21
14.5741
 31
0.0
  0
LINE
  8
0
 62
     0
 10
241.283
 20
14.5741
 30
0.0
 11
243.013
 21
15.0675
 31
0.0
  0
LINE
  8
0
 62
     0
 10
243.013
 20
15.0675
 30
0.0
 11
245.019
 21
15.8695
 31
0.0
  0
LINE
  8
0
 62
     0
 10
245.019
 20
15.8695
 30
0.0
 11
246.628
 21
16.6867
 31
0.0
  0
LINE
  8
0
 62
     0
 10
246.628
 20
16.6867
 30
0.0
 11
247.137
 21
17.0009
 31
0.0
  0
LINE
  8
0
 62
     0
 10
247.137
 20
17.0009
 30
0.0
 11
247.669
 21
17.3302
 31
0.0
  0
LINE
  8
0
 62
     0
 10
247.669
 20
17.3302
 30
0.0
 11
249.123
 21
18.5498
 31
0.0
  0
LINE
  8
0
 62
     0
 10
249.123
 20
18.5498
 30
0.0
 11
250.712
 21
20.53
 31
0.0
  0
LINE
  8
0
 62
     0
 10
250.712
 20
20.53
 30
0.0
 11
251.695
 21
22.8603
 31
0.0
  0
LINE
  8
0
 62
     0
 10
251.695
 20
22.8603
 30
0.0
 11
251.937
 21
24.8226
 31
0.0
  0
LINE
  8
0
 62
     0
 10
251.937
 20
24.8226
 30
0.0
 11
251.865
 21
25.4579
 31
0.0
  0
LINE
  8
0
 62
     0
 10
251.865
 20
25.4579
 30
0.0
 11
251.818
 21
25.8713
 31
0.0
  0
LINE
  8
0
 62
     0
 10
251.818
 20
25.8713
 30
0.0
 11
251.408
 21
27.0798
 31
0.0
  0
LINE
  8
0
 62
     0
 10
251.408
 20
27.0798
 30
0.0
 11
250.58
 21
28.1616
 31
0.0
  0
LINE
  8
0
 62
     0
 10
250.58
 20
28.1616
 30
0.0
 11
249.559
 21
28.6577
 31
0.0
  0
LINE
  8
0
 62
     0
 10
249.559
 20
28.6577
 30
0.0
 11
248.747
 21
28.6287
 31
0.0
  0
LINE
  8
0
 62
     0
 10
248.747
 20
28.6287
 30
0.0
 11
248.522
 21
28.5226
 31
0.0
  0
LINE
  8
0
 62
     0
 10
248.522
 20
28.5226
 30
0.0
 11
248.273
 21
28.4055
 31
0.0
  0
LINE
  8
0
 62
     0
 10
248.273
 20
28.4055
 30
0.0
 11
247.646
 21
27.7964
 31
0.0
  0
LINE
  8
0
 62
     0
 10
247.646
 20
27.7964
 30
0.0
 11
247.255
 21
26.8359
 31
0.0
  0
LINE
  8
0
 62
     0
 10
247.255
 20
26.8359
 30
0.0
 11
247.253
 21
25.8423
 31
0.0
  0
LINE
  8
0
 62
     0
 10
247.253
 20
25.8423
 30
0.0
 11
247.434
 21
25.1974
 31
0.0
  0
LINE
  8
0
 62
     0
 10
247.434
 20
25.1974
 30
0.0
 11
247.545
 21
25.0128
 31
0.0
  0
LINE
  8
0
 62
     0
 10
247.545
 20
25.0128
 30
0.0
 11
247.326
 21
25.1657
 31
0.0
  0
LINE
  8
0
 62
     0
 10
247.326
 20
25.1657
 30
0.0
 11
246.673
 21
25.6219
 31
0.0
  0
LINE
  8
0
 62
     0
 10
246.673
 20
25.6219
 30
0.0
 11
245.907
 21
26.1001
 31
0.0
  0
LINE
  8
0
 62
     0
 10
245.907
 20
26.1001
 30
0.0
 11
245.212
 21
26.3908
 31
0.0
  0
LINE
  8
0
 62
     0
 10
245.212
 20
26.3908
 30
0.0
 11
244.715
 21
26.457
 31
0.0
  0
LINE
  8
0
 62
     0
 10
244.715
 20
26.457
 30
0.0
 11
244.558
 21
26.4322
 31
0.0
  0
LINE
  8
0
 62
     0
 10
244.558
 20
26.4322
 30
0.0
 11
244.409
 21
26.4101
 31
0.0
  0
LINE
  8
0
 62
     0
 10
244.409
 20
26.4101
 30
0.0
 11
243.99
 21
26.18
 31
0.0
  0
LINE
  8
0
 62
     0
 10
243.99
 20
26.18
 30
0.0
 11
243.709
 21
25.6853
 31
0.0
  0
LINE
  8
0
 62
     0
 10
243.709
 20
25.6853
 30
0.0
 11
243.709
 21
25.0086
 31
0.0
  0
LINE
  8
0
 62
     0
 10
243.709
 20
25.0086
 30
0.0
 11
243.986
 21
24.2066
 31
0.0
  0
LINE
  8
0
 62
     0
 10
243.986
 20
24.2066
 30
0.0
 11
244.534
 21
23.3398
 31
0.0
  0
LINE
  8
0
 62
     0
 10
244.534
 20
23.3398
 30
0.0
 11
245.349
 21
22.4662
 31
0.0
  0
LINE
  8
0
 62
     0
 10
245.349
 20
22.4662
 30
0.0
 11
246.426
 21
21.6462
 31
0.0
  0
LINE
  8
0
 62
     0
 10
246.426
 20
21.6462
 30
0.0
 11
247.414
 21
21.0867
 31
0.0
  0
LINE
  8
0
 62
     0
 10
247.414
 20
21.0867
 30
0.0
 11
247.76
 21
20.9365
 31
0.0
  0
LINE
  8
0
 62
     0
 10
247.76
 20
20.9365
 30
0.0
 11
247.387
 21
21.2824
 31
0.0
  0
LINE
  8
0
 62
     0
 10
247.387
 20
21.2824
 30
0.0
 11
246.268
 21
22.3228
 31
0.0
  0
LINE
  8
0
 62
     0
 10
246.268
 20
22.3228
 30
0.0
 11
245.236
 21
23.4639
 31
0.0
  0
LINE
  8
0
 62
     0
 10
245.236
 20
23.4639
 30
0.0
 11
244.726
 21
24.5622
 31
0.0
  0
LINE
  8
0
 62
     0
 10
244.726
 20
24.5622
 30
0.0
 11
244.72
 21
25.5254
 31
0.0
  0
LINE
  8
0
 62
     0
 10
244.72
 20
25.5254
 30
0.0
 11
244.803
 21
25.8217
 31
0.0
  0
LINE
  8
0
 62
     0
 10
244.803
 20
25.8217
 30
0.0
 11
244.876
 21
25.8727
 31
0.0
  0
LINE
  8
0
 62
     0
 10
244.876
 20
25.8727
 30
0.0
 11
245.186
 21
25.8933
 31
0.0
  0
LINE
  8
0
 62
     0
 10
245.186
 20
25.8933
 30
0.0
 11
245.692
 21
25.7362
 31
0.0
  0
LINE
  8
0
 62
     0
 10
245.692
 20
25.7362
 30
0.0
 11
246.268
 21
25.4165
 31
0.0
  0
LINE
  8
0
 62
     0
 10
246.268
 20
25.4165
 30
0.0
 11
246.862
 21
24.999
 31
0.0
  0
LINE
  8
0
 62
     0
 10
246.862
 20
24.999
 30
0.0
 11
247.42
 21
24.547
 31
0.0
  0
LINE
  8
0
 62
     0
 10
247.42
 20
24.547
 30
0.0
 11
247.893
 21
24.1267
 31
0.0
  0
LINE
  8
0
 62
     0
 10
247.893
 20
24.1267
 30
0.0
 11
248.226
 21
23.8015
 31
0.0
  0
LINE
  8
0
 62
     0
 10
248.226
 20
23.8015
 30
0.0
 11
248.35
 21
23.6788
 31
0.0
  0
LINE
  8
0
 62
     0
 10
248.35
 20
23.6788
 30
0.0
 11
248.371
 21
23.6361
 31
0.0
  0
LINE
  8
0
 62
     0
 10
248.371
 20
23.6361
 30
0.0
 11
248.371
 21
23.6361
 31
0.0
  0
LINE
  8
0
 62
     0
 10
248.371
 20
23.6361
 30
0.0
 11
248.313
 21
23.7863
 31
0.0
  0
LINE
  8
0
 62
     0
 10
248.313
 20
23.7863
 30
0.0
 11
248.181
 21
24.1887
 31
0.0
  0
LINE
  8
0
 62
     0
 10
248.181
 20
24.1887
 30
0.0
 11
248.032
 21
24.773
 31
0.0
  0
LINE
  8
0
 62
     0
 10
248.032
 20
24.773
 30
0.0
 11
247.926
 21
25.4703
 31
0.0
  0
LINE
  8
0
 62
     0
 10
247.926
 20
25.4703
 30
0.0
 11
247.92
 21
26.2089
 31
0.0
  0
LINE
  8
0
 62
     0
 10
247.92
 20
26.2089
 30
0.0
 11
248.076
 21
26.92
 31
0.0
  0
LINE
  8
0
 62
     0
 10
248.076
 20
26.92
 30
0.0
 11
248.451
 21
27.5318
 31
0.0
  0
LINE
  8
0
 62
     0
 10
248.451
 20
27.5318
 30
0.0
 11
248.926
 21
27.9011
 31
0.0
  0
LINE
  8
0
 62
     0
 10
248.926
 20
27.9011
 30
0.0
 11
249.105
 21
27.9742
 31
0.0
  0
LINE
  8
0
 62
     0
 10
249.105
 20
27.9742
 30
0.0
 11
249.253
 21
28.0197
 31
0.0
  0
LINE
  8
0
 62
     0
 10
249.253
 20
28.0197
 30
0.0
 11
249.739
 21
28.0155
 31
0.0
  0
LINE
  8
0
 62
     0
 10
249.739
 20
28.0155
 30
0.0
 11
250.274
 21
27.7234
 31
0.0
  0
LINE
  8
0
 62
     0
 10
250.274
 20
27.7234
 30
0.0
 11
250.704
 21
27.1129
 31
0.0
  0
LINE
  8
0
 62
     0
 10
250.704
 20
27.1129
 30
0.0
 11
250.965
 21
26.428
 31
0.0
  0
LINE
  8
0
 62
     0
 10
250.965
 20
26.428
 30
0.0
 11
251.024
 21
26.1924
 31
0.0
  0
LINE
  8
0
 62
     0
 10
251.024
 20
26.1924
 30
0.0
 11
251.178
 21
25.5846
 31
0.0
  0
LINE
  8
0
 62
     0
 10
251.178
 20
25.5846
 30
0.0
 11
251.17
 21
23.6375
 31
0.0
  0
LINE
  8
0
 62
     0
 10
251.17
 20
23.6375
 30
0.0
 11
250.445
 21
21.3017
 31
0.0
  0
LINE
  8
0
 62
     0
 10
250.445
 20
21.3017
 30
0.0
 11
249.113
 21
19.2967
 31
0.0
  0
LINE
  8
0
 62
     0
 10
249.113
 20
19.2967
 30
0.0
 11
247.901
 21
18.0702
 31
0.0
  0
LINE
  8
0
 62
     0
 10
247.901
 20
18.0702
 30
0.0
 11
247.446
 21
17.7285
 31
0.0
  0
LINE
  8
0
 62
     0
 10
247.446
 20
17.7285
 30
0.0
 11
246.863
 21
17.2916
 31
0.0
  0
LINE
  8
0
 62
     0
 10
246.863
 20
17.2916
 30
0.0
 11
243.9
 21
15.7937
 31
0.0
  0
LINE
  8
0
 62
     0
 10
243.9
 20
15.7937
 30
0.0
 11
240.932
 21
15.1102
 31
0.0
  0
LINE
  8
0
 62
     0
 10
240.932
 20
15.1102
 30
0.0
 11
240.346
 21
15.0799
 31
0.0
  0
LINE
  8
0
 62
     0
 10
240.346
 20
15.0799
 30
0.0
 11
240.268
 21
15.073
 31
0.0
  0
LINE
  8
0
 62
     0
 10
240.268
 20
15.073
 30
0.0
 11
239.627
 21
15.0482
 31
0.0
  0
LINE
  8
0
 62
     0
 10
239.627
 20
15.0482
 30
0.0
 11
239.413
 21
15.0482
 31
0.0
  0
LINE
  8
0
 62
     0
 10
239.413
 20
15.0482
 30
0.0
 11
239.181
 21
15.0482
 31
0.0
  0
LINE
  8
0
 62
     0
 10
239.181
 20
15.0482
 30
0.0
 11
238.482
 21
15.084
 31
0.0
  0
LINE
  8
0
 62
     0
 10
238.482
 20
15.084
 30
0.0
 11
237.634
 21
15.197
 31
0.0
  0
LINE
  8
0
 62
     0
 10
237.634
 20
15.197
 30
0.0
 11
236.882
 21
15.4065
 31
0.0
  0
LINE
  8
0
 62
     0
 10
236.882
 20
15.4065
 30
0.0
 11
236.237
 21
15.7248
 31
0.0
  0
LINE
  8
0
 62
     0
 10
236.237
 20
15.7248
 30
0.0
 11
235.713
 21
16.1685
 31
0.0
  0
LINE
  8
0
 62
     0
 10
235.713
 20
16.1685
 30
0.0
 11
235.325
 21
16.7528
 31
0.0
  0
LINE
  8
0
 62
     0
 10
235.325
 20
16.7528
 30
0.0
 11
235.081
 21
17.4914
 31
0.0
  0
LINE
  8
0
 62
     0
 10
235.081
 20
17.4914
 30
0.0
 11
234.998
 21
18.1749
 31
0.0
  0
LINE
  8
0
 62
     0
 10
234.998
 20
18.1749
 30
0.0
 11
234.998
 21
18.4023
 31
0.0
  0
LINE
  8
0
 62
     0
 10
234.998
 20
18.4023
 30
0.0
 11
234.998
 21
19.0693
 31
0.0
  0
LINE
  8
0
 62
     0
 10
234.998
 20
19.0693
 30
0.0
 11
235.492
 21
21.0688
 31
0.0
  0
LINE
  8
0
 62
     0
 10
235.492
 20
21.0688
 30
0.0
 11
236.529
 21
23.7188
 31
0.0
  0
LINE
  8
0
 62
     0
 10
236.529
 20
23.7188
 30
0.0
 11
236.802
 21
24.2686
 31
0.0
  0
LINE
  8
0
 62
     0
 10
236.802
 20
24.2686
 30
0.0
 11
237.14
 21
24.9521
 31
0.0
  0
LINE
  8
0
 62
     0
 10
237.14
 20
24.9521
 30
0.0
 11
238.257
 21
26.9503
 31
0.0
  0
LINE
  8
0
 62
     0
 10
238.257
 20
26.9503
 30
0.0
 11
240.021
 21
29.807
 31
0.0
  0
LINE
  8
0
 62
     0
 10
240.021
 20
29.807
 30
0.0
 11
241.967
 21
32.676
 31
0.0
  0
LINE
  8
0
 62
     0
 10
241.967
 20
32.676
 30
0.0
 11
243.969
 21
35.3921
 31
0.0
  0
LINE
  8
0
 62
     0
 10
243.969
 20
35.3921
 30
0.0
 11
245.901
 21
37.7913
 31
0.0
  0
LINE
  8
0
 62
     0
 10
245.901
 20
37.7913
 30
0.0
 11
247.638
 21
39.7083
 31
0.0
  0
LINE
  8
0
 62
     0
 10
247.638
 20
39.7083
 30
0.0
 11
249.052
 21
40.9787
 31
0.0
  0
LINE
  8
0
 62
     0
 10
249.052
 20
40.9787
 30
0.0
 11
249.775
 21
41.4376
 31
0.0
  0
LINE
  8
0
 62
     0
 10
249.775
 20
41.4376
 30
0.0
 11
250.017
 21
41.4376
 31
0.0
  0
LINE
  8
0
 62
     0
 10
250.017
 20
41.4376
 30
0.0
 11
250.115
 21
41.4376
 31
0.0
  0
LINE
  8
0
 62
     0
 10
250.115
 20
41.4376
 30
0.0
 11
250.409
 21
41.3921
 31
0.0
  0
LINE
  8
0
 62
     0
 10
250.409
 20
41.3921
 30
0.0
 11
250.771
 21
41.1579
 31
0.0
  0
LINE
  8
0
 62
     0
 10
250.771
 20
41.1579
 30
0.0
 11
250.826
 21
41.064
 31
0.0
  0
LINE
  8
0
 62
     0
 10
250.826
 20
41.064
 30
0.0
 11
250.839
 21
41.2433
 31
0.0
  0
LINE
  8
0
 62
     0
 10
250.839
 20
41.2433
 30
0.0
 11
250.591
 21
41.8028
 31
0.0
  0
LINE
  8
0
 62
     0
 10
250.591
 20
41.8028
 30
0.0
 11
249.951
 21
42.6406
 31
0.0
  0
LINE
  8
0
 62
     0
 10
249.951
 20
42.6406
 30
0.0
 11
249.142
 21
43.3268
 31
0.0
  0
LINE
  8
0
 62
     0
 10
249.142
 20
43.3268
 30
0.0
 11
248.586
 21
43.6107
 31
0.0
  0
LINE
  8
0
 62
     0
 10
248.586
 20
43.6107
 30
0.0
 11
248.401
 21
43.6107
 31
0.0
  0
LINE
  8
0
 62
     0
 10
248.401
 20
43.6107
 30
0.0
 11
248.035
 21
43.6107
 31
0.0
  0
LINE
  8
0
 62
     0
 10
248.035
 20
43.6107
 30
0.0
 11
246.939
 21
43.1588
 31
0.0
  0
LINE
  8
0
 62
     0
 10
246.939
 20
43.1588
 30
0.0
 11
244.591
 21
41.8924
 31
0.0
  0
LINE
  8
0
 62
     0
 10
244.591
 20
41.8924
 30
0.0
 11
241.577
 21
39.944
 31
0.0
  0
LINE
  8
0
 62
     0
 10
241.577
 20
39.944
 30
0.0
 11
238.119
 21
37.4495
 31
0.0
  0
LINE
  8
0
 62
     0
 10
238.119
 20
37.4495
 30
0.0
 11
234.437
 21
34.5405
 31
0.0
  0
LINE
  8
0
 62
     0
 10
234.437
 20
34.5405
 30
0.0
 11
230.755
 21
31.3517
 31
0.0
  0
LINE
  8
0
 62
     0
 10
230.755
 20
31.3517
 30
0.0
 11
227.292
 21
28.0183
 31
0.0
  0
LINE
  8
0
 62
     0
 10
227.292
 20
28.0183
 30
0.0
 11
224.987
 21
25.5419
 31
0.0
  0
LINE
  8
0
 62
     0
 10
224.987
 20
25.5419
 30
0.0
 11
224.27
 21
24.6724
 31
0.0
  0
LINE
  8
0
 62
     0
 10
224.27
 20
24.6724
 30
0.0
 11
224.698
 21
25.2319
 31
0.0
  0
LINE
  8
0
 62
     0
 10
224.698
 20
25.2319
 30
0.0
 11
225.969
 21
26.9214
 31
0.0
  0
LINE
  8
0
 62
     0
 10
225.969
 20
26.9214
 30
0.0
 11
227.817
 21
29.4404
 31
0.0
  0
LINE
  8
0
 62
     0
 10
227.817
 20
29.4404
 30
0.0
 11
229.7
 21
32.1069
 31
0.0
  0
LINE
  8
0
 62
     0
 10
229.7
 20
32.1069
 30
0.0
 11
231.499
 21
34.7982
 31
0.0
  0
LINE
  8
0
 62
     0
 10
231.499
 20
34.7982
 30
0.0
 11
233.101
 21
37.3916
 31
0.0
  0
LINE
  8
0
 62
     0
 10
233.101
 20
37.3916
 30
0.0
 11
234.388
 21
39.7662
 31
0.0
  0
LINE
  8
0
 62
     0
 10
234.388
 20
39.7662
 30
0.0
 11
235.245
 21
41.7971
 31
0.0
  0
LINE
  8
0
 62
     0
 10
235.245
 20
41.7971
 30
0.0
 11
235.558
 21
42.9715
 31
0.0
  0
LINE
  8
0
 62
     0
 10
235.558
 20
42.9715
 30
0.0
 11
235.558
 21
43.3627
 31
0.0
  0
LINE
  8
0
 62
     0
 10
235.558
 20
43.3627
 30
0.0
 11
235.558
 21
43.79
 31
0.0
  0
LINE
  8
0
 62
     0
 10
235.558
 20
43.79
 30
0.0
 11
235.263
 21
45.0674
 31
0.0
  0
LINE
  8
0
 62
     0
 10
235.263
 20
45.0674
 30
0.0
 11
234.395
 21
46.3352
 31
0.0
  0
LINE
  8
0
 62
     0
 10
234.395
 20
46.3352
 30
0.0
 11
232.973
 21
47.1262
 31
0.0
  0
LINE
  8
0
 62
     0
 10
232.973
 20
47.1262
 30
0.0
 11
231.505
 21
47.3975
 31
0.0
  0
LINE
  8
0
 62
     0
 10
231.505
 20
47.3975
 30
0.0
 11
231.017
 21
47.3975
 31
0.0
  0
LINE
  8
0
 62
     0
 10
218.263
 20
23.7036
 30
0.0
 11
218.815
 21
23.7036
 31
0.0
  0
LINE
  8
0
 62
     0
 10
218.815
 20
23.7036
 30
0.0
 11
220.3
 21
23.5493
 31
0.0
  0
LINE
  8
0
 62
     0
 10
220.3
 20
23.5493
 30
0.0
 11
220.471
 21
23.5176
 31
0.0
  0
LINE
  8
0
 62
     0
 10
220.471
 20
23.5176
 30
0.0
 11
219.953
 21
22.8713
 31
0.0
  0
LINE
  8
0
 62
     0
 10
219.953
 20
22.8713
 30
0.0
 11
218.277
 21
21.0275
 31
0.0
  0
LINE
  8
0
 62
     0
 10
218.277
 20
21.0275
 30
0.0
 11
215.655
 21
18.4795
 31
0.0
  0
LINE
  8
0
 62
     0
 10
215.655
 20
18.4795
 30
0.0
 11
212.729
 21
15.9949
 31
0.0
  0
LINE
  8
0
 62
     0
 10
212.729
 20
15.9949
 30
0.0
 11
209.63
 21
13.6922
 31
0.0
  0
LINE
  8
0
 62
     0
 10
209.63
 20
13.6922
 30
0.0
 11
206.481
 21
11.6913
 31
0.0
  0
LINE
  8
0
 62
     0
 10
206.481
 20
11.6913
 30
0.0
 11
203.412
 21
10.1148
 31
0.0
  0
LINE
  8
0
 62
     0
 10
203.412
 20
10.1148
 30
0.0
 11
200.549
 21
9.0799
 31
0.0
  0
LINE
  8
0
 62
     0
 10
200.549
 20
9.0799
 30
0.0
 11
198.651
 21
8.70783
 31
0.0
  0
LINE
  8
0
 62
     0
 10
198.651
 20
8.70783
 30
0.0
 11
198.02
 21
8.70783
 31
0.0
  0
LINE
  8
0
 62
     0
 10
198.02
 20
8.70783
 30
0.0
 11
197.814
 21
8.70783
 31
0.0
  0
LINE
  8
0
 62
     0
 10
197.814
 20
8.70783
 30
0.0
 11
197.199
 21
8.80844
 31
0.0
  0
LINE
  8
0
 62
     0
 10
197.199
 20
8.80844
 30
0.0
 11
196.511
 21
9.11571
 31
0.0
  0
LINE
  8
0
 62
     0
 10
196.511
 20
9.11571
 30
0.0
 11
196.034
 21
9.63799
 31
0.0
  0
LINE
  8
0
 62
     0
 10
196.034
 20
9.63799
 30
0.0
 11
195.847
 21
10.1975
 31
0.0
  0
LINE
  8
0
 62
     0
 10
195.847
 20
10.1975
 30
0.0
 11
195.843
 21
10.3849
 31
0.0
  0
LINE
  8
0
 62
     0
 10
195.843
 20
10.3849
 30
0.0
 11
195.833
 21
10.9802
 31
0.0
  0
LINE
  8
0
 62
     0
 10
195.833
 20
10.9802
 30
0.0
 11
196.42
 21
12.7758
 31
0.0
  0
LINE
  8
0
 62
     0
 10
196.42
 20
12.7758
 30
0.0
 11
198.078
 21
15.1391
 31
0.0
  0
LINE
  8
0
 62
     0
 10
198.078
 20
15.1391
 30
0.0
 11
200.591
 21
17.3826
 31
0.0
  0
LINE
  8
0
 62
     0
 10
200.591
 20
17.3826
 30
0.0
 11
203.742
 21
19.4193
 31
0.0
  0
LINE
  8
0
 62
     0
 10
203.742
 20
19.4193
 30
0.0
 11
207.304
 21
21.1598
 31
0.0
  0
LINE
  8
0
 62
     0
 10
207.304
 20
21.1598
 30
0.0
 11
211.06
 21
22.5144
 31
0.0
  0
LINE
  8
0
 62
     0
 10
211.06
 20
22.5144
 30
0.0
 11
214.787
 21
23.3922
 31
0.0
  0
LINE
  8
0
 62
     0
 10
214.787
 20
23.3922
 30
0.0
 11
217.394
 21
23.7036
 31
0.0
  0
LINE
  8
0
 62
     0
 10
217.394
 20
23.7036
 30
0.0
 11
218.263
 21
23.7036
 31
0.0
  0
LINE
  8
0
 62
     1
 10
1.3491
 20
211.81
 30
0.0
 11
13.1368
 21
211.81
 31
0.0
  0
LINE
  8
0
 62
     1
 10
13.1368
 20
211.81
 30
0.0
 11
13.1368
 21
208.609
 31
0.0
  0
LINE
  8
0
 62
     1
 10
13.1368
 20
208.609
 30
0.0
 11
24.7633
 21
208.609
 31
0.0
  0
LINE
  8
0
 62
     1
 10
24.7633
 20
208.609
 30
0.0
 11
24.7633
 21
211.81
 31
0.0
  0
LINE
  8
0
 62
     1
 10
24.7633
 20
211.81
 30
0.0
 11
36.6035
 21
211.81
 31
0.0
  0
LINE
  8
0
 62
     1
 10
36.6035
 20
211.81
 30
0.0
 11
36.6035
 21
208.609
 31
0.0
  0
LINE
  8
0
 62
     1
 10
36.6035
 20
208.609
 30
0.0
 11
48.23
 21
208.609
 31
0.0
  0
LINE
  8
0
 62
     1
 10
48.23
 20
208.609
 30
0.0
 11
48.23
 21
211.81
 31
0.0
  0
LINE
  8
0
 62
     1
 10
48.23
 20
211.81
 30
0.0
 11
60.0699
 21
211.81
 31
0.0
  0
LINE
  8
0
 62
     1
 10
60.0699
 20
211.81
 30
0.0
 11
60.0699
 21
208.609
 31
0.0
  0
LINE
  8
0
 62
     1
 10
60.0699
 20
208.609
 30
0.0
 11
71.6964
 21
208.609
 31
0.0
  0
LINE
  8
0
 62
     1
 10
71.6964
 20
208.609
 30
0.0
 11
71.6964
 21
211.81
 31
0.0
  0
LINE
  8
0
 62
     1
 10
71.6964
 20
211.81
 30
0.0
 11
83.5367
 21
211.81
 31
0.0
  0
LINE
  8
0
 62
     1
 10
83.5367
 20
211.81
 30
0.0
 11
83.5367
 21
208.609
 31
0.0
  0
LINE
  8
0
 62
     1
 10
83.5367
 20
208.609
 30
0.0
 11
95.1632
 21
208.609
 31
0.0
  0
LINE
  8
0
 62
     1
 10
95.1632
 20
208.609
 30
0.0
 11
95.1632
 21
211.81
 31
0.0
  0
LINE
  8
0
 62
     1
 10
95.1632
 20
211.81
 30
0.0
 11
107.003
 21
211.81
 31
0.0
  0
LINE
  8
0
 62
     1
 10
107.003
 20
211.81
 30
0.0
 11
107.003
 21
208.609
 31
0.0
  0
LINE
  8
0
 62
     1
 10
107.003
 20
208.609
 30
0.0
 11
118.63
 21
208.609
 31
0.0
  0
LINE
  8
0
 62
     1
 10
118.63
 20
208.609
 30
0.0
 11
118.63
 21
211.81
 31
0.0
  0
LINE
  8
0
 62
     1
 10
118.63
 20
211.81
 30
0.0
 11
130.47
 21
211.81
 31
0.0
  0
LINE
  8
0
 62
     1
 10
130.47
 20
211.81
 30
0.0
 11
130.47
 21
208.609
 31
0.0
  0
LINE
  8
0
 62
     1
 10
130.47
 20
208.609
 30
0.0
 11
142.096
 21
208.609
 31
0.0
  0
LINE
  8
0
 62
     1
 10
142.096
 20
208.609
 30
0.0
 11
142.096
 21
211.81
 31
0.0
  0
LINE
  8
0
 62
     1
 10
142.096
 20
211.81
 30
0.0
 11
153.936
 21
211.81
 31
0.0
  0
LINE
  8
0
 62
     1
 10
153.936
 20
211.81
 30
0.0
 11
153.936
 21
208.609
 31
0.0
  0
LINE
  8
0
 62
     1
 10
153.936
 20
208.609
 30
0.0
 11
165.563
 21
208.609
 31
0.0
  0
LINE
  8
0
 62
     1
 10
165.563
 20
208.609
 30
0.0
 11
165.563
 21
211.81
 31
0.0
  0
LINE
  8
0
 62
     1
 10
165.563
 20
211.81
 30
0.0
 11
177.35
 21
211.81
 31
0.0
  0
LINE
  8
0
 62
     1
 10
177.35
 20
211.81
 30
0.0
 11
177.35
 21
196.467
 31
0.0
  0
LINE
  8
0
 62
     1
 10
177.35
 20
196.467
 30
0.0
 11
174.149
 21
196.467
 31
0.0
  0
LINE
  8
0
 62
     1
 10
174.149
 20
196.467
 30
0.0
 11
174.149
 21
181.285
 31
0.0
  0
LINE
  8
0
 62
     1
 10
174.149
 20
181.285
 30
0.0
 11
177.35
 21
181.285
 31
0.0
  0
LINE
  8
0
 62
     1
 10
177.35
 20
181.285
 30
0.0
 11
177.35
 21
165.943
 31
0.0
  0
LINE
  8
0
 62
     1
 10
177.35
 20
165.943
 30
0.0
 11
165.563
 21
165.943
 31
0.0
  0
LINE
  8
0
 62
     1
 10
165.563
 20
165.943
 30
0.0
 11
165.563
 21
169.143
 31
0.0
  0
LINE
  8
0
 62
     1
 10
165.563
 20
169.143
 30
0.0
 11
153.936
 21
169.143
 31
0.0
  0
LINE
  8
0
 62
     1
 10
153.936
 20
169.143
 30
0.0
 11
153.936
 21
165.943
 31
0.0
  0
LINE
  8
0
 62
     1
 10
153.936
 20
165.943
 30
0.0
 11
142.096
 21
165.943
 31
0.0
  0
LINE
  8
0
 62
     1
 10
142.096
 20
165.943
 30
0.0
 11
142.096
 21
169.143
 31
0.0
  0
LINE
  8
0
 62
     1
 10
142.096
 20
169.143
 30
0.0
 11
130.47
 21
169.143
 31
0.0
  0
LINE
  8
0
 62
     1
 10
130.47
 20
169.143
 30
0.0
 11
130.47
 21
165.943
 31
0.0
  0
LINE
  8
0
 62
     1
 10
130.47
 20
165.943
 30
0.0
 11
118.63
 21
165.943
 31
0.0
  0
LINE
  8
0
 62
     1
 10
118.63
 20
165.943
 30
0.0
 11
118.63
 21
169.143
 31
0.0
  0
LINE
  8
0
 62
     1
 10
118.63
 20
169.143
 30
0.0
 11
107.003
 21
169.143
 31
0.0
  0
LINE
  8
0
 62
     1
 10
107.003
 20
169.143
 30
0.0
 11
107.003
 21
165.943
 31
0.0
  0
LINE
  8
0
 62
     1
 10
107.003
 20
165.943
 30
0.0
 11
95.1632
 21
165.943
 31
0.0
  0
LINE
  8
0
 62
     1
 10
95.1632
 20
165.943
 30
0.0
 11
95.1632
 21
169.143
 31
0.0
  0
LINE
  8
0
 62
     1
 10
95.1632
 20
169.143
 30
0.0
 11
83.5367
 21
169.143
 31
0.0
  0
LINE
  8
0
 62
     1
 10
83.5367
 20
169.143
 30
0.0
 11
83.5367
 21
165.943
 31
0.0
  0
LINE
  8
0
 62
     1
 10
83.5367
 20
165.943
 30
0.0
 11
71.6964
 21
165.943
 31
0.0
  0
LINE
  8
0
 62
     1
 10
71.6964
 20
165.943
 30
0.0
 11
71.6964
 21
169.143
 31
0.0
  0
LINE
  8
0
 62
     1
 10
71.6964
 20
169.143
 30
0.0
 11
60.0699
 21
169.143
 31
0.0
  0
LINE
  8
0
 62
     1
 10
60.0699
 20
169.143
 30
0.0
 11
60.0699
 21
165.943
 31
0.0
  0
LINE
  8
0
 62
     1
 10
60.0699
 20
165.943
 30
0.0
 11
48.23
 21
165.943
 31
0.0
  0
LINE
  8
0
 62
     1
 10
48.23
 20
165.943
 30
0.0
 11
48.23
 21
169.143
 31
0.0
  0
LINE
  8
0
 62
     1
 10
48.23
 20
169.143
 30
0.0
 11
36.6035
 21
169.143
 31
0.0
  0
LINE
  8
0
 62
     1
 10
36.6035
 20
169.143
 30
0.0
 11
36.6035
 21
165.943
 31
0.0
  0
LINE
  8
0
 62
     1
 10
36.6035
 20
165.943
 30
0.0
 11
24.7633
 21
165.943
 31
0.0
  0
LINE
  8
0
 62
     1
 10
24.7633
 20
165.943
 30
0.0
 11
24.7633
 21
169.143
 31
0.0
  0
LINE
  8
0
 62
     1
 10
24.7633
 20
169.143
 30
0.0
 11
13.1368
 21
169.143
 31
0.0
  0
LINE
  8
0
 62
     1
 10
13.1368
 20
169.143
 30
0.0
 11
13.1368
 21
165.943
 31
0.0
  0
LINE
  8
0
 62
     1
 10
13.1368
 20
165.943
 30
0.0
 11
1.3491
 21
165.943
 31
0.0
  0
LINE
  8
0
 62
     1
 10
1.3491
 20
165.943
 30
0.0
 11
1.3491
 21
181.285
 31
0.0
  0
LINE
  8
0
 62
     1
 10
1.3491
 20
181.285
 30
0.0
 11
4.54889
 21
181.285
 31
0.0
  0
LINE
  8
0
 62
     1
 10
4.54889
 20
181.285
 30
0.0
 11
4.54889
 21
196.467
 31
0.0
  0
LINE
  8
0
 62
     1
 10
4.54889
 20
196.467
 30
0.0
 11
1.3491
 21
196.467
 31
0.0
  0
LINE
  8
0
 62
     1
 10
1.3491
 20
196.467
 30
0.0
 11
1.3491
 21
211.81
 31
0.0
  0
LINE
  8
0
 62
     1
 10
0.14056
 20
4.70461
 30
0.0
 11
0.14056
 21
16.4097
 31
0.0
  0
LINE
  8
0
 62
     1
 10
0.14056
 20
16.4097
 30
0.0
 11
11.8208
 21
16.4097
 31
0.0
  0
LINE
  8
0
 62
     1
 10
11.8208
 20
16.4097
 30
0.0
 11
11.8208
 21
19.6095
 31
0.0
  0
LINE
  8
0
 62
     1
 10
11.8208
 20
19.6095
 30
0.0
 11
23.6609
 21
19.6095
 31
0.0
  0
LINE
  8
0
 62
     1
 10
23.6609
 20
19.6095
 30
0.0
 11
23.6609
 21
16.4097
 31
0.0
  0
LINE
  8
0
 62
     1
 10
23.6609
 20
16.4097
 30
0.0
 11
35.2873
 21
16.4097
 31
0.0
  0
LINE
  8
0
 62
     1
 10
35.2873
 20
16.4097
 30
0.0
 11
35.2873
 21
19.6095
 31
0.0
  0
LINE
  8
0
 62
     1
 10
35.2873
 20
19.6095
 30
0.0
 11
47.1276
 21
19.6095
 31
0.0
  0
LINE
  8
0
 62
     1
 10
47.1276
 20
19.6095
 30
0.0
 11
47.1276
 21
16.4097
 31
0.0
  0
LINE
  8
0
 62
     1
 10
47.1276
 20
16.4097
 30
0.0
 11
58.7541
 21
16.4097
 31
0.0
  0
LINE
  8
0
 62
     1
 10
58.7541
 20
16.4097
 30
0.0
 11
58.7541
 21
19.6095
 31
0.0
  0
LINE
  8
0
 62
     1
 10
58.7541
 20
19.6095
 30
0.0
 11
70.594
 21
19.6095
 31
0.0
  0
LINE
  8
0
 62
     1
 10
70.594
 20
19.6095
 30
0.0
 11
70.594
 21
16.4097
 31
0.0
  0
LINE
  8
0
 62
     1
 10
70.594
 20
16.4097
 30
0.0
 11
82.2205
 21
16.4097
 31
0.0
  0
LINE
  8
0
 62
     1
 10
82.2205
 20
16.4097
 30
0.0
 11
82.2205
 21
19.6095
 31
0.0
  0
LINE
  8
0
 62
     1
 10
82.2205
 20
19.6095
 30
0.0
 11
94.0608
 21
19.6095
 31
0.0
  0
LINE
  8
0
 62
     1
 10
94.0608
 20
19.6095
 30
0.0
 11
94.0608
 21
16.4097
 31
0.0
  0
LINE
  8
0
 62
     1
 10
94.0608
 20
16.4097
 30
0.0
 11
105.687
 21
16.4097
 31
0.0
  0
LINE
  8
0
 62
     1
 10
105.687
 20
16.4097
 30
0.0
 11
105.687
 21
19.6095
 31
0.0
  0
LINE
  8
0
 62
     1
 10
105.687
 20
19.6095
 30
0.0
 11
117.527
 21
19.6095
 31
0.0
  0
LINE
  8
0
 62
     1
 10
117.527
 20
19.6095
 30
0.0
 11
117.527
 21
16.4097
 31
0.0
  0
LINE
  8
0
 62
     1
 10
117.527
 20
16.4097
 30
0.0
 11
129.154
 21
16.4097
 31
0.0
  0
LINE
  8
0
 62
     1
 10
129.154
 20
16.4097
 30
0.0
 11
129.154
 21
19.6095
 31
0.0
  0
LINE
  8
0
 62
     1
 10
129.154
 20
19.6095
 30
0.0
 11
140.994
 21
19.6095
 31
0.0
  0
LINE
  8
0
 62
     1
 10
140.994
 20
19.6095
 30
0.0
 11
140.994
 21
16.4097
 31
0.0
  0
LINE
  8
0
 62
     1
 10
140.994
 20
16.4097
 30
0.0
 11
152.62
 21
16.4097
 31
0.0
  0
LINE
  8
0
 62
     1
 10
152.62
 20
16.4097
 30
0.0
 11
152.62
 21
19.6095
 31
0.0
  0
LINE
  8
0
 62
     1
 10
152.62
 20
19.6095
 30
0.0
 11
164.461
 21
19.6095
 31
0.0
  0
LINE
  8
0
 62
     1
 10
164.461
 20
19.6095
 30
0.0
 11
164.461
 21
16.4097
 31
0.0
  0
LINE
  8
0
 62
     1
 10
164.461
 20
16.4097
 30
0.0
 11
176.141
 21
16.4097
 31
0.0
  0
LINE
  8
0
 62
     1
 10
176.141
 20
16.4097
 30
0.0
 11
176.141
 21
4.70461
 31
0.0
  0
LINE
  8
0
 62
     1
 10
176.141
 20
4.70461
 30
0.0
 11
132.14
 21
4.70461
 31
0.0
  0
LINE
  8
0
 62
     1
 10
132.14
 20
4.70461
 30
0.0
 11
33.1404
 21
4.70461
 31
0.0
  0
LINE
  8
0
 62
     1
 10
33.1404
 20
4.70461
 30
0.0
 11
0.14056
 21
4.70461
 31
0.0
  0
LINE
  8
0
 62
     1
 10
174.367
 20
74.6111
 30
0.0
 11
174.367
 21
86.6468
 31
0.0
  0
LINE
  8
0
 62
     1
 10
174.367
 20
86.6468
 30
0.0
 11
177.567
 21
86.6468
 31
0.0
  0
LINE
  8
0
 62
     1
 10
177.567
 20
86.6468
 30
0.0
 11
177.567
 21
102.042
 31
0.0
  0
LINE
  8
0
 62
     1
 10
177.567
 20
102.042
 30
0.0
 11
174.367
 21
102.042
 31
0.0
  0
LINE
  8
0
 62
     1
 10
174.367
 20
102.042
 30
0.0
 11
174.367
 21
114.077
 31
0.0
  0
LINE
  8
0
 62
     1
 10
174.367
 20
114.077
 30
0.0
 11
162.77
 21
114.077
 31
0.0
  0
LINE
  8
0
 62
     1
 10
162.77
 20
114.077
 30
0.0
 11
162.77
 21
117.278
 31
0.0
  0
LINE
  8
0
 62
     1
 10
162.77
 20
117.278
 30
0.0
 11
57.8019
 21
117.278
 31
0.0
  0
LINE
  8
0
 62
     1
 10
57.8019
 20
117.278
 30
0.0
 11
57.8019
 21
114.077
 31
0.0
  0
LINE
  8
0
 62
     1
 10
57.8019
 20
114.077
 30
0.0
 11
46.2566
 21
114.077
 31
0.0
  0
LINE
  8
0
 62
     1
 10
46.2566
 20
114.077
 30
0.0
 11
46.2566
 21
117.278
 31
0.0
  0
LINE
  8
0
 62
     1
 10
46.2566
 20
117.278
 30
0.0
 11
34.4992
 21
117.278
 31
0.0
  0
LINE
  8
0
 62
     1
 10
34.4992
 20
117.278
 30
0.0
 11
34.4992
 21
114.077
 31
0.0
  0
LINE
  8
0
 62
     1
 10
34.4992
 20
114.077
 30
0.0
 11
22.9016
 21
114.077
 31
0.0
  0
LINE
  8
0
 62
     1
 10
22.9016
 20
114.077
 30
0.0
 11
22.9016
 21
102.042
 31
0.0
  0
LINE
  8
0
 62
     1
 10
22.9016
 20
102.042
 30
0.0
 11
19.7005
 21
102.042
 31
0.0
  0
LINE
  8
0
 62
     1
 10
19.7005
 20
102.042
 30
0.0
 11
19.7005
 21
86.6468
 31
0.0
  0
LINE
  8
0
 62
     1
 10
19.7005
 20
86.6468
 30
0.0
 11
22.9016
 21
86.6468
 31
0.0
  0
LINE
  8
0
 62
     1
 10
22.9016
 20
86.6468
 30
0.0
 11
22.9016
 21
74.6111
 31
0.0
  0
LINE
  8
0
 62
     1
 10
22.9016
 20
74.6111
 30
0.0
 11
34.4992
 21
74.6111
 31
0.0
  0
LINE
  8
0
 62
     1
 10
34.4992
 20
74.6111
 30
0.0
 11
34.4992
 21
71.4114
 31
0.0
  0
LINE
  8
0
 62
     1
 10
34.4992
 20
71.4114
 30
0.0
 11
46.2566
 21
71.4114
 31
0.0
  0
LINE
  8
0
 62
     1
 10
46.2566
 20
71.4114
 30
0.0
 11
46.2566
 21
74.6111
 31
0.0
  0
LINE
  8
0
 62
     1
 10
46.2566
 20
74.6111
 30
0.0
 11
57.8019
 21
74.6111
 31
0.0
  0
LINE
  8
0
 62
     1
 10
57.8019
 20
74.6111
 30
0.0
 11
57.8019
 21
71.4114
 31
0.0
  0
LINE
  8
0
 62
     1
 10
57.8019
 20
71.4114
 30
0.0
 11
69.5593
 21
71.4114
 31
0.0
  0
LINE
  8
0
 62
     1
 10
69.5593
 20
71.4114
 30
0.0
 11
69.5593
 21
74.6111
 31
0.0
  0
LINE
  8
0
 62
     1
 10
69.5593
 20
74.6111
 30
0.0
 11
81.1043
 21
74.6111
 31
0.0
  0
LINE
  8
0
 62
     1
 10
81.1043
 20
74.6111
 30
0.0
 11
81.1043
 21
71.4114
 31
0.0
  0
LINE
  8
0
 62
     1
 10
81.1043
 20
71.4114
 30
0.0
 11
92.8617
 21
71.4114
 31
0.0
  0
LINE
  8
0
 62
     1
 10
92.8617
 20
71.4114
 30
0.0
 11
92.8617
 21
74.6111
 31
0.0
  0
LINE
  8
0
 62
     1
 10
92.8617
 20
74.6111
 30
0.0
 11
104.407
 21
74.6111
 31
0.0
  0
LINE
  8
0
 62
     1
 10
104.407
 20
74.6111
 30
0.0
 11
104.407
 21
71.4114
 31
0.0
  0
LINE
  8
0
 62
     1
 10
104.407
 20
71.4114
 30
0.0
 11
116.164
 21
71.4114
 31
0.0
  0
LINE
  8
0
 62
     1
 10
116.164
 20
71.4114
 30
0.0
 11
116.164
 21
74.6111
 31
0.0
  0
LINE
  8
0
 62
     1
 10
116.164
 20
74.6111
 30
0.0
 11
127.71
 21
74.6111
 31
0.0
  0
LINE
  8
0
 62
     1
 10
127.71
 20
74.6111
 30
0.0
 11
127.71
 21
71.4114
 31
0.0
  0
LINE
  8
0
 62
     1
 10
127.71
 20
71.4114
 30
0.0
 11
139.467
 21
71.4114
 31
0.0
  0
LINE
  8
0
 62
     1
 10
139.467
 20
71.4114
 30
0.0
 11
139.467
 21
74.6111
 31
0.0
  0
LINE
  8
0
 62
     1
 10
139.467
 20
74.6111
 30
0.0
 11
151.012
 21
74.6111
 31
0.0
  0
LINE
  8
0
 62
     1
 10
151.012
 20
74.6111
 30
0.0
 11
151.012
 21
71.4114
 31
0.0
  0
LINE
  8
0
 62
     1
 10
151.012
 20
71.4114
 30
0.0
 11
162.77
 21
71.4114
 31
0.0
  0
LINE
  8
0
 62
     1
 10
162.77
 20
71.4114
 30
0.0
 11
162.77
 21
74.6111
 31
0.0
  0
LINE
  8
0
 62
     1
 10
162.77
 20
74.6111
 30
0.0
 11
174.367
 21
74.6111
 31
0.0
  0
ENDSEC
  0
EOF
