<?xml version="1.0" encoding="UTF-8" standalone="no"?>
<!-- Created with Inkscape (http://www.inkscape.org/) -->

<svg
   xmlns:dc="http://purl.org/dc/elements/1.1/"
   xmlns:cc="http://creativecommons.org/ns#"
   xmlns:rdf="http://www.w3.org/1999/02/22-rdf-syntax-ns#"
   xmlns:svg="http://www.w3.org/2000/svg"
   xmlns="http://www.w3.org/2000/svg"
   xmlns:sodipodi="http://sodipodi.sourceforge.net/DTD/sodipodi-0.dtd"
   xmlns:inkscape="http://www.inkscape.org/namespaces/inkscape"
   width="107.02854mm"
   height="75.715408mm"
   viewBox="0 0 107.02854 75.715408"
   version="1.1"
   id="svg4522"
   inkscape:version="0.92.1 r15371"
   sodipodi:docname="logo.svg">
  <defs
     id="defs4516" />
  <sodipodi:namedview
     id="base"
     pagecolor="#ffffff"
     bordercolor="#666666"
     borderopacity="1.0"
     inkscape:pageopacity="0.0"
     inkscape:pageshadow="2"
     inkscape:zoom="1.5079077"
     inkscape:cx="124.95196"
     inkscape:cy="62.5205"
     inkscape:document-units="mm"
     inkscape:current-layer="layer1"
     showgrid="false"
     fit-margin-top="0"
     fit-margin-left="0"
     fit-margin-right="0"
     fit-margin-bottom="0"
     showborder="false"
     inkscape:window-width="1920"
     inkscape:window-height="995"
     inkscape:window-x="1280"
     inkscape:window-y="0"
     inkscape:window-maximized="1" />
  <metadata
     id="metadata4519">
    <rdf:RDF>
      <cc:Work
         rdf:about="">
        <dc:format>image/svg+xml</dc:format>
        <dc:type
           rdf:resource="http://purl.org/dc/dcmitype/StillImage" />
        <dc:title />
      </cc:Work>
    </rdf:RDF>
  </metadata>
  <g
     inkscape:label="Calque 1"
     inkscape:groupmode="layer"
     id="layer1"
     transform="translate(-43.223416,-29.036814)">
    <path
       inkscape:connector-curvature="0"
       style="opacity:1;fill:none;fill-opacity:1;fill-rule:nonzero;stroke:#000000;stroke-width:0.5;stroke-linecap:round;stroke-linejoin:round;stroke-miterlimit:4;stroke-dasharray:none;stroke-dashoffset:0;stroke-opacity:1"
       d="m 140.37531,84.360435 c -1.24206,1.879975 -2.81952,3.490023 -4.44628,4.713253 -3.4717,2.285213 -10.47574,4.67167 -13.26069,4.768376 -4.75464,0 -8.26597,-0.733838 -8.26597,-5.660318 0,-2.74967 1.31783,-6.75952 3.32279,-10.82672 6.18676,-12.48807 20.90872,-31.678175 24.3458,-31.678175 0.34372,0 1.08831,-1.19e-4 1.48931,0.687298 0.11456,-1.489403 -2.92124,-4.697389 -4.46794,-4.697389 -4.64005,0 -31.04848,18.674756 -44.453096,34.943606 7.790736,-10.19668 20.794586,-28.126635 20.794586,-34.485237 0,-4.697344 -2.92177,-7.447089 -8.36382,-7.447089 l -4e-5,1.22e-4 c -17.070814,0 -46.228706,22.054839 -46.228706,31.277674 0,1.71854 1.145448,3.1502 2.921267,3.1502 1.374842,0 4.812111,-1.37477 4.812111,-1.89033 -0.57285,0.17185 -2.234224,0.45837 -2.807063,0.45837 -0.515569,0 -1.088306,-0.34352 -1.088306,-1.03094 0,-3.60893 25.679584,-29.567969 41.776577,-29.567969 2.11955,0 4.81211,0.458329 4.81211,3.150711 0,5.870395 -13.673511,23.171857 -22.107156,36.304567 -1.772814,-0.27911 -3.399716,-0.24495 -5.290116,-0.24495 -20.106922,0 -45.836994,16.817301 -44.805873,27.930545 0.458279,4.23906 3.952608,5.78606 8.134387,5.67149 15.12316,-0.28642 37.005933,-18.045184 46.68708,-30.304104 3.666225,0.68741 5.613455,1.48973 8.592238,2.57814 0.0573,0 0.0574,-0.0574 0.0574,-0.0574 -2.47391,-1.87207 -5.186073,-2.71158 -8.021215,-3.29385 7.978145,-8.81163 21.583545,-21.287818 36.099595,-29.639021 -4.64008,5.041054 -10.42585,13.232651 -14.4358,20.908801 -3.15066,5.95761 -5.27047,12.02957 -5.27047,16.55506 0,6.58774 4.69733,9.05113 10.88408,9.05113 0.57285,0 1.20335,-6e-5 1.83348,-0.0574 2.45145,-0.1751 7.94671,-1.65433 13.14027,-4.86327 5.19353,-3.20894 9.46303,-8.94906 8.70955,-15.6037 -0.52239,-4.61366 -3.73599,-6.80149 -6.15828,-5.65495 -2.82419,1.33678 -2.80043,4.8038 -1.80144,6.47609 -2.29312,-1.60442 -3.9124,-2.86942 -5.50252,-2.61896 -3.4962,0.55067 -1.27698,7.02414 5.89992,10.13943 1.89668,0.782635 1.47927,0.645348 2.46223,0.856909 z M 83.57475,78.399006 c 1.432121,0 2.807197,0.11451 4.067461,0.34365 -9.509268,11.91521 -29.960098,27.324954 -41.359758,27.324954 -2.119532,0 -3.952295,-0.97382 -4.009575,-3.09335 C 42.101018,91.288166 67.477751,78.399006 83.57475,78.399006 Z"
       id="path4502"
       sodipodi:nodetypes="cccscscscsccsscsssscsccccccccssccscccccscscs" />
  </g>
</svg>
