  0
SECTION
  2
HEADER
  9
$ACADVER
  1
AC1009
  9
$EXTMIN
 10
0.0
 20
0.0
 30
0.0
  9
$EXTMAX
 10
1000.0
 20
1000.0
 30
0.0
  9
$FILLMODE
 70
 0
  9
$SPLFRAME
 70
 1
  0
ENDSEC
  0
SECTION
  2
TABLES
  0
TABLE
  2
LAYER
 70
1
  0
LAYER
  2
0
 70
     0
 62
     7
  6
CONTINUOUS
  0
ENDTAB
  0
ENDSEC
  0
SECTION
  2
ENTITIES
  0
LINE
  8
0
 62
     0
 10
101.59
 20
25.7831
 30
0.0
 11
101.279
 21
25.3132
 31
0.0
  0
LINE
  8
0
 62
     0
 10
101.279
 20
25.3132
 30
0.0
 11
99.5109
 21
23.18
 31
0.0
  0
LINE
  8
0
 62
     0
 10
99.5109
 20
23.18
 30
0.0
 11
97.5512
 21
21.3747
 31
0.0
  0
LINE
  8
0
 62
     0
 10
97.5512
 20
21.3747
 30
0.0
 11
97.1448
 21
21.0688
 31
0.0
  0
LINE
  8
0
 62
     0
 10
97.1448
 20
21.0688
 30
0.0
 11
96.4008
 21
20.581
 31
0.0
  0
LINE
  8
0
 62
     0
 10
96.4008
 20
20.581
 30
0.0
 11
93.9987
 21
19.3738
 31
0.0
  0
LINE
  8
0
 62
     0
 10
93.9987
 20
19.3738
 30
0.0
 11
90.2561
 21
17.8649
 31
0.0
  0
LINE
  8
0
 62
     0
 10
90.2561
 20
17.8649
 30
0.0
 11
86.6415
 21
16.7652
 31
0.0
  0
LINE
  8
0
 62
     0
 10
86.6415
 20
16.7652
 30
0.0
 11
84.5757
 21
16.3256
 31
0.0
  0
LINE
  8
0
 62
     0
 10
84.5757
 20
16.3256
 30
0.0
 11
83.8839
 21
16.3008
 31
0.0
  0
LINE
  8
0
 62
     0
 10
83.8839
 20
16.3008
 30
0.0
 11
83.4528
 21
16.3008
 31
0.0
  0
LINE
  8
0
 62
     0
 10
83.4528
 20
16.3008
 30
0.0
 11
82.1626
 21
16.3421
 31
0.0
  0
LINE
  8
0
 62
     0
 10
82.1626
 20
16.3421
 30
0.0
 11
80.5864
 21
16.4937
 31
0.0
  0
LINE
  8
0
 62
     0
 10
80.5864
 20
16.4937
 30
0.0
 11
79.1792
 21
16.7942
 31
0.0
  0
LINE
  8
0
 62
     0
 10
79.1792
 20
16.7942
 30
0.0
 11
77.9681
 21
17.2847
 31
0.0
  0
LINE
  8
0
 62
     0
 10
77.9681
 20
17.2847
 30
0.0
 11
76.98
 21
18.0068
 31
0.0
  0
LINE
  8
0
 62
     0
 10
76.98
 20
18.0068
 30
0.0
 11
76.2413
 21
18.999
 31
0.0
  0
LINE
  8
0
 62
     0
 10
76.2413
 20
18.999
 30
0.0
 11
75.7784
 21
20.3054
 31
0.0
  0
LINE
  8
0
 62
     0
 10
75.7784
 20
20.3054
 30
0.0
 11
75.6186
 21
21.5484
 31
0.0
  0
LINE
  8
0
 62
     0
 10
75.6186
 20
21.5484
 30
0.0
 11
75.6186
 21
21.9618
 31
0.0
  0
LINE
  8
0
 62
     0
 10
75.6186
 20
21.9618
 30
0.0
 11
75.6186
 21
22.5323
 31
0.0
  0
LINE
  8
0
 62
     0
 10
75.6186
 20
22.5323
 30
0.0
 11
75.8553
 21
24.2425
 31
0.0
  0
LINE
  8
0
 62
     0
 10
75.8553
 20
24.2425
 30
0.0
 11
76.5267
 21
26.8814
 31
0.0
  0
LINE
  8
0
 62
     0
 10
76.5267
 20
26.8814
 30
0.0
 11
77.5751
 21
29.7684
 31
0.0
  0
LINE
  8
0
 62
     0
 10
77.5751
 20
29.7684
 30
0.0
 11
78.5742
 21
32.0463
 31
0.0
  0
LINE
  8
0
 62
     0
 10
78.5742
 20
32.0463
 30
0.0
 11
78.9411
 21
32.7877
 31
0.0
  0
LINE
  8
0
 62
     0
 10
78.9411
 20
32.7877
 30
0.0
 11
79.2427
 21
33.3968
 31
0.0
  0
LINE
  8
0
 62
     0
 10
79.2427
 20
33.3968
 30
0.0
 11
80.1949
 21
35.202
 31
0.0
  0
LINE
  8
0
 62
     0
 10
80.1949
 20
35.202
 30
0.0
 11
81.6211
 21
37.7349
 31
0.0
  0
LINE
  8
0
 62
     0
 10
81.6211
 20
37.7349
 30
0.0
 11
83.1896
 21
40.349
 31
0.0
  0
LINE
  8
0
 62
     0
 10
83.1896
 20
40.349
 30
0.0
 11
84.8706
 21
43.0057
 31
0.0
  0
LINE
  8
0
 62
     0
 10
84.8706
 20
43.0057
 30
0.0
 11
86.6359
 21
45.6696
 31
0.0
  0
LINE
  8
0
 62
     0
 10
86.6359
 20
45.6696
 30
0.0
 11
88.4562
 21
48.2988
 31
0.0
  0
LINE
  8
0
 62
     0
 10
88.4562
 20
48.2988
 30
0.0
 11
90.3016
 21
50.8593
 31
0.0
  0
LINE
  8
0
 62
     0
 10
90.3016
 20
50.8593
 30
0.0
 11
92.1438
 21
53.3107
 31
0.0
  0
LINE
  8
0
 62
     0
 10
92.1438
 20
53.3107
 30
0.0
 11
93.9546
 21
55.6147
 31
0.0
  0
LINE
  8
0
 62
     0
 10
93.9546
 20
55.6147
 30
0.0
 11
95.7033
 21
57.7356
 31
0.0
  0
LINE
  8
0
 62
     0
 10
95.7033
 20
57.7356
 30
0.0
 11
97.3624
 21
59.6346
 31
0.0
  0
LINE
  8
0
 62
     0
 10
97.3624
 20
59.6346
 30
0.0
 11
98.902
 21
61.2733
 31
0.0
  0
LINE
  8
0
 62
     0
 10
98.902
 20
61.2733
 30
0.0
 11
100.294
 21
62.6138
 31
0.0
  0
LINE
  8
0
 62
     0
 10
100.294
 20
62.6138
 30
0.0
 11
101.506
 21
63.6171
 31
0.0
  0
LINE
  8
0
 62
     0
 10
101.506
 20
63.6171
 30
0.0
 11
102.514
 21
64.2482
 31
0.0
  0
LINE
  8
0
 62
     0
 10
102.514
 20
64.2482
 30
0.0
 11
103.092
 21
64.4659
 31
0.0
  0
LINE
  8
0
 62
     0
 10
103.092
 20
64.4659
 30
0.0
 11
103.287
 21
64.4659
 31
0.0
  0
LINE
  8
0
 62
     0
 10
103.287
 20
64.4659
 30
0.0
 11
103.367
 21
64.4659
 31
0.0
  0
LINE
  8
0
 62
     0
 10
103.367
 20
64.4659
 30
0.0
 11
103.608
 21
64.4564
 31
0.0
  0
LINE
  8
0
 62
     0
 10
103.608
 20
64.4564
 30
0.0
 11
104.009
 21
64.3805
 31
0.0
  0
LINE
  8
0
 62
     0
 10
104.009
 20
64.3805
 30
0.0
 11
104.422
 21
64.1766
 31
0.0
  0
LINE
  8
0
 62
     0
 10
104.422
 20
64.1766
 30
0.0
 11
104.71
 21
63.8912
 31
0.0
  0
LINE
  8
0
 62
     0
 10
104.71
 20
63.8912
 30
0.0
 11
104.776
 21
63.7783
 31
0.0
  0
LINE
  8
0
 62
     0
 10
104.776
 20
63.7783
 30
0.0
 11
104.787
 21
63.9329
 31
0.0
  0
LINE
  8
0
 62
     0
 10
104.787
 20
63.9329
 30
0.0
 11
104.68
 21
64.4081
 31
0.0
  0
LINE
  8
0
 62
     0
 10
104.68
 20
64.4081
 30
0.0
 11
104.344
 21
65.1411
 31
0.0
  0
LINE
  8
0
 62
     0
 10
104.344
 20
65.1411
 30
0.0
 11
103.82
 21
65.9197
 31
0.0
  0
LINE
  8
0
 62
     0
 10
103.82
 20
65.9197
 30
0.0
 11
103.164
 21
66.6859
 31
0.0
  0
LINE
  8
0
 62
     0
 10
103.164
 20
66.6859
 30
0.0
 11
102.431
 21
67.3834
 31
0.0
  0
LINE
  8
0
 62
     0
 10
102.431
 20
67.3834
 30
0.0
 11
101.674
 21
67.9524
 31
0.0
  0
LINE
  8
0
 62
     0
 10
101.674
 20
67.9524
 30
0.0
 11
100.948
 21
68.3355
 31
0.0
  0
LINE
  8
0
 62
     0
 10
100.948
 20
68.3355
 30
0.0
 11
100.467
 21
68.4759
 31
0.0
  0
LINE
  8
0
 62
     0
 10
100.467
 20
68.4759
 30
0.0
 11
100.307
 21
68.4759
 31
0.0
  0
LINE
  8
0
 62
     0
 10
100.307
 20
68.4759
 30
0.0
 11
100.028
 21
68.4759
 31
0.0
  0
LINE
  8
0
 62
     0
 10
100.028
 20
68.4759
 30
0.0
 11
99.1898
 21
68.2625
 31
0.0
  0
LINE
  8
0
 62
     0
 10
99.1898
 20
68.2625
 30
0.0
 11
97.6147
 21
67.6423
 31
0.0
  0
LINE
  8
0
 62
     0
 10
97.6147
 20
67.6423
 30
0.0
 11
95.6303
 21
66.6461
 31
0.0
  0
LINE
  8
0
 62
     0
 10
95.6303
 20
66.6461
 30
0.0
 11
93.2889
 21
65.3052
 31
0.0
  0
LINE
  8
0
 62
     0
 10
93.2889
 20
65.3052
 30
0.0
 11
90.6406
 21
63.6489
 31
0.0
  0
LINE
  8
0
 62
     0
 10
90.6406
 20
63.6489
 30
0.0
 11
87.7369
 21
61.71
 31
0.0
  0
LINE
  8
0
 62
     0
 10
87.7369
 20
61.71
 30
0.0
 11
84.6282
 21
59.5189
 31
0.0
  0
LINE
  8
0
 62
     0
 10
84.6282
 20
59.5189
 30
0.0
 11
81.3675
 21
57.1059
 31
0.0
  0
LINE
  8
0
 62
     0
 10
81.3675
 20
57.1059
 30
0.0
 11
78.0023
 21
54.5028
 31
0.0
  0
LINE
  8
0
 62
     0
 10
78.0023
 20
54.5028
 30
0.0
 11
74.5864
 21
51.7384
 31
0.0
  0
LINE
  8
0
 62
     0
 10
74.5864
 20
51.7384
 30
0.0
 11
71.1687
 21
48.8474
 31
0.0
  0
LINE
  8
0
 62
     0
 10
71.1687
 20
48.8474
 30
0.0
 11
67.8021
 21
45.8569
 31
0.0
  0
LINE
  8
0
 62
     0
 10
67.8021
 20
45.8569
 30
0.0
 11
64.5365
 21
42.799
 31
0.0
  0
LINE
  8
0
 62
     0
 10
64.5365
 20
42.799
 30
0.0
 11
61.4218
 21
39.7055
 31
0.0
  0
LINE
  8
0
 62
     0
 10
61.4218
 20
39.7055
 30
0.0
 11
58.5114
 21
36.6077
 31
0.0
  0
LINE
  8
0
 62
     0
 10
58.5114
 20
36.6077
 30
0.0
 11
56.4995
 21
34.3173
 31
0.0
  0
LINE
  8
0
 62
     0
 10
56.4995
 20
34.3173
 30
0.0
 11
55.8546
 21
33.5332
 31
0.0
  0
LINE
  8
0
 62
     0
 10
55.8546
 20
33.5332
 30
0.0
 11
56.6431
 21
34.5653
 31
0.0
  0
LINE
  8
0
 62
     0
 10
56.6431
 20
34.5653
 30
0.0
 11
58.9841
 21
37.6823
 31
0.0
  0
LINE
  8
0
 62
     0
 10
58.9841
 20
37.6823
 30
0.0
 11
62.3905
 21
42.3291
 31
0.0
  0
LINE
  8
0
 62
     0
 10
62.3905
 20
42.3291
 30
0.0
 11
65.858
 21
47.2489
 31
0.0
  0
LINE
  8
0
 62
     0
 10
65.858
 20
47.2489
 30
0.0
 11
69.1734
 21
52.2153
 31
0.0
  0
LINE
  8
0
 62
     0
 10
69.1734
 20
52.2153
 30
0.0
 11
72.1237
 21
57.0011
 31
0.0
  0
LINE
  8
0
 62
     0
 10
72.1237
 20
57.0011
 30
0.0
 11
74.4954
 21
61.3805
 31
0.0
  0
LINE
  8
0
 62
     0
 10
74.4954
 20
61.3805
 30
0.0
 11
76.0748
 21
65.1288
 31
0.0
  0
LINE
  8
0
 62
     0
 10
76.0748
 20
65.1288
 30
0.0
 11
76.6491
 21
67.2952
 31
0.0
  0
LINE
  8
0
 62
     0
 10
76.6491
 20
67.2952
 30
0.0
 11
76.6491
 21
68.0173
 31
0.0
  0
LINE
  8
0
 62
     0
 10
76.6491
 20
68.0173
 30
0.0
 11
76.6491
 21
68.804
 31
0.0
  0
LINE
  8
0
 62
     0
 10
76.6491
 20
68.804
 30
0.0
 11
76.1076
 21
71.1634
 31
0.0
  0
LINE
  8
0
 62
     0
 10
76.1076
 20
71.1634
 30
0.0
 11
74.5077
 21
73.503
 31
0.0
  0
LINE
  8
0
 62
     0
 10
74.5077
 20
73.503
 30
0.0
 11
71.888
 21
74.9625
 31
0.0
  0
LINE
  8
0
 62
     0
 10
71.888
 20
74.9625
 30
0.0
 11
69.1857
 21
75.4655
 31
0.0
  0
LINE
  8
0
 62
     0
 10
69.1857
 20
75.4655
 30
0.0
 11
68.2858
 21
75.4655
 31
0.0
  0
LINE
  8
0
 62
     0
 10
68.2858
 20
75.4655
 30
0.0
 11
68.2858
 21
75.4641
 31
0.0
  0
LINE
  8
0
 62
     0
 10
68.2858
 20
75.4641
 30
0.0
 11
67.4522
 21
75.4641
 31
0.0
  0
LINE
  8
0
 62
     0
 10
67.4522
 20
75.4641
 30
0.0
 11
64.9524
 21
75.2147
 31
0.0
  0
LINE
  8
0
 62
     0
 10
64.9524
 20
75.2147
 30
0.0
 11
61.3971
 21
74.4996
 31
0.0
  0
LINE
  8
0
 62
     0
 10
61.3971
 20
74.4996
 30
0.0
 11
57.6792
 21
73.3683
 31
0.0
  0
LINE
  8
0
 62
     0
 10
57.6792
 20
73.3683
 30
0.0
 11
53.8607
 21
71.8742
 31
0.0
  0
LINE
  8
0
 62
     0
 10
53.8607
 20
71.8742
 30
0.0
 11
49.9992
 21
70.0677
 31
0.0
  0
LINE
  8
0
 62
     0
 10
49.9992
 20
70.0677
 30
0.0
 11
46.156
 21
68.0007
 31
0.0
  0
LINE
  8
0
 62
     0
 10
46.156
 20
68.0007
 30
0.0
 11
42.3926
 21
65.7229
 31
0.0
  0
LINE
  8
0
 62
     0
 10
42.3926
 20
65.7229
 30
0.0
 11
38.7696
 21
63.2852
 31
0.0
  0
LINE
  8
0
 62
     0
 10
38.7696
 20
63.2852
 30
0.0
 11
35.3452
 21
60.7399
 31
0.0
  0
LINE
  8
0
 62
     0
 10
35.3452
 20
60.7399
 30
0.0
 11
32.1827
 21
58.1367
 31
0.0
  0
LINE
  8
0
 62
     0
 10
32.1827
 20
58.1367
 30
0.0
 11
29.3398
 21
55.5279
 31
0.0
  0
LINE
  8
0
 62
     0
 10
29.3398
 20
55.5279
 30
0.0
 11
26.8786
 21
52.9664
 31
0.0
  0
LINE
  8
0
 62
     0
 10
26.8786
 20
52.9664
 30
0.0
 11
24.8598
 21
50.4984
 31
0.0
  0
LINE
  8
0
 62
     0
 10
24.8598
 20
50.4984
 30
0.0
 11
23.3426
 21
48.1789
 31
0.0
  0
LINE
  8
0
 62
     0
 10
23.3426
 20
48.1789
 30
0.0
 11
22.3876
 21
46.0583
 31
0.0
  0
LINE
  8
0
 62
     0
 10
22.3876
 20
46.0583
 30
0.0
 11
22.0569
 21
44.6553
 31
0.0
  0
LINE
  8
0
 62
     0
 10
22.0569
 20
44.6553
 30
0.0
 11
22.0569
 21
44.1868
 31
0.0
  0
LINE
  8
0
 62
     0
 10
22.0569
 20
44.1868
 30
0.0
 11
22.0569
 21
43.8838
 31
0.0
  0
LINE
  8
0
 62
     0
 10
22.0569
 20
43.8838
 30
0.0
 11
22.2622
 21
42.9701
 31
0.0
  0
LINE
  8
0
 62
     0
 10
22.2622
 20
42.9701
 30
0.0
 11
22.8506
 21
41.9682
 31
0.0
  0
LINE
  8
0
 62
     0
 10
22.8506
 20
41.9682
 30
0.0
 11
23.7712
 21
41.2873
 31
0.0
  0
LINE
  8
0
 62
     0
 10
23.7712
 20
41.2873
 30
0.0
 11
24.6765
 21
41.0365
 31
0.0
  0
LINE
  8
0
 62
     0
 10
24.6765
 20
41.0365
 30
0.0
 11
24.9783
 21
41.0365
 31
0.0
  0
LINE
  8
0
 62
     0
 10
24.9783
 20
41.0365
 30
0.0
 11
25.1285
 21
41.0365
 31
0.0
  0
LINE
  8
0
 62
     0
 10
25.1285
 20
41.0365
 30
0.0
 11
25.5791
 21
41.0972
 31
0.0
  0
LINE
  8
0
 62
     0
 10
25.5791
 20
41.0972
 30
0.0
 11
26.3095
 21
41.2598
 31
0.0
  0
LINE
  8
0
 62
     0
 10
26.3095
 20
41.2598
 30
0.0
 11
27.1046
 21
41.4997
 31
0.0
  0
LINE
  8
0
 62
     0
 10
27.1046
 20
41.4997
 30
0.0
 11
27.8984
 21
41.789
 31
0.0
  0
LINE
  8
0
 62
     0
 10
27.8984
 20
41.789
 30
0.0
 11
28.6287
 21
42.1033
 31
0.0
  0
LINE
  8
0
 62
     0
 10
28.6287
 20
42.1033
 30
0.0
 11
29.231
 21
42.4145
 31
0.0
  0
LINE
  8
0
 62
     0
 10
29.231
 20
42.4145
 30
0.0
 11
29.6388
 21
42.6985
 31
0.0
  0
LINE
  8
0
 62
     0
 10
29.6388
 20
42.6985
 30
0.0
 11
29.7904
 21
42.8706
 31
0.0
  0
LINE
  8
0
 62
     0
 10
29.7904
 20
42.8706
 30
0.0
 11
29.7904
 21
42.9274
 31
0.0
  0
LINE
  8
0
 62
     0
 10
29.7904
 20
42.9274
 30
0.0
 11
29.6471
 21
42.8847
 31
0.0
  0
LINE
  8
0
 62
     0
 10
29.6471
 20
42.8847
 30
0.0
 11
29.1896
 21
42.7838
 31
0.0
  0
LINE
  8
0
 62
     0
 10
29.1896
 20
42.7838
 30
0.0
 11
28.3862
 21
42.6339
 31
0.0
  0
LINE
  8
0
 62
     0
 10
28.3862
 20
42.6339
 30
0.0
 11
27.5814
 21
42.5168
 31
0.0
  0
LINE
  8
0
 62
     0
 10
27.5814
 20
42.5168
 30
0.0
 11
27.1322
 21
42.4684
 31
0.0
  0
LINE
  8
0
 62
     0
 10
27.1322
 20
42.4684
 30
0.0
 11
26.9834
 21
42.4684
 31
0.0
  0
LINE
  8
0
 62
     0
 10
26.9834
 20
42.4684
 30
0.0
 11
26.7987
 21
42.4684
 31
0.0
  0
LINE
  8
0
 62
     0
 10
26.7987
 20
42.4684
 30
0.0
 11
26.2447
 21
42.7274
 31
0.0
  0
LINE
  8
0
 62
     0
 10
26.2447
 20
42.7274
 30
0.0
 11
25.8947
 21
43.3063
 31
0.0
  0
LINE
  8
0
 62
     0
 10
25.8947
 20
43.3063
 30
0.0
 11
25.8947
 21
43.4993
 31
0.0
  0
LINE
  8
0
 62
     0
 10
25.8947
 20
43.4993
 30
0.0
 11
25.8947
 21
43.7321
 31
0.0
  0
LINE
  8
0
 62
     0
 10
25.8947
 20
43.7321
 30
0.0
 11
26.1869
 21
44.4267
 31
0.0
  0
LINE
  8
0
 62
     0
 10
26.1869
 20
44.4267
 30
0.0
 11
27.0288
 21
45.8061
 31
0.0
  0
LINE
  8
0
 62
     0
 10
27.0288
 20
45.8061
 30
0.0
 11
28.3697
 21
47.5686
 31
0.0
  0
LINE
  8
0
 62
     0
 10
28.3697
 20
47.5686
 30
0.0
 11
30.1584
 21
49.6425
 31
0.0
  0
LINE
  8
0
 62
     0
 10
30.1584
 20
49.6425
 30
0.0
 11
32.3412
 21
51.9575
 31
0.0
  0
LINE
  8
0
 62
     0
 10
32.3412
 20
51.9575
 30
0.0
 11
34.8685
 21
54.4421
 31
0.0
  0
LINE
  8
0
 62
     0
 10
34.8685
 20
54.4421
 30
0.0
 11
37.6865
 21
57.0258
 31
0.0
  0
LINE
  8
0
 62
     0
 10
37.6865
 20
57.0258
 30
0.0
 11
40.7458
 21
59.6374
 31
0.0
  0
LINE
  8
0
 62
     0
 10
40.7458
 20
59.6374
 30
0.0
 11
43.9939
 21
62.2074
 31
0.0
  0
LINE
  8
0
 62
     0
 10
43.9939
 20
62.2074
 30
0.0
 11
47.3784
 21
64.6645
 31
0.0
  0
LINE
  8
0
 62
     0
 10
47.3784
 20
64.6645
 30
0.0
 11
50.8483
 21
66.9368
 31
0.0
  0
LINE
  8
0
 62
     0
 10
50.8483
 20
66.9368
 30
0.0
 11
54.3525
 21
68.9557
 31
0.0
  0
LINE
  8
0
 62
     0
 10
54.3525
 20
68.9557
 30
0.0
 11
57.8376
 21
70.6494
 31
0.0
  0
LINE
  8
0
 62
     0
 10
57.8376
 20
70.6494
 30
0.0
 11
61.2539
 21
71.9459
 31
0.0
  0
LINE
  8
0
 62
     0
 10
61.2539
 20
71.9459
 30
0.0
 11
64.5488
 21
72.7756
 31
0.0
  0
LINE
  8
0
 62
     0
 10
64.5488
 20
72.7756
 30
0.0
 11
66.8898
 21
73.0677
 31
0.0
  0
LINE
  8
0
 62
     0
 10
66.8898
 20
73.0677
 30
0.0
 11
67.6712
 21
73.0677
 31
0.0
  0
LINE
  8
0
 62
     0
 10
67.6712
 20
73.0677
 30
0.0
 11
67.8737
 21
73.0677
 31
0.0
  0
LINE
  8
0
 62
     0
 10
67.8737
 20
73.0677
 30
0.0
 11
68.4858
 21
73.043
 31
0.0
  0
LINE
  8
0
 62
     0
 10
68.4858
 20
73.043
 30
0.0
 11
69.3166
 21
72.9548
 31
0.0
  0
LINE
  8
0
 62
     0
 10
69.3166
 20
72.9548
 30
0.0
 11
70.1241
 21
72.7812
 31
0.0
  0
LINE
  8
0
 62
     0
 10
70.1241
 20
72.7812
 30
0.0
 11
70.8713
 21
72.5029
 31
0.0
  0
LINE
  8
0
 62
     0
 10
70.8713
 20
72.5029
 30
0.0
 11
71.5186
 21
72.0975
 31
0.0
  0
LINE
  8
0
 62
     0
 10
71.5186
 20
72.0975
 30
0.0
 11
72.0288
 21
71.5465
 31
0.0
  0
LINE
  8
0
 62
     0
 10
72.0288
 20
71.5465
 30
0.0
 11
72.3635
 21
70.8258
 31
0.0
  0
LINE
  8
0
 62
     0
 10
72.3635
 20
70.8258
 30
0.0
 11
72.4835
 21
70.1449
 31
0.0
  0
LINE
  8
0
 62
     0
 10
72.4835
 20
70.1449
 30
0.0
 11
72.4835
 21
69.9174
 31
0.0
  0
LINE
  8
0
 62
     0
 10
72.4835
 20
69.9174
 30
0.0
 11
72.4835
 21
69.2408
 31
0.0
  0
LINE
  8
0
 62
     0
 10
72.4835
 20
69.2408
 30
0.0
 11
71.8785
 21
67.2112
 31
0.0
  0
LINE
  8
0
 62
     0
 10
71.8785
 20
67.2112
 30
0.0
 11
70.2151
 21
63.6157
 31
0.0
  0
LINE
  8
0
 62
     0
 10
70.2151
 20
63.6157
 30
0.0
 11
67.7115
 21
59.3136
 31
0.0
  0
LINE
  8
0
 62
     0
 10
67.7115
 20
59.3136
 30
0.0
 11
64.5915
 21
54.489
 31
0.0
  0
LINE
  8
0
 62
     0
 10
64.5915
 20
54.489
 30
0.0
 11
61.0761
 21
49.324
 31
0.0
  0
LINE
  8
0
 62
     0
 10
61.0761
 20
49.324
 30
0.0
 11
57.3885
 21
44.0009
 31
0.0
  0
LINE
  8
0
 62
     0
 10
57.3885
 20
44.0009
 30
0.0
 11
53.7464
 21
38.7036
 31
0.0
  0
LINE
  8
0
 62
     0
 10
53.7464
 20
38.7036
 30
0.0
 11
51.1997
 21
34.8974
 31
0.0
  0
LINE
  8
0
 62
     0
 10
51.1997
 20
34.8974
 30
0.0
 11
50.3756
 21
33.6131
 31
0.0
  0
LINE
  8
0
 62
     0
 10
50.3756
 20
33.6131
 30
0.0
 11
49.9318
 21
33.6834
 31
0.0
  0
LINE
  8
0
 62
     0
 10
49.9318
 20
33.6834
 30
0.0
 11
47.7739
 21
33.8405
 31
0.0
  0
LINE
  8
0
 62
     0
 10
47.7739
 20
33.8405
 30
0.0
 11
45.7577
 21
33.857
 31
0.0
  0
LINE
  8
0
 62
     0
 10
45.7577
 20
33.857
 30
0.0
 11
45.0868
 21
33.857
 31
0.0
  0
LINE
  8
0
 62
     0
 10
45.0868
 20
33.857
 30
0.0
 11
44.129
 21
33.857
 31
0.0
  0
LINE
  8
0
 62
     0
 10
44.129
 20
33.857
 30
0.0
 11
41.2584
 21
33.6655
 31
0.0
  0
LINE
  8
0
 62
     0
 10
41.2584
 20
33.6655
 30
0.0
 11
37.3447
 21
33.1129
 31
0.0
  0
LINE
  8
0
 62
     0
 10
37.3447
 20
33.1129
 30
0.0
 11
33.3968
 21
32.2323
 31
0.0
  0
LINE
  8
0
 62
     0
 10
33.3968
 20
32.2323
 30
0.0
 11
29.4569
 21
31.0569
 31
0.0
  0
LINE
  8
0
 62
     0
 10
29.4569
 20
31.0569
 30
0.0
 11
25.5764
 21
29.6182
 31
0.0
  0
LINE
  8
0
 62
     0
 10
25.5764
 20
29.6182
 30
0.0
 11
21.8006
 21
27.9508
 31
0.0
  0
LINE
  8
0
 62
     0
 10
21.8006
 20
27.9508
 30
0.0
 11
18.1777
 21
26.0876
 31
0.0
  0
LINE
  8
0
 62
     0
 10
18.1777
 20
26.0876
 30
0.0
 11
14.756
 21
24.0605
 31
0.0
  0
LINE
  8
0
 62
     0
 10
14.756
 20
24.0605
 30
0.0
 11
11.581
 21
21.9039
 31
0.0
  0
LINE
  8
0
 62
     0
 10
11.581
 20
21.9039
 30
0.0
 11
8.70232
 21
19.6494
 31
0.0
  0
LINE
  8
0
 62
     0
 10
8.70232
 20
19.6494
 30
0.0
 11
6.16536
 21
17.3302
 31
0.0
  0
LINE
  8
0
 62
     0
 10
6.16536
 20
17.3302
 30
0.0
 11
4.01835
 21
14.9806
 31
0.0
  0
LINE
  8
0
 62
     0
 10
4.01835
 20
14.9806
 30
0.0
 11
2.30821
 21
12.6325
 31
0.0
  0
LINE
  8
0
 62
     0
 10
2.30821
 20
12.6325
 30
0.0
 11
1.08314
 21
10.3188
 31
0.0
  0
LINE
  8
0
 62
     0
 10
1.08314
 20
10.3188
 30
0.0
 11
0.391365
 21
8.07254
 31
0.0
  0
LINE
  8
0
 62
     0
 10
0.391365
 20
8.07254
 30
0.0
 11
0.230132
 21
6.45612
 31
0.0
  0
LINE
  8
0
 62
     0
 10
0.230132
 20
6.45612
 30
0.0
 11
0.279742
 21
5.92695
 31
0.0
  0
LINE
  8
0
 62
     0
 10
0.279742
 20
5.92695
 30
0.0
 11
0.354157
 21
5.23931
 31
0.0
  0
LINE
  8
0
 62
     0
 10
0.354157
 20
5.23931
 30
0.0
 11
1.15617
 21
3.23701
 31
0.0
  0
LINE
  8
0
 62
     0
 10
1.15617
 20
3.23701
 30
0.0
 11
2.95038
 21
1.45934
 31
0.0
  0
LINE
  8
0
 62
     0
 10
2.95038
 20
1.45934
 30
0.0
 11
5.44326
 21
0.497473
 31
0.0
  0
LINE
  8
0
 62
     0
 10
5.44326
 20
0.497473
 30
0.0
 11
7.67292
 21
0.235645
 31
0.0
  0
LINE
  8
0
 62
     0
 10
7.67292
 20
0.235645
 30
0.0
 11
8.41431
 21
0.254937
 31
0.0
  0
LINE
  8
0
 62
     0
 10
8.41431
 20
0.254937
 30
0.0
 11
9.90533
 21
0.283876
 31
0.0
  0
LINE
  8
0
 62
     0
 10
9.90533
 20
0.283876
 30
0.0
 11
14.3647
 21
1.13688
 31
0.0
  0
LINE
  8
0
 62
     0
 10
14.3647
 20
1.13688
 30
0.0
 11
20.7271
 21
3.38722
 31
0.0
  0
LINE
  8
0
 62
     0
 10
20.7271
 20
3.38722
 30
0.0
 11
27.2796
 21
6.73724
 31
0.0
  0
LINE
  8
0
 62
     0
 10
27.2796
 20
6.73724
 30
0.0
 11
33.7978
 21
10.9182
 31
0.0
  0
LINE
  8
0
 62
     0
 10
33.7978
 20
10.9182
 30
0.0
 11
40.0625
 21
15.66
 31
0.0
  0
LINE
  8
0
 62
     0
 10
40.0625
 20
15.66
 30
0.0
 11
45.8488
 21
20.694
 31
0.0
  0
LINE
  8
0
 62
     0
 10
45.8488
 20
20.694
 30
0.0
 11
50.9365
 21
25.75
 31
0.0
  0
LINE
  8
0
 62
     0
 10
50.9365
 20
25.75
 30
0.0
 11
54.1168
 21
29.3136
 31
0.0
  0
LINE
  8
0
 62
     0
 10
54.1168
 20
29.3136
 30
0.0
 11
55.1021
 21
30.5594
 31
0.0
  0
LINE
  8
0
 62
     0
 10
55.1021
 20
30.5594
 30
0.0
 11
55.7223
 21
30.4436
 31
0.0
  0
LINE
  8
0
 62
     0
 10
55.7223
 20
30.4436
 30
0.0
 11
57.5716
 21
30.0206
 31
0.0
  0
LINE
  8
0
 62
     0
 10
57.5716
 20
30.0206
 30
0.0
 11
59.6554
 21
29.4211
 31
0.0
  0
LINE
  8
0
 62
     0
 10
59.6554
 20
29.4211
 30
0.0
 11
61.6095
 21
28.7473
 31
0.0
  0
LINE
  8
0
 62
     0
 10
61.6095
 20
28.7473
 30
0.0
 11
63.1719
 21
28.1726
 31
0.0
  0
LINE
  8
0
 62
     0
 10
63.1719
 20
28.1726
 30
0.0
 11
63.6944
 21
27.9811
 31
0.0
  0
LINE
  8
0
 62
     0
 10
63.6944
 20
27.9811
 30
0.0
 11
63.7081
 21
27.9811
 31
0.0
  0
LINE
  8
0
 62
     0
 10
63.7081
 20
27.9811
 30
0.0
 11
63.7508
 21
28.039
 31
0.0
  0
LINE
  8
0
 62
     0
 10
63.7508
 20
28.039
 30
0.0
 11
63.7508
 21
28.039
 31
0.0
  0
LINE
  8
0
 62
     0
 10
63.7508
 20
28.039
 30
0.0
 11
63.1321
 21
28.5075
 31
0.0
  0
LINE
  8
0
 62
     0
 10
63.1321
 20
28.5075
 30
0.0
 11
59.8759
 21
30.1694
 31
0.0
  0
LINE
  8
0
 62
     0
 10
59.8759
 20
30.1694
 30
0.0
 11
56.4388
 21
31.1878
 31
0.0
  0
LINE
  8
0
 62
     0
 10
56.4388
 20
31.1878
 30
0.0
 11
55.7308
 21
31.3325
 31
0.0
  0
LINE
  8
0
 62
     0
 10
55.7308
 20
31.3325
 30
0.0
 11
56.5256
 21
32.2116
 31
0.0
  0
LINE
  8
0
 62
     0
 10
56.5256
 20
32.2116
 30
0.0
 11
58.976
 21
34.7941
 31
0.0
  0
LINE
  8
0
 62
     0
 10
58.976
 20
34.7941
 30
0.0
 11
62.6953
 21
38.5064
 31
0.0
  0
LINE
  8
0
 62
     0
 10
62.6953
 20
38.5064
 30
0.0
 11
66.8306
 21
42.3817
 31
0.0
  0
LINE
  8
0
 62
     0
 10
66.8306
 20
42.3817
 30
0.0
 11
71.3274
 21
46.3254
 31
0.0
  0
LINE
  8
0
 62
     0
 10
71.3274
 20
46.3254
 30
0.0
 11
76.1312
 21
50.2476
 31
0.0
  0
LINE
  8
0
 62
     0
 10
76.1312
 20
50.2476
 30
0.0
 11
81.1858
 21
54.0561
 31
0.0
  0
LINE
  8
0
 62
     0
 10
81.1858
 20
54.0561
 30
0.0
 11
86.4376
 21
57.6626
 31
0.0
  0
LINE
  8
0
 62
     0
 10
86.4376
 20
57.6626
 30
0.0
 11
90.4586
 21
60.1832
 31
0.0
  0
LINE
  8
0
 62
     0
 10
90.4586
 20
60.1832
 30
0.0
 11
91.8298
 21
60.9713
 31
0.0
  0
LINE
  8
0
 62
     0
 10
91.8298
 20
60.9713
 30
0.0
 11
90.8734
 21
59.9338
 31
0.0
  0
LINE
  8
0
 62
     0
 10
90.8734
 20
59.9338
 30
0.0
 11
88.1793
 21
56.6579
 31
0.0
  0
LINE
  8
0
 62
     0
 10
88.1793
 20
56.6579
 30
0.0
 11
84.3746
 21
51.5056
 31
0.0
  0
LINE
  8
0
 62
     0
 10
84.3746
 20
51.5056
 30
0.0
 11
80.6884
 21
45.8597
 31
0.0
  0
LINE
  8
0
 62
     0
 10
80.6884
 20
45.8597
 30
0.0
 11
78.1636
 21
41.5396
 31
0.0
  0
LINE
  8
0
 62
     0
 10
78.1636
 20
41.5396
 30
0.0
 11
77.3934
 21
40.0625
 31
0.0
  0
LINE
  8
0
 62
     0
 10
77.3934
 20
40.0625
 30
0.0
 11
76.8145
 21
38.9696
 31
0.0
  0
LINE
  8
0
 62
     0
 10
76.8145
 20
38.9696
 30
0.0
 11
75.2408
 21
35.6002
 31
0.0
  0
LINE
  8
0
 62
     0
 10
75.2408
 20
35.6002
 30
0.0
 11
73.5764
 21
31.2484
 31
0.0
  0
LINE
  8
0
 62
     0
 10
73.5764
 20
31.2484
 30
0.0
 11
72.5039
 21
27.1666
 31
0.0
  0
LINE
  8
0
 62
     0
 10
72.5039
 20
27.1666
 30
0.0
 11
72.1237
 21
24.423
 31
0.0
  0
LINE
  8
0
 62
     0
 10
72.1237
 20
24.423
 30
0.0
 11
72.1237
 21
23.5079
 31
0.0
  0
LINE
  8
0
 62
     0
 10
72.1237
 20
23.5079
 30
0.0
 11
72.1237
 21
22.9388
 31
0.0
  0
LINE
  8
0
 62
     0
 10
72.1237
 20
22.9388
 30
0.0
 11
72.3374
 21
21.2287
 31
0.0
  0
LINE
  8
0
 62
     0
 10
72.3374
 20
21.2287
 30
0.0
 11
72.9534
 21
19.3146
 31
0.0
  0
LINE
  8
0
 62
     0
 10
72.9534
 20
19.3146
 30
0.0
 11
73.9359
 21
17.7491
 31
0.0
  0
LINE
  8
0
 62
     0
 10
73.9359
 20
17.7491
 30
0.0
 11
75.245
 21
16.513
 31
0.0
  0
LINE
  8
0
 62
     0
 10
75.245
 20
16.513
 30
0.0
 11
76.8435
 21
15.5842
 31
0.0
  0
LINE
  8
0
 62
     0
 10
76.8435
 20
15.5842
 30
0.0
 11
78.6956
 21
14.9448
 31
0.0
  0
LINE
  8
0
 62
     0
 10
78.6956
 20
14.9448
 30
0.0
 11
80.7628
 21
14.5769
 31
0.0
  0
LINE
  8
0
 62
     0
 10
80.7628
 20
14.5769
 30
0.0
 11
82.4452
 21
14.457
 31
0.0
  0
LINE
  8
0
 62
     0
 10
82.4452
 20
14.457
 30
0.0
 11
83.0076
 21
14.457
 31
0.0
  0
LINE
  8
0
 62
     0
 10
83.0076
 20
14.457
 30
0.0
 11
83.4651
 21
14.457
 31
0.0
  0
LINE
  8
0
 62
     0
 10
83.4651
 20
14.457
 30
0.0
 11
84.6832
 21
14.4997
 31
0.0
  0
LINE
  8
0
 62
     0
 10
84.6832
 20
14.4997
 30
0.0
 11
84.8416
 21
14.5135
 31
0.0
  0
LINE
  8
0
 62
     0
 10
84.8416
 20
14.5135
 30
0.0
 11
85.4343
 21
14.5562
 31
0.0
  0
LINE
  8
0
 62
     0
 10
85.4343
 20
14.5562
 30
0.0
 11
87.1968
 21
14.8966
 31
0.0
  0
LINE
  8
0
 62
     0
 10
87.1968
 20
14.8966
 30
0.0
 11
90.3813
 21
15.8089
 31
0.0
  0
LINE
  8
0
 62
     0
 10
90.3813
 20
15.8089
 30
0.0
 11
94.0816
 21
17.2889
 31
0.0
  0
LINE
  8
0
 62
     0
 10
94.0816
 20
17.2889
 30
0.0
 11
97.0414
 21
18.7978
 31
0.0
  0
LINE
  8
0
 62
     0
 10
97.0414
 20
18.7978
 30
0.0
 11
97.9812
 21
19.378
 31
0.0
  0
LINE
  8
0
 62
     0
 10
97.9812
 20
19.378
 30
0.0
 11
98.4705
 21
19.6812
 31
0.0
  0
LINE
  8
0
 62
     0
 10
98.4705
 20
19.6812
 30
0.0
 11
99.8774
 21
20.6968
 31
0.0
  0
LINE
  8
0
 62
     0
 10
99.8774
 20
20.6968
 30
0.0
 11
101.638
 21
22.2346
 31
0.0
  0
LINE
  8
0
 62
     0
 10
101.638
 20
22.2346
 30
0.0
 11
103.218
 21
23.971
 31
0.0
  0
LINE
  8
0
 62
     0
 10
103.218
 20
23.971
 30
0.0
 11
104.565
 21
25.8878
 31
0.0
  0
LINE
  8
0
 62
     0
 10
104.565
 20
25.8878
 30
0.0
 11
105.635
 21
27.9673
 31
0.0
  0
LINE
  8
0
 62
     0
 10
105.635
 20
27.9673
 30
0.0
 11
106.378
 21
30.1873
 31
0.0
  0
LINE
  8
0
 62
     0
 10
106.378
 20
30.1873
 30
0.0
 11
106.746
 21
32.5327
 31
0.0
  0
LINE
  8
0
 62
     0
 10
106.746
 20
32.5327
 30
0.0
 11
106.758
 21
34.3765
 31
0.0
  0
LINE
  8
0
 62
     0
 10
106.758
 20
34.3765
 30
0.0
 11
106.691
 21
34.9815
 31
0.0
  0
LINE
  8
0
 62
     0
 10
106.691
 20
34.9815
 30
0.0
 11
106.604
 21
35.7434
 31
0.0
  0
LINE
  8
0
 62
     0
 10
106.604
 20
35.7434
 30
0.0
 11
105.849
 21
37.9734
 31
0.0
  0
LINE
  8
0
 62
     0
 10
105.849
 20
37.9734
 30
0.0
 11
104.323
 21
39.9687
 31
0.0
  0
LINE
  8
0
 62
     0
 10
104.323
 20
39.9687
 30
0.0
 11
102.442
 21
40.8852
 31
0.0
  0
LINE
  8
0
 62
     0
 10
102.442
 20
40.8852
 30
0.0
 11
100.946
 21
40.8326
 31
0.0
  0
LINE
  8
0
 62
     0
 10
100.946
 20
40.8326
 30
0.0
 11
100.532
 21
40.6358
 31
0.0
  0
LINE
  8
0
 62
     0
 10
100.532
 20
40.6358
 30
0.0
 11
100.073
 21
40.4192
 31
0.0
  0
LINE
  8
0
 62
     0
 10
100.073
 20
40.4192
 30
0.0
 11
98.9182
 21
39.2963
 31
0.0
  0
LINE
  8
0
 62
     0
 10
98.9182
 20
39.2963
 30
0.0
 11
98.1975
 21
37.5239
 31
0.0
  0
LINE
  8
0
 62
     0
 10
98.1975
 20
37.5239
 30
0.0
 11
98.1936
 21
35.6898
 31
0.0
  0
LINE
  8
0
 62
     0
 10
98.1936
 20
35.6898
 30
0.0
 11
98.527
 21
34.5019
 31
0.0
  0
LINE
  8
0
 62
     0
 10
98.527
 20
34.5019
 30
0.0
 11
98.7309
 21
34.1602
 31
0.0
  0
LINE
  8
0
 62
     0
 10
98.7309
 20
34.1602
 30
0.0
 11
98.3298
 21
34.4413
 31
0.0
  0
LINE
  8
0
 62
     0
 10
98.3298
 20
34.4413
 30
0.0
 11
97.1268
 21
35.282
 31
0.0
  0
LINE
  8
0
 62
     0
 10
97.1268
 20
35.282
 30
0.0
 11
95.7157
 21
36.1654
 31
0.0
  0
LINE
  8
0
 62
     0
 10
95.7157
 20
36.1654
 30
0.0
 11
94.4354
 21
36.7012
 31
0.0
  0
LINE
  8
0
 62
     0
 10
94.4354
 20
36.7012
 30
0.0
 11
93.5193
 21
36.8254
 31
0.0
  0
LINE
  8
0
 62
     0
 10
93.5193
 20
36.8254
 30
0.0
 11
93.2286
 21
36.7785
 31
0.0
  0
LINE
  8
0
 62
     0
 10
93.2286
 20
36.7785
 30
0.0
 11
92.9555
 21
36.7358
 31
0.0
  0
LINE
  8
0
 62
     0
 10
92.9555
 20
36.7358
 30
0.0
 11
92.1826
 21
36.3142
 31
0.0
  0
LINE
  8
0
 62
     0
 10
92.1826
 20
36.3142
 30
0.0
 11
91.6658
 21
35.4005
 31
0.0
  0
LINE
  8
0
 62
     0
 10
91.6658
 20
35.4005
 30
0.0
 11
91.6658
 21
34.1505
 31
0.0
  0
LINE
  8
0
 62
     0
 10
91.6658
 20
34.1505
 30
0.0
 11
92.1755
 21
32.6719
 31
0.0
  0
LINE
  8
0
 62
     0
 10
92.1755
 20
32.6719
 30
0.0
 11
93.1855
 21
31.072
 31
0.0
  0
LINE
  8
0
 62
     0
 10
93.1855
 20
31.072
 30
0.0
 11
94.6863
 21
29.4611
 31
0.0
  0
LINE
  8
0
 62
     0
 10
94.6863
 20
29.4611
 30
0.0
 11
96.6706
 21
27.9466
 31
0.0
  0
LINE
  8
0
 62
     0
 10
96.6706
 20
27.9466
 30
0.0
 11
98.4924
 21
26.9159
 31
0.0
  0
LINE
  8
0
 62
     0
 10
98.4924
 20
26.9159
 30
0.0
 11
99.1291
 21
26.6389
 31
0.0
  0
LINE
  8
0
 62
     0
 10
99.1291
 20
26.6389
 30
0.0
 11
99.3895
 21
26.5314
 31
0.0
  0
LINE
  8
0
 62
     0
 10
99.3895
 20
26.5314
 30
0.0
 11
100.175
 21
26.2048
 31
0.0
  0
LINE
  8
0
 62
     0
 10
100.175
 20
26.2048
 30
0.0
 11
100.701
 21
25.9967
 31
0.0
  0
LINE
  8
0
 62
     0
 10
100.701
 20
25.9967
 30
0.0
 11
101.057
 21
25.8961
 31
0.0
  0
LINE
  8
0
 62
     0
 10
101.057
 20
25.8961
 30
0.0
 11
101.457
 21
25.812
 31
0.0
  0
LINE
  8
0
 62
     0
 10
101.457
 20
25.812
 30
0.0
 11
101.59
 21
25.7831
 31
0.0
  0
LINE
  8
0
 62
     0
 10
44.7904
 20
31.7445
 30
0.0
 11
45.8075
 21
31.7445
 31
0.0
  0
LINE
  8
0
 62
     0
 10
45.8075
 20
31.7445
 30
0.0
 11
48.5429
 21
31.4579
 31
0.0
  0
LINE
  8
0
 62
     0
 10
48.5429
 20
31.4579
 30
0.0
 11
48.8583
 21
31.4
 31
0.0
  0
LINE
  8
0
 62
     0
 10
48.8583
 20
31.4
 30
0.0
 11
47.9048
 21
30.2066
 31
0.0
  0
LINE
  8
0
 62
     0
 10
47.9048
 20
30.2066
 30
0.0
 11
44.8179
 21
26.8056
 31
0.0
  0
LINE
  8
0
 62
     0
 10
44.8179
 20
26.8056
 30
0.0
 11
39.9867
 21
22.1051
 31
0.0
  0
LINE
  8
0
 62
     0
 10
39.9867
 20
22.1051
 30
0.0
 11
34.597
 21
17.519
 31
0.0
  0
LINE
  8
0
 62
     0
 10
34.597
 20
17.519
 30
0.0
 11
28.8864
 21
13.2705
 31
0.0
  0
LINE
  8
0
 62
     0
 10
28.8864
 20
13.2705
 30
0.0
 11
23.0863
 21
9.58014
 31
0.0
  0
LINE
  8
0
 62
     0
 10
23.0863
 20
9.58014
 30
0.0
 11
17.4308
 21
6.66972
 31
0.0
  0
LINE
  8
0
 62
     0
 10
17.4308
 20
6.66972
 30
0.0
 11
12.157
 21
4.76112
 31
0.0
  0
LINE
  8
0
 62
     0
 10
12.157
 20
4.76112
 30
0.0
 11
8.66235
 21
4.07487
 31
0.0
  0
LINE
  8
0
 62
     0
 10
8.66235
 20
4.07487
 30
0.0
 11
7.4979
 21
4.07487
 31
0.0
  0
LINE
  8
0
 62
     0
 10
7.4979
 20
4.07487
 30
0.0
 11
7.11895
 21
4.07487
 31
0.0
  0
LINE
  8
0
 62
     0
 10
7.11895
 20
4.07487
 30
0.0
 11
5.9848
 21
4.26089
 31
0.0
  0
LINE
  8
0
 62
     0
 10
5.9848
 20
4.26089
 30
0.0
 11
4.71978
 21
4.82727
 31
0.0
  0
LINE
  8
0
 62
     0
 10
4.71978
 20
4.82727
 30
0.0
 11
3.84059
 21
5.79191
 31
0.0
  0
LINE
  8
0
 62
     0
 10
3.84059
 20
5.79191
 30
0.0
 11
3.49608
 21
6.82265
 31
0.0
  0
LINE
  8
0
 62
     0
 10
3.49608
 20
6.82265
 30
0.0
 11
3.48782
 21
7.16855
 31
0.0
  0
LINE
  8
0
 62
     0
 10
3.48782
 20
7.16855
 30
0.0
 11
3.47955
 21
7.71839
 31
0.0
  0
LINE
  8
0
 62
     0
 10
3.47955
 20
7.71839
 30
0.0
 11
3.74551
 21
9.37066
 31
0.0
  0
LINE
  8
0
 62
     0
 10
3.74551
 20
9.37066
 30
0.0
 11
4.55306
 21
11.5796
 31
0.0
  0
LINE
  8
0
 62
     0
 10
4.55306
 20
11.5796
 30
0.0
 11
5.8553
 21
13.7763
 31
0.0
  0
LINE
  8
0
 62
     0
 10
5.8553
 20
13.7763
 30
0.0
 11
7.60539
 21
15.9398
 31
0.0
  0
LINE
  8
0
 62
     0
 10
7.60539
 20
15.9398
 30
0.0
 11
9.74824
 21
18.0468
 31
0.0
  0
LINE
  8
0
 62
     0
 10
9.74824
 20
18.0468
 30
0.0
 11
12.2356
 21
20.0808
 31
0.0
  0
LINE
  8
0
 62
     0
 10
12.2356
 20
20.0808
 30
0.0
 11
15.0165
 21
22.0183
 31
0.0
  0
LINE
  8
0
 62
     0
 10
15.0165
 20
22.0183
 30
0.0
 11
18.0385
 21
23.8387
 31
0.0
  0
LINE
  8
0
 62
     0
 10
18.0385
 20
23.8387
 30
0.0
 11
21.2507
 21
25.524
 31
0.0
  0
LINE
  8
0
 62
     0
 10
21.2507
 20
25.524
 30
0.0
 11
24.6021
 21
27.0509
 31
0.0
  0
LINE
  8
0
 62
     0
 10
24.6021
 20
27.0509
 30
0.0
 11
28.0431
 21
28.3986
 31
0.0
  0
LINE
  8
0
 62
     0
 10
28.0431
 20
28.3986
 30
0.0
 11
31.5213
 21
29.5479
 31
0.0
  0
LINE
  8
0
 62
     0
 10
31.5213
 20
29.5479
 30
0.0
 11
34.9856
 21
30.4781
 31
0.0
  0
LINE
  8
0
 62
     0
 10
34.9856
 20
30.4781
 30
0.0
 11
38.3868
 21
31.1685
 31
0.0
  0
LINE
  8
0
 62
     0
 10
38.3868
 20
31.1685
 30
0.0
 11
41.6719
 21
31.597
 31
0.0
  0
LINE
  8
0
 62
     0
 10
41.6719
 20
31.597
 30
0.0
 11
44.0104
 21
31.7445
 31
0.0
  0
LINE
  8
0
 62
     0
 10
44.0104
 20
31.7445
 30
0.0
 11
44.7904
 21
31.7445
 31
0.0
  0
ENDSEC
  0
EOF
